<svg width="945" height="591" viewBox="0 0 945 591" fill="none" xmlns="http://www.w3.org/2000/svg">
<path d="M99.2845 543L366.362 541.618L437.541 541.589H461.12L532.447 541.559L858.324 541.471C858.324 541.471 932.871 446.355 853.242 356.032C770.687 262.387 730.561 338.656 705.18 206.817C641.329 -125.015 9.84499 68.127 175.487 350.505C235.113 452.177 58.0956 398.136 99.2845 543Z" fill="#EBF3FA"/>
<path d="M345.073 475.844L343.626 475.046C342.09 474.189 341.529 472.268 342.356 470.731L349 458.616C349.857 457.079 351.776 456.518 353.312 457.345L355.379 458.468C355.674 458.646 355.793 459 355.615 459.325C355.438 459.621 355.084 459.739 354.759 459.562L352.692 458.439C351.747 457.936 350.566 458.261 350.063 459.207L343.419 471.322C342.917 472.268 343.242 473.45 344.187 473.952L345.634 474.75C346.579 475.253 347.76 474.928 348.262 473.982L352.662 465.944C352.839 465.649 353.194 465.531 353.519 465.708C353.814 465.885 353.932 466.24 353.755 466.565L349.355 474.602C348.557 476.139 346.608 476.701 345.073 475.844Z" fill="black"/>
<path d="M338.901 488.58L336.302 487.161C333.91 485.832 333.083 482.67 334.5 480.099L344.482 461.867C344.659 461.571 345.014 461.453 345.338 461.63C345.663 461.807 345.752 462.162 345.575 462.487L335.593 480.719C334.501 482.699 335.091 485.093 336.893 486.098L339.491 487.516C341.293 488.491 343.626 487.693 344.718 485.713L356.088 464.969C357.181 462.989 356.59 460.596 354.788 459.591C354.493 459.414 354.375 459.059 354.552 458.734C354.729 458.409 355.084 458.321 355.409 458.498C357.801 459.828 358.628 462.989 357.21 465.56L345.841 486.304C344.423 488.875 341.322 489.88 338.901 488.58Z" fill="black"/>
<path opacity="0.6" d="M588.174 408.44H270.565C262.769 408.44 256.42 402.116 256.42 394.286V127.567C256.42 119.766 262.739 113.413 270.565 113.413H588.174C595.97 113.413 602.319 119.737 602.319 127.567V394.315C602.319 402.116 595.97 408.44 588.174 408.44Z" fill="white"/>
<path d="M602.319 146.155H256.42V123.992C256.42 118.171 261.145 113.443 266.962 113.443H591.747C597.565 113.443 602.29 118.171 602.29 123.992V146.155H602.319Z" fill="black"/>
<path d="M274.316 133.477C276.469 133.477 278.214 131.731 278.214 129.577C278.214 127.423 276.469 125.676 274.316 125.676C272.163 125.676 270.418 127.423 270.418 129.577C270.418 131.731 272.163 133.477 274.316 133.477Z" fill="#DDE7FE"/>
<path d="M290.735 133.477C292.888 133.477 294.633 131.731 294.633 129.577C294.633 127.423 292.888 125.676 290.735 125.676C288.582 125.676 286.837 127.423 286.837 129.577C286.837 131.731 288.582 133.477 290.735 133.477Z" fill="#DDE7FE"/>
<path d="M307.155 133.477C309.307 133.477 311.053 131.731 311.053 129.577C311.053 127.423 309.307 125.676 307.155 125.676C305.002 125.676 303.256 127.423 303.256 129.577C303.256 131.731 305.002 133.477 307.155 133.477Z" fill="#DDE7FE"/>
<path d="M381.869 172.129H283.825V270.235H381.869V172.129Z" fill="#FF9700"/>
<path d="M486.527 179.457H408.535C406.498 179.457 404.844 177.802 404.844 175.763C404.844 173.724 406.498 172.07 408.535 172.07H486.527C488.565 172.07 490.219 173.724 490.219 175.763C490.248 177.773 488.565 179.457 486.527 179.457Z" fill="#FF9700"/>
<path d="M579.787 174.463H501.795C499.757 174.463 498.104 172.808 498.104 170.769C498.104 168.73 499.757 167.076 501.795 167.076H579.787C581.825 167.076 583.478 168.73 583.478 170.769C583.508 172.808 581.825 174.463 579.787 174.463Z" fill="#FF9700"/>
<g opacity="0.3">
<path opacity="0.3" d="M501.972 208.002H407.236C405.907 208.002 404.844 206.939 404.844 205.609C404.844 204.279 405.907 203.215 407.236 203.215H501.972C503.301 203.215 504.364 204.279 504.364 205.609C504.364 206.909 503.301 208.002 501.972 208.002Z" fill="#E79433"/>
<path opacity="0.3" d="M537.971 208.002H512.958C511.629 208.002 510.566 206.939 510.566 205.609C510.566 204.279 511.629 203.215 512.958 203.215H537.971C539.3 203.215 540.363 204.279 540.363 205.609C540.392 206.909 539.3 208.002 537.971 208.002Z" fill="#E79433"/>
<path opacity="0.3" d="M442.969 222.896H407.236C405.907 222.896 404.844 221.832 404.844 220.502C404.844 219.172 405.907 218.109 407.236 218.109H442.969C444.298 218.109 445.361 219.172 445.361 220.502C445.39 221.832 444.298 222.896 442.969 222.896Z" fill="#E79433"/>
<path opacity="0.3" d="M500.88 222.896H451.917C450.588 222.896 449.525 221.832 449.525 220.502C449.525 219.172 450.588 218.109 451.917 218.109H500.88C502.208 218.109 503.272 219.172 503.272 220.502C503.272 221.832 502.208 222.896 500.88 222.896Z" fill="#E79433"/>
<path opacity="0.3" d="M537.971 222.896H512.958C511.629 222.896 510.566 221.832 510.566 220.502C510.566 219.172 511.629 218.109 512.958 218.109H537.971C539.3 218.109 540.363 219.172 540.363 220.502C540.392 221.832 539.3 222.896 537.971 222.896Z" fill="#E79433"/>
<path opacity="0.3" d="M455.726 235.779H407.236C405.907 235.779 404.844 234.716 404.844 233.386C404.844 232.056 405.907 230.992 407.236 230.992H455.726C457.055 230.992 458.118 232.056 458.118 233.386C458.148 234.716 457.055 235.779 455.726 235.779Z" fill="#E79433"/>
<path opacity="0.3" d="M548.336 235.779H469.015C467.686 235.779 466.623 234.716 466.623 233.386C466.623 232.056 467.686 230.992 469.015 230.992H548.336C549.665 230.992 550.728 232.056 550.728 233.386C550.758 234.716 549.665 235.779 548.336 235.779Z" fill="#E79433"/>
</g>
<g opacity="0.3">
<path opacity="0.3" d="M501.972 255.342H407.236C405.907 255.342 404.844 254.278 404.844 252.948C404.844 251.618 405.907 250.554 407.236 250.554H501.972C503.301 250.554 504.364 251.618 504.364 252.948C504.364 254.248 503.301 255.342 501.972 255.342Z" fill="#E79433"/>
<path opacity="0.3" d="M537.971 255.342H512.958C511.629 255.342 510.566 254.278 510.566 252.948C510.566 251.618 511.629 250.554 512.958 250.554H537.971C539.3 250.554 540.363 251.618 540.363 252.948C540.392 254.248 539.3 255.342 537.971 255.342Z" fill="#E79433"/>
<path opacity="0.3" d="M442.969 270.235H407.236C405.907 270.235 404.844 269.171 404.844 267.841C404.844 266.511 405.907 265.448 407.236 265.448H442.969C444.298 265.448 445.361 266.511 445.361 267.841C445.39 269.171 444.298 270.235 442.969 270.235Z" fill="#E79433"/>
<path opacity="0.3" d="M500.88 270.235H451.917C450.588 270.235 449.525 269.171 449.525 267.841C449.525 266.511 450.588 265.448 451.917 265.448H500.88C502.208 265.448 503.272 266.511 503.272 267.841C503.272 269.171 502.208 270.235 500.88 270.235Z" fill="#E79433"/>
</g>
<path d="M378.975 296.002H348.853C347.583 296.002 346.579 294.968 346.579 293.727C346.579 292.456 347.613 291.452 348.853 291.452H378.975C380.245 291.452 381.249 292.486 381.249 293.727C381.249 294.968 380.215 296.002 378.975 296.002Z" fill="#FF9700"/>
<path d="M368.816 304.04H348.823C347.553 304.04 346.549 303.006 346.549 301.764C346.549 300.494 347.583 299.489 348.823 299.489H368.816C370.086 299.489 371.09 300.523 371.09 301.764C371.09 303.035 370.056 304.04 368.816 304.04Z" fill="#E79433"/>
<path d="M378.975 350.699H348.853C347.583 350.699 346.579 349.665 346.579 348.424C346.579 347.153 347.613 346.149 348.853 346.149H378.975C380.245 346.149 381.249 347.183 381.249 348.424C381.249 349.665 380.215 350.699 378.975 350.699Z" fill="#FF9700"/>
<path d="M368.816 358.737H348.823C347.553 358.737 346.549 357.703 346.549 356.462C346.549 355.191 347.583 354.186 348.823 354.186H368.816C370.086 354.186 371.09 355.22 371.09 356.462C371.09 357.732 370.056 358.737 368.816 358.737Z" fill="#E79433"/>
<path d="M605.804 140.126C605.804 140.126 607.222 157.147 603.353 156.881C599.484 156.615 591.836 149.139 576.391 150.35C560.946 151.562 542.076 154.96 530.677 134.748C519.278 114.536 545.265 108.714 545.265 108.714L605.804 140.126Z" fill="#E17900"/>
<path d="M572.995 138.885L650.751 145.297L652.375 141.84L577.808 86.7588L502.504 77.9529L501.057 81.0556L572.995 138.885Z" fill="#FF9700"/>
<path d="M625.915 197.483C625.442 195.887 623.789 194.941 622.194 195.414C620.599 195.887 619.654 197.542 620.127 199.137C620.57 200.733 622.253 201.679 623.848 201.206C625.442 200.763 626.358 199.108 625.915 197.483Z" fill="#FFAB32"/>
<path d="M623.316 198.34C626.446 198.103 627.155 226.501 627.155 226.501C627.155 226.501 625.118 227.446 624.113 227.239C623.109 227.003 622.607 223.191 622.607 223.191L622.519 227.21C622.519 227.21 619.093 227.328 617.912 226.501C617.912 226.471 618.384 198.724 623.316 198.34Z" fill="#FFAB32"/>
<path d="M624.35 198.96L623.789 136.935L623.375 136.639L582.74 106.557L581.293 108.537L621.515 138.294L622.43 198.871L624.35 198.96Z" fill="#FFAB32"/>
<path d="M676.738 491.682H505.9V426.731H677.299C691.149 426.731 702.371 437.96 702.371 451.819V466.003C702.401 480.187 690.913 491.682 676.738 491.682Z" fill="#FCECDB"/>
<path d="M848.935 453.445V463.226C848.935 468.456 847.635 473.332 845.332 477.528C840.725 485.979 832.161 491.682 822.357 491.682H500.643C498.517 491.682 496.804 489.821 496.804 487.545V486.068C496.804 483.793 498.517 481.931 500.643 481.931H696.76C697.823 480.572 698.739 479.094 699.507 477.498C701.338 473.805 702.371 469.579 702.371 465.087V452.676C702.371 450.401 702.105 448.185 701.574 446.057C700.688 442.482 699.123 439.202 697.026 436.424H500.614C498.488 436.424 496.775 434.562 496.775 432.287V430.839C496.775 428.564 498.488 426.702 500.614 426.702H823.951C835.35 426.702 844.948 434.887 847.931 446.057C848.61 448.421 848.935 450.903 848.935 453.445Z" fill="#FF9700"/>
<path d="M847.99 446.087H701.604C700.718 442.512 699.153 439.232 697.056 436.454H500.644C498.517 436.454 496.805 434.592 496.805 432.317V430.869C496.805 428.594 498.517 426.732 500.644 426.732H823.981C835.38 426.732 845.008 434.917 847.99 446.087Z" fill="#FF9700"/>
<path d="M505.9 459.207L529.732 460.3L505.9 460.951V459.207Z" fill="#F4D2B8"/>
<path d="M505.9 469.402L562.57 470.495L505.9 471.145V469.402Z" fill="#F4D2B8"/>
<path d="M480.946 542.065H648.654V491.535H479.469C466.919 491.535 456.73 501.73 456.73 514.288V517.805C456.73 531.191 467.568 542.065 480.946 542.065Z" fill="black"/>
<path d="M640.562 542.065H831.689V491.535H640.031C627.244 491.535 616.908 501.907 616.908 514.672V518.366C616.908 531.457 627.51 542.065 640.562 542.065Z" fill="#FCECDB"/>
<path d="M604.298 542.065H838.156C840.105 542.065 841.67 540.499 841.67 538.549V538.017C841.67 536.067 840.105 534.501 838.156 534.501H604.298C602.349 534.501 600.784 536.067 600.784 538.017V538.549C600.784 540.47 602.349 542.065 604.298 542.065Z" fill="black"/>
<path d="M604.298 499.1H838.156C840.105 499.1 841.67 497.533 841.67 495.583V495.051C841.67 493.101 840.105 491.535 838.156 491.535H604.298C602.349 491.535 600.784 493.101 600.784 495.051V495.583C600.784 497.533 602.349 499.1 604.298 499.1Z" fill="black"/>
<path d="M831.689 516.8L805.671 517.657L831.689 518.159V516.8Z" fill="#F4D2B8"/>
<path d="M831.689 505.187L769.762 506.014L831.689 506.546V505.187Z" fill="#F4D2B8"/>
<path d="M770.382 505.867C770.382 505.867 773.039 508.024 773.925 511.599C774.073 512.22 774.191 512.899 774.191 513.609C774.339 518.337 774.191 529.063 774.191 529.063L782.017 523.685L789.843 529.063V514.525C789.843 511.777 789.164 509.088 787.923 507.344C787.333 506.487 786.594 505.867 785.767 505.867H770.382Z" fill="#FF9700"/>
<path d="M770.382 505.867C770.382 505.867 773.039 508.024 773.925 511.599L789.636 511.806C789.636 511.806 789.016 506.694 785.767 505.867H770.382V505.867Z" fill="#BF7100"/>
<path d="M627.864 426.85H462.814V352.62H628.484C643.132 352.62 655.003 364.499 655.003 379.156V399.693C654.974 414.705 642.836 426.85 627.864 426.85Z" fill="#FCECDB"/>
<path d="M655.092 381.432V397.418C655.062 404.244 651.902 410.154 647.236 413.316C644.962 414.882 642.305 415.769 639.499 415.769H457.734C455.608 415.769 453.866 417.837 453.866 420.379V422.27C453.866 424.811 455.579 426.88 457.734 426.88H771.711C780.718 426.88 788.691 421.531 793.505 413.346C796.546 408.174 798.318 401.91 798.318 395.113V382.496C798.318 377.856 797.432 373.453 795.838 369.523C791.792 359.535 783.257 352.65 773.335 352.65H457.734C455.608 352.65 453.866 354.719 453.866 357.26V359.151C453.866 361.692 455.579 363.761 457.734 363.761H640.031C644.401 363.761 648.329 365.977 651.075 369.523C653.556 372.655 655.062 376.822 655.092 381.432Z" fill="#BF7100"/>
<path d="M453.895 420.378V422.269C453.895 424.811 455.608 426.879 457.764 426.879H771.74C780.747 426.879 788.721 421.531 793.534 413.345H647.266C644.992 414.911 642.334 415.798 639.529 415.798H457.734C455.608 415.768 453.895 417.837 453.895 420.378Z" fill="#BF7100"/>
<path d="M462.814 389.765L486.114 391.006L462.814 391.744V389.765Z" fill="#F4D2B8"/>
<path d="M462.814 372.685L518.244 373.926L462.814 374.664V372.685Z" fill="#F4D2B8"/>
<path d="M517.653 373.66C517.653 373.66 513.991 376.024 512.781 379.895C512.574 380.574 512.426 381.284 512.397 382.052C512.19 387.194 512.397 398.836 512.397 398.836L501.588 393.015L490.809 398.836V383.057C490.809 380.072 491.725 377.176 493.438 375.285C494.265 374.369 495.269 373.66 496.42 373.66H517.653V373.66Z" fill="#FF9700"/>
<path d="M517.653 373.66C517.653 373.66 513.991 376.024 512.781 379.895L491.134 380.131C491.134 380.131 491.991 374.605 496.45 373.689H517.653V373.66Z" fill="#E17900"/>
<path d="M241.772 420.29C241.772 420.29 275.615 435.035 281.758 434.769C287.9 434.503 325.73 423.245 325.73 423.245L324.755 429.746C324.755 429.746 295.549 446.56 285.331 447.505C275.29 448.451 240.916 438.492 237.579 436.365C234.301 434.296 232.116 422.417 241.772 420.29Z" fill="#ED985F"/>
<path d="M236.693 366.036C236.693 366.036 224.201 363.672 218 368.193C206.748 376.408 206.128 404.776 201.905 409.002C197.682 413.227 187.523 411.425 186.608 433.292C185.692 455.159 190.654 456.991 184.747 466.742C178.841 476.494 187.258 486.275 187.258 486.275C187.258 486.275 183.832 480.897 185.279 476.996C185.279 476.996 186.697 485.566 192.16 487.604C197.623 489.614 198.42 491.091 199.277 494.046C199.277 494.046 245.759 470.2 245.818 453.297C245.877 436.394 254.973 419.64 250.514 412.311C250.514 412.311 252.492 415.443 252.758 418.93C252.758 418.93 255.445 413.789 250.779 409.002C246.143 404.214 256.243 394.315 254.737 382.85C253.703 375.019 248.181 366.39 236.693 366.036Z" fill="#233862"/>
<path d="M245.877 436.394C242.894 438.463 239.174 440.147 234.508 441.241C216.966 445.289 210.262 430.455 207.723 420.29C210.115 418.93 212.359 418.605 213.659 418.457C214.928 418.31 216.257 418.221 217.35 418.162C219.329 416.655 222.252 410.479 222.902 400.875L223.729 401.082L237.549 404.864C237.549 404.864 236.929 409.267 236.604 413.404C236.368 416.655 236.339 419.758 236.929 420.526C238.022 420.762 238.642 420.91 238.642 420.91C238.878 421.265 242.894 427.884 245.877 436.394Z" fill="#FFB27D"/>
<path d="M237.579 404.894C237.579 404.894 236.929 409.297 236.634 413.434C228.808 412.636 225.176 405.19 223.758 401.112L237.579 404.894Z" fill="#ED985F"/>
<path d="M239.912 409.031C239.912 409.031 221.337 407.997 222.134 396.443C222.961 384.859 221.1 376.94 233.002 377.117C244.903 377.294 246.881 381.875 247.561 385.775C248.24 389.705 244.755 409.002 239.912 409.031Z" fill="#FFB27D"/>
<path d="M247.472 379.304C244.844 375.61 242.629 376.231 241.329 377.176C231.584 370.882 224.467 378.654 224.467 378.654C222.636 386.869 216.316 391.183 216.316 391.183C216.316 391.183 219.535 393.517 227.479 392.069C229.901 391.626 232.145 390.09 234.094 388.169C230.55 393.222 226.003 396.738 226.003 396.738C235.63 393.104 240.296 380.397 240.768 379.067C241.831 380.161 243.899 382.525 244.43 384.741C245.139 387.755 248.21 392.454 250.012 392.394C250.012 392.394 251.4 384.83 247.472 379.304Z" fill="#233862"/>
<path d="M202.437 474.218C200.753 465.649 195.29 431.341 200.753 420.319C202.732 416.359 210.44 416.005 218.886 416.359C221.514 418.073 231.555 424.486 235.659 423.688C235.689 423.688 235.777 423.658 235.896 423.629C237.845 423.156 238.583 421.767 236.959 420.615C236.959 420.615 241.152 420.201 246.35 421.176C249.303 421.738 257.217 425.845 257.217 425.845C257.217 425.845 253.23 433.055 247.354 435.537C248.358 444.491 246.852 448.451 237.579 469.136C229.724 486.629 238.642 502.38 238.642 502.38C238.642 502.38 192.426 539.553 192.189 520.612C191.983 506.339 204.592 485.181 202.437 474.218Z" fill="#FF9700"/>
<path d="M240.916 542.774C243.426 542.479 245.7 541.12 247.088 539.022C247.324 538.696 247.56 538.342 247.797 537.958C253.053 529.979 255.091 505.6 266.933 479.596C269.827 473.273 280.163 472.12 282.968 464.969C282.968 464.969 289.908 441.772 269.679 441.093C249.45 440.413 215.519 505.6 214.958 512.456C214.485 519.075 201.61 547.207 240.916 542.774Z" fill="black"/>
<path d="M321.3 542.242H292.507C292.507 542.242 291.444 537.662 293.334 534.53C295.017 531.752 294.367 530.186 293.127 527.911C294.427 528.443 296.11 528.945 297.97 528.827C299.417 528.738 300.923 528.088 302.252 527.32C303.493 528.738 308.808 534.737 310.462 535.948C312.352 537.278 320.739 536.776 321.3 542.242Z" fill="#3E3D4D"/>
<path d="M283.648 447.801C285.39 460.803 292.153 501.848 304.083 521.883C307.922 528.324 294.397 531.959 294.308 531.93C292.477 531.457 289.465 528.561 288.077 527.29C278.391 518.543 258.694 493.78 258.694 473.952C258.694 464.26 258.517 445.791 265.545 441.093C269.886 438.197 282.968 442.629 283.648 447.801Z" fill="black"/>
<path d="M223.758 542.243C223.758 542.243 224.821 540.765 226.682 537.928C228.897 534.56 231.348 527.97 234.33 519.489C237.461 510.595 241.152 499.661 245.789 488.284C247.206 484.768 248.742 481.222 250.336 477.676C253.23 471.352 261.145 472.209 263.95 465.058C263.95 465.058 274.965 440.266 254.737 439.586C234.508 438.906 196.058 505.926 193.873 512.427C191.451 519.548 179.639 549.039 223.758 542.243Z" fill="black"/>
<path d="M300.185 542.242H271.392C271.392 542.242 270.329 537.662 272.219 534.53C273.902 531.752 273.253 530.186 272.012 527.911C273.312 528.443 274.995 528.945 276.855 528.827C278.302 528.738 279.809 528.088 281.137 527.32C282.378 528.738 287.693 534.737 289.347 535.948C291.208 537.278 299.595 536.776 300.185 542.242Z" fill="#3E3D4D"/>
<path d="M234.301 519.519C237.431 510.624 241.123 499.691 245.759 488.314C244.548 479.685 241.95 472.15 237.549 469.106C237.579 469.106 226.918 502.084 234.301 519.519Z" fill="black"/>
<path d="M266.844 446.855C268.587 459.857 271.008 501.818 282.968 521.853C286.808 528.295 273.282 531.929 273.194 531.9C271.363 531.427 268.35 528.531 266.963 527.261C257.276 518.514 237.579 493.751 237.579 473.923C237.579 464.23 248.919 446.53 255.977 441.831C260.288 438.965 266.165 441.713 266.844 446.855Z" fill="black"/>
<path d="M243.397 402.382C243.397 402.382 241.654 401.673 236.693 402.087C236.693 402.087 236.959 404.008 240.591 404.214C242.658 404.303 243.397 402.382 243.397 402.382Z" fill="white"/>
<path d="M329.332 409.622L323.367 398.836L310.462 434.887L318.081 443.073L329.332 409.622Z" fill="#163560"/>
<path d="M298.177 415.946L286.158 450.253L318.081 443.073L329.332 409.622L298.177 415.946Z" fill="black"/>
<path d="M286.807 448.51L286.246 447.535L297.616 415.059L298.177 415.946L286.807 448.51Z" fill="#EFDECE"/>
<path d="M297.616 415.059L327.856 409.179L329.332 409.622L298.177 415.946L297.616 415.059Z" fill="#FCECDB"/>
<path d="M329.332 409.622L322.895 399.368L318.76 410.952L327.856 409.179L329.332 409.622Z" fill="#EFDECE"/>
<path d="M307.391 420.91C306.357 420.703 304.113 419.876 301.868 419.255C302.548 418.723 303.286 418.103 303.493 417.423C303.906 416.153 304.172 415.739 302.813 416.153C301.485 416.566 296.789 418.694 296.789 418.694C294.131 419.462 291.68 423.245 291.68 423.245C291.68 423.245 258.694 434.858 254.737 435.035C248.594 435.331 207.723 420.29 207.723 420.29C198.066 422.417 200.251 434.267 203.559 436.394C206.866 438.522 236.28 449.19 253.703 449.396C262.533 449.485 294.633 428.859 294.633 428.859C294.633 428.859 298.384 427.145 301.337 427.677C304.29 428.209 311.112 427.677 312.588 425.254C314.094 422.831 309.133 421.235 307.391 420.91Z" fill="#FFB27D"/>
<path d="M228.779 427.736C228.779 427.736 225.117 439.32 212.566 441.95C212.566 441.95 191.835 435.567 202.171 421.442C202.171 421.413 212.359 413.818 228.779 427.736Z" fill="#FF9700"/>
<path d="M328.801 421.767C328.801 421.442 328.771 421.147 328.683 420.821C328.683 420.821 325.73 416.153 324.755 415.946C321.802 415.355 321.802 419.255 322.422 421.767C322.865 423.511 323.958 425.195 324.873 426.081L324.755 429.746C329.746 427.027 328.801 421.767 328.801 421.767Z" fill="#FFB27D"/>
<path d="M649.126 413.848C654.56 423.451 661.441 427.175 661.441 427.175L690.175 427.381C690.145 427.381 644.992 406.519 649.126 413.848Z" fill="#233862"/>
<path d="M670.684 487.959C671.423 488.816 671.511 489.791 671.127 490.796C670.419 492.687 668.145 494.785 665.516 496.883C665.192 497.149 664.867 497.385 664.63 497.622C664.571 497.681 664.483 497.74 664.424 497.799C664.365 497.858 664.306 497.888 664.276 497.947C661.795 500.193 662.74 500.725 658.281 505.275C653.231 510.476 649.776 510.535 648.772 510.062C647.945 509.649 649.658 506.901 651.548 503.798C651.637 503.65 651.725 503.502 651.814 503.355C652.08 502.941 652.316 502.527 652.582 502.113C654.797 498.39 654.265 496.617 653.763 491.032C653.379 486.482 646.882 465.649 646.882 465.649L656.509 464.053C656.509 464.053 659.285 480.631 662.475 483.231C664.187 484.59 666.077 484.62 667.731 485.654C667.849 485.713 667.967 485.802 668.086 485.861C668.972 486.452 669.917 487.102 670.684 487.959Z" fill="#FFB27D"/>
<path d="M670.684 487.959C671.423 488.816 671.511 489.791 671.127 490.796C670.271 492.687 668.056 494.785 665.487 496.854C665.162 497.12 664.867 497.386 664.601 497.622C664.542 497.681 664.453 497.74 664.394 497.799C664.335 497.858 664.276 497.888 664.247 497.947C661.766 500.193 662.711 500.725 658.252 505.275C653.202 510.476 649.747 510.535 648.743 510.063C647.916 509.649 649.629 506.901 651.519 503.798C652.493 503.443 657.041 501.641 660.526 497.267C663.567 493.426 665.634 488.491 667.702 485.625C667.82 485.684 667.938 485.772 668.056 485.832C668.972 486.452 669.917 487.102 670.684 487.959Z" fill="#233862"/>
<path d="M593.106 481.399C592.486 484.354 588.263 483.852 583.538 482.64C578.813 481.458 579.935 482.847 573.202 482.049C566.468 481.251 564.46 478.74 564.254 477.735C564.076 476.848 567.413 476.553 570.987 476.169C571.43 476.11 571.873 476.08 572.345 476.021C576.391 475.548 579.344 472.977 583.036 470.85C586.52 468.84 591.747 460.655 591.747 460.655L600.991 461.453C600.991 461.453 596.088 468.781 594.198 471.973C593.076 473.834 593.135 476.346 593.253 478.267C593.253 479.301 593.342 480.365 593.106 481.399Z" fill="#FFB27D"/>
<path d="M583.538 482.67C578.813 481.488 579.935 482.876 573.202 482.079C566.468 481.281 564.46 478.769 564.254 477.764C564.076 476.878 567.413 476.582 570.987 476.198L571.016 476.257C571.016 476.257 575.033 479.153 580.643 479.33C585.221 479.478 590.064 478.208 593.224 478.267C593.283 479.301 593.342 480.394 593.135 481.428C592.486 484.383 588.263 483.852 583.538 482.67Z" fill="#233862"/>
<path d="M628.927 422.565L637.403 445.88L648.447 476.316C648.447 476.316 651.489 476.641 654.442 475.814C657.129 475.046 660.26 473.036 660.26 473.036C660.26 473.036 657.366 440.443 651.666 421.678C650.19 416.862 648.565 412.961 646.734 410.774C637.727 399.989 628.927 422.565 628.927 422.565Z" fill="black"/>
<path d="M637.964 385.716C643.634 383.943 659.758 386.396 675.911 389.676L679.337 384.091L714.361 381.609C714.361 381.609 725.73 407.317 719.293 423.599C718.348 425.993 716.044 426.997 712.884 427.027C712.884 427.027 692.006 427.382 685.243 427.352C667.849 427.234 648.506 415.118 645.996 414.586C641.891 413.729 640.178 421.944 636.015 430.573C631.851 439.202 597.063 468.574 597.063 468.574C597.063 468.574 591.747 468.604 589.562 467.747C587.199 466.831 586.343 465.678 586.343 465.678C586.343 465.678 625.177 389.735 637.964 385.716Z" fill="black"/>
<path d="M679.898 335.865C692.301 342.809 717.491 357.23 717.639 357.141C717.639 357.141 726.912 360.717 732.198 357.23C741.028 351.468 745.841 335.777 729.865 322.124C721.891 315.328 716.221 313.644 715.424 302.858C715.011 297.007 707.155 277.681 693.866 279.366C692.744 279.513 691.651 279.602 690.529 279.572C688.994 279.513 686.424 279.72 683.796 281.257C676.236 285.719 661.234 333.087 679.898 335.865Z" fill="#233862"/>
<path d="M690.382 330.103C690.323 330.132 696.495 332.29 700.658 330.487C704.557 328.803 707.569 322.42 707.51 322.39C705.738 322.302 703.818 320.736 702.371 310.57L701.603 310.836L688.905 315.298C688.905 315.298 689.791 319.376 690.352 323.247C690.825 326.527 691.061 329.66 690.382 330.103Z" fill="#FFB27D"/>
<path d="M688.905 315.328C688.905 315.328 689.437 318.194 690.204 322.272C697.499 321.001 700.57 314.796 701.603 310.866L688.905 315.328Z" fill="#ED975D"/>
<path d="M686.986 319.347C686.986 319.347 704.35 317.131 702.814 306.345C701.279 295.559 702.489 287.994 691.327 288.94C680.193 289.885 678.628 294.318 678.244 298.041C677.89 301.794 682.408 319.642 686.986 319.347Z" fill="#FFB27D"/>
<path d="M678.923 292.161C678.923 292.161 689.968 301.824 697.499 302.651C705.059 303.478 707.923 301.085 707.923 301.085C707.923 301.085 703.493 297.362 700.865 291.363C700.097 289.59 698.414 288.378 696.524 288.201C691.12 287.669 680.902 287.374 678.923 292.161Z" fill="#233862"/>
<path d="M685.863 291.333C685.863 291.333 682.113 294.909 680.932 297.568C679.78 300.139 679.396 306.286 680.282 308.738C680.282 308.738 674.582 297.45 677.89 291.983C681.404 286.192 685.863 291.333 685.863 291.333Z" fill="#233862"/>
<path d="M675.586 355.575C675.852 390.71 675.527 383.352 679.337 386.721C680.252 387.519 682.851 388.021 686.277 388.287C697.026 389.085 715.956 387.43 716.694 385.45C719.234 378.594 717.491 376.437 719.647 365.888C719.883 364.765 720.149 363.553 720.474 362.224C722.246 354.984 723.959 352.531 717.905 340.859C712.412 330.28 706.712 321.681 706.181 321.977C691.445 330.576 690.323 323.247 690.323 323.247C690.323 323.247 675.468 338.436 675.586 355.575Z" fill="#FF9700"/>
<path d="M637.373 445.88L648.418 476.316C648.418 476.316 651.459 476.641 654.413 475.814C657.1 475.046 660.23 473.036 660.23 473.036C660.23 473.036 657.336 440.443 651.637 421.678L637.373 445.88Z" fill="black"/>
<path d="M690.352 323.277C690.352 323.277 675.262 325.73 673.431 332.231C671.6 338.732 660.909 376.851 660.909 376.851C660.909 376.851 668.558 378.269 672.131 374.753C675.705 371.236 684.682 341.952 684.682 341.952L690.352 323.277Z" fill="#FF9700"/>
<path d="M686.306 388.257C697.056 389.055 715.985 387.4 716.723 385.421C719.263 378.565 717.521 376.408 719.677 365.858L714.597 351.202C714.597 351.202 715.335 367.484 710.522 371.739C705.708 375.994 690.795 379.865 688.462 383.441C687.281 385.184 686.513 386.898 686.306 388.257Z" fill="#FF9700"/>
<path d="M698.68 381.52C698.68 381.52 688.078 379.067 686.365 380.013C684.653 380.959 680.43 384.357 679.898 385.539C679.366 386.721 683.708 384.652 685.125 384.298C686.04 384.061 688.433 384.918 689.643 385.332C694.634 387.046 697.735 386.189 697.735 386.189L698.68 381.52Z" fill="#FFB27D"/>
<path d="M706.21 322.006C706.21 322.006 720.474 322.981 725.347 329.896C732.227 339.648 745.723 381.077 737.779 386.514C728.831 392.66 697.292 387.844 697.292 387.844C697.292 387.844 696.288 382.909 697.764 380.545C699.241 378.181 723.043 374.517 724.136 373.423C725.228 372.33 710.581 351.911 710.611 348.631C710.611 345.351 706.21 322.006 706.21 322.006Z" fill="#FF9700"/>
<path d="M685.834 382.938C685.834 382.938 683.589 385.805 682.851 386.13C682.113 386.455 681.64 386.366 681.64 386.366L683.146 383.677L685.834 382.938Z" fill="#FFB27D"/>
<path d="M686.365 379.983L679.868 383.086C679.868 383.086 680.134 383.529 680.932 383.5C681.729 383.47 683.737 382.761 683.737 382.761L686.365 379.983Z" fill="#FFB27D"/>
<path d="M684.239 390.769L633.061 390.415L617.941 352L669.031 352.354L684.239 390.769Z" fill="#FF9700"/>
<path d="M632.471 388.907L700.038 389.41V390.887L633.061 390.414L632.471 388.907Z" fill="#FF9700"/>
<path d="M646.114 371.355C645.73 369.995 646.528 368.932 647.857 368.932C649.215 368.932 650.603 370.055 650.987 371.384C651.371 372.744 650.573 373.807 649.245 373.807C647.916 373.807 646.498 372.714 646.114 371.355Z" fill="white"/>
<path d="M373.231 511.633L373.225 542.572L528.707 542.603L528.713 511.664L373.231 511.633Z" fill="#FF9700"/>
<path d="M373.216 542.567L350.359 532.786L337.07 527.083L350.684 521.262L373.216 511.629C373.216 511.629 376.228 519.164 376.258 526.256C376.346 537.367 373.216 542.567 373.216 542.567Z" fill="#FCECDB"/>
<path d="M546.801 521.942V531.723C546.801 537.751 541.928 542.627 535.904 542.597H528.698V511.658H536.524C542.194 511.688 546.801 516.268 546.801 521.942Z" fill="#FCECDB"/>
<path d="M350.684 521.292C351.245 524.424 351.747 529.211 350.359 532.786L337.07 527.083L350.684 521.292Z" fill="#2B478B"/>
<path d="M406.645 350.611C406.645 350.611 409.421 362.697 417.542 362.697C424.512 362.697 434.05 346.947 434.05 346.947L406.645 350.611Z" fill="#FF9700"/>
<path d="M499.875 529.211L494.648 532.787C494.648 532.787 469.576 506.044 463.523 480.394C462.43 475.814 462.016 471.293 462.459 467.008C462.459 467.008 462.105 465.856 461.455 463.787C461.426 463.699 461.396 463.61 461.367 463.521C461.101 462.635 460.747 461.571 460.363 460.359C459.152 456.488 457.469 451.169 455.579 445.141C451.208 431.253 441.167 399.9 436.885 386.869L467.686 375.728C467.686 375.728 471.171 383.707 476.221 405.396C476.989 408.233 477.757 411.366 478.495 414.764C479.322 418.635 480.09 422.861 480.71 427.411C481.802 435.153 482.511 443.841 482.57 453.386C482.6 457.257 482.482 461.305 482.275 465.442C482.098 468.486 482.57 472.534 483.397 477.173C487.266 498.302 499.875 529.211 499.875 529.211Z" fill="black"/>
<path d="M516.265 542.095H491.371C491.371 542.095 490.426 538.135 492.079 535.416C493.526 533.023 492.965 531.664 491.902 529.684C493.024 530.157 494.501 530.57 496.095 530.482C497.336 530.422 498.635 529.861 499.787 529.181C500.85 530.393 505.457 535.594 506.874 536.628C508.499 537.81 515.763 537.396 516.265 542.095Z" fill="#3E3D4D"/>
<path d="M480.71 427.441L461.367 463.521C461.101 462.635 460.747 461.571 460.363 460.359C459.152 456.488 457.469 451.169 455.579 445.141C451.208 431.253 441.167 399.9 436.885 386.869L467.686 375.728C467.686 375.728 471.171 383.707 476.221 405.396C476.989 408.233 477.757 411.366 478.495 414.764C479.292 418.664 480.06 422.89 480.71 427.441Z" fill="black"/>
<path d="M436.383 534.323C436.383 534.323 434.671 538.549 436.295 542.124H449.85C449.85 542.124 450.145 538.903 445.213 535.18C441.463 532.343 436.383 534.323 436.383 534.323Z" fill="#3E3D4D"/>
<path d="M451.119 258.858C451.119 258.178 451.474 250.909 462.518 250.259C462.518 250.259 457.085 251.027 456.228 253.45C456.228 253.45 459.861 250.407 462.902 251.293C465.944 252.18 467.834 257.41 467.893 259.153C467.952 260.897 466.417 266.541 464.527 267.043C463.818 267.25 462.961 267.221 462.223 267.102C462.755 267.871 463.257 268.757 463.759 269.732C468.395 278.686 464.408 289.235 460.628 288.349C458.207 287.787 456.76 291.954 456.76 291.954L433.578 272.008C433.548 272.008 441.669 254.1 451.119 258.858Z" fill="#2C3A64"/>
<path d="M436.56 319.465C439.13 321.238 442.349 322.716 446.394 323.661C461.544 327.178 467.362 314.353 469.547 305.547C467.48 304.365 465.531 304.099 464.408 303.981C463.316 303.863 462.164 303.774 461.219 303.715C459.506 302.415 456.967 297.066 456.405 288.792L455.697 288.969L443.737 292.249C443.737 292.249 444.298 296.061 444.563 299.637C444.77 302.444 444.8 305.133 444.268 305.783C443.323 305.99 442.762 306.108 442.762 306.108C442.614 306.374 439.13 312.077 436.56 319.465Z" fill="#FFB27D"/>
<path d="M443.737 292.22C443.737 292.22 444.298 296.032 444.564 299.607C451.326 298.928 454.486 292.486 455.697 288.94L443.737 292.22Z" fill="#ED985F"/>
<path d="M443.589 297.923C443.589 297.923 459.181 293.904 456.524 284.241C453.866 274.579 454.102 267.546 444.061 269.673C433.991 271.83 433.076 276.056 433.164 279.484C433.253 282.912 439.484 298.721 443.589 297.923Z" fill="#FFB27D"/>
<path d="M432.16 273.988C433.755 270.412 435.734 270.56 437.003 271.151C444.209 264.147 451.562 269.555 451.562 269.555C454.516 276.204 460.599 278.804 460.599 278.804C460.599 278.804 458.236 281.316 451.267 281.434C449.141 281.464 446.956 280.548 444.977 279.247C448.816 282.941 453.305 285.157 453.305 285.157C444.534 283.71 438.421 273.722 437.801 272.658C437.092 273.781 435.734 276.145 435.645 278.095C435.556 280.784 436.59 285.926 435.054 286.162C435.084 286.162 429.768 279.336 432.16 273.988Z" fill="#2C3A64"/>
<path d="M439.13 305.281C439.13 305.281 465.294 298.928 476.693 308.325L470.994 387.696L419.787 375.314C419.787 375.314 421.234 370.291 431.038 356.934C440.872 343.578 436.59 323.986 439.13 305.281Z" fill="#FFB27D"/>
<path d="M454.368 378.861C454.368 378.861 454.338 379.126 454.279 379.629C454.25 379.836 454.22 380.102 454.191 380.427C453.984 382.495 453.541 386.425 453.009 391.567C451.592 405.042 449.407 426.643 447.9 443.723C446.719 457.079 445.981 467.629 446.394 469.313C447.605 474.425 446.394 535.416 446.394 535.416C442.053 537.514 435.438 535.416 435.438 535.416C435.438 535.416 423.862 480.453 425.457 472.8C427.081 465.146 424.364 458.645 424.364 458.645C415.357 416.714 416.361 393.458 418.133 382.347C418.665 379.097 419.255 376.91 419.669 375.551C420.023 374.398 420.289 373.867 420.289 373.867C440.193 368.548 454.368 378.861 454.368 378.861Z" fill="black"/>
<path d="M480.208 330.96C478.938 340.505 473.888 352.206 472.087 358.501C472.087 358.501 475.099 380.338 472.234 386.337C471.909 387.016 471.496 387.489 470.994 387.725C460.333 392.365 418.753 387.873 416.981 374.428C416.332 369.552 432.81 352.413 433.785 350.315C434.198 349.458 434.611 346.651 432.662 340.889C429.916 349.34 414.825 346.917 414.825 346.917C416.597 343.873 421.027 322.863 425.959 313.378C429.68 306.256 439.573 305.222 439.573 305.222C439.573 305.222 443.707 311.752 453.659 310.836C463.641 309.92 465.442 303.803 465.442 303.803C465.442 303.803 474.272 304.985 477.018 307.172C477.491 307.556 481.861 318.46 480.208 330.96Z" fill="#FF9700"/>
<path d="M472.087 358.5C472.087 358.5 475.099 380.338 472.234 386.337C464.468 382.436 458.325 371.857 459.743 360.096C460.776 351.409 462.341 349.399 467.007 344.435C470.433 340.771 478.318 340.564 477.698 342.307C475.837 347.478 473.032 355.161 472.087 358.5Z" fill="#ED7D2B"/>
<path d="M439.602 332.674L457.439 361.278H427.11L410.13 333.294L439.602 332.674Z" fill="black"/>
<path d="M456.524 359.83L456.819 358.826L439.957 331.758L439.602 332.674L456.524 359.83Z" fill="#EFDECE"/>
<path d="M439.957 331.758L411.37 332.585L410.13 333.294L439.602 332.674L439.957 331.758Z" fill="#FCECDB"/>
<path d="M410.13 333.294L394.095 324.607L412.788 353.95L427.11 361.278L410.13 333.294Z" fill="black"/>
<path d="M494.944 353.329C493.231 354.127 488.831 359.298 487.236 359.83C480.178 362.194 450.056 355.9 450.056 355.9L451.001 350.611C451.001 350.611 480.532 351.409 483.781 350.522C484.401 350.345 487.59 345.351 488.801 344.642L494.944 353.329Z" fill="#FFB27D"/>
<path d="M451.001 350.64C451.001 350.64 447.428 347.744 445.036 348.395C442.614 349.045 439.1 352.088 437.771 352.827C436.442 353.536 432.869 356.137 434.7 357.703C436.501 359.269 442.142 357.91 444.386 356.728C446.631 355.546 450.086 355.93 450.086 355.93L451.001 350.64Z" fill="#FFB27D"/>
<path d="M445.715 348.276C445.715 348.276 441.374 347.774 440.193 347.774C439.012 347.803 439.336 348.069 439.986 348.985C440.636 349.901 442.88 350.256 442.998 350.581C443.116 350.906 445.715 348.276 445.715 348.276Z" fill="#FFB27D"/>
<path d="M465.442 303.774C465.442 303.774 478.288 305.311 481.802 310.807C486.262 317.781 496.834 345.528 496.479 352.502C496.479 352.502 488.772 365.622 462.312 363.524C462.312 363.524 459.565 353.802 465.117 350.581C465.117 350.581 478.702 348.158 480.267 346.799L469.193 326.646L465.442 303.774Z" fill="#FF9700"/>
<path d="M414.235 343.755C413.851 342.13 410.307 343.135 409.126 344.08C408.831 344.317 408.535 344.701 408.211 345.144C408.181 344.878 408.151 344.612 408.122 344.405C408.063 343.637 407.177 342.278 406.941 343.312C406.734 344.346 406.35 348.601 406.35 348.601C406.321 352.059 408.535 353.477 409.953 352.354C411.37 351.231 414.619 345.351 414.235 343.755Z" fill="#FFB27D"/>
<path d="M333.733 208.328C322.304 208.18 316.398 222.216 324.489 230.372C325.936 231.849 326.793 233.8 326.911 235.868L327.383 242.96C327.502 244.91 329.126 246.447 331.075 246.447L335.416 246.506C337.365 246.536 339.019 245.058 339.196 243.108C339.846 235.986 339.58 233.327 342.415 230.608C350.713 222.63 345.161 208.475 333.733 208.328Z" fill="#F7CC7F"/>
<path d="M329.598 238.203C329.923 232.056 330.041 225.555 330.012 223.694C323.574 222.925 327.177 216.631 329.657 219.882C330.366 220.798 330.573 221.921 330.632 223.132C332.788 223.309 334.943 223.073 337.011 222.423C337.158 220.916 337.217 219.763 337.808 218.906C338.694 217.577 340.554 217.518 341.056 219.054C341.234 219.616 341.175 220.295 340.879 220.827C340.23 221.95 338.812 222.482 337.601 222.896C337.099 227.742 336.715 232.618 336.45 237.464L335.829 237.434C336.066 232.677 336.45 227.86 336.952 223.103C334.914 223.694 332.788 223.93 330.661 223.753C330.691 226.117 330.573 232.47 330.248 238.232L329.598 238.203ZM327.236 221.743C327.708 222.452 328.594 222.896 329.982 223.073C329.923 222.009 329.746 221.034 329.155 220.266C327.856 218.493 326.468 220.561 327.236 221.743ZM338.31 219.261C337.808 220 337.778 221.034 337.66 222.216C338.664 221.861 339.846 221.389 340.348 220.502C340.702 219.882 340.613 218.877 339.964 218.581C339.875 218.581 338.664 218.759 338.31 219.261Z" fill="#FAE0B2"/>
<path d="M326.881 235.691C326.881 235.75 326.911 235.809 326.911 235.868L327.383 242.96C327.502 244.911 329.126 246.447 331.075 246.447L335.416 246.506C337.365 246.536 339.019 245.058 339.196 243.108C339.491 239.946 339.609 237.671 339.875 235.868L326.881 235.691Z" fill="#E17900"/>
<path d="M326.379 201.797L324.135 195.148C323.928 194.498 324.253 193.818 324.903 193.582C325.552 193.375 326.232 193.7 326.468 194.35L328.712 200.999C328.919 201.649 328.594 202.329 327.944 202.565C327.295 202.802 326.586 202.447 326.379 201.797Z" fill="#FAE0B2"/>
<path d="M316.516 215.213L309.369 213.292C308.72 213.115 308.336 212.435 308.513 211.785C308.69 211.135 309.369 210.751 310.019 210.928L317.166 212.849C317.815 213.026 318.199 213.706 318.022 214.356C317.845 214.976 317.166 215.39 316.516 215.213Z" fill="#FAE0B2"/>
<path d="M305.412 236.164C305.028 235.602 305.176 234.834 305.737 234.45C307.834 233.002 310.078 231.761 312.411 230.726C313.031 230.461 313.77 230.726 314.035 231.347C314.301 231.968 314.035 232.706 313.415 232.972C311.23 233.947 309.133 235.1 307.155 236.459C306.564 236.843 305.796 236.725 305.412 236.164Z" fill="#FAE0B2"/>
<path d="M344.334 204.634C343.714 204.338 343.448 203.6 343.744 203.009C345.102 200.083 346.165 197.01 346.904 193.848C347.051 193.198 347.73 192.784 348.38 192.932C349.03 193.08 349.443 193.759 349.296 194.41C348.528 197.719 347.406 200.97 345.959 204.043C345.693 204.663 344.954 204.929 344.334 204.634Z" fill="#FAE0B2"/>
<path d="M350.152 215.301C350.063 214.622 350.565 214.001 351.245 213.942L359.189 212.996C359.868 212.908 360.488 213.41 360.547 214.09C360.636 214.769 360.134 215.39 359.454 215.449L351.51 216.395C350.831 216.454 350.241 215.951 350.152 215.301Z" fill="#FAE0B2"/>
<path d="M358.982 237.523C358.864 237.493 358.775 237.464 358.657 237.405C356.176 236.223 353.814 234.745 351.658 233.031C351.127 232.618 351.038 231.849 351.451 231.288C351.865 230.756 352.633 230.667 353.194 231.081C355.231 232.677 357.446 234.036 359.75 235.159C360.37 235.454 360.606 236.193 360.311 236.814C360.045 237.375 359.513 237.612 358.982 237.523Z" fill="#FAE0B2"/>
<path d="M328.742 315.328C328.742 315.328 336.302 315.121 336.627 307.704C336.952 300.287 328.742 299.312 328.742 299.312V288.526H318.554C318.554 288.526 318.14 280.755 310.58 280.636C303.02 280.518 302.046 288.674 302.046 288.674L291.592 288.497V299.371C291.592 299.371 299.624 300.08 299.565 307.261C299.476 314.442 291.592 314.974 291.592 314.974V325.671H302.282C302.282 325.671 304.26 318.372 310.58 318.46C316.9 318.549 318.14 325.671 318.14 325.671L328.742 325.346V315.328Z" fill="#3E3D4D"/>
<path d="M291.592 373.542H301.337C301.337 373.542 302.961 366.716 308.543 366.656C314.124 366.568 316.841 373.542 316.841 373.542H326.143V364.174C326.143 364.174 335.062 365.297 335.682 357.112C336.302 348.926 326.232 349.37 326.232 349.37L326.32 339.382H316.634C316.634 339.382 317.756 345.883 310.373 346.976C302.991 348.07 301.544 339.382 301.544 339.382H291.621V349.311C291.621 349.311 283.707 349.163 283.648 356.491C283.589 363.82 291.621 362.726 291.621 362.726V373.542H291.592Z" fill="#3E3D4D"/>
</svg>
