<svg width="430" height="281" viewBox="0 0 430 281" fill="none" xmlns="http://www.w3.org/2000/svg">
<path d="M313.5 56C285.5 47.1 252.4 42.8 223 41.4C169.7 38.8 115.6 52.7 70.2 80.8C45.9 95.9 23.5 115.5 10.7 141.2C-21.2 205.5 29 264.4 91.9 277C123.6 283.3 156.4 280.7 188.7 278.6C230.7 275.9 272.8 274.3 314.8 277.2C330.8 278.3 347.1 280 362.7 276.5C399.4 268.3 425 231.6 428.6 194.2C431.6 163.1 421.2 130.9 400.5 107.4C391.6 97.2 381 88.8 369.5 81.7C351.6 70.7 332.9 62.2 313.5 56Z" fill="#E5E5E5"/>
<path d="M361.9 106.9L354.2 112.1L366.1 115.2V125.3L371.9 118.2L385.1 121.6L398.1 92.8L361.9 106.9Z" fill="#A7A9AC"/>
<path d="M364.8 112.1V121.6L373 113L364.8 112.1Z" fill="white"/>
<path d="M366.9 113L398.8 87.2L383.6 117.3L366.9 113Z" fill="white"/>
<path d="M398.8 87.2L353.7 107.3L366.9 113L398.8 87.2Z" fill="white"/>
<path d="M366.9 113L364.8 112.1L398.8 87.2L366.9 113Z" fill="black"/>
<path d="M362.7 128C353.1 136.5 339.8 139.7 326.9 139.5C321.3 139.4 315.6 138.7 310.6 136.3C308 135.1 305.5 133.3 303.9 130.9C302.3 128.5 301.8 125.3 303 122.6C304.2 120 307.4 118.3 310.2 119.2C313.1 120.2 314.6 123.8 313.9 126.9C313.3 129.9 311.1 132.4 308.6 134.4C302.5 139.2 294.5 141.4 286.7 141.5C278.9 141.6 271.2 139.7 263.8 137.1" stroke="black" stroke-width="0.8504" stroke-miterlimit="10" stroke-linecap="round" stroke-linejoin="round" stroke-dasharray="2.83 2.83"/>
<path d="M142.9 117.3C144 117.3 145.1 117.2 146.1 116.8C146.9 116.5 147.5 115.9 148.1 115.3C152 111.1 150.6 103.3 145.4 100.7C140.3 98.2 133.2 101.8 132.2 107.4C131.8 105.6 130.2 104.2 128.4 104C126.6 103.8 124.7 104.8 123.9 106.5C122.7 102 120.7 97.4 117 94.5C113.4 91.5 107.9 90.5 103.9 93C98.9 96.2 98.2 103.2 98.6 109.1C98.3 105.2 90.5 109.4 89.8 111.4C86.6 109.1 80.5 111.6 83.4 115.5C85.8 118.8 94.3 118.2 97.8 118.1C112.8 118 127.9 117.7 142.9 117.3Z" fill="white"/>
<path d="M346.2 42C347.3 42 348.4 41.9 349.4 41.5C350.2 41.2 350.8 40.6 351.4 40C355.3 35.8 353.9 28 348.7 25.4C343.6 22.9 336.5 26.5 335.5 32.1C335.1 30.3 333.5 28.9 331.7 28.7C329.9 28.5 328 29.5 327.2 31.2C326 26.7 324 22.1 320.3 19.2C316.7 16.2 311.2 15.2 307.2 17.7C302.2 20.9 301.5 27.9 301.9 33.8C301.6 29.9 293.8 34.1 293.1 36.1C289.9 33.8 283.8 36.3 286.7 40.2C289.1 43.5 297.6 42.9 301.1 42.8C316.1 42.7 331.2 42.4 346.2 42Z" fill="#E5E5E5"/>
<path d="M281.8 277.9L250.1 274.4L254.3 236.1C254.8 231.7 258.8 228.5 263.2 229L278.9 230.7C283.3 231.2 286.5 235.2 286 239.6L281.8 277.9Z" fill="black"/>
<path d="M246.7 228.1C246.7 228.1 242.5 227.1 238.7 223.2C233.4 217.8 231 209.7 231.4 198.9C227.4 198.2 220.2 198.5 220.2 198.5C219.5 216.4 225.8 226.5 231.3 231.8C237.4 237.7 243.7 239.1 244.5 239.2C244.9 239.3 245.3 239.3 245.6 239.3C248.2 239.3 250.6 237.5 251.2 234.8C251.7 231.7 249.7 228.7 246.7 228.1Z" fill="#A05E47"/>
<path d="M244.5 239.5C244.9 239.6 245.3 239.6 245.7 239.6C248.4 239.6 250.9 237.7 251.5 234.9C252.1 231.7 250.1 228.7 247 228C247 228 242.7 227 238.7 222.9C237.8 222 236.9 220.9 236.2 219.8L227.8 228.1C228.9 229.5 230 230.7 231.1 231.7C237.2 237.9 243.8 239.3 244.5 239.5Z" fill="#CC7502"/>
<path d="M231 192.9C230.9 192.4 230.8 191.9 230.5 191.5C230.2 191.1 229.6 190.9 229.2 191.2C228.6 191.6 228.9 192.6 228.6 193.3C228.4 193.8 227.8 194.1 227.2 194.1C226.6 194.2 226.1 194.1 225.5 194C222.8 193.9 220.3 196 219.9 198.7C219.8 199.2 219.8 199.7 220.1 200.2C220.5 200.7 221.2 200.8 221.8 200.9C223.5 201.1 225.2 201.4 226.9 201.3C228.4 201.2 231 200.8 231.2 199C231.6 197 231.3 194.8 231 192.9Z" fill="#A05E47"/>
<path d="M222.5 200C222.4 199.9 222.4 199.8 222.3 199.7C222.2 199.6 222.3 199.5 222.4 199.4C222.5 199.3 222.6 199.4 222.7 199.5C222.9 199.8 223.1 199.9 223.3 199.9C223.7 199.9 224.2 199.4 224.4 199.2L224.5 199.1C224.6 199.1 224.6 199.1 224.6 199.1C224.9 199.4 225.2 199.5 225.5 199.5C225.9 199.4 226.1 198.9 226.1 198.9C226.1 198.8 226.2 198.8 226.3 198.8C226.4 198.8 226.4 198.8 226.5 198.9C226.7 199.2 226.9 199.3 227 199.4C227.2 199.4 227.4 199.3 227.4 199.3C229 198.2 227 194.4 227 194.4C226.9 194.3 227 194.2 227.1 194.1C227.2 194 227.3 194.1 227.4 194.2C227.5 194.4 229.5 198.3 227.7 199.6C227.7 199.6 227.4 199.8 227 199.8C226.8 199.8 226.6 199.6 226.4 199.4C226.3 199.6 226 199.9 225.7 199.9C225.4 200 225 199.9 224.6 199.6C224.4 199.8 223.9 200.3 223.3 200.2C223 200.4 222.7 200.3 222.5 200Z" fill="#632A1A"/>
<path d="M226.1 199.3V199.2C226.1 199.2 225.5 195.4 225 194.4C224.9 194.3 225 194.2 225.1 194.1C225.2 194 225.3 194.1 225.4 194.2C226 195.3 226.5 199 226.6 199.1C226.6 199.2 226.5 199.3 226.4 199.3C226.2 199.4 226.1 199.3 226.1 199.3Z" fill="#632A1A"/>
<path d="M224.3 199.6C224.3 199.6 224.3 199.5 224.3 199.6C224.2 199.5 223.6 195.8 223 194.9C222.9 194.8 223 194.7 223.1 194.6C223.2 194.5 223.3 194.6 223.4 194.7C224 195.7 224.6 199.3 224.6 199.5C224.6 199.6 224.5 199.7 224.4 199.7C224.4 199.7 224.4 199.6 224.3 199.6Z" fill="#632A1A"/>
<path d="M228 198.6C228 198.6 227.9 198.5 228 198.4C228.1 198.1 228.3 197.9 228.5 197.8C228.3 197.3 228.1 196.8 228 196.3C227.9 195.7 227.9 195.1 228.1 194.6C228.2 194.3 228.3 194.1 228.5 194C228.8 193.8 229.2 193.8 229.6 193.9C229.9 194.1 230.2 194.3 230.4 194.5C231 195.2 231.4 196 231.6 196.9C231.6 197 231.6 197.1 231.5 197.1C231.4 197.1 231.3 197.1 231.3 197C231.1 196.2 230.7 195.5 230.2 194.8C230 194.6 229.8 194.4 229.6 194.3C229.4 194.2 229.1 194.2 228.9 194.3C228.8 194.4 228.7 194.5 228.6 194.7C228.5 195.1 228.4 195.6 228.6 196.2C228.7 196.7 228.9 197.2 229.1 197.7C229.1 197.8 229.2 197.9 229.1 198C229.1 198.1 228.9 198.2 228.9 198.2C228.7 198.3 228.6 198.4 228.6 198.6C228.3 198.7 228.2 198.7 228 198.6C228 198.7 228.1 198.7 228 198.6Z" fill="#632A1A"/>
<path d="M237.2 236.3L239.9 271.7C239.9 271.7 247.9 276.1 259.2 274.7C270.5 273.4 273 268.4 273 268.4C273 268.4 271 233.6 270.7 233.3C270.4 233 269 221.5 252.7 223.9C236.4 226.3 237.2 236.3 237.2 236.3Z" fill="#FF9700"/>
<path d="M260.8 237.7C260.8 237.7 269.9 253 264 270C264 270 273.3 256.6 273 252.1C272.7 247.7 260.8 237.7 260.8 237.7Z" fill="#CC7502"/>
<path d="M281.8 249.8L268.5 228.6C266.8 226 263.3 225.2 260.7 226.8C258.1 228.5 257.3 232 258.9 234.6L270.6 253.2L262.4 271.1C262.4 271.1 266.4 276 272.7 275.8L282.2 255.1C283 253.4 282.8 251.4 281.8 249.8Z" fill="#A05E47"/>
<path d="M260.1 217.7L256.6 226.9L250.9 229.1L247.8 225L249.9 219.5L260.1 217.7Z" fill="#A05E47"/>
<path d="M257.2 221.9L249.1 221.5L248 224.4C252.2 225.4 257.2 221.9 257.2 221.9Z" fill="#774031"/>
<path d="M251 223.8L247.2 222.3C244 221 242.3 217.4 243.6 214.1L247.6 203.6C248.8 200.4 252.5 198.7 255.8 200L259.6 201.5C262.8 202.8 264.5 206.4 263.2 209.7L259.2 220.2C257.9 223.4 254.3 225 251 223.8Z" fill="#A05E47"/>
<path opacity="0.3" d="M259.6 201.5L255.8 200C253 198.9 249.8 200 248.2 202.5C248.7 203.4 249.5 204.2 250.4 204.6C252.1 205.5 254.2 205.6 256.1 205.3C256.9 205.2 257.6 205.1 258.4 205.2C259.1 205.4 259.8 206 259.8 206.8C259.8 207.4 259.3 208 258.8 208.3C258.5 208.5 258.1 208.7 257.9 209C257.6 209.4 257.5 209.9 257.4 210.4C257.2 212 257.2 213.7 258 215.1C258.4 215.9 259.1 216.5 259.8 217C259.9 217.1 260 217.2 260.2 217.3L263.2 209.5C264.5 206.4 262.9 202.8 259.6 201.5Z" fill="#171E26"/>
<path d="M261.2 218.9C262.305 218.9 263.2 218.005 263.2 216.9C263.2 215.795 262.305 214.9 261.2 214.9C260.095 214.9 259.2 215.795 259.2 216.9C259.2 218.005 260.095 218.9 261.2 218.9Z" fill="#A05E47"/>
<path d="M268.5 228.6C266.8 226 263.3 225.2 260.7 226.8C258.1 228.5 257.3 232 258.9 234.6L264.9 244.1C266.8 243.4 271.8 241.3 275 238.8L268.5 228.6Z" fill="#CC7502"/>
<path d="M271.9 277.9C271.6 278.5 271.3 279.2 270.7 279.6C270.1 280 269.3 280.1 268.8 279.6C268.6 279.3 268.4 278.9 268.1 278.8C267.7 278.6 267.2 279 266.8 279.1C266 279.3 265.1 278.7 264.8 278C264.7 277.7 264.6 277.4 264.4 277.3C263.9 277 263.1 277.6 262.6 277.3C262.2 277 262.3 276.4 262 276.1C261.8 275.9 261.5 276 261.3 275.9C260.9 275.7 260.7 275.3 260.7 274.8C260.7 274.4 260.9 274 261.1 273.6C261.4 273 261.7 272.4 262 271.8C262.2 271.4 262.3 271.1 262.6 270.8C263.2 270.2 264.2 270.3 265 270.4C266.6 270.6 268.2 271 269.6 271.7C270.8 272.3 271.9 273.3 272.5 274.5C273.2 275.4 272.4 276.8 271.9 277.9Z" fill="#A05E47"/>
<path d="M70.8 277.9H38.9V239.3C38.9 234.9 42.5 231.2 47 231.2H62.8C67.2 231.2 70.9 234.8 70.9 239.3V277.9H70.8Z" fill="black"/>
<path d="M71.1 231.2C73.9 229.8 77.3 231 78.7 233.8L87.5 252L108.2 244.3C109.3 251.3 112.2 254.4 112.2 254.4L86.7 264.5C85.4 265 84 265 82.7 264.5C81.3 264 80.2 263 79.5 261.6L68.4 238.7C67.1 236 68.2 232.6 71.1 231.2Z" fill="#A05E47"/>
<path d="M82.7 264.6C83.9 265 85.3 265.1 86.7 264.6L96.1001 260.9C92.3001 257.9 89.9 254.4 88.4 251.8L87.5 252.1L84 245C80.7 243.8 74.7 243.7 70.8 243.7L79.5 261.7C80.2 263.1 81.3 264.1 82.7 264.6Z" fill="#7F4637"/>
<path d="M72.4 246.9L77.5 253.4L85.9 248.7L78.7 233.8C77.5 231.4 74.9 230.2 72.4 230.7L72.1 230.8L72.4 246.9Z" fill="#CC7502"/>
<path d="M113.9 242.2C114.4 242.1 114.8 242 115.3 242.1C115.7 242.2 116.1 242.7 116 243.1C115.9 243.8 114.9 243.9 114.4 244.4C114 244.8 114 245.4 114.2 245.9C114.4 246.4 114.6 246.9 114.9 247.4C116 249.7 115 252.8 112.9 254.1C112.5 254.4 112 254.6 111.5 254.5C110.9 254.4 110.5 253.8 110.2 253.3C109.4 251.9 108.5 250.5 108 248.9C107.5 247.5 107 245.1 108.5 244.2C110 243.3 112.1 242.7 113.9 242.2Z" fill="#A05E47"/>
<path d="M110.8 252.2C110.9 252.2 111 252.3 111.1 252.3C111.2 252.3 111.3 252.2 111.3 252.1C111.3 252 111.2 251.9 111.1 251.9C110.8 251.9 110.6 251.7 110.5 251.5C110.3 251.1 110.6 250.5 110.7 250.3C110.7 250.3 110.7 250.2 110.7 250.1C110.7 250 110.6 250 110.6 250C110.2 249.8 110 249.6 109.9 249.4C109.8 249 110.2 248.7 110.2 248.7C110.3 248.7 110.3 248.6 110.3 248.5C110.3 248.4 110.2 248.4 110.1 248.4C109.8 248.4 109.6 248.3 109.5 248.1C109.4 247.9 109.4 247.7 109.4 247.7C109.8 245.8 113.9 246.2 113.9 246.2C114 246.2 114.1 246.1 114.1 246C114.1 245.9 114 245.8 113.9 245.8C113.7 245.8 109.5 245.4 109 247.6C109 247.6 108.9 247.9 109.1 248.3C109.2 248.5 109.4 248.6 109.7 248.7C109.6 248.9 109.4 249.2 109.5 249.5C109.6 249.8 109.8 250.1 110.2 250.3C110.1 250.6 109.9 251.2 110.1 251.7C110.4 251.9 110.6 252.1 110.8 252.2Z" fill="#7F4637"/>
<path d="M110.2 248.7H110.3C110.3 248.7 113.9 247.8 115 247.9C115.1 247.9 115.2 247.8 115.2 247.7C115.2 247.6 115.1 247.5 115 247.5C113.8 247.4 110.3 248.3 110.2 248.3C110.1 248.3 110 248.4 110.1 248.5C110.1 248.7 110.1 248.7 110.2 248.7Z" fill="#7F4637"/>
<path d="M110.6 250.4H110.7C110.7 250.4 114.3 249.6 115.3 249.7C115.4 249.7 115.5 249.6 115.5 249.5C115.5 249.4 115.4 249.3 115.3 249.3C114.2 249.2 110.7 249.9 110.6 250C110.5 250 110.4 250.1 110.5 250.2C110.5 250.4 110.5 250.4 110.6 250.4Z" fill="#7F4637"/>
<path d="M111.1 252.3H111.2C111.2 252.3 113.2 251.5 114.9 251.6C115 251.6 115.1 251.5 115.1 251.4C115.1 251.3 115 251.2 114.9 251.2C113.1 251.2 111.2 251.9 111.1 251.9C111 251.9 111 252 111 252.1C111 252.2 111.1 252.2 111.1 252.3Z" fill="#7F4637"/>
<path d="M109.8 246.9C109.9 246.9 109.9 246.9 110 246.9C110.2 246.7 110.3 246.5 110.3 246.2C110.9 246.2 111.4 246.2 111.9 246.1C112.5 246 113 245.8 113.4 245.4C113.6 245.2 113.7 245 113.8 244.8C113.9 244.5 113.7 244.1 113.5 243.8C113.2 243.6 112.9 243.5 112.6 243.4C111.8 243.2 110.9 243.1 110.1 243.2C110 243.2 109.9 243.3 109.9 243.4C109.9 243.5 110 243.6 110.1 243.6C110.9 243.5 111.7 243.5 112.5 243.8C112.7 243.9 113 244 113.2 244.1C113.4 244.3 113.5 244.5 113.4 244.7C113.4 244.8 113.3 245 113.1 245.1C112.8 245.4 112.3 245.6 111.8 245.7C111.3 245.8 110.8 245.8 110.3 245.8C110.2 245.8 110.1 245.8 110 245.9C109.9 246 109.9 246.1 109.9 246.2C109.9 246.4 109.8 246.5 109.7 246.6C109.7 246.7 109.7 246.8 109.8 246.9Z" fill="#7F4637"/>
<path d="M80.6 239.5L77.8 275.3C77.8 275.3 69.7 279.7 58.3 278.4C47 277 44.5 272 44.5 272C44.5 272 46.5 236.9 46.8 236.6C47.1 236.3 48.5 224.7 65 227.1C81.5 229.4 80.6 239.5 80.6 239.5Z" fill="#FF9700"/>
<path d="M61.1 216.8V226.7L67.1 231.5L70.2 228.1V222.2L61.1 216.8Z" fill="#A05E47"/>
<path d="M62.4 222L70.2 224.6V227.8C65.8 227.1 62.4 222 62.4 222Z" fill="#7F4637"/>
<path d="M68.5 226H70.6C74.6 226 78 222.7 78 218.6V209.2C78 205.2 74.7 201.8 70.6 201.8H68.5C64.5 201.8 61.1 205.1 61.1 209.2V218.6C61.1 222.7 64.5 226 68.5 226Z" fill="#A05E47"/>
<path d="M61.5 215.3C61.8 216 62.7 216.5 63.2 216C63.4 215.8 63.5 215.6 63.5 215.3C63.8 213.9 63.9 212.4 63.7 211C63.4 209.3 62.8 207.4 63.8 206C64.4 205.1 65.7 204.7 66.8 205C67.3 205.2 67.8 205.6 68.4 205.7C69.5 206.1 70.7 205.6 71.8 205.4C73.9 205.1 76.2 205.9 78.1 205C79.2 204.5 79.9 203.4 80.1 202.2C80.1 201.9 80.1 201.5 80 201.2C79.8 200.6 79.1 200.2 78.5 200.1C77 199.8 75.5 200.5 74.1 200.2C73.2 200 72.4 199.3 71.5 199.2C70.2 199 69 199.8 67.7 200.1C66.4 200.4 65.1 200.2 63.8 200.5C61.1 201.1 59.3 203.8 58.8 206.5C58.3 209.2 58.9 212 59.4 214.7C59.6 215.7 59.8 216.6 60 217.6C60.2 218.4 60.4 219.3 61.1 219.7C61.2 219.8 61.3 219.8 61.5 219.8C61.9 219.8 62 219.3 62 218.9C62 217.1 61.7 215.4 61.3 213.6C61.2 214.2 61.2 214.8 61.5 215.3Z" fill="#171C27"/>
<path d="M61.2 217.9C62.3598 217.9 63.3 216.96 63.3 215.8C63.3 214.64 62.3598 213.7 61.2 213.7C60.0402 213.7 59.1 214.64 59.1 215.8C59.1 216.96 60.0402 217.9 61.2 217.9Z" fill="#A05E47"/>
<path d="M86.5 264.4C86.6 264.3 86.8 264.3 86.9 264.3C87 264.4 87 264.5 87.1 264.6C87.4 265.3 88 265.9 88.7 266C89.5 266.1 90.3 265.4 90.2 264.7C90.2 264.2 89.8 263.8 89.5 263.4C90.2 264.2 90.9 265 92 265.1C92.1 265.1 92.2 265.1 92.4 265C92.5 264.9 92.6 264.8 92.6 264.7C92.8 264.1 92.7 263.4 92.4 262.8C92.7 263.1 93 263.3 93.3 263.5C93.7 263.6 94.1 263.6 94.4 263.4C94.8 263 94.6 262.2 94.4 261.7C94.1 261.1 93.9 260.5 93.6 259.9C93.3 259.2 93 258.5 92.5 257.9C91.7 256.9 90.5 256.2 89.3 255.8C86.8 254.8 84 254.5 81.3 254.8C81.1 254.8 80.9 254.9 80.8 254.9C80.5 255.1 80.3 255.5 80.3 255.9C79.6 258.8 79.6 261.9 80.4 264.7C80.7 265.8 81.1 266.2 82.4 266.1C83.8 265.7 85.2 265.1 86.5 264.4Z" fill="#A05E47"/>
<path d="M53.6 229.3C56.7 229 59.5 231.3 59.8 234.4L61.6 254.6L83.7 254.4C82.3 261.3 82.2 265.9 82.2 265.9L56.5 266C55.1 266 53.8 265.5 52.8 264.7C51.7 263.8 51 262.4 50.8 260.9L48.5 235.5C48.2 232.3 50.5 229.6 53.6 229.3Z" fill="#A05E47"/>
<path d="M89.8 263.6C89.8 263.6 88.6 260.9 87.8 259.9C87 258.9 85.9 259 85.9 259" stroke="#7F4637" stroke-width="0.5669" stroke-miterlimit="10" stroke-linecap="round" stroke-linejoin="round"/>
<path d="M92.3 262.7L90.5 258.8C90.5 258.8 89.7 257.3 88.2 257.1" stroke="#7F4637" stroke-width="0.5669" stroke-miterlimit="10" stroke-linecap="round" stroke-linejoin="round"/>
<path d="M59.9 234.2C59.6 231 56.7 228.6 53.5 228.9C50.3 229.2 47.9 232.1 48.2 235.3L49.7 252.1L61.4 250.6L59.9 234.2Z" fill="#FF9700"/>
<path d="M48.4 237.5L49.7 252.1C49.7 252.1 58.6 251 61.4 250.6L60 234.7" stroke="#CC7502" stroke-width="0.2835" stroke-miterlimit="10" stroke-linecap="round" stroke-linejoin="round"/>
<path d="M58.8 227.1L62.8 235L67.1 231.7L71.2 234.7C71.2 234.7 72.7 231.3 72.7 229.6" stroke="#CC7502" stroke-width="0.2835" stroke-miterlimit="10" stroke-linecap="round" stroke-linejoin="round"/>
<path d="M66.5 232.2L66.3 245.1H69.1" stroke="#CC7502" stroke-width="0.2835" stroke-miterlimit="10" stroke-linecap="round" stroke-linejoin="round"/>
<path d="M169.6 274.8L138 279.2L132.7 241C132.1 236.6 135.2 232.5 139.6 231.9L155.2 229.7C159.6 229.1 163.7 232.2 164.3 236.6L169.6 274.8Z" fill="black"/>
<path d="M168.9 202C167.4 201.4 165.9 201.1 164.3 201C162.8 201 161.2 200.8 159.7 201.2C157.6 201.8 156 203.6 155.1 205.6C154.4 207 154.1 208.6 153.8 210.1C153.5 211.6 153.2 213 153 214.5C152.6 217.7 152.6 220.9 152.1 224.1C151.2 229.9 148.6 235.4 146.9 241C145.2 246.6 144.3 252.9 146.7 258.3C146.9 258.8 147.1 259.2 147.5 259.5C147.9 259.8 148.3 259.9 148.8 259.9C151.6 260.4 154.5 260.6 157.3 260.6C158.3 260.6 159.4 260.5 160.3 260.1C161.1 259.7 161.8 259.1 162.4 258.4C164.7 255.8 165.6 252.3 166.5 249C167.3 245.8 168.2 242.6 169 239.4C171.4 230.5 173.7 221.4 174 212.2C174.1 209 173.8 205.5 171.5 203.4C170.8 202.9 169.9 202.4 168.9 202Z" fill="#503972"/>
<path d="M202.9 244.4C179.7 247.8 172.8 231.2 172.5 230.5C171.6 228.1 168.9 226.9 166.5 227.8C164.1 228.7 162.9 231.4 163.8 233.8C164 234.4 166.4 240.2 172.5 245.6C178 250.4 187.8 255.6 203 253.8C203.4 253.7 203.9 253.7 204.3 253.6C204.5 248.8 202.9 244.4 202.9 244.4Z" fill="#DBA38D"/>
<path d="M207.3 242.3C207.9 242.1 208.6 241.8 209.2 242C209.8 242.1 210.4 242.9 210.1 243.4C209.9 243.9 209.1 244.3 209.3 244.8C209.4 245 209.5 245.1 209.6 245.2C211.3 246.5 213.6 246.8 215.6 247.6C216.5 248 217.4 248.6 217.7 249.5C217.9 250.2 217.6 251 217.1 251.6C216.6 252.2 215.9 252.5 215.3 252.9C211.7 254.6 207.5 254.8 203.8 253.5C203.4 253.4 203 253.2 202.7 252.9C202.4 252.6 202.2 252.2 202.1 251.8C201.8 251 201.4 250.2 201.3 249.4C201 247.7 201.7 245.9 202.9 244.6C204.1 243.1 205.5 243 207.3 242.3Z" fill="#DBA38D"/>
<path d="M176.9 237C173.8 233.8 172.6 230.8 172.4 230.5C171.5 228.1 168.8 226.9 166.4 227.8C164 228.7 162.8 231.4 163.7 233.8C163.9 234.4 165.7 238.8 170.1 243.4C171.6 242.5 174.6 240.2 176.9 237Z" fill="#CC7502"/>
<path d="M170.3 243.6H170.2C165.7 238.9 163.9 234.4 163.7 233.9C163.7 233.8 163.7 233.7 163.8 233.7C163.9 233.7 164 233.7 164 233.8C164.2 234.3 165.9 238.7 170.3 243.3C171.6 242.4 174.5 240.1 176.8 237.1C173.7 233.8 172.4 230.8 172.4 230.6C172.4 230.5 172.4 230.4 172.5 230.4C172.6 230.4 172.7 230.4 172.7 230.5C172.8 230.6 174 233.7 177.1 237C177.2 237.1 177.2 237.1 177.1 237.2C174.6 240.4 171.5 242.7 170.3 243.6Z" fill="#CC7502"/>
<path d="M174.6 236.1C175.1 239.2 174.8 242.4 174.7 245.6C174.5 252.6 174.8 259.8 177.1 266.4C177.9 268.6 178.6 270.7 176.8 272.6C173.3 276.5 164.9 277.4 160.1 277.6C157 277.7 146.7 277.5 145.3 273.2C144.9 271.8 146.4 268.6 146.7 267.1C147.3 263.9 147 260.2 147 256.9C147 252.6 146.9 248 145.9 243.8C145 239.9 145.1 236 146.8 232.3C147.7 230.4 149 228.5 150.9 227.5C153.4 226.2 156.4 225.8 159.2 225.7C162.5 225.7 166.7 225.9 169.7 227.4C172.5 228.9 174 232.5 174.5 235.4C174.6 235.7 174.6 235.9 174.6 236.1Z" fill="#FF9700"/>
<path d="M164.6 222.1L164.8 228.1C164.8 228.1 164.8 231 160.4 230.9C156 230.9 155.7 226.9 155.7 226.9L155.4 216.9L164.6 222.1Z" fill="#EEB399"/>
<path d="M156.8 221.9L164.7 224.3L164.8 227.5C160.4 227 156.8 221.9 156.8 221.9Z" fill="#C18B76"/>
<path d="M162 225.8L166.3 225.7C169.8 225.6 172.5 222.7 172.4 219.2L172.1 207.7C172 204.2 169.1 201.5 165.6 201.6L161.3 201.7C157.8 201.8 155.1 204.7 155.2 208.2L155.5 219.7C155.6 223.2 158.5 225.9 162 225.8Z" fill="#EEB399"/>
<path d="M155.5 217.9C156.66 217.9 157.6 216.96 157.6 215.8C157.6 214.64 156.66 213.7 155.5 213.7C154.34 213.7 153.4 214.64 153.4 215.8C153.4 216.96 154.34 217.9 155.5 217.9Z" fill="#EEB399"/>
<path d="M172.6 204.7C172.6 204.7 165.5 214.4 154.8 213.7C154.8 213.7 152.4 200.9 162.8 200.5C162.8 200.6 168.2 199.9 172.6 204.7Z" fill="#503972"/>
<path d="M178.6 258.5C156.2 251.6 157 233.7 157.1 232.9C157.3 230.3 155.4 228.1 152.8 227.9C150.2 227.7 148 229.6 147.8 232.2C147.7 232.9 147.4 239.1 150.6 246.6C153.5 253.3 160.1 262.2 174.6 267.1C175 267.2 175.4 267.4 175.8 267.5C178.2 263.1 178.6 258.5 178.6 258.5Z" fill="#EEB399"/>
<path d="M158.3 240.7C156.9 236.5 157 233.2 157.1 232.9C157.3 230.3 155.4 228.1 152.8 227.9C150.2 227.7 148 229.6 147.8 232.2C147.8 232.8 147.5 237.6 149.5 243.7C151.1 243.3 154.8 242.5 158.3 240.7Z" fill="#FF9700"/>
<path d="M149.5 243.7C149.4 243.7 149.4 243.7 149.5 243.7C147.3 237.4 147.7 232.6 147.7 232.1C147.7 232 147.8 232 147.9 232C148 232 148 232.1 148 232.2C148 232.7 147.7 237.4 149.6 243.5C151.1 243.2 154.7 242.4 158.1 240.7C156.7 236.4 156.9 233.1 156.9 233C156.9 232.9 157 232.8 157.1 232.9C157.2 232.9 157.3 233 157.2 233.1C157.2 233.2 157 236.6 158.4 240.8C158.4 240.9 158.4 241 158.3 241C154.8 242.7 151 243.5 149.5 243.7Z" fill="#CC7502"/>
<path d="M183.3 258.5C183.9 258.6 184.6 258.6 185.1 259C185.6 259.4 185.8 260.3 185.3 260.7C184.9 261.1 184.1 261.1 184 261.6C184 261.8 184.1 261.9 184.1 262.1C185.1 264 187 265.2 188.5 266.9C189.1 267.6 189.7 268.6 189.5 269.5C189.3 270.2 188.8 270.8 188.1 271.1C187.4 271.4 186.7 271.5 185.9 271.5C182 271.5 178 269.9 175.2 267.1C174.9 266.8 174.6 266.5 174.4 266C174.3 265.6 174.3 265.2 174.3 264.7C174.3 263.8 174.4 263 174.6 262.2C175.1 260.5 176.5 259.2 178.1 258.6C180.1 257.8 181.5 258.4 183.3 258.5Z" fill="#EEB399"/>
<path d="M392.4 276.3H360.5V237.7C360.5 233.3 364.1 229.6 368.6 229.6H384.4C388.8 229.6 392.5 233.2 392.5 237.7V276.3H392.4Z" fill="black"/>
<path d="M356.7 232C354.5 229.8 351 229.7 348.8 231.9L334.5 245.9L317.6 232C314.3 238.1 310.6 240.1 310.6 240.1L331.1 257.8C332.2 258.7 333.5 259.2 334.8 259.2C336.2 259.2 337.6 258.7 338.7 257.6L356.7 239.9C358.9 237.8 358.9 234.3 356.7 232Z" fill="#EEB399"/>
<path d="M356.7 232C354.5 229.8 351 229.7 348.8 231.9L335.3 245.2C336.4 247.9 338.5 252.4 341.4 255L356.7 240C358.9 237.8 358.9 234.3 356.7 232Z" fill="#FF9700"/>
<path d="M312.9 228.1C312.5 227.8 312.1 227.6 311.7 227.5C311.2 227.5 310.7 227.8 310.7 228.2C310.6 228.9 311.5 229.3 311.8 230C312 230.5 311.8 231.1 311.5 231.5C311.2 231.9 310.8 232.3 310.4 232.6C308.6 234.4 308.5 237.6 310.1 239.6C310.4 240 310.8 240.3 311.3 240.4C311.9 240.5 312.4 240.1 312.9 239.7C314.2 238.7 315.4 237.6 316.4 236.4C317.3 235.2 318.6 233.2 317.5 231.9C316.3 230.4 314.5 229.2 312.9 228.1Z" fill="#EEB399"/>
<path d="M312.6 238.3C312.5 238.3 312.4 238.3 312.3 238.3C312.2 238.3 312.1 238.2 312.2 238.1C312.2 238 312.3 237.9 312.4 238C312.7 238.1 312.9 238 313.1 237.9C313.4 237.6 313.4 237 313.3 236.7C313.3 236.6 313.3 236.6 313.3 236.6L313.4 236.5C313.8 236.5 314.1 236.3 314.2 236.1C314.4 235.8 314.2 235.3 314.2 235.3C314.2 235.2 314.2 235.2 314.2 235.1C314.2 235 314.3 235 314.4 235C314.7 235.1 314.9 235 315.1 234.9C315.3 234.8 315.3 234.6 315.3 234.6C315.5 232.7 311.6 231.7 311.6 231.7C311.5 231.7 311.4 231.6 311.5 231.5C311.5 231.4 311.6 231.3 311.7 231.4C311.9 231.4 315.9 232.5 315.7 234.7C315.7 234.7 315.7 235.1 315.4 235.3C315.2 235.4 315 235.5 314.7 235.5C314.8 235.7 314.8 236 314.6 236.3C314.4 236.6 314.1 236.8 313.7 236.9C313.7 237.2 313.7 237.8 313.3 238.2C313.1 238.2 312.9 238.3 312.6 238.3Z" fill="#B57359"/>
<path d="M314.4 235.3H314.3C314.3 235.3 311.3 233.3 310.2 233C310.1 233 310 232.9 310.1 232.8C310.1 232.7 310.2 232.6 310.3 232.7C311.4 233 314.4 235 314.5 235C314.6 235.1 314.6 235.2 314.6 235.3C314.5 235.3 314.5 235.3 314.4 235.3Z" fill="#B57359"/>
<path d="M313.5 236.7C313.4 236.7 313.4 236.7 313.5 236.7C313.4 236.7 310.3 234.7 309.4 234.5C309.3 234.5 309.2 234.4 309.3 234.3C309.3 234.2 309.4 234.1 309.5 234.2C310.6 234.4 313.5 236.3 313.7 236.4C313.8 236.5 313.8 236.6 313.8 236.7C313.6 236.7 313.5 236.7 313.5 236.7Z" fill="#B57359"/>
<path d="M312.3 238.3H312.2C312.2 238.3 310.6 236.9 309 236.4C308.9 236.4 308.8 236.3 308.9 236.2C308.9 236.1 309 236 309.1 236.1C310.8 236.7 312.4 238 312.4 238.1C312.5 238.2 312.5 238.3 312.4 238.4C312.4 238.2 312.4 238.3 312.3 238.3Z" fill="#B57359"/>
<path d="M315.3 233.7C315.2 233.7 315.2 233.7 315.1 233.6C315 233.4 314.9 233.1 315 232.8C314.5 232.6 314 232.4 313.6 232.2C313.1 231.9 312.7 231.5 312.4 231.1C312.3 230.9 312.2 230.6 312.2 230.4C312.2 230.1 312.5 229.8 312.8 229.6C313.1 229.5 313.5 229.5 313.7 229.5C314.6 229.6 315.4 229.8 316.1 230.2C316.2 230.3 316.2 230.4 316.2 230.5C316.1 230.6 316 230.6 315.9 230.6C315.2 230.2 314.4 230 313.6 230C313.4 230 313.1 230 312.8 230.1C312.6 230.2 312.4 230.4 312.4 230.6C312.4 230.7 312.4 230.9 312.5 231C312.7 231.4 313.1 231.7 313.5 232C313.9 232.2 314.4 232.4 314.9 232.6C315 232.6 315.1 232.7 315.1 232.8C315.1 232.9 315.1 233 315.1 233.1C315 233.3 315.1 233.4 315.1 233.6C315.5 233.5 315.5 233.6 315.3 233.7C315.4 233.7 315.4 233.7 315.3 233.7Z" fill="#B57359"/>
<path d="M344.5 239.9L347.2 275.3C347.2 275.3 355.2 279.7 366.5 278.3C377.8 277 380.3 272 380.3 272C380.3 272 378.3 237.2 378 236.9C377.7 236.6 376.3 225.1 360 227.5C343.6 229.8 344.5 239.9 344.5 239.9Z" fill="#FF9700"/>
<path d="M400.4 271.5H29.7V280.3H400.4V271.5Z" fill="#161616"/>
<path d="M61.7 273.2H110.6C110.9 273.2 111.1 273 111.1 272.7V271.3C111.1 271 110.9 270.8 110.6 270.8H61.7C61.4 270.8 61.2 271 61.2 271.3V272.7C61.2 273 61.5 273.2 61.7 273.2Z" fill="black"/>
<path d="M87.6 273.2H128.3C130 273.2 131.5 271.8 131.8 270.2L135.3 248C135.6 246.3 134.4 245 132.8 245H92.1C90.4 245 88.9 246.4 88.6 248L85.1 270.2C84.8 271.8 86 273.2 87.6 273.2Z" fill="black"/>
<path d="M111.1 262.8C113.199 262.8 114.9 261.099 114.9 259C114.9 256.901 113.199 255.2 111.1 255.2C109.001 255.2 107.3 256.901 107.3 259C107.3 261.099 109.001 262.8 111.1 262.8Z" fill="white"/>
<path d="M376.2 242.3C376.2 242.3 378.7 272.2 371.4 272.8C364.1 273.4 351.7 272.8 351.7 272.8C351.7 272.8 366.6 269.9 368.3 261.6C369.8 253.3 376.2 242.3 376.2 242.3Z" fill="#CC7502"/>
<path d="M360.1 236.1C365.8 235.3 366.6 230.2 366.6 227.3C364.7 227.1 362.5 227.1 360 227.5C357 227.9 354.6 228.6 352.7 229.4C352.8 231.9 353.9 237 360.1 236.1Z" fill="#EEB399"/>
<path d="M363.7 217.6V227.4L359.2 231.5L354.8 228.8V222.9L363.7 217.6Z" fill="#EEB399"/>
<path d="M362.5 222.5L354.8 225.1V228.2C359.1 227.6 362.5 222.5 362.5 222.5Z" fill="#CC957F"/>
<path d="M357.4 226.5H353.3C349.8 226.5 347 223.7 347 220.2V209C347 205.5 349.8 202.7 353.3 202.7H357.4C360.9 202.7 363.7 205.5 363.7 209V220.2C363.7 223.7 360.9 226.5 357.4 226.5Z" fill="#EEB399"/>
<path d="M346 205.1C345.6 205.6 345.2 206.3 345.5 206.9C345.6 207.2 345.9 207.4 346.2 207.6C347.2 208.2 348.5 208.3 349.6 207.8C349.3 208.1 349.3 208.7 349.6 209.1C349.9 209.5 350.4 209.7 350.8 209.7C352.2 209.9 353.7 209.2 354.8 208.2C354.8 209.1 355.6 210 356.5 210C357.3 210 358.1 209.5 358.9 209.6C359.1 210 358.8 210.7 359.1 210.9C359.2 211 359.3 211 359.4 211C360.2 211.1 361.1 210.9 361.6 211.5C362.1 212.1 361.8 212.9 361.6 213.6C361.4 214.3 361.3 215 361.7 215.6C362.1 216.2 363 216.4 363.4 215.8C363.5 215.6 363.5 215.4 363.6 215.3C363.7 215.1 363.9 215 364.1 215.1C364.2 215.2 364.2 215.3 364.2 215.5C364.2 216.4 363.6 217.1 363.3 217.9C363 218.7 363 219.8 363.8 220.2C364 220.3 364.3 220.4 364.5 220.4C365.3 220.5 366.2 220.5 366.8 220C367.4 219.5 367.7 218.7 367.9 218C368 217.7 368.1 217.4 368 217.1C368 216.8 367.8 216.5 367.5 216.5C367.1 215.5 368.2 214.3 367.6 213.4C367.5 213.2 367.3 213.1 367.1 212.9C366.6 212.5 366.3 211.8 366.2 211.1C366.1 210.4 366.2 209.8 366.2 209.1C366.2 207.8 366.1 206.5 365.8 205.2C365.7 204.7 365.5 204.1 365.2 203.7C364.9 203.3 364.3 203 363.8 203C363.6 202 363 201.1 362.2 200.5C361.4 200 360.1 199.9 359.4 200.6C359.2 200.7 359.1 200.9 358.8 201C358.6 201 358.4 201 358.3 200.9C356.7 200.3 355 199.7 353.5 200.5C353.3 200.6 353.1 200.8 352.8 200.8C352.5 200.8 352.3 200.7 352.1 200.7C351.5 200.5 350.8 200.5 350.3 200.9C349.8 201.3 350 201.8 349.9 202.3C349.8 202.9 349.5 202.9 348.9 203.1C347.9 203.6 346.8 204.2 346 205.1Z" fill="#171E26"/>
<path d="M364.4 218.4C365.505 218.4 366.4 217.505 366.4 216.4C366.4 215.295 365.505 214.4 364.4 214.4C363.295 214.4 362.4 215.295 362.4 216.4C362.4 217.505 363.295 218.4 364.4 218.4Z" fill="#EEB399"/>
<path d="M371.3 230.3C368.2 230 365.4 232.3 365.2 235.4L363.1 259.7L340.3 261.2C340.3 261.2 339.6 267.2 341 272.5L368.7 270.7C371.5 270.5 373.7 268.3 374 265.5L376.6 236.3C376.7 233.3 374.4 230.6 371.3 230.3Z" fill="#EEB399"/>
<path d="M337.9 272.6C337.2 272.5 336.5 272.4 335.9 272C335.3 271.6 335 270.8 335.3 270.2C335.5 269.9 335.8 269.6 335.8 269.3C335.8 268.8 335.3 268.6 335.1 268.2C334.6 267.5 334.9 266.5 335.5 266C335.7 265.8 336 265.7 336 265.4C336.2 264.8 335.3 264.3 335.4 263.7C335.5 263.3 336.2 263.1 336.3 262.7C336.4 262.5 336.3 262.2 336.3 261.9C336.3 261.5 336.7 261.1 337.1 261C337.5 260.9 337.9 260.9 338.4 261C339.1 261.1 339.7 261.1 340.4 261.2C340.8 261.2 341.2 261.3 341.5 261.5C342.2 261.9 342.5 262.8 342.7 263.6C343 265.2 343.3 266.8 343 268.4C342.8 269.7 342.3 271.1 341.4 272C340.6 273 339 272.8 337.9 272.6Z" fill="#EEB399"/>
<path d="M371.3 230C368.1 229.7 365.3 232.1 365 235.3L363.2 255.7C365.2 256.6 369.9 258.5 374.5 258.8L376.5 236.3C376.8 233.1 374.5 230.3 371.3 230Z" fill="#FF9700"/>
<path d="M364.9 236.9L363.2 255.7C363.2 255.7 370.2 258.7 374.5 258.8L376.4 239.4" stroke="#CC7502" stroke-width="0.2835" stroke-miterlimit="10" stroke-linecap="round" stroke-linejoin="round"/>
<path d="M360 273.2H311.1C310.8 273.2 310.6 273 310.6 272.7V271.3C310.6 271 310.8 270.8 311.1 270.8H360C360.3 270.8 360.5 271 360.5 271.3V272.7C360.5 273 360.3 273.2 360 273.2Z" fill="black"/>
<path d="M334.1 273.2H293.4C291.7 273.2 290.2 271.8 289.9 270.2L286.4 248C286.1 246.3 287.3 245 288.9 245H329.6C331.3 245 332.8 246.4 333.1 248L336.6 270.2C336.9 271.8 335.8 273.2 334.1 273.2Z" fill="black"/>
<path d="M308.4 259.6C308.2 260 308 260.3 307.8 260.7C307.7 261.1 307.7 261.6 307.9 261.9C308 262 308.2 262.2 308.4 262.2C309.4 262.6 310.5 262.2 311.2 261.4C311.9 260.6 312.2 259.6 312.2 258.5C312.2 257.7 312 256.8 311.3 256.3C311.1 256.2 310.8 256.1 310.6 256C310.2 255.9 309.8 255.9 309.4 256.2C308.9 256.5 308.9 257.1 308.8 257.6C308.8 258.4 308.7 259 308.4 259.6Z" fill="white"/>
<path d="M310.1 255.2C310.1 255 310.1 254.8 310.1 254.6C310.2 254.4 310.3 254.2 310.5 254.2C310.6 254.2 310.6 254.2 310.7 254.2C310.9 254.2 311.1 254.2 311.2 254.3C311.3 254.4 311.3 254.5 311.3 254.7C311.3 254.8 311.2 255 311.2 255.1C311.1 255.4 310.8 255.6 310.5 255.7C310.2 255.8 310.2 255.6 310.1 255.2Z" fill="white"/>
<path d="M87.4 162.9C87.4 150.9 77.7 141.2 65.7 141.2C53.7 141.2 44 150.9 44 162.9C44 174.5 53.1 184 64.6 184.6L67.8 192.3L71.6 183.8C80.6 181.3 87.4 172.9 87.4 162.9Z" fill="white" stroke="black" stroke-miterlimit="10" stroke-linecap="round" stroke-linejoin="round"/>
<path d="M73.3 159.1V154H68.2C68.2 151.9 66.5 150.2 64.4 150.2C62.3 150.2 60.6 151.9 60.6 154H55.5V171.9H60.6C60.6 169.8 62.3 168.1 64.4 168.1C66.5 168.1 68.2 169.8 68.2 171.9H73.3V166.8C75.4 166.8 77.1 165.1 77.1 163C77.1 160.8 75.4 159.1 73.3 159.1Z" fill="black"/>
<path d="M400 175.3C405 164.4 400.3 151.5 389.4 146.5C378.5 141.5 365.6 146.2 360.6 157.1C355.7 167.6 360 180.1 370.1 185.4L369.7 193.7L376.7 187.6C386.1 189.2 395.7 184.4 400 175.3Z" fill="white" stroke="black" stroke-miterlimit="10" stroke-linecap="round" stroke-linejoin="round"/>
<path d="M389.7 162.2C389.4 162.2 389.1 162.3 388.8 162.3V157.1H383.7C383.7 159.2 382 160.9 379.9 160.9C377.8 160.9 376.1 159.2 376.1 157.1H371V162.2C368.9 162.2 367.2 163.9 367.2 166C367.2 168.1 368.9 169.8 371 169.8V174.9H376.2C376.2 172.8 377.9 171.1 380 171.1C382.1 171.1 383.8 172.8 383.8 174.9H388.8V169.7C389.1 169.8 389.4 169.8 389.7 169.8C391.8 169.8 393.5 168.1 393.5 166C393.5 163.9 391.8 162.2 389.7 162.2Z" fill="black"/>
<path d="M128 176.8C123 165.9 127.7 153 138.6 148C149.5 143 162.4 147.7 167.4 158.6C172.3 169.1 168 181.6 157.9 186.9L158.3 195.2L151.3 189.1C141.9 190.7 132.2 185.9 128 176.8Z" fill="white" stroke="black" stroke-miterlimit="10" stroke-linecap="round" stroke-linejoin="round"/>
<path d="M151.7 159.6C151.7 157.5 150 155.8 147.9 155.8C145.8 155.8 144.1 157.5 144.1 159.6H139V177.5H144.1C144.1 175.4 145.8 173.7 147.9 173.7C150 173.7 151.7 175.4 151.7 177.5H156.8V159.6H151.7Z" fill="black"/>
<path d="M309.2 188.5C318.4 180.8 319.5 167.1 311.8 157.9C304.1 148.7 290.4 147.6 281.2 155.3C272.3 162.8 271 175.9 277.9 185L274 192.4L282.9 189.8C290.8 195.2 301.6 194.9 309.2 188.5Z" fill="white" stroke="black" stroke-miterlimit="10" stroke-linecap="round" stroke-linejoin="round"/>
<path d="M303.9 168.7V163.6H298.8C298.8 161.5 297.1 159.8 295 159.8C292.9 159.8 291.2 161.5 291.2 163.6H286V168.7C288.1 168.7 289.8 170.4 289.8 172.5C289.8 174.6 288.1 176.3 286 176.3V181.4H291.1C291.1 179.3 292.8 177.6 294.9 177.6C297 177.6 298.7 179.3 298.7 181.4H303.8V176.3C305.9 176.3 307.6 174.6 307.6 172.5C307.7 170.4 306 168.7 303.9 168.7Z" fill="black"/>
<path d="M195.7 176.9C195.7 176.9 195.5 185.7 215 185.7C234.5 185.7 233.6 176.9 233.6 176.9H195.7Z" fill="#161616"/>
<path d="M234.6 179.3H195.2C192.6 179.3 190.5 177.2 190.5 174.6V158.6C190.5 156 192.6 153.9 195.2 153.9H234.6C237.2 153.9 239.3 156 239.3 158.6V174.6C239.3 177.2 237.2 179.3 234.6 179.3Z" fill="black"/>
<path d="M276.2 59.9C274.8 40.8 263.1 3.6 217.2 1.4V1.3C216.5 1.3 215.7 1.3 215 1.3C214.3 1.3 213.5 1.3 212.8 1.3V1.4C167 3.6 155.2 40.8 153.8 59.9C152.4 79.6 162.6 94.9 171.1 110.2C179.6 125.5 182.7 146.1 184 153.5C185.3 160.9 192.1 160.7 192.1 160.7H212.7H214.9H217.1H237.7C237.7 160.7 244.4 160.9 245.8 153.5C247.1 146.1 250.2 125.5 258.7 110.2C267.3 94.9 277.6 79.5 276.2 59.9Z" fill="white" stroke="black" stroke-miterlimit="10"/>
<path d="M199.4 162.5C204.7 146.1 207.3 128.8 207.1 111.5C207 104.7 206.5 97.7 203.8 91.5C203.3 90.4 202.5 89.1 201.2 89.2C200.1 89.3 199.5 90.4 199.1 91.4C197.8 95.2 198.3 99.6 200.5 103C202.7 106.4 206.4 108.7 210.4 109.2C211.5 109.3 212.6 109.3 213.6 108.9C215.7 108.1 216.9 106 217.7 103.9C219.4 99.4 219.7 94.3 218.6 89.6C218.3 88.4 217.6 87 216.4 87.1C215.6 87.2 215 88 214.6 88.7C212.5 92.8 212.8 97.7 214.1 102C214.7 103.9 215.5 105.8 216.9 107.2C220.4 110.6 226.6 109.7 230.1 106.4C233.6 103 234.9 97.9 235.3 93C235.5 90.7 234.9 87.6 232.5 87.3C230.1 87 228.7 89.9 228.2 92.3C223.5 112.7 222.5 134 225.2 154.8C225.7 158.7 226.4 162.8 228.8 166" stroke="black" stroke-miterlimit="10"/>
<path d="M171.4 26.3C169.7 28.3 168 30.5 167.2 33C166.4 35.5 166.5 38.5 168.2 40.5C170.6 43.4 175.2 43.3 178.5 41.5C181.8 39.7 184.1 36.6 186.6 33.8C190.5 29.4 195.1 25.4 200.7 23.6C202.8 22.9 205.1 22.6 207.1 21.7C209.2 20.9 211.2 19.5 212 17.4C213.1 14.6 211.8 11.2 209.3 9.5C203.4 5.3 195.8 9.29999 190 11.7C182.6 15.1 176.6 20.1 171.4 26.3Z" fill="#161616"/>
<path d="M174.7 61.7V56.6H169.6C169.6 54.5 167.9 52.8 165.8 52.8C163.7 52.8 162 54.5 162 56.6H156.9V74.5H162C162 72.4 163.7 70.7 165.8 70.7C167.9 70.7 169.6 72.4 169.6 74.5H174.7V69.4C176.8 69.4 178.5 67.7 178.5 65.6C178.6 63.4 176.8 61.7 174.7 61.7Z" fill="#E5E5E5"/>
<path d="M265.4 55.1C265.1 55.1 264.8 55.2 264.5 55.2V50H259.4C259.4 52.1 257.7 53.8 255.6 53.8C253.5 53.8 251.8 52.1 251.8 50H246.7V55.1C244.6 55.1 242.9 56.8 242.9 58.9C242.9 61 244.6 62.7 246.7 62.7V67.8H251.9C251.9 65.7 253.6 64 255.7 64C257.8 64 259.5 65.7 259.5 67.8H264.5V62.6C264.8 62.7 265.1 62.7 265.4 62.7C267.5 62.7 269.2 61 269.2 58.9C269.2 56.8 267.5 55.1 265.4 55.1Z" fill="#E5E5E5"/>
<path d="M196 122.4C196 120.3 194.3 118.6 192.2 118.6C190.1 118.6 188.4 120.3 188.4 122.4H183.3V140.3H188.4C188.4 138.2 190.1 136.5 192.2 136.5C194.3 136.5 196 138.2 196 140.3H201.1V122.4H196Z" fill="#E5E5E5"/>
<path d="M246.3 120V114.9H241.2C241.2 112.8 239.5 111.1 237.4 111.1C235.3 111.1 233.6 112.8 233.6 114.9H228.5V120C230.6 120 232.3 121.7 232.3 123.8C232.3 125.9 230.6 127.6 228.5 127.6V132.7H233.6C233.6 130.6 235.3 128.9 237.4 128.9C239.5 128.9 241.2 130.6 241.2 132.7H246.3V127.6C248.4 127.6 250.1 125.9 250.1 123.8C250.1 121.7 248.5 120 246.3 120Z" fill="#E5E5E5"/>
</svg>
