<svg width="176" height="195" viewBox="0 0 176 195" fill="none" xmlns="http://www.w3.org/2000/svg">
<g clip-path="url(#clip0)">
<path d="M32.9111 64.509C35.3858 61.2165 36.9981 47.7911 40.2134 48.5484C44.3191 49.5032 38.5542 63.8011 38.1511 65.1099C37.748 66.4187 39.904 66.9208 40.1946 65.7272C40.6071 64.0069 45.2002 47.2149 49.2029 48.499C51.4245 49.2151 49.9996 52.7711 49.9996 52.7711C49.9996 52.7711 43.4942 69.1103 45.4065 69.6536C47.3187 70.1969 51.0308 60.6732 52.2962 57.3066C53.4867 54.0716 55.4646 53.1909 56.8332 54.6643C58.2017 56.1377 54.7615 65.9413 53.6367 69.2338C52.5118 72.5263 49.231 81.3915 54.9303 78.066C60.6296 74.7406 66.4132 74.0162 68.1099 74.7735C69.8065 75.5308 69.1785 77.8603 67.0881 78.1648C64.8582 78.6974 62.7203 79.492 60.7327 80.5272C59.1568 81.3766 57.6947 82.3789 56.3738 83.5152C54.6287 84.9227 53.1621 86.575 52.0338 88.4046C51.1166 89.84 49.864 91.0888 48.3583 92.0691C46.8527 93.0494 45.1279 93.7389 43.2974 94.0925L41.5819 100.241L22.0938 93.8703L25.3371 82.2476C27.9055 73.3742 28.0086 67.0196 28.5992 61.521C29.5366 52.7464 30.8489 52.7875 31.9831 53.1086C34.4672 53.7671 30.4927 67.6945 32.9111 64.509Z" fill="#895B4E"/>
<path d="M29.3492 75.8189C30.2331 76.1884 31.0881 76.6091 31.9083 77.0783C33.8226 78.3004 35.2363 80.0326 35.939 82.0171C36.151 82.6143 36.2893 83.2297 36.3515 83.8527V84.1491L36.6515 84.0256C38.3545 83.3502 40.1721 82.9247 42.032 82.7662C43.4287 82.6427 44.2724 82.6839 44.2817 82.6263C43.5393 82.4715 42.7725 82.4269 42.0133 82.4946C40.0947 82.5702 38.2092 82.9611 36.4546 83.647L36.7921 83.8198C36.6204 81.9786 35.82 80.2257 34.4955 78.7905C33.8102 78.0403 32.994 77.3902 32.077 76.8643C31.4581 76.5259 30.7978 76.2498 30.1085 76.0412C29.873 75.927 29.6157 75.8517 29.3492 75.8189Z" fill="#6B463E"/>
<path d="M28.2528 88.8327C30.9705 90.7927 34.2939 91.9939 37.7954 92.2817C37.7954 92.1582 35.5457 91.7384 32.9116 90.7671C30.2776 89.7958 28.3372 88.7257 28.2528 88.8327Z" fill="#6B463E"/>
<path d="M22.5709 174.423C26.8644 174.062 30.9295 172.563 34.2229 170.128L65.6728 146.878L65.3916 173.677L59.1578 174.071L60.9108 194H158.279V193.525C164.269 189.065 167.953 182.343 169.256 175.005C171.628 161.741 172.509 140.123 174.627 124.842C176.108 114.087 173.399 100.158 162.441 95.0756L154.004 92.1653C143.615 88.586 137.79 86.5793 127.401 83C127.401 83 94.4461 84.8504 93.2231 84.3772C92.0002 83.9041 70.4067 89.9764 70.4067 89.9764C64.0792 92.0751 58.6235 98.7072 54.7333 103.593L35.7134 126.777C35.9196 122.998 43.7938 100.191 44.3094 99.1663L21.0617 90.7061C21.0617 90.7061 -2.92644 137.319 0.298233 157.462C2.98859 174.243 22.5709 174.423 22.5709 174.423Z" fill="black"/>
<path d="M65.095 123C64.87 123.008 65.3969 134.031 65.5 148H66C65.8875 134.023 65.32 122.992 65.095 123Z" fill="#2E2E2E"/>
<path d="M147.31 182.678C147.16 181.713 146.801 180.783 146.25 179.937C145.048 177.839 143.381 175.973 141.346 174.447C139.311 172.922 136.95 171.769 134.402 171.056C133.369 170.703 132.266 170.536 131.158 170.562C131.158 170.669 132.358 170.883 134.214 171.509C139.083 173.144 143.161 176.202 145.763 180.168C146.757 181.682 147.188 182.711 147.31 182.678Z" fill="#2E2E2E"/>
<path d="M26.8276 162.084C26.9735 162.001 27.1059 161.901 27.2213 161.787C27.5838 161.494 27.9279 161.183 28.2524 160.857C29.4519 159.657 30.4812 158.333 31.3177 156.914C32.555 154.809 33.4721 152.57 34.0455 150.255C34.731 147.43 35.1231 144.557 35.2172 141.67C35.3578 138.6 35.2172 135.661 35.3297 133.027C35.4605 130.681 35.7516 128.345 36.2014 126.03C36.5576 124.047 36.9232 122.458 37.1388 121.355C37.2607 120.845 37.3544 120.425 37.4294 120.087C37.4774 119.943 37.5027 119.793 37.5044 119.643C37.4206 119.776 37.3635 119.921 37.3356 120.071C37.2419 120.351 37.1107 120.77 36.9607 121.322C36.642 122.408 36.2295 123.997 35.8265 125.973C35.3406 128.295 35.0275 130.644 34.8891 133.002C34.7766 135.669 34.8891 138.583 34.7391 141.645C34.6617 144.514 34.2915 147.371 33.633 150.181C33.0804 152.462 32.2082 154.674 31.0364 156.766C30.2392 158.18 29.2679 159.514 28.1399 160.742C27.3244 161.614 26.8276 162.051 26.8276 162.084Z" fill="#2E2E2E"/>
<path d="M77.7181 3.74518C83.6424 2.33762 89.576 7.1365 95.6409 6.28044C99.3248 5.75363 102.203 3.27599 105.493 1.77788C110.451 -0.469277 117.341 -0.691526 122.225 1.71203C127.109 4.11559 130.221 6.5356 130.661 11.4168C135.273 9.26842 142.622 14.4953 145.003 19.393C147.384 24.2907 146.55 29.2706 144.9 34.3823C142.029 43.2329 137.207 51.5026 130.708 58.7224C130.137 59.3562 129.227 60.0559 128.412 59.6855C128.154 59.5187 127.946 59.3001 127.804 59.0481C127.662 58.7961 127.591 58.5179 127.596 58.2368C126.912 53.4791 127.784 48.6802 128.431 43.9225C129.077 39.1647 129.499 34.2588 127.962 29.6657C126.425 25.0726 122.525 20.8006 117.219 19.714C113.292 18.8909 109.149 19.9198 105.568 21.5496C101.987 23.1794 98.8186 25.3937 95.3971 27.3116C91.9757 29.2295 88.1605 30.7276 84.1485 30.7605C80.1365 30.7934 75.8714 29.0072 74.2779 25.7558C72.6843 22.5044 74.7841 18.0101 78.7492 17.401C76.9301 17.1968 75.2481 16.4447 73.9901 15.2729C72.7321 14.1011 71.9761 12.5824 71.8511 10.9757C71.7261 9.36909 72.2398 7.77414 73.3046 6.46303C74.3695 5.15191 75.9194 4.20588 77.69 3.78634L77.7181 3.74518Z" fill="black"/>
<path d="M136.517 34.9094L128.591 86.5196C128.282 88.5349 127.508 90.4788 126.312 92.2404C125.116 94.0021 123.523 95.5469 121.622 96.7867C119.722 98.0265 117.551 98.937 115.236 99.4662C112.92 99.9954 110.504 100.133 108.125 99.8708C107.824 99.8708 107.532 99.7991 107.231 99.7512C102.611 99.0435 98.4888 96.8577 95.7183 93.6464C92.9478 90.4351 91.7409 86.4443 92.3474 82.4999C92.9499 78.6158 93.4488 75.3777 93.477 74.971C93.477 74.971 78.1607 72.0279 79.0362 58.9001C79.4598 52.5595 81.5873 39.5512 83.6772 27.7952C84.7726 21.7187 88.5249 16.2133 94.1891 12.3718C99.8533 8.53041 107.015 6.63383 114.253 7.05858L115.75 7.14631C131.801 8.86107 139.012 21.3748 136.517 34.9094Z" fill="#895B4E"/>
<path d="M93.569 76.7325C100.658 77.2735 107.771 75.9527 114.004 72.9378C114.004 72.9378 108.492 82.3874 93.2034 80.239L93.569 76.7325Z" fill="#68443C"/>
<path d="M89.5764 37.9547C89.5318 38.4575 89.7126 38.9558 90.0803 39.3433C90.448 39.7308 90.9736 39.9768 91.5449 40.029C91.8195 40.0639 92.0992 40.0509 92.368 39.9907C92.6368 39.9306 92.8895 39.8244 93.1115 39.6784C93.3336 39.5323 93.5206 39.3493 93.662 39.1396C93.8033 38.93 93.8962 38.698 93.9352 38.4568C93.9352 38.4568 93.9352 38.4074 93.9352 38.3827C93.9799 37.8798 93.799 37.3815 93.4313 36.9941C93.0636 36.6066 92.5381 36.3605 91.9667 36.3084C91.415 36.2376 90.8539 36.3615 90.4059 36.6531C89.958 36.9446 89.6598 37.38 89.5764 37.8641V37.9547Z" fill="black"/>
<path d="M112.007 37.5914C111.962 38.0951 112.143 38.5944 112.51 38.9832C112.878 39.372 113.403 39.6198 113.975 39.6739C114.531 39.7445 115.096 39.6186 115.546 39.3238C115.996 39.0291 116.294 38.5895 116.375 38.1017C116.42 37.598 116.239 37.0987 115.872 36.7099C115.504 36.3211 114.979 36.0733 114.407 36.0192C113.851 35.9486 113.286 36.0745 112.836 36.3693C112.386 36.6641 112.088 37.1036 112.007 37.5914Z" fill="black"/>
<path d="M100.346 51.9534C100.346 51.8668 98.8026 51.6319 96.2508 51.3351C95.6052 51.2671 95.0001 51.162 94.9194 50.8838C94.9122 50.4684 95.109 50.0613 95.4842 49.7153C96.2104 48.7818 96.9669 47.7926 97.7536 46.7601C100.921 42.5499 104.772 35.5743 104.5 35.5001C104.228 35.4259 99.9525 42.2717 96.745 46.4881C95.9885 47.5267 95.2522 48.5159 94.5563 49.4618C94.0922 49.9259 93.91 50.4754 94.0418 51.0136C94.1214 51.1572 94.2538 51.2876 94.4287 51.3948C94.6036 51.502 94.8163 51.5831 95.0505 51.6319C95.4059 51.707 95.7752 51.7548 96.1499 51.7741C98.7219 51.9657 100.326 52.0646 100.346 51.9534Z" fill="black"/>
<path d="M106.908 53.6601C106.524 53.6189 106.346 55.8743 104.021 57.3477C101.696 58.8211 98.9781 58.4013 98.9312 58.7141C98.9312 58.8541 99.503 59.1915 100.656 59.2903C102.161 59.3982 103.661 59.0368 104.893 58.2696C106.075 57.5332 106.888 56.4244 107.161 55.1746C107.33 54.2363 107.086 53.6601 106.908 53.6601Z" fill="black"/>
<path d="M109.889 28.711C110.076 29.2872 112.467 29.1637 115.223 29.6246C117.979 30.0856 120.172 30.8923 120.585 30.4478C120.763 30.2173 120.416 29.6246 119.553 29.0567C118.399 28.3081 117.064 27.8022 115.652 27.5782C114.239 27.3541 112.787 27.4178 111.408 27.7644C110.358 28.0195 109.814 28.4311 109.889 28.711Z" fill="black"/>
<path d="M87.9544 29.1307C88.3294 29.6246 89.9979 29.2377 91.9664 29.3282C93.9349 29.4188 95.566 29.8715 95.9878 29.3941C96.1753 29.1718 95.9878 28.678 95.2566 28.1841C94.3242 27.5893 93.2114 27.2513 92.0597 27.2132C90.908 27.1751 89.7695 27.4386 88.7887 27.97C88.0482 28.4145 87.7576 28.9002 87.9544 29.1307Z" fill="black"/>
<path d="M134.383 45.5358C134.655 45.4453 145.191 43.4204 144.123 52.656C143.054 61.8915 132.752 59.0435 132.752 58.7801C132.752 58.5167 134.383 45.5358 134.383 45.5358Z" fill="#895B4E"/>
<path d="M136.351 55.5699C136.5 55.6729 136.657 55.7665 136.82 55.8498C137.238 56.0501 137.728 56.103 138.189 55.9979C139.332 55.7345 140.448 54.2694 140.692 52.6149C140.813 51.824 140.73 51.0194 140.448 50.2607C140.381 49.9637 140.234 49.6852 140.018 49.4488C139.803 49.2124 139.526 49.025 139.211 48.9025C139.005 48.8345 138.779 48.8318 138.572 48.895C138.365 48.9582 138.189 49.0832 138.076 49.2482C137.908 49.4952 137.954 49.6845 137.898 49.701C137.842 49.7174 137.692 49.5199 137.814 49.1495C137.901 48.9247 138.073 48.733 138.301 48.6062C138.611 48.4427 138.981 48.3924 139.332 48.4663C139.756 48.578 140.14 48.7836 140.447 49.0632C140.754 49.3429 140.974 49.6873 141.085 50.0631C141.444 50.9031 141.56 51.8082 141.423 52.6972C141.142 54.5492 139.857 56.1955 138.292 56.4424C138.001 56.491 137.701 56.4807 137.415 56.4122C137.129 56.3437 136.865 56.2189 136.642 56.0473C136.342 55.7922 136.314 55.5781 136.351 55.5699Z" fill="#6B463E"/>
<path d="M80.7741 25.2454C84.128 26.2227 87.6985 26.486 91.1911 26.0137C94.6837 25.5415 97.9984 24.3471 100.862 22.5291C104.827 19.9691 108.043 16.1333 112.833 15.1209C114.465 14.8427 116.145 14.8523 117.773 15.149C119.402 15.4458 120.947 16.0238 122.319 16.8495C125.053 18.5156 127.367 20.6593 129.115 23.1464C125.6 29.8468 126.996 37.6419 128.459 44.9102C128.525 45.7279 128.898 46.5034 129.518 47.1162C130.699 48.0381 132.621 47.4948 133.783 46.5564C135.658 45.0666 136.502 42.8441 137.12 40.6957C138.61 35.8034 138.977 30.6996 138.198 25.6817C137.396 20.6465 134.933 15.9278 131.112 12.1082C126.124 7.46573 119.278 4.7062 112.017 4.41186C104.779 4.1632 97.6369 5.92921 91.6102 9.45769C88.7361 10.9688 86.336 13.0848 84.6267 15.6147" fill="black"/>
<path d="M59.4113 176.908L61.2017 194.351H51.8278L43.5413 194.235C40.3854 194.54 37.2062 194.614 34.0363 194.458C33.8837 194.456 33.7334 194.425 33.5957 194.367C33.1045 194.307 32.6211 194.205 32.1522 194.062C31.3085 193.791 30.4367 193.313 30.568 192.499C30.9804 190.029 32.6677 189.799 32.6677 189.799L33.5208 189.749L33.5864 189.535C32.6074 189.561 31.6275 189.533 30.6523 189.453C30.3805 189.453 30.2305 189.395 30.2118 189.362C30.193 189.329 26.8934 189.017 27.1465 187.477C27.5496 185.008 29.2463 184.777 29.2463 184.777L31.9741 184.621C30.9607 184.646 29.9466 184.619 28.9369 184.539C28.6745 184.539 28.5151 184.489 28.4964 184.456C28.4776 184.424 25.178 184.103 25.4311 182.563C25.8436 180.094 27.5309 179.872 27.5309 179.872L29.79 179.732C28.9704 179.754 28.15 179.729 27.334 179.658C27.0622 179.658 26.9122 179.6 26.8935 179.567C26.8747 179.534 23.5751 179.221 23.8282 177.682C24.2313 175.213 25.928 174.982 25.928 174.982C25.928 174.982 31.1492 174.653 34.73 174.529C34.73 174.529 38.7982 171.303 40.3543 171.451C42.7446 171.673 56.6647 176.192 56.6647 176.192L59.4113 176.908Z" fill="#895B4E"/>
<path d="M41.8257 189.206C41.8257 189.354 39.7353 189.527 37.1856 189.601C35.6543 189.726 34.1112 189.682 32.5925 189.469C34.1311 189.173 35.7047 189.041 37.2794 189.074C39.7822 189 41.8257 189.066 41.8257 189.206Z" fill="#6B463E"/>
<path d="M41.8818 184.275C41.8818 184.415 38.9291 184.629 35.3202 184.745C33.1165 184.896 30.902 184.877 28.7022 184.687C28.646 184.547 31.655 184.325 35.2639 184.218C38.8728 184.111 41.8256 184.127 41.8818 184.275Z" fill="#6B463E"/>
<g opacity="0.78">
<path opacity="0.78" d="M41.4038 179.254C41.4038 179.402 38.4604 179.616 34.8421 179.723C31.2238 179.83 28.2242 179.814 28.2242 179.666C28.2242 179.518 31.1676 179.312 34.7859 179.197C38.4042 179.081 41.4038 179.114 41.4038 179.254Z" fill="#6B463E"/>
</g>
<path d="M33.2205 174.546C33.9127 174.658 34.6166 174.705 35.3202 174.686L40.3914 174.834L45.4627 174.99C46.1632 175.064 46.8713 175.064 47.5718 174.99C46.8892 174.828 46.188 174.734 45.4814 174.71C44.1878 174.595 42.388 174.48 40.4102 174.422C38.4323 174.365 36.6606 174.365 35.3202 174.422C34.6172 174.389 33.9122 174.431 33.2205 174.546Z" fill="#6B463E"/>
<mask id="path-26-inside-1" fill="white">
<path d="M59.1578 174.34H59.4859L60.4233 174.299L64.0791 174.11L77.5118 173.385C88.8635 172.776 104.546 171.912 121.869 171.138L131.149 170.768H131.374V170.57C131.514 167.278 131.861 164.034 132.133 160.939C132.405 157.845 132.724 154.873 133.005 152.058C133.567 146.428 134.073 141.406 134.505 137.2C134.936 132.994 135.255 129.66 135.442 127.323C135.555 126.187 135.63 125.298 135.695 124.664C135.683 124.433 135.699 124.201 135.742 123.972C135.751 123.893 135.751 123.813 135.742 123.734C135.712 123.808 135.696 123.886 135.695 123.964C135.676 124.196 135.642 124.427 135.592 124.656C135.517 125.289 135.405 126.178 135.264 127.314C134.992 129.652 134.608 133.011 134.13 137.192C133.652 141.374 133.127 146.411 132.517 152.008C132.236 154.824 131.936 157.77 131.58 160.89C131.224 164.01 130.943 167.195 130.793 170.554L131.027 170.34L121.738 170.702C104.415 171.476 88.7323 172.389 77.3899 173.073L63.9572 173.896L60.3108 174.159L59.3734 174.241L59.1578 174.34Z"/>
</mask>
<path d="M59.1578 174.34H59.4859L60.4233 174.299L64.0791 174.11L77.5118 173.385C88.8635 172.776 104.546 171.912 121.869 171.138L131.149 170.768H131.374V170.57C131.514 167.278 131.861 164.034 132.133 160.939C132.405 157.845 132.724 154.873 133.005 152.058C133.567 146.428 134.073 141.406 134.505 137.2C134.936 132.994 135.255 129.66 135.442 127.323C135.555 126.187 135.63 125.298 135.695 124.664C135.683 124.433 135.699 124.201 135.742 123.972C135.751 123.893 135.751 123.813 135.742 123.734C135.712 123.808 135.696 123.886 135.695 123.964C135.676 124.196 135.642 124.427 135.592 124.656C135.517 125.289 135.405 126.178 135.264 127.314C134.992 129.652 134.608 133.011 134.13 137.192C133.652 141.374 133.127 146.411 132.517 152.008C132.236 154.824 131.936 157.77 131.58 160.89C131.224 164.01 130.943 167.195 130.793 170.554L131.027 170.34L121.738 170.702C104.415 171.476 88.7323 172.389 77.3899 173.073L63.9572 173.896L60.3108 174.159L59.3734 174.241L59.1578 174.34Z" fill="#2E2E2E"/>
<path d="M59.1578 174.34V175.465L58.6893 173.317L59.1578 174.34ZM59.4859 174.34L59.5353 175.464L59.5106 175.465H59.4859V174.34ZM60.4233 174.299L60.4815 175.423L60.4726 175.423L60.4233 174.299ZM64.0791 174.11L64.1397 175.233L64.1373 175.233L64.0791 174.11ZM77.5118 173.385L77.4512 172.262L77.4515 172.262L77.5118 173.385ZM121.869 171.138L121.819 170.014L121.824 170.014L121.869 171.138ZM131.149 170.768L131.104 169.644L131.126 169.643H131.149V170.768ZM131.374 170.768H132.499V171.893H131.374V170.768ZM131.374 170.57H130.249V170.546L130.25 170.522L131.374 170.57ZM135.442 127.323L134.321 127.233L134.321 127.222L134.323 127.212L135.442 127.323ZM135.695 124.664L136.819 124.605L136.823 124.693L136.814 124.78L135.695 124.664ZM135.742 123.972L136.859 124.104L136.855 124.143L136.847 124.182L135.742 123.972ZM135.742 123.734L134.699 123.312L136.859 123.602L135.742 123.734ZM135.695 123.964L136.82 123.98L136.819 124.018L136.816 124.056L135.695 123.964ZM135.592 124.656L134.475 124.523L134.481 124.469L134.493 124.416L135.592 124.656ZM135.264 127.314L134.146 127.184L134.147 127.176L135.264 127.314ZM132.517 152.008L131.398 151.897L131.399 151.887L132.517 152.008ZM130.793 170.554L131.551 171.384L129.548 173.214L129.669 170.504L130.793 170.554ZM131.027 170.34L130.983 169.216L134.057 169.096L131.786 171.17L131.027 170.34ZM121.738 170.702L121.687 169.578L121.694 169.578L121.738 170.702ZM77.3899 173.073L77.3211 171.95L77.3223 171.95L77.3899 173.073ZM63.9572 173.896L63.8762 172.773L63.8884 172.773L63.9572 173.896ZM60.3108 174.159L60.2124 173.038L60.2211 173.038L60.2298 173.037L60.3108 174.159ZM59.3734 174.241L58.9049 173.219L59.0815 173.138L59.275 173.121L59.3734 174.241ZM59.1578 173.215H59.4859V175.465H59.1578V173.215ZM59.4366 173.216L60.374 173.175L60.4726 175.423L59.5353 175.464L59.4366 173.216ZM60.3651 173.175L64.0209 172.986L64.1373 175.233L60.4815 175.422L60.3651 173.175ZM64.0185 172.986L77.4512 172.262L77.5724 174.509L64.1397 175.233L64.0185 172.986ZM77.4515 172.262C88.8014 171.653 104.49 170.788 121.819 170.014L121.919 172.262C104.602 173.035 88.9256 173.899 77.5721 174.509L77.4515 172.262ZM121.824 170.014L131.104 169.644L131.194 171.892L121.914 172.262L121.824 170.014ZM131.149 169.643H131.374V171.893H131.149V169.643ZM130.249 170.768V170.57H132.499V170.768H130.249ZM130.25 170.522C130.392 167.196 130.743 163.908 131.012 160.841L133.254 161.038C132.979 164.161 132.637 167.359 132.498 170.618L130.25 170.522ZM131.012 160.841C131.285 157.737 131.605 154.751 131.885 151.946L134.124 152.17C133.842 154.995 133.525 157.952 133.254 161.038L131.012 160.841ZM131.885 151.946C132.448 146.315 132.954 141.293 133.386 137.086L135.624 137.315C135.193 141.52 134.687 146.54 134.124 152.17L131.885 151.946ZM133.386 137.086C133.817 132.881 134.134 129.558 134.321 127.233L136.563 127.413C136.375 129.763 136.055 133.107 135.624 137.315L133.386 137.086ZM134.323 127.212C134.431 126.113 134.512 125.171 134.576 124.548L136.814 124.78C136.747 125.424 136.678 126.261 136.562 127.434L134.323 127.212ZM134.572 124.723C134.555 124.401 134.577 124.079 134.637 123.763L136.847 124.182C136.821 124.322 136.811 124.464 136.819 124.605L134.572 124.723ZM134.625 123.841C134.624 123.849 134.624 123.857 134.625 123.865L136.859 123.602C136.879 123.769 136.879 123.937 136.859 124.104L134.625 123.841ZM136.785 124.155C136.806 124.103 136.819 124.043 136.82 123.98L134.57 123.948C134.573 123.728 134.618 123.513 134.699 123.312L136.785 124.155ZM136.816 124.056C136.793 124.338 136.752 124.618 136.691 124.895L134.493 124.416C134.532 124.236 134.559 124.055 134.574 123.873L136.816 124.056ZM136.709 124.788C136.634 125.426 136.52 126.322 136.38 127.453L134.147 127.176C134.289 126.035 134.4 125.153 134.475 124.523L136.709 124.788ZM136.381 127.444C136.11 129.781 135.726 133.138 135.247 137.32L133.012 137.064C133.49 132.883 133.874 129.523 134.146 127.184L136.381 127.444ZM135.247 137.32C134.77 141.498 134.246 146.525 133.636 152.13L131.399 151.887C132.007 146.297 132.534 141.249 133.012 137.064L135.247 137.32ZM133.637 152.12C133.356 154.937 133.055 157.89 132.698 161.018L130.462 160.762C130.818 157.651 131.117 154.711 131.398 151.897L133.637 152.12ZM132.698 161.018C132.344 164.118 132.065 167.277 131.917 170.604L129.669 170.504C129.82 167.114 130.104 163.902 130.462 160.762L132.698 161.018ZM130.034 169.723L130.268 169.509L131.786 171.17L131.551 171.384L130.034 169.723ZM131.071 171.464L121.781 171.826L121.694 169.578L130.983 169.216L131.071 171.464ZM121.788 171.826C104.474 172.599 88.798 173.512 77.4576 174.195L77.3223 171.95C88.6666 171.266 104.356 170.352 121.687 169.578L121.788 171.826ZM77.4587 174.195L64.026 175.019L63.8884 172.773L77.3211 171.95L77.4587 174.195ZM64.0383 175.018L60.3919 175.281L60.2298 173.037L63.8762 172.774L64.0383 175.018ZM60.4092 175.28L59.4718 175.362L59.275 173.121L60.2124 173.038L60.4092 175.28ZM59.842 175.264L59.6264 175.363L58.6893 173.317L58.9049 173.219L59.842 175.264Z" fill="#2E2E2E" mask="url(#path-26-inside-1)"/>
</g>
<defs>
<clipPath id="clip0">
<rect width="176" height="195" rx="16" transform="matrix(-1 0 0 1 176 0)" fill="white"/>
</clipPath>
</defs>
</svg>
