<svg width="571" height="401" viewBox="0 0 571 401" fill="none" xmlns="http://www.w3.org/2000/svg">
<path d="M77.2 92.6C77.2 92.6 125.4 19.4 188.8 26.1C252.2 32.8 226.2 77.3 255.1 76.3C284 75.4 344.2 -4.2 414.9 45.5C514.3 115.3 417.8 178.1 460.5 176.1C503.2 174.1 527.3 240.7 485.7 300.7C444.1 360.7 386 355.1 370.8 349.1C351 341.3 325.5 305.4 302.2 323.8C278.9 342.2 254 392 201.6 369.3C122.1 334.9 197.2 238.6 121.3 256C45.3 273.3 18.2 177.3 77.2 92.6Z" fill="#E5E5E5"/>
<path d="M171.3 281.8C171.3 281.8 203.2 281.2 214 274.7C227 266.8 239.9 249.9 242 244.3C244.7 237.3 245.7 239.9 245.7 239.9L243.8 246C243.8 246 247.3 238.9 247.7 240.5C248.2 242.1 247.6 247.6 247.6 247.6C247.6 247.6 251.6 239.7 250.8 244.6C250 249.5 239.1 278.9 217.5 292C206.6 298.6 170.7 297.4 170.7 297.4L171.3 281.8Z" fill="#CE7D67"/>
<path d="M286.3 259.1C322.972 259.1 352.7 229.372 352.7 192.7C352.7 156.028 322.972 126.3 286.3 126.3C249.628 126.3 219.9 156.028 219.9 192.7C219.9 229.372 249.628 259.1 286.3 259.1Z" fill="#FF9700"/>
<path d="M286.3 298H255C255 298 256.8 258 238.3 238.6H286.3V298Z" fill="#FF9700"/>
<path d="M286.3 298H317.6C317.6 298 315.8 258 334.3 238.6H286.3V298Z" fill="#FF9700"/>
<path d="M291.8 327.9H280.2C266 327.9 254.4 316.4 254.4 302.1V282.9H317.6V302.1C317.6 316.3 306.1 327.9 291.8 327.9Z" fill="black"/>
<path d="M289 342.7H281.1C271.4 342.7 263.5 334.8 263.5 325.1V315.6C263.5 305.9 271.4 298 281.1 298H289C298.7 298 306.6 305.9 306.6 315.6V325.1C306.6 334.8 298.7 342.7 289 342.7Z" fill="black"/>
<path d="M302 283.3C302 283.3 301.9 283.3 302 283.3C301.7 283.3 301.6 283.1 301.6 282.9C301.7 282.2 313 211.3 306.7 203.5C305.9 202.5 305.1 202.1 304.2 202.3C301.9 202.8 299.2 206.8 296.2 214.1C293.9 219.6 292.4 225.1 292.4 225.1C292.3 225.3 292.2 225.4 292 225.4C291.8 225.4 291.7 225.2 291.7 225C291.7 224.8 293.1 203.8 287.3 198C286.7 197.4 286.2 197.2 285.6 197.4C281.7 198.7 278 216.2 276.9 222.9C276.9 223.1 276.7 223.2 276.5 223.2C276.3 223.2 276.2 223.1 276.1 222.9C276.1 222.7 273 205.8 265.6 198.4C265.3 198.1 265.1 198 264.9 198.1C262.8 199.1 262.3 222.5 269.2 282.8C269.2 283 269.1 283.2 268.9 283.2C268.7 283.2 268.5 283.1 268.5 282.9C267.5 274.4 259.1 200.1 264.6 197.4C264.9 197.2 265.5 197.2 266.1 197.8C272.2 203.9 275.4 215.9 276.4 220.7C277.5 214.8 280.9 198.1 285.2 196.6C286 196.3 286.9 196.6 287.7 197.4C292.5 202.1 292.6 215.9 292.4 222C294.3 216 299.2 202.5 304 201.5C305.2 201.3 306.3 201.7 307.2 202.9C313.7 210.9 302.7 279.9 302.3 282.9C302.3 283.1 302.2 283.3 302 283.3Z" fill="#2E2427"/>
<path d="M309.9 143.2C309.9 143.2 340.2 155.8 337.2 177.3C334.2 198.8 315.3 160.5 300.6 154.5C285.9 148.5 297.1 139.7 309.9 143.2Z" fill="white"/>
<path d="M343.4 187.7C343.4 187.7 347.2 205.3 341.1 207.1C335 208.9 333.9 199.7 335 192C336.1 184.3 342.8 183.9 343.4 187.7Z" fill="white"/>
<path d="M205.6 400.5H283.3C283.3 400.5 272.5 386.4 261.8 393.4C261.8 393.4 256.5 375 241.8 375.3C227.1 375.7 224.1 393.4 224.1 393.4C224.1 393.4 212.5 386.3 205.6 400.5Z" fill="black"/>
<path d="M257.7 393.1C257.5 393.1 257.4 393 257.3 392.9C255.1 386.8 251.9 382.8 247.9 381.3C244.9 380.2 242.5 380.8 242.5 380.8C242.3 380.9 242.1 380.7 242 380.5C241.9 380.3 242.1 380.1 242.3 380C242.4 380 252.6 377.3 258 392.6C258.1 392.8 258 393 257.8 393.1C257.8 393.1 257.7 393.1 257.7 393.1Z" fill="#2E2427"/>
<path d="M277.9 398.8C277.8 398.8 277.7 398.8 277.6 398.7C271.3 391.4 265.4 395.7 265.1 395.9C264.9 396 264.7 396 264.6 395.8C264.5 395.6 264.5 395.4 264.7 395.3C264.8 395.3 271.4 390.4 278.2 398.2C278.3 398.4 278.3 398.6 278.2 398.7C278.1 398.7 278 398.8 277.9 398.8Z" fill="#2E2427"/>
<path d="M0 209.6H107.1C107.1 209.6 92.3 190.1 77.5 199.9C77.5 199.9 70.2 174.5 50 175C29.7 175.5 25.6 199.9 25.6 199.9C25.6 199.9 9.6 190 0 209.6Z" fill="#FF9700"/>
<path d="M71.8 199.5C71.5 199.5 71.3 199.3 71.2 199.1C64.1 179.1 51.4 182.3 50.9 182.4C50.6 182.5 50.2 182.3 50.1 182C50 181.7 50.2 181.3 50.5 181.2C50.6 181.2 64.8 177.5 72.3 198.6C72.4 198.9 72.2 199.3 71.9 199.4C71.9 199.5 71.8 199.5 71.8 199.5Z" fill="#2E2427"/>
<path d="M99.6 207.3C99.4 207.3 99.3 207.2 99.1 207.1C90.5 197.2 82.4 203 82 203.3C81.7 203.5 81.3 203.4 81.1 203.2C80.9 202.9 80.9 202.5 81.2 202.3C81.3 202.2 90.5 195.5 99.9 206.3C100.1 206.6 100.1 206.9 99.8 207.2C99.9 207.2 99.8 207.3 99.6 207.3Z" fill="#2E2427"/>
<path d="M484 201.4H570.2C570.2 201.4 558.3 185.7 546.4 193.6C546.4 193.6 540.6 173.2 524.2 173.6C507.8 174 504.5 193.6 504.5 193.6C504.5 193.6 491.7 185.6 484 201.4Z" fill="#FF9700"/>
<path d="M541.7 193.2C541.5 193.2 541.3 193.1 541.2 192.9C535.5 176.8 525.3 179.4 524.9 179.5C524.6 179.6 524.4 179.4 524.3 179.2C524.2 178.9 524.4 178.7 524.6 178.6C524.7 178.6 536.1 175.6 542.1 192.6C542.2 192.9 542.1 193.1 541.8 193.2C541.8 193.2 541.8 193.2 541.7 193.2Z" fill="#2E2427"/>
<path d="M564.1 199.5C564 199.5 563.8 199.4 563.7 199.3C556.7 191.3 550.2 196 550 196.2C549.8 196.4 549.5 196.3 549.3 196.1C549.1 195.9 549.2 195.6 549.4 195.4C549.5 195.3 556.9 189.9 564.5 198.6C564.7 198.8 564.7 199.1 564.5 199.3C564.4 199.5 564.3 199.5 564.1 199.5Z" fill="#2E2427"/>
<path d="M260.1 30.2H337.8C337.8 30.2 327 16.1 316.3 23.1C316.3 23.1 311 4.7 296.3 5C281.6 5.4 278.6 23.1 278.6 23.1C278.6 23.1 267.1 16 260.1 30.2Z" fill="black"/>
<path d="M312.2 22.8C312 22.8 311.9 22.7 311.8 22.6C306.6 8 297.4 10.3 297 10.5C296.8 10.6 296.6 10.4 296.5 10.2C296.4 9.99999 296.6 9.79999 296.8 9.69999C296.9 9.69999 307.1 6.99999 312.5 22.3C312.6 22.5 312.5 22.7 312.3 22.8H312.2Z" fill="#2E2427"/>
<path d="M332.4 28.5C332.3 28.5 332.2 28.5 332.1 28.4C325.8 21.1 319.9 25.4 319.6 25.6C319.4 25.7 319.2 25.7 319.1 25.5C319 25.3 319 25.1 319.2 25C319.3 24.9 325.9 20.1 332.7 27.9C332.8 28.1 332.8 28.3 332.7 28.4C332.6 28.4 332.5 28.5 332.4 28.5Z" fill="#2E2427"/>
<path d="M161.6 303.6C161.6 303.6 120.1 308.2 101.6 305.1C83.1 302 72.8 244.7 69.7 245.7C66.5 246.7 60.2 248.2 63.8 245.1C66.3 242.9 67.1 244.3 71.8 241C77.6 236.9 98.8 281.4 111.3 284.8C118.1 286.7 150.7 277.3 150.7 277.3L161.6 303.6Z" fill="#E1AE8D"/>
<path d="M136.8 281.9C136.8 281.9 111.3 284.8 106.1 279.9C102.3 276.3 87.5 252.1 83.2 249C81.5 247.7 72.3 254 72.7 254.9C73.1 255.9 87.1 294.1 91 299.4C101.4 313.6 138.6 308.5 138.6 308.5L136.8 281.9Z" fill="black"/>
<path d="M113.2 287.6C110 287.6 107 287.4 105.5 286.9C101.1 285.3 81 251 80.2 249.5C80.1 249.3 80.2 249.1 80.3 249C80.5 248.9 80.7 249 80.8 249.1C86.6 259 102.3 284.9 105.7 286.2C109.9 287.7 126.9 286.2 127 286.2C127.2 286.2 127.4 286.3 127.4 286.5C127.4 286.7 127.3 286.9 127.1 286.9C126.7 286.9 119.4 287.6 113.2 287.6Z" fill="#2E2427"/>
<path d="M154.4 323.2C154.4 323.2 116.2 340.9 97.9 336.6C79.6 332.3 68.7 281.6 65.5 282.4C62.3 283.2 58 286.3 60.3 282.2C62.6 278.1 63.1 281.7 67.1 279.5C73.3 276 93 314.9 99.3 317.9C105.7 320.9 134.9 291.5 134.9 291.5L154.4 323.2Z" fill="#E1AE8D"/>
<path d="M130.5 297.3C130.5 297.3 103.7 315.3 98.9 313.8C94.1 312.3 79.2 287 77.5 286.5C75.8 286 68.5 288.9 67.3 294.2C66.2 299.5 88.2 341.2 99.1 340.5C127.1 338.7 154.3 323.1 154.3 323.1L130.5 297.3Z" fill="black"/>
<path d="M198.7 257C198.7 257 206.5 270.9 214.2 266.8C221.9 262.8 214.2 250.4 210.3 246.2C206.4 242 196.1 253.1 198.7 257Z" fill="#E1AE8D"/>
<path d="M210.1 266.7C210.1 266.7 202.9 279.1 199.9 281.5C196.9 283.9 191.9 273.1 193.1 270.2C193.8 268.6 198.9 264.7 201.9 257.7C202 257.7 211.3 262.1 210.1 266.7Z" fill="#E1AE8D"/>
<path d="M201.9 265.5C201.9 265.5 203 264.4 203.1 262.5C203.2 260.7 198.5 260.2 198.4 257.8C198.3 255.4 202 259 202.1 258.5C202.2 258 198.4 255 200.3 252.3C202.2 249.6 206.7 250.9 208.6 250.1C211.5 248.9 210.6 246.5 210 245.4C208.4 242.3 200.3 241.7 196.6 245.6C192.9 249.5 195.6 252.2 194.5 253.3C193.4 254.4 192 258 193.1 260.2C194.1 262.4 198.2 262.3 197.7 264.4C197.1 266.5 200.1 267 201.9 265.5Z" fill="#F3D78A"/>
<path d="M127.8 282.5C127.8 282.5 185.6 263.1 193 268.5C215 284.7 203.9 303.5 198.7 307C193.5 310.5 155.2 329.3 143.5 329.3C137.2 329.4 124.2 293.5 127.8 282.5Z" fill="#FF9700"/>
<path d="M190.1 275.6C190.1 275.6 211.4 293.5 222.8 293.1C234.2 292.6 258.2 252.8 259.4 256.3C260.5 259.7 257.6 261.5 257.6 261.5C257.6 261.5 263.1 255 263.6 257.8C264.1 260.6 260.5 263.7 260.5 263.7C260.5 263.7 269.1 255.9 265.6 261.5C263.5 264.9 241.6 312.7 222.8 311.6C206.2 310.6 181.5 288.5 181.5 288.5L190.1 275.6Z" fill="#E1AE8D"/>
<path d="M193 268.5C193 268.5 214.5 288.5 216.7 290C218.9 291.5 210.6 307.1 207.6 308.4C204.6 309.7 176.4 284.3 176.4 284.3C176.4 284.3 180.2 265.5 193 268.5Z" fill="#FF9700"/>
<path d="M200.3 252.4C200.3 252.4 199.3 254.3 201 255.4C202.7 256.5 205.1 258.1 204.8 259.7C204.5 261.3 208.8 265 210.2 264C211.6 263 211 259.6 213.2 258.9C215.5 258.1 216.7 255.9 217.8 259.3C218.9 262.7 221 265.6 216.1 268C211.2 270.4 204 263.8 203.1 262.4C202.2 261.1 203.3 258.8 199.4 256.2C196.3 254.3 199.4 252.1 200.3 252.4Z" fill="#F3D78A"/>
<path d="M73.8 282.2C73.8 282.2 66.7 287.7 66.3 287.2C65.9 286.7 64.2 284 63.6 283.7C63 283.5 54.7 285.6 53.7 284.6C52.7 283.6 68 274.2 68 274.2L73.8 282.2Z" fill="#FF9700"/>
<path d="M64.8 285.4C64.7 285.4 64.7 285.4 64.6 285.4C64.4 285.3 64.4 285.1 64.5 284.9L66.9 280.6C67 280.4 67.2 280.4 67.4 280.5C67.6 280.6 67.6 280.8 67.5 281L65.1 285.3C65 285.4 64.9 285.4 64.8 285.4Z" fill="#2E2427"/>
<path d="M63 285.2H62.9C62.7 285.1 62.6 284.9 62.7 284.7L64.3 279.8C64.4 279.6 64.6 279.5 64.8 279.6C65 279.7 65.1 279.9 65 280.1L63.4 285C63.3 285.1 63.2 285.2 63 285.2Z" fill="#2E2427"/>
<path d="M60.8 284.8C60.8 284.8 60.7 284.8 60.8 284.8C60.5 284.7 60.4 284.5 60.4 284.3L61.6 280C61.7 279.8 61.9 279.7 62.1 279.7C62.3 279.8 62.4 280 62.4 280.2L61.2 284.5C61.1 284.7 61 284.8 60.8 284.8Z" fill="#2E2427"/>
<path d="M78.5 245.1C78.5 245.1 71.4 250.6 71 250.1C70.6 249.6 68.9 246.9 68.3 246.6C67.7 246.4 59.4 248.5 58.4 247.5C57.4 246.5 72.7 237.1 72.7 237.1L78.5 245.1Z" fill="#FF9700"/>
<path d="M69.5 248.3C69.4 248.3 69.4 248.3 69.3 248.3C69.1 248.2 69.1 248 69.2 247.8L71.6 243.5C71.7 243.3 71.9 243.3 72.1 243.4C72.3 243.5 72.3 243.7 72.2 243.9L69.8 248.2C69.8 248.2 69.7 248.3 69.5 248.3Z" fill="#2E2427"/>
<path d="M67.8 248.1H67.7C67.5 248 67.4 247.8 67.5 247.6L69.1 242.7C69.2 242.5 69.4 242.4 69.6 242.5C69.8 242.6 69.9 242.8 69.8 243L68.2 247.9C68.1 248 67.9 248.1 67.8 248.1Z" fill="#2E2427"/>
<path d="M65.5 247.7C65.2 247.6 65.1 247.4 65.1 247.2L66.3 242.9C66.4 242.7 66.6 242.6 66.8 242.6C67 242.7 67.1 242.9 67.1 243.1L65.9 247.4C65.9 247.5 65.7 247.7 65.5 247.7Z" fill="#2E2427"/>
<path d="M215.8 259L213 258.8C212.8 258.8 212.6 258.6 212.7 258.4C212.7 258.2 212.9 258 213.1 258.1L214.9 258.3L211.5 254.9C211.4 254.8 211.4 254.5 211.5 254.4C211.6 254.3 211.9 254.3 212 254.4L216.1 258.6C216.2 258.7 216.2 258.9 216.2 259C216.1 259 216 259 215.8 259Z" fill="#2E2427"/>
<path d="M214.1 262.7C213.3 262.7 212.3 262.1 212.1 261.9C211.9 261.8 211.9 261.5 212 261.4C212.1 261.2 212.3 261.2 212.5 261.3C213.1 261.7 214 262.1 214.3 261.9C214.5 261.8 214.5 261.3 214.2 260.3C214.1 260.1 214.3 259.9 214.5 259.8C214.7 259.7 214.9 259.9 215 260.1C215.4 261.4 215.3 262.2 214.8 262.5C214.6 262.6 214.4 262.7 214.1 262.7Z" fill="#2E2427"/>
<path d="M207.6 258.2C208.263 258.2 208.8 257.663 208.8 257C208.8 256.337 208.263 255.8 207.6 255.8C206.937 255.8 206.4 256.337 206.4 257C206.4 257.663 206.937 258.2 207.6 258.2Z" fill="#2E2427"/>
<path d="M213.5 254.4C214.163 254.4 214.7 253.863 214.7 253.2C214.7 252.537 214.163 252 213.5 252C212.837 252 212.3 252.537 212.3 253.2C212.3 253.863 212.837 254.4 213.5 254.4Z" fill="#2E2427"/>
<path d="M201.6 258.6C201.6 258.6 198.6 255.9 197.9 257.8C197.2 259.7 199.9 262 202 262.1C204.1 262.1 201.6 258.6 201.6 258.6Z" fill="#E1AE8D"/>
<path d="M200.2 304.7C200.1 304.7 200.1 304.7 200 304.6C175.3 289.9 173 277.7 172.9 277.2C172.9 277 173 276.8 173.2 276.8C173.4 276.8 173.6 276.9 173.6 277.1C173.6 277.2 176 289.5 200.3 304C200.5 304.1 200.5 304.3 200.4 304.5C200.5 304.6 200.3 304.7 200.2 304.7Z" fill="#2E2427"/>
<path d="M203.8 304.7C203.7 304.7 203.5 304.6 203.5 304.5C203.4 304.3 203.5 304.1 203.7 304C208.6 301.4 214.3 288.3 214.3 288.2C214.4 288 214.6 287.9 214.8 288C215 288.1 215.1 288.3 215 288.5C214.8 289 209.2 301.9 204 304.7C203.9 304.7 203.9 304.7 203.8 304.7Z" fill="#2E2427"/>
<path d="M144.2 324.4C144.1 324.4 144 324.3 143.9 324.2C133.7 309.2 133.2 288.5 133.2 288.3C133.2 288.1 133.4 287.9 133.6 287.9C133.8 287.9 134 288.1 134 288.3C134 288.5 134.5 309 144.5 323.8C144.6 324 144.6 324.2 144.4 324.3C144.4 324.4 144.3 324.4 144.2 324.4Z" fill="#2E2427"/>
<path d="M98.8 318.4C97.8 318.4 96.9 318.2 96.3 317.9C89.3 314.3 73.1 289.3 72.4 288.2C72.3 288 72.3 287.8 72.5 287.7C72.7 287.6 72.9 287.6 73 287.8C73.2 288.1 89.8 313.7 96.6 317.2C103.3 320.6 129.4 303.5 129.7 303.3C129.9 303.2 130.1 303.2 130.2 303.4C130.3 303.6 130.3 303.8 130.1 303.9C129.1 304.6 108.1 318.4 98.8 318.4Z" fill="#2E2427"/>
<path d="M130 314C127.3 314 122.3 313.5 118.6 310.6C118.4 310.5 118.4 310.2 118.5 310.1C118.6 309.9 118.9 309.9 119 310C124.1 314.1 131.8 313.2 131.9 313.2C132.1 313.2 132.3 313.3 132.3 313.5C132.3 313.7 132.2 313.9 132 313.9C131.9 313.9 131.2 314 130 314Z" fill="#2E2427"/>
<path d="M206.4 249.7C206.3 249.7 206.1 249.6 206.1 249.5C205.1 247.8 204 246.9 202.8 246.7C201.5 246.5 200.4 247.4 200.4 247.4C200.2 247.5 200 247.5 199.9 247.4C199.8 247.2 199.8 247 199.9 246.9C200 246.9 201.2 245.8 202.9 246.1C204.3 246.3 205.6 247.4 206.7 249.3C206.8 249.5 206.7 249.7 206.6 249.8C206.6 249.6 206.5 249.7 206.4 249.7Z" fill="#2E2427"/>
<path d="M207.9 249C207.7 249 207.5 248.8 207.5 248.6C207.4 244.2 203.4 243.9 203.2 243.9C203 243.9 202.8 243.7 202.8 243.5C202.8 243.3 203 243.1 203.2 243.1C203.2 243.1 208 243.4 208.2 248.5C208.3 248.8 208.1 249 207.9 249Z" fill="#2E2427"/>
<path d="M434.8 243.2C434.8 243.2 423.2 227.9 438.7 218.3C451.4 210.5 450.1 223.8 463.9 215.9C473.3 210.5 480.8 214.8 483.6 221.5C486 227.2 492.6 215.1 498.9 223.8C505.2 232.5 501.7 239.7 490.5 241.6C479.3 243.5 483.3 252 471.1 252.1C458.9 252.2 459.4 246.3 455.6 246.5C449.7 247 439.5 256.9 434.8 243.2Z" fill="#2D2327"/>
<path d="M431.1 252.1C431.1 252.1 404.7 237.5 413.7 223.1C422.7 208.7 438.6 223.7 440.8 224.6C443.2 225.6 440.6 222 440.6 222C440.6 222 442.2 223.5 443.3 223.4C444.6 223.3 442 220.1 442 220.1C442 220.1 445 222.6 445.4 221.4C446.4 218.6 425.4 199.8 408.8 208.2C393.4 216.1 387.9 235.9 414.9 261.5L431.1 252.1Z" fill="#85361E"/>
<path d="M432.4 252C432.4 252 421.1 240.7 418.3 240.3C415.5 239.9 405.1 250.8 405.2 252.7C405.3 254.6 412.4 263.5 419.6 265.5C426.8 267.5 432.4 252 432.4 252Z" fill="black"/>
<path d="M449.5 263.3C449.5 263.3 451.1 295 430.2 316.7C430.2 316.7 398.9 301.7 395.9 297.6C395.9 297.6 407.8 290.1 411.9 279.9C416 269.7 449.5 263.3 449.5 263.3Z" fill="#85361E"/>
<path d="M394.1 301.2C394.1 301.2 370.4 305.9 360.2 315.7C349.9 325.5 355.5 370.4 352.9 372.1C350.3 373.8 346.8 373 348.6 374.5C350.4 376 354.2 374.7 358.3 373.2C362.3 371.8 363.7 336.8 368.5 330.4C380.7 314.3 402.5 313.2 402.5 313.2C402.5 313.2 379.8 328.2 383 343C386.3 357.8 408.9 372.6 409.9 374C410.9 375.4 408.5 378.9 411.2 378.7C413.9 378.5 416.1 372.7 415.9 371.3C415.8 369.9 397.4 344.7 398.8 338.6C400.3 332.5 426.3 324.9 428.9 314.1L394.1 301.2Z" fill="#85361E"/>
<path d="M451.5 260.8C451.5 260.8 470.4 278.5 477.6 287.8C492.8 307.6 490.2 327 489.4 330.5C488.6 334 487.2 327 487.2 327C487.2 327 486.8 331.5 485.4 331.9C483.9 332.3 483.8 327.4 483.8 327.4C483.8 327.4 483.3 333.4 481.7 332.3C480.1 331.2 478 305.6 468.4 297.8C458.8 290 445.5 277.7 445.5 277.7L451.5 260.8Z" fill="#85361E"/>
<path d="M410 277C410 277 411.7 276 412.7 267.3C414 256.3 430.8 244 448.7 257.2C462.1 267 456.7 274.9 447.4 288.3L445 292.4C444.9 292.3 416.3 285.1 410 277Z" fill="black"/>
<path d="M467.4 272.7C467.4 272.7 450.6 255.4 444.8 255.2C441.1 255.1 439.2 268.9 441.2 272.7C443.2 276.5 458.6 289.9 458.6 289.9C458.6 289.9 468.9 278.4 467.4 272.7Z" fill="black"/>
<path d="M450.9 239.1C450.9 239.1 439.2 249.9 433.1 243.6C427 237.4 438.2 228 443.2 225.2C448.3 222.5 454.6 236.2 450.9 239.1Z" fill="#85361E"/>
<path d="M434.8 243.2C434.8 243.2 434.5 248 433.1 252.2C432 255.5 431.6 255.7 432.8 258.4C434.2 261.4 443.3 257 444.3 254.1C444.8 252.4 444.7 248.9 446.9 241.6C446.8 241.6 436.8 239 434.8 243.2Z" fill="#85361E"/>
<path d="M449.3 239.4C449.3 239.4 453.3 238.9 452.8 240.8C452.3 242.8 448.8 243.2 447 242.1C445.2 241 449.3 239.4 449.3 239.4Z" fill="#85361E"/>
<path d="M361.6 367.6C361.6 367.6 352.8 365.9 352.7 366.5C352.6 367.1 352.3 370.3 351.9 370.8C351.5 371.3 343.1 373.1 342.6 374.4C342.1 375.8 360 377.3 360 377.3L361.6 367.6Z" fill="#FF9700"/>
<path d="M356.5 372.3C356.4 372.3 356.3 372.3 356.3 372.2L352.2 369.4C352 369.3 352 369.1 352.1 368.9C352.2 368.7 352.5 368.7 352.6 368.8L356.7 371.6C356.9 371.7 356.9 371.9 356.8 372.1C356.7 372.2 356.6 372.3 356.5 372.3Z" fill="#2E2427"/>
<path d="M354.5 374.1C354.4 374.1 354.3 374.1 354.2 374L350.6 370.3C350.5 370.2 350.5 369.9 350.6 369.8C350.7 369.7 351 369.7 351.1 369.8L354.7 373.5C354.8 373.6 354.8 373.9 354.7 374C354.7 374.1 354.6 374.1 354.5 374.1Z" fill="#2E2427"/>
<path d="M352 375.2C351.9 375.2 351.8 375.2 351.7 375.1L348.7 371.8C348.6 371.6 348.6 371.4 348.7 371.3C348.9 371.2 349.1 371.2 349.2 371.3L352.2 374.6C352.3 374.8 352.3 375 352.2 375.1C352.2 375.1 352.1 375.2 352 375.2Z" fill="#2E2427"/>
<path d="M412.2 365.1C412.2 365.1 405.9 371.5 406.4 371.9C406.9 372.4 409.4 374.4 409.5 375C409.6 375.6 406.5 383.6 407.4 384.8C408.2 386 419.5 371.9 419.5 371.9L412.2 365.1Z" fill="#FF9700"/>
<path d="M408.3 374C408.2 374 408 373.9 407.9 373.8C407.8 373.6 407.9 373.4 408.1 373.3L412.7 371.4C412.9 371.3 413.1 371.4 413.2 371.6C413.3 371.8 413.2 372 413 372.1L408.4 374C408.4 374 408.4 374 408.3 374Z" fill="#2E2427"/>
<path d="M408.3 375.8C408.1 375.8 408 375.7 407.9 375.5C407.9 375.3 408 375.1 408.2 375.1L413.2 374.1C413.4 374.1 413.6 374.2 413.6 374.4C413.6 374.6 413.5 374.8 413.3 374.8L408.3 375.8C408.3 375.8 408.4 375.8 408.3 375.8Z" fill="#2E2427"/>
<path d="M408.5 378C408.3 378 408.2 377.9 408.1 377.7C408.1 377.5 408.2 377.3 408.4 377.3L412.8 376.7C413 376.7 413.2 376.8 413.2 377C413.2 377.2 413.1 377.4 412.9 377.4L408.5 378Z" fill="#2E2427"/>
<path d="M438.1 236.8L435.3 236.9C435.1 236.9 435 236.8 434.9 236.7C434.8 236.6 434.9 236.4 435 236.3L439.3 232.4C439.5 232.3 439.7 232.3 439.8 232.4C439.9 232.6 439.9 232.8 439.8 232.9L436.2 236.1L438 236C438.2 236 438.4 236.2 438.4 236.4C438.5 236.6 438.3 236.8 438.1 236.8Z" fill="#2E2427"/>
<path d="M437 240.6C436.7 240.6 436.4 240.6 436.1 240.4C435.6 240 435.6 239.2 436 237.9C436.1 237.7 436.3 237.6 436.5 237.7C436.7 237.8 436.8 238 436.7 238.2C436.3 239.2 436.4 239.7 436.5 239.8C436.8 240 437.8 239.7 438.4 239.3C438.6 239.2 438.8 239.2 438.9 239.4C439 239.6 439 239.8 438.8 239.9C438.6 240.1 437.7 240.5 437 240.6Z" fill="#2E2427"/>
<path d="M443.5 236.5C444.163 236.5 444.7 235.963 444.7 235.3C444.7 234.637 444.163 234.1 443.5 234.1C442.837 234.1 442.3 234.637 442.3 235.3C442.3 235.963 442.837 236.5 443.5 236.5Z" fill="#2E2427"/>
<path d="M437.9 232.3C438.563 232.3 439.1 231.763 439.1 231.1C439.1 230.437 438.563 229.9 437.9 229.9C437.237 229.9 436.7 230.437 436.7 231.1C436.7 231.763 437.237 232.3 437.9 232.3Z" fill="#2E2427"/>
<path d="M438.7 246.2C435.7 246.4 434 244.9 433.9 244.8C433.7 244.7 433.7 244.4 433.9 244.3C434 244.1 434.3 244.1 434.4 244.3C434.5 244.4 437.9 247.3 443.3 243.8C443.5 243.7 443.7 243.7 443.8 243.9C443.9 244.1 443.9 244.3 443.7 244.4C441.9 245.6 440.2 246.1 438.7 246.2Z" fill="#2E2427"/>
<path d="M448.8 284.3C448.7 284.3 448.6 284.3 448.5 284.2C448.3 284.1 448.3 283.8 448.5 283.7C448.6 283.6 456.1 275.4 456.3 264.5C456.3 264.3 456.5 264.1 456.7 264.1C456.9 264.1 457.1 264.3 457.1 264.5C456.9 275.7 449.2 284.2 449.1 284.2C449 284.3 448.9 284.3 448.8 284.3Z" fill="#2E2427"/>
<path d="M420.3 274.8C420.2 274.8 420.2 274.8 420.1 274.8C419.8 274.7 413 271.8 412.6 266.9C412.3 263.9 414.5 260.8 419 257.8C419.2 257.7 419.4 257.7 419.5 257.9C419.6 258.1 419.6 258.3 419.4 258.4C415.1 261.2 413 264.1 413.3 266.8C413.7 271.3 420.3 274.1 420.4 274.1C420.6 274.2 420.7 274.4 420.6 274.6C420.5 274.7 420.4 274.8 420.3 274.8Z" fill="#2E2427"/>
<path d="M436.4 280.4C436.3 280.4 436.2 280.4 436 280.4C429.3 280.6 426.4 277.5 426.3 277.3C426.2 277.1 426.2 276.9 426.3 276.8C426.5 276.7 426.7 276.7 426.8 276.8C426.8 276.8 429.6 279.8 435.9 279.6C442.1 279.4 443.2 274.4 443.2 274.2C443.2 274 443.4 273.9 443.6 273.9C443.8 273.9 443.9 274.1 443.9 274.3C444 274.4 442.8 279.9 436.4 280.4Z" fill="#2E2427"/>
<path d="M401.8 293.1C401.8 293.1 374.1 296.3 361 310.8C350.9 322 351 354.7 351.2 356C351.4 357.4 364 359.6 365.4 358.9C366.9 358.2 369.4 334.7 370.6 332.9C376.5 324 398.3 316 398.3 316C398.3 316 378.3 328.7 379.4 339.9C380.4 349.9 397.5 366.9 398.3 366.2C399.1 365.5 408.7 360.3 408.5 358.9C408.3 357.5 400.2 341.5 400.8 338.6C401.4 335.7 433.9 323.6 434.3 312.2C434.2 312.2 408.1 299.2 401.8 293.1Z" fill="#FF9700"/>
<path d="M406.5 361.4C406.4 361.4 406.2 361.3 406.2 361.2C399.6 349.9 396.1 342.3 397.8 337.2C398.6 334.8 400.5 333.1 403.6 331.7C412.7 327.9 424.2 318.1 424.4 318C424.6 317.9 424.8 317.9 424.9 318C425 318.2 425 318.4 424.9 318.5C424.8 318.6 413.1 328.4 403.9 332.3C401 333.5 399.2 335.2 398.5 337.3C396.9 342.1 400.5 349.8 406.9 360.7C407 360.9 406.9 361.1 406.8 361.2C406.6 361.3 406.5 361.4 406.5 361.4Z" fill="#2E2427"/>
<path d="M364 359.5C363.7 359.5 363.6 359.3 363.6 359.1C363.7 358 365.9 331.1 370 326.7C374.1 322.3 394 315.3 394.8 315C395 314.9 395.2 315 395.3 315.2C395.4 315.4 395.3 315.6 395.1 315.7C394.9 315.8 374.5 322.9 370.6 327.2C366.7 331.5 364.4 358.9 364.4 359.2C364.4 359.3 364.2 359.5 364 359.5Z" fill="#2E2427"/>
<path d="M398.3 316.5C398.2 316.5 398.1 316.5 398.1 316.4C398 316.3 397.9 316.1 397.9 316C398.6 313.3 400.7 308.4 400.8 308.1C400.9 307.9 401.1 307.8 401.3 307.9C401.5 308 401.6 308.2 401.5 308.4C401.5 308.4 399.9 312.4 399 315.1C400.5 314 403.7 311.8 406.6 310.5C406.8 310.4 407 310.5 407.1 310.7C407.2 310.9 407.1 311.1 406.9 311.2C403 313 398.6 316.3 398.5 316.4C398.4 316.4 398.3 316.4 398.3 316.5Z" fill="#2E2427"/>
<path d="M441.8 226.1C441.8 226.1 444.2 223.6 446.9 226.8C449.6 230 441.7 241.7 450.8 239.4C459.9 237 452.7 217.5 441.8 226.1Z" fill="#2D2327"/>
<path d="M190.1 49.3L190.8 50.2L193 53.5L193.7 54.5L217.7 50L211.6 41L209.3 37.7L203.2 28.6L190.1 49.3Z" fill="#FF9700"/>
<path d="M190.71 59.2243L199.49 53.2862L193.328 44.1749L184.548 50.113L190.71 59.2243Z" fill="black"/>
<path d="M183.5 55.4L185.5 58.3C186.7 60 189 60.5 190.7 59.3L184.5 50.2C182.7 51.4 182.3 53.7 183.5 55.4Z" fill="white"/>
<path d="M196.104 55.6623L192.708 57.9591L197.582 65.1653L200.978 62.8685L196.104 55.6623Z" fill="#2E2427"/>
<path d="M150.3 75.9C150.3 75.9 174.8 85.8 180.4 85.1C186 84.3 191 63.2 194.6 59.7C199.3 55.1 203.8 61.2 203.9 63C204 64.8 200.2 65.3 200.2 65.3C200.2 65.3 199 91.2 187.6 99.2C176.2 107.1 149.8 93.8 149 94.5C148.2 95.2 150.3 75.9 150.3 75.9Z" fill="#CD7D67"/>
<path d="M150.3 86.9C150.3 86.9 155.9 98.5 150.3 102.8C144.7 107.1 134.9 109.2 133.7 103.4C132.6 97.5 150.3 86.9 150.3 86.9Z" fill="#E6B11B"/>
<path d="M129.8 74.8C129.8 74.8 106.9 62 81.7 70C59.2 77.1 58 125.7 59.1 127C60.2 128.3 62.1 122.7 62.1 122.7C62.1 122.7 60.4 127.8 61.5 128.2C62.6 128.6 64.6 123.6 64.6 123.6C64.6 123.6 62.9 128.8 64.4 129C65.9 129.2 80.8 90.2 85.9 87.9C96.3 83.3 115.5 95.7 115.5 95.7L129.8 74.8Z" fill="#CD7D67"/>
<path d="M136.4 70.5C136.4 70.5 150.5 73 152.5 81.6C154.5 90.2 140.1 111 138.9 126.2C137.6 141.5 107.5 150.2 102.3 147C97.1 143.8 98.8 57 136.4 70.5Z" fill="#FF9700"/>
<path d="M134 128.8C134 128.8 162.3 108.4 172.4 121.2C186 138.5 195.2 163.7 199.2 164.6C203.2 165.5 208.3 164.1 207.7 165C207.1 165.9 202.9 170.8 198.4 171.4C193.9 172 172.2 134 162.4 134.6C152.6 135.2 127.6 152.9 127.6 152.9C127.6 152.9 109.3 143.9 134 128.8Z" fill="#D37674"/>
<path d="M105.7 142.6C105.7 142.6 138.1 97.9 151.9 111.1C173.6 131.8 174.8 177.5 180.5 178.8C182 179.2 187.5 180.6 187.5 180.6C192.1 182.5 174.4 184 174.4 184C166.1 164.7 147.3 131.8 140.2 133.5C133.1 135.2 137.2 147.8 123 150.6C108.8 153.3 105.7 142.6 105.7 142.6Z" fill="#D37674"/>
<path d="M134.1 124C134.1 124 157.5 109.6 170.6 117.8C183.7 126 197 155.9 195.3 157.7C193.6 159.5 188.7 164.8 186.5 162.3C184.3 159.8 168.3 137.1 161.5 138.5C154.7 139.9 129.4 158 124.4 157.3C119.4 156.8 118.1 133.6 134.1 124Z" fill="black"/>
<path d="M176.5 163.8C176.5 163.8 170.2 169.4 167 169.4C163.8 169.4 145.5 134.9 141.9 133.6C138.3 132.3 137.2 153.4 124 158.6C99.1 168.4 98.6 142.2 100.3 139.2C102 136.2 131.2 101.6 146.4 105.3C161.6 109 175.4 155.9 176.5 163.8Z" fill="black"/>
<path d="M128.6 69.1C128.6 69.1 103.4 66.2 98.6 67.3C93.8 68.4 90.3 90.8 91.1 92.3C91.9 93.8 110.9 94.6 115.1 96.3L128.6 69.1Z" fill="#FF9700"/>
<path d="M145.7 72.8C145.7 72.8 161 79.3 165.4 81C167.5 81.8 159.8 100 158.3 100.7C156.7 101.5 138.9 95.4 138.9 95.4C138.9 95.4 141.9 74.5 145.7 72.8Z" fill="#FF9700"/>
<path d="M170.7 177.3C170.7 177.3 178.9 173.8 179.2 174.4C179.5 175 180.5 178.1 180.9 178.4C181.4 178.8 190 178.7 190.8 180C191.6 181.3 174.4 186.5 174.4 186.5L170.7 177.3Z" fill="#FF9700"/>
<path d="M176.7 180.7C176.6 180.7 176.5 180.7 176.4 180.6C176.3 180.5 176.2 180.2 176.4 180.1L179.8 176.5C179.9 176.4 180.2 176.3 180.3 176.5C180.4 176.6 180.5 176.9 180.3 177L176.9 180.6C176.9 180.7 176.8 180.7 176.7 180.7Z" fill="#2E2427"/>
<path d="M179 182.1C178.9 182.1 178.9 182.1 178.8 182C178.6 181.9 178.6 181.7 178.7 181.5L181.4 177.2C181.5 177 181.7 177 181.9 177.1C182.1 177.2 182.1 177.4 182 177.6L179.3 181.9C179.3 182 179.2 182.1 179 182.1Z" fill="#2E2427"/>
<path d="M181.7 182.6C181.6 182.6 181.6 182.6 181.5 182.6C181.3 182.5 181.3 182.3 181.4 182.1L183.6 178.2C183.7 178 183.9 178 184.1 178.1C184.3 178.2 184.3 178.4 184.2 178.6L182 182.5C181.9 182.6 181.8 182.6 181.7 182.6Z" fill="#2E2427"/>
<path d="M191.8 167C191.8 167 197.9 160.5 198.4 160.9C198.9 161.3 201 163.8 201.6 163.9C202.2 164 210 160.6 211.3 161.4C212.5 162.2 198.9 174 198.9 174L191.8 167Z" fill="#FF9700"/>
<path d="M198.6 167.8H198.5C198.3 167.7 198.2 167.5 198.3 167.3L200 162.6C200.1 162.4 200.3 162.3 200.5 162.4C200.7 162.5 200.8 162.7 200.7 162.9L199 167.6C198.8 167.7 198.7 167.8 198.6 167.8Z" fill="#2E2427"/>
<path d="M201.2 168.2C200.9 168.2 200.8 168 200.8 167.8L201.6 162.7C201.6 162.5 201.8 162.4 202 162.4C202.2 162.4 202.3 162.6 202.3 162.8L201.5 167.9C201.6 168 201.4 168.2 201.2 168.2Z" fill="#2E2427"/>
<path d="M203.8 167.6C203.6 167.6 203.4 167.4 203.4 167.2L203.8 162.8C203.8 162.6 204 162.4 204.2 162.5C204.4 162.5 204.6 162.7 204.5 162.9L204.1 167.3C204.2 167.4 204 167.6 203.8 167.6Z" fill="#2E2427"/>
<path d="M135.3 59.5C138 60.2 137 56.4 137 56.4C137 56.4 136 50 133.5 50.3" fill="#D47974"/>
<path d="M133.6 51.8C133.6 51.8 135.4 67.6 144.1 66.9C152.8 66.2 150.5 51.8 148.5 46.4C146.6 41 132.7 47.2 133.6 51.8Z" fill="#CD7D67"/>
<path d="M129.1 47.1C132.69 47.1 135.6 44.1899 135.6 40.6C135.6 37.0102 132.69 34.1 129.1 34.1C125.51 34.1 122.6 37.0102 122.6 40.6C122.6 44.1899 125.51 47.1 129.1 47.1Z" fill="#2E2427"/>
<path d="M148.5 46.4C148.5 46.4 142.9 40.7 138.9 47.2C136.1 51.7 136.4 58.6 133.5 57.7C130.5 56.8 126.9 48.8 131.6 42.9C136.3 37 148.9 38.8 148.5 46.4Z" fill="#2E2427"/>
<path d="M136.6 55.1C136.6 55.1 136.1 51.1 134.4 52.1C132.6 53.1 133.1 56.6 134.6 58C136.1 59.4 136.6 55.1 136.6 55.1Z" fill="#CD7D67"/>
<path d="M147.1 60.5C147 60.5 147 60.5 146.9 60.4L144.6 58.8C144.4 58.7 144.4 58.5 144.5 58.3C144.6 58.1 144.9 58.1 145 58.2L146.5 59.2L145.2 54.6C145.1 54.4 145.3 54.2 145.5 54.1C145.7 54 145.9 54.2 146 54.4L147.5 60C147.5 60.2 147.5 60.3 147.4 60.4C147.3 60.4 147.2 60.5 147.1 60.5Z" fill="#2E2427"/>
<path d="M144.3 62.9C143.3 62.9 142.5 61.4 142.3 61.1C142.2 60.9 142.3 60.7 142.5 60.6C142.7 60.5 142.9 60.6 143 60.8C143.3 61.4 143.9 62.3 144.3 62.2C144.5 62.2 144.8 61.8 145 60.7C145 60.5 145.2 60.4 145.4 60.4C145.6 60.4 145.7 60.6 145.7 60.8C145.4 62.1 145 62.8 144.3 62.8C144.4 62.9 144.3 62.9 144.3 62.9Z" fill="#2E2427"/>
<path d="M140.8 55.9C141.463 55.9 142 55.3627 142 54.7C142 54.0373 141.463 53.5 140.8 53.5C140.137 53.5 139.6 54.0373 139.6 54.7C139.6 55.3627 140.137 55.9 140.8 55.9Z" fill="#2E2427"/>
<path d="M147.8 55.4C148.463 55.4 149 54.8627 149 54.2C149 53.5373 148.463 53 147.8 53C147.137 53 146.6 53.5373 146.6 54.2C146.6 54.8627 147.137 55.4 147.8 55.4Z" fill="#2E2427"/>
<path d="M143.1 64.7C143.1 64.7 142.6 66.9 141.2 72.5C141.2 72.5 140.5 74.7 138.1 75.8C135.7 76.9 129.4 71.1 129.1 69.5L134.9 55.6C134.9 55.6 142.4 61.8 143.1 64.7Z" fill="#CD7D67"/>
<path d="M142.6 67.2C142.4 67.2 139.4 66.9 136.3 62.6C136.2 62.4 136.2 62.2 136.4 62.1C136.6 62 136.8 62 136.9 62.2C139.7 66.2 142.5 66.5 142.6 66.5C142.8 66.5 143 66.7 142.9 66.9C142.9 67.1 142.8 67.2 142.6 67.2Z" fill="#2E2427"/>
<path d="M170.7 169.3C170.6 169.3 170.4 169.2 170.4 169.1C170.2 168.6 147.6 118.5 137.2 117.4C126.8 116.3 102.7 147 102.5 147.3C102.4 147.5 102.1 147.5 102 147.4C101.8 147.3 101.8 147 101.9 146.9C102.9 145.6 126.5 115.6 137.3 116.8C148.1 118 170.2 166.9 171.1 169C171.2 169.2 171.1 169.4 170.9 169.5C170.8 169.3 170.8 169.3 170.7 169.3Z" fill="#2E2427"/>
<path d="M128 107.8C123 107.8 119.2 106.4 116.9 103.7C112.7 98.8 114.6 91.3 114.7 91C114.8 90.8 115 90.7 115.2 90.7C115.4 90.8 115.5 91 115.5 91.2C115.5 91.3 113.7 98.6 117.6 103.2C120.2 106.2 124.6 107.5 130.7 106.9C130.9 106.9 131.1 107 131.1 107.2C131.1 107.4 131 107.6 130.8 107.6C129.7 107.7 128.8 107.8 128 107.8Z" fill="#2E2427"/>
<path d="M105.3 94.9H105.2C105 94.8 104.9 94.6 104.9 94.4C109.3 79.8 112.3 74.6 112.4 74.3C112.5 74.1 112.7 74.1 112.9 74.2C113.1 74.3 113.1 74.5 113 74.7C113 74.8 109.9 80.1 105.5 94.6C105.6 94.8 105.5 94.9 105.3 94.9Z" fill="#2E2427"/>
<path d="M145.8 73.1C145.8 73.1 148.7 84.2 136.1 85.1C123.5 86 123.5 68.6 123.5 68.6C123.5 68.6 136.5 68.8 145.8 73.1Z" fill="#CD7D67"/>
<path d="M147.1 104.4C147 104.4 146.8 104.3 146.8 104.2C146.7 104 146.8 103.8 147 103.7C149.9 102.4 151.8 100.6 152.6 98.4C153.9 94.9 152.3 91.3 152.3 91.3C152.2 91.1 152.3 90.9 152.5 90.8C152.7 90.7 152.9 90.8 153 91C153.1 91.2 154.8 94.9 153.4 98.7C152.5 101.2 150.5 103.1 147.4 104.5C147.2 104.4 147.1 104.4 147.1 104.4Z" fill="#2E2427"/>
<path d="M144.9 43.8C144.9 43.8 144.1 52 136.4 53.9C136.4 53.9 136.1 41 144.9 43.8Z" fill="#2E2427"/>
<path d="M151.3 53.6C151.3 53.6 152.4 43.1 144.3 40.3C144.3 40.3 144.1 46.9 151.3 53.6Z" fill="#2E2427"/>
<path d="M124 158.9C123.9 158.9 123.8 158.9 123.7 158.8C123.6 158.6 123.6 158.4 123.7 158.3C123.9 158.2 138.9 144.4 141.5 133.5C141.5 133.4 141.6 133.3 141.8 133.2C141.9 133.2 142.1 133.2 142.2 133.3C142.5 133.6 148.6 141.6 150.6 144.7C150.7 144.9 150.7 145.1 150.5 145.2C150.3 145.3 150.1 145.3 150 145.1C148.4 142.6 143.7 136.4 142.2 134.4C139.1 145.3 125 158.2 124.4 158.8C124.2 158.9 124.1 158.9 124 158.9Z" fill="#2E2427"/>
<path d="M283.3 117.5C283.1 117.5 282.9 117.3 282.9 117.1V96.9C282.9 96.7 283.1 96.5 283.3 96.5C283.5 96.5 283.7 96.7 283.7 96.9V117.1C283.7 117.4 283.5 117.5 283.3 117.5Z" fill="#2E2427"/>
<path d="M357.4 217.7C357.5 217.5 357.7 217.4 357.9 217.5L376.5 225.4C376.7 225.5 376.8 225.7 376.7 225.9C376.6 226.1 376.4 226.2 376.2 226.1L357.6 218.2C357.4 218.1 357.3 217.9 357.4 217.7Z" fill="#2E2427"/>
<path d="M260.5 121.9C260.3 121.9 260.2 121.8 260.1 121.6L254.8 104C254.7 103.8 254.9 103.6 255.1 103.5C255.3 103.4 255.5 103.6 255.6 103.8L260.9 121.4C261 121.6 260.8 121.8 260.6 121.9C260.5 121.9 260.5 121.9 260.5 121.9Z" fill="#2E2427"/>
<path d="M381.5 198.4C381.4 198.6 381.3 198.7 381.1 198.6L362.7 197.2C362.5 197.2 362.3 197 362.4 196.8C362.4 196.6 362.6 196.4 362.8 196.5L381.2 197.9C381.4 197.9 381.6 198.1 381.5 198.3C381.6 198.3 381.5 198.3 381.5 198.4Z" fill="#2E2427"/>
<path d="M336.3 111.9C336.4 112 336.4 112.2 336.3 112.3L324.1 126.3C324 126.5 323.7 126.5 323.6 126.3C323.4 126.2 323.4 125.9 323.6 125.8L335.7 111.9C335.8 111.7 336 111.7 336.3 111.9C336.2 111.9 336.2 111.9 336.3 111.9Z" fill="#2E2427"/>
<path d="M378.7 167.2C378.7 167.4 378.6 167.5 378.4 167.5L360.5 172C360.3 172.1 360.1 171.9 360 171.7C359.9 171.5 360.1 171.3 360.3 171.2L378.2 166.7C378.4 166.6 378.6 166.8 378.7 167C378.7 167.1 378.7 167.1 378.7 167.2Z" fill="#2E2427"/>
<path d="M238.3 131.2C238.2 131.2 238.1 131.1 238 131L229.3 118.5C229.2 118.3 229.2 118.1 229.4 118C229.6 117.9 229.8 117.9 229.9 118.1L238.6 130.6C238.7 130.8 238.7 131 238.5 131.1C238.4 131.1 238.3 131.2 238.3 131.2Z" fill="#2E2427"/>
<path d="M339.3 140.7C339.2 140.7 339.1 140.7 339 140.6C338.9 140.5 338.9 140.2 339 140.1L349.7 129.3C349.8 129.2 350.1 129.2 350.2 129.3C350.3 129.4 350.3 129.7 350.2 129.8L339.5 140.6C339.4 140.7 339.3 140.7 339.3 140.7Z" fill="#2E2427"/>
<path d="M350.5 151.9C350.3 151.9 350.2 151.8 350.1 151.7C350 151.5 350.1 151.3 350.3 151.2L364.6 145.9C364.8 145.8 365 145.9 365.1 146.1C365.2 146.3 365.1 146.5 364.9 146.6L350.6 151.9C350.6 151.9 350.6 151.9 350.5 151.9Z" fill="#2E2427"/>
<path d="M224 147.4C223.9 147.4 223.8 147.4 223.8 147.3L212.1 137.5C211.9 137.4 211.9 137.1 212.1 137C212.2 136.8 212.5 136.8 212.6 137L224.3 146.8C224.5 146.9 224.5 147.2 224.3 147.3C224.2 147.3 224.1 147.4 224 147.4Z" fill="#2E2427"/>
<path d="M187.6 196.1C187.4 196.1 187.3 196 187.2 195.8C187.2 195.6 187.3 195.4 187.5 195.4L206.7 192.4C206.9 192.4 207.1 192.5 207.1 192.7C207.1 192.9 207 193.1 206.8 193.1L187.6 196.1Z" fill="#2E2427"/>
<path d="M193 218.3C192.9 218.3 192.7 218.2 192.7 218.1C192.6 217.9 192.7 217.7 192.9 217.6L206.1 212.1C206.3 212 206.5 212.1 206.6 212.3C206.7 212.5 206.6 212.7 206.4 212.8L193.2 218.3C193.1 218.3 193 218.3 193 218.3Z" fill="#2E2427"/>
<path d="M359.3 243.1C359.4 243.2 359.4 243.4 359.3 243.5C359.2 243.7 359 243.8 358.8 243.7L346.2 236.9C346 236.8 345.9 236.6 346 236.4C346.1 236.2 346.3 236.1 346.5 236.2L359.1 243C359.2 243 359.2 243 359.3 243.1Z" fill="#2E2427"/>
<path d="M206.4 231.6C206.3 231.6 206.1 231.5 206.1 231.4C206 231.2 206 231 206.2 230.9L214.4 226C214.6 225.9 214.8 225.9 214.9 226.1C215 226.3 215 226.5 214.8 226.6L206.6 231.5C206.6 231.6 206.5 231.6 206.4 231.6Z" fill="#2E2427"/>
<path d="M339.4 257.9C339.4 258 339.4 258.2 339.3 258.2C339.1 258.3 338.9 258.3 338.8 258.1L333 250.5C332.9 250.3 332.9 250.1 333.1 250C333.3 249.9 333.5 249.9 333.6 250.1L339.4 257.7C339.4 257.8 339.4 257.8 339.4 257.9Z" fill="#2E2427"/>
<path d="M305.3 118.6C305.2 118.7 305.1 118.7 304.9 118.7C304.7 118.6 304.6 118.4 304.6 118.2L307.2 109C307.3 108.8 307.5 108.7 307.7 108.7C307.9 108.8 308 109 308 109.2L305.4 118.4C305.4 118.5 305.3 118.5 305.3 118.6Z" fill="#2E2427"/>
<path d="M214.6 31.8C214.5 31.8 214.4 31.8 214.4 31.7C214.2 31.6 214.2 31.3 214.3 31.2L223.7 19.3C223.8 19.1 224.1 19.1 224.2 19.2C224.4 19.3 224.4 19.6 224.3 19.7L214.9 31.6C214.8 31.8 214.7 31.8 214.6 31.8Z" fill="#2E2427"/>
<path d="M217 37.3C216.9 37.3 216.7 37.2 216.7 37.1C216.6 36.9 216.7 36.7 216.8 36.6L229.4 29.4C229.6 29.3 229.8 29.4 229.9 29.5C230 29.7 229.9 29.9 229.8 30L217.2 37.2C217.1 37.3 217.1 37.3 217 37.3Z" fill="#2E2427"/>
<path d="M219.8 41.9C219.6 41.9 219.4 41.8 219.4 41.6C219.4 41.4 219.5 41.2 219.7 41.2L233.8 39.7C234 39.7 234.2 39.8 234.2 40C234.2 40.2 234.1 40.4 233.9 40.4L219.8 41.9C219.9 41.9 219.9 41.9 219.8 41.9Z" fill="#2E2427"/>
<path d="M365.8 46.7C365.8 46.7 350 76.7 339.9 83C333 87.3 316.8 88.6 306 89.4C301 89.7 296.6 89.3 295.7 90.1C294.6 91.1 299.2 92.4 299.2 92.4C299.2 92.4 292.7 92.1 294.7 93.5C297.1 95.2 298.7 95 298.7 95C298.7 95 293.3 94.7 293.8 96.1C295 98.9 333.5 103.8 348.6 99C363.7 94.2 384.7 55 384.7 55L365.8 46.7Z" fill="#E1AE8D"/>
<path d="M398.6 102.2C398.6 102.2 402.3 137.3 416.7 154.4C439.3 181.3 470.1 175.6 471.6 180.3C473 184.9 472.8 188.5 473.7 183.8C474.5 179.1 475.2 173.6 475.2 173.6C475.2 173.6 438.7 164.6 431.3 133C428.8 122.1 425.6 107 425.6 107C425.6 107 437.1 138.3 452.8 142.2C468.5 146.1 488.6 139.3 494.6 136.3C499.9 133.7 498.4 137.2 499.9 142.7C500.2 144 500.8 135.5 497.1 132.1C493.4 128.6 467 133.2 457.5 119.9C450.8 110.5 439.4 77.1 439.4 77.1L398.6 102.2Z" fill="#E1AE8D"/>
<path d="M399.3 117.2C399.3 117.2 408.2 147.9 410.5 148.1C412.9 148.3 434.5 138.9 433.7 137.6C432.9 136.4 427.9 113.2 427.9 113.2C427.9 113.2 436.9 133.6 438.3 133.3C439.7 133 459.1 120.2 459.7 117.8C460.3 115.4 444.3 86.7 441.9 86.6C439.6 86.7 399.3 117.2 399.3 117.2Z" fill="#FF9700"/>
<path d="M408 27C408 27 438.2 74.8 444.3 85.3C450.4 95.8 408.1 118.1 399.2 117.2C390.4 116.3 360.3 57.2 363.8 48.7C367.3 40.2 399.7 27.5 408 27Z" fill="black"/>
<path d="M308.3 88.5C308.3 88.5 304.5 97.2 307.4 100.3C310.3 103.4 344.3 103.4 352.9 99.5C361.5 95.6 374.8 72.4 374.8 72.4L363.9 48.8C363.9 48.8 344.8 78.8 338.3 82.8C330.9 87.3 309.2 86.8 308.3 88.5Z" fill="black"/>
<path d="M466.5 169.5C466.5 169.5 464.6 178.2 465.2 178.4C465.8 178.6 469 178.9 469.5 179.4C470 179.8 471.5 188.2 472.9 188.8C474.3 189.4 476.2 171.5 476.2 171.5L466.5 169.5Z" fill="#FF9700"/>
<path d="M467.7 179.2C467.6 179.2 467.6 179.2 467.5 179.1C467.3 179 467.3 178.7 467.4 178.6L470.3 174.6C470.4 174.4 470.7 174.4 470.8 174.5C471 174.6 471 174.9 470.9 175L468 179C467.9 179.2 467.8 179.2 467.7 179.2Z" fill="#2E2427"/>
<path d="M468.6 180.7C468.5 180.7 468.4 180.6 468.4 180.6C468.3 180.4 468.3 180.2 468.4 180.1L472.2 176.6C472.4 176.5 472.6 176.5 472.7 176.6C472.8 176.8 472.8 177 472.7 177.1L468.9 180.6C468.8 180.7 468.7 180.7 468.6 180.7Z" fill="#2E2427"/>
<path d="M469.9 182.5C469.8 182.5 469.7 182.4 469.7 182.4C469.6 182.2 469.6 182 469.7 181.9L473.1 179C473.3 178.9 473.5 178.9 473.6 179C473.7 179.2 473.7 179.4 473.6 179.5L470.2 182.4C470.2 182.5 470 182.5 469.9 182.5Z" fill="#2E2427"/>
<path d="M487.9 130C487.9 130 489.7 138.8 490.4 138.6C491.1 138.5 494.1 137.5 494.7 137.7C495.3 137.9 500.2 144.9 501.6 144.9C503.1 144.9 497.6 127.7 497.6 127.7L487.9 130Z" fill="#FF9700"/>
<path d="M492.8 138.4C492.6 138.4 492.4 138.2 492.5 138L493.5 133.1C493.5 132.9 493.7 132.8 493.9 132.8C494.1 132.8 494.2 133 494.2 133.2L493.2 138.1C493.2 138.3 493 138.4 492.8 138.4Z" fill="#2E2427"/>
<path d="M494.3 139.4C494.3 139.4 494.2 139.3 494.3 139.4C494 139.3 493.9 139.1 494 138.9L496 134.2C496.1 134 496.3 133.9 496.5 134C496.7 134.1 496.8 134.3 496.7 134.5L494.7 139.2C494.6 139.3 494.5 139.4 494.3 139.4Z" fill="#2E2427"/>
<path d="M496.3 140.5H496.2C496 140.4 495.9 140.2 496 140L497.9 136C498 135.8 498.2 135.7 498.4 135.8C498.6 135.9 498.7 136.1 498.6 136.3L496.7 140.3C496.6 140.4 496.4 140.5 496.3 140.5Z" fill="#2E2427"/>
<path d="M383.6 25.3C380.9 26 381.9 22.2 381.9 22.2C381.9 22.2 382.9 15.8 385.4 16.1" fill="#D47974"/>
<path d="M385.4 17.6C385.4 17.6 383.6 33.4 374.9 32.7C366.2 32 368.5 17.6 370.5 12.2C372.4 6.8 386.3 13 385.4 17.6Z" fill="#CD7D67"/>
<path d="M371.8 26.2C371.7 26.2 371.7 26.2 371.6 26.1C371.5 26 371.4 25.8 371.5 25.7L373 20.1C373.1 19.9 373.3 19.8 373.5 19.8C373.7 19.9 373.8 20.1 373.8 20.3L372.5 24.9L374 23.9C374.2 23.8 374.4 23.8 374.5 24C374.6 24.2 374.6 24.4 374.4 24.5L372.1 26.1C371.9 26.2 371.8 26.2 371.8 26.2Z" fill="#2E2427"/>
<path d="M374.5 28.7C373.9 28.6 373.4 27.9 373.1 26.7C373.1 26.5 373.2 26.3 373.4 26.3C373.6 26.3 373.8 26.4 373.8 26.6C374 27.6 374.3 28 374.5 28.1C374.9 28.1 375.5 27.3 375.8 26.7C375.9 26.5 376.1 26.4 376.3 26.5C376.5 26.6 376.6 26.8 376.5 27C376.5 27.2 375.6 28.8 374.5 28.7C374.5 28.7 374.6 28.7 374.5 28.7Z" fill="#2E2427"/>
<path d="M378.2 21.6C378.863 21.6 379.4 21.0627 379.4 20.4C379.4 19.7373 378.863 19.2 378.2 19.2C377.537 19.2 377 19.7373 377 20.4C377 21.0627 377.537 21.6 378.2 21.6Z" fill="#2E2427"/>
<path d="M371.1 21.1C371.763 21.1 372.3 20.5627 372.3 19.9C372.3 19.2373 371.763 18.7 371.1 18.7C370.437 18.7 369.9 19.2373 369.9 19.9C369.9 20.5627 370.437 21.1 371.1 21.1Z" fill="#2E2427"/>
<path d="M375.9 30.4C375.9 30.4 376.4 32.6 377.8 38.2C377.8 38.2 378.5 40.4 380.9 41.5C383.3 42.6 389.6 36.8 389.9 35.3L384.1 21.4C384 21.4 376.5 27.6 375.9 30.4Z" fill="#CD7D67"/>
<path d="M369.5 15.6C369.5 15.6 367.6 4.4 374.2 2.3C390.1 -2.6 384.8 8.8 388 10.2C398.3 14.7 386.6 26 384.3 23.7C382 21.4 384.1 13.4 379.3 12C373.2 10.2 370.9 9.5 369.5 15.6Z" fill="#FF9700"/>
<path d="M382.3 20.9C382.3 20.9 382.8 16.9 384.6 17.9C386.4 18.9 385.9 22.4 384.4 23.8C382.9 25.2 382.3 20.9 382.3 20.9Z" fill="#CD7D67"/>
<path d="M373.7 10.4C373.6 10.4 373.5 10.3 373.4 10.2C372.6 8.39999 372.5 6.89999 373.2 5.59999C374.5 3.19999 378.1 2.59999 378.2 2.59999C378.4 2.59999 378.6 2.69999 378.6 2.89999C378.6 3.09999 378.5 3.29999 378.3 3.29999C378.3 3.29999 375 3.79999 373.8 5.99999C373.2 7.09999 373.3 8.39999 374 9.89999C374.1 10.1 374 10.3 373.8 10.4C373.9 10.5 373.8 10.5 373.7 10.4Z" fill="#2E2427"/>
<path d="M376.1 10.6C375.9 10.6 375.8 10.4 375.8 10.2C375.8 6 380.1 4.3 380.3 4.2C380.5 4.1 380.7 4.19999 380.8 4.39999C380.9 4.59999 380.8 4.79999 380.6 4.89999C380.6 4.89999 376.5 6.5 376.6 10.2C376.5 10.5 376.4 10.6 376.1 10.6C376.1 10.6 376.2 10.6 376.1 10.6Z" fill="#2E2427"/>
<path d="M379.5 11.3C379.3 11.3 379.2 11.1 379.2 10.9C379.6 7.09999 383.3 6.79999 383.3 6.79999C383.5 6.79999 383.7 6.89999 383.7 7.09999C383.7 7.29999 383.6 7.49999 383.4 7.49999C383.3 7.49999 380.3 7.79999 380 11C379.9 11.2 379.7 11.3 379.5 11.3Z" fill="#2E2427"/>
<path d="M385.9 16.5C384.2 16.3 383.4 14.9 383.4 14.9C383.3 14.7 383.3 14.5 383.5 14.4C383.7 14.3 383.9 14.3 384 14.5C384.1 14.6 385.6 16.8 388.5 15.1C388.7 15 388.9 15.1 389 15.2C389.1 15.4 389 15.6 388.9 15.7C387.7 16.5 386.7 16.7 385.9 16.5Z" fill="#2E2427"/>
<path d="M376.4 33C376.3 33 376.3 33 376.4 33C376.1 32.9 376 32.7 376.1 32.5C376.1 32.3 376.3 32.2 376.5 32.2C376.7 32.2 379.6 32.5 382.6 26.2C382.7 26 382.9 25.9 383.1 26C383.3 26.1 383.4 26.3 383.3 26.5C380.1 33.2 376.9 33.1 376.4 33Z" fill="#2E2427"/>
<path d="M456.5 121.5C456.4 121.5 456.2 121.4 456.2 121.2C454.3 113.9 441.6 94.5 441.4 94.3C441.3 94.1 441.3 93.9 441.5 93.8C441.7 93.7 441.9 93.7 442 93.9C442.5 94.7 455 113.6 456.9 121C457 121.2 456.8 121.4 456.6 121.5C456.6 121.5 456.5 121.5 456.5 121.5Z" fill="#2E2427"/>
<path d="M413 145.7C412.9 145.7 412.8 145.6 412.8 145.6C409 140.5 404.5 117.4 404.4 116.4C404.4 116.2 404.5 116 404.7 116C404.9 116 405.1 116.1 405.1 116.3C405.1 116.5 409.7 140.2 413.4 145.1C413.5 145.3 413.5 145.5 413.3 145.6C413.2 145.7 413.1 145.7 413 145.7Z" fill="#2E2427"/>
<path d="M373 75.6C372.9 75.6 372.8 75.5 372.7 75.4C367.8 66 365.8 54.5 365.8 54.4C365.8 54.2 365.9 54 366.1 54C366.3 54 366.5 54.1 366.5 54.3C366.5 54.4 368.5 65.8 373.4 75.1C373.5 75.3 373.4 75.5 373.2 75.6C373.1 75.6 373.1 75.6 373 75.6Z" fill="#2E2427"/>
<path d="M394.4 107C394.2 107 394.1 106.9 394.1 106.7C394.1 106.5 394.2 106.3 394.4 106.3C394.7 106.2 420.5 101.1 433 86.9C433.1 86.7 433.4 86.7 433.5 86.9C433.7 87 433.7 87.3 433.5 87.4C420.8 101.7 394.8 107 394.5 107C394.4 107 394.4 107 394.4 107Z" fill="#2E2427"/>
<path d="M427.8 113.7C424.9 112.9 419.8 108.4 419.6 108.2C419.4 108.1 419.4 107.8 419.6 107.7C419.7 107.5 420 107.5 420.1 107.7C420.1 107.7 424.4 111.6 427.2 112.8L425.2 107.3C425.1 107.1 425.2 106.9 425.4 106.8C425.6 106.7 425.8 106.8 425.9 107L428.2 113.3C428.2 113.4 428.2 113.6 428.1 113.7C428.1 113.7 427.9 113.7 427.8 113.7Z" fill="#2E2427"/>
<path d="M447.1 104.1C441.6 103.3 437.1 99.1 436.9 98.9C436.7 98.8 436.7 98.5 436.9 98.4C437 98.2 437.3 98.2 437.4 98.4C437.4 98.4 442.4 102.9 447.9 103.4C448.1 103.4 448.3 103.6 448.2 103.8C448.2 104 448 104.2 447.8 104.1C447.5 104.1 447.3 104.1 447.1 104.1Z" fill="#2E2427"/>
<path d="M401.7 32.2C401.7 32.2 409.8 16.3 439.5 17.2C457.2 17.8 481.2 56.3 480.7 58C480.3 59.6 476.2 55.3 476.2 55.3C476.2 55.3 479.9 59.2 479.1 60.1C478.3 60.9 474.4 57.3 474.4 57.3C474.4 57.3 478.2 61.3 476.9 62.1C475.6 62.9 445.7 33.8 440.1 34C428.6 34.3 421.2 47.9 421.2 47.9L401.7 32.2Z" fill="#E1AE8D"/>
<path d="M392.5 31.4C392.5 31.4 418.4 15.1 437.5 15.1C450.8 15.1 471.9 41.3 474.2 45.2C476.5 49.1 468.3 56.5 465.9 55.4C463.5 54.3 441.5 34.9 438.5 34.2C435.5 33.5 421.3 47.9 421.3 47.9C421.3 47.9 390.6 40.8 392.5 31.4Z" fill="black"/>
<path d="M421.2 48.2C421.1 48.2 421 48.1 420.9 48C419.4 45.5 409.1 34.1 409 34C408.9 33.8 408.9 33.6 409 33.5C409.2 33.4 409.4 33.4 409.5 33.5C409.9 34 419.9 45 421.4 47.6C421.5 47.8 421.4 48 421.3 48.1C421.4 48.2 421.3 48.2 421.2 48.2Z" fill="#2E2427"/>
<path d="M145.8 241.1C158.392 241.1 168.6 230.892 168.6 218.3C168.6 205.708 158.392 195.5 145.8 195.5C133.208 195.5 123 205.708 123 218.3C123 230.892 133.208 241.1 145.8 241.1Z" fill="#FF9700"/>
<path d="M145.8 236C155.52 236 163.4 228.12 163.4 218.4C163.4 208.68 155.52 200.8 145.8 200.8C136.08 200.8 128.2 208.68 128.2 218.4C128.2 228.12 136.08 236 145.8 236Z" fill="white"/>
<path d="M145.8 220C145.7 220 145.6 220 145.5 219.9L135.9 210C135.8 209.9 135.8 209.6 135.9 209.5C136 209.4 136.3 209.4 136.4 209.5L145.7 219.1L153.1 209.6C153.2 209.4 153.5 209.4 153.6 209.5C153.8 209.6 153.8 209.9 153.7 210L146.1 219.9C146 219.9 145.9 220 145.8 220Z" fill="#2E2427"/>
<path d="M91 41.4C90.9 41.4 90.8 41.4 90.8 41.3C90.6 41.2 90.6 40.9 90.8 40.8C90.8 40.8 91.2 40.4 91.8 39.7C91.9 39.5 92.2 39.5 92.3 39.7C92.5 39.8 92.5 40.1 92.3 40.2C91.6 40.9 91.3 41.3 91.3 41.3C91.2 41.4 91.1 41.4 91 41.4Z" fill="#2E2427"/>
<path d="M276.4 76.1C276.1 76.1 275.7 76.1 275.4 76.1C275.2 76.1 275 75.9 275 75.7C275 75.5 275.2 75.3 275.4 75.3C275.7 75.3 276.1 75.3 276.4 75.3C277 75.3 277.7 75.3 278.3 75.2C278.5 75.2 278.7 75.3 278.7 75.5C278.7 75.7 278.6 75.9 278.4 75.9C277.7 76.1 277 76.1 276.4 76.1ZM272.4 75.7C271.3 75.5 270.4 75.2 269.4 74.8C269.2 74.7 269.1 74.5 269.2 74.3C269.3 74.1 269.5 74 269.7 74.1C270.6 74.5 271.5 74.8 272.4 75C272.6 75 272.7 75.2 272.7 75.4C272.8 75.6 272.6 75.7 272.4 75.7ZM281.3 75.6C281.1 75.6 281 75.5 280.9 75.3C280.9 75.1 281 74.9 281.2 74.9C282.1 74.7 283.1 74.5 284 74.2C284.2 74.1 284.4 74.3 284.5 74.4C284.6 74.6 284.5 74.8 284.3 74.9C283.3 75.1 282.3 75.4 281.3 75.6ZM267 73.4C266.9 73.4 266.9 73.4 266.8 73.3C266 72.8 265.2 72.2 264.4 71.5C264.2 71.4 264.2 71.1 264.4 71C264.5 70.8 264.8 70.8 264.9 71C265.6 71.7 266.4 72.2 267.2 72.7C267.4 72.8 267.4 73 267.3 73.2C267.3 73.4 267.1 73.4 267 73.4ZM262.5 69.5C262.4 69.5 262.3 69.5 262.2 69.4C261.6 68.7 260.9 67.9 260.3 67.1C260.2 66.9 260.2 66.7 260.4 66.6C260.6 66.5 260.8 66.5 260.9 66.7C261.5 67.5 262.1 68.3 262.7 69C262.8 69.2 262.8 69.4 262.7 69.5C262.7 69.5 262.6 69.5 262.5 69.5ZM259 64.8C258.9 64.8 258.8 64.7 258.7 64.6C258.2 63.8 257.7 62.9 257.2 62C257.1 61.8 257.2 61.6 257.3 61.5C257.5 61.4 257.7 61.5 257.8 61.6C258.3 62.5 258.8 63.4 259.3 64.2C259.4 64.4 259.4 64.6 259.2 64.7C259.2 64.7 259.1 64.8 259 64.8ZM256.1 59.6C256 59.6 255.8 59.5 255.8 59.4C255.4 58.5 254.9 57.6 254.5 56.7C254.4 56.5 254.5 56.3 254.7 56.2C254.9 56.1 255.1 56.2 255.2 56.4C255.6 57.3 256 58.2 256.5 59.1C256.6 59.3 256.5 59.5 256.3 59.6C256.3 59.5 256.2 59.6 256.1 59.6ZM253.7 54.1C253.6 54.1 253.4 54 253.4 53.9C253 53 252.6 52.1 252.3 51.1C252.2 50.9 252.3 50.7 252.5 50.6C252.7 50.5 252.9 50.6 253 50.8C253.4 51.7 253.8 52.6 254.1 53.5C254.2 53.7 254.1 53.9 253.9 54C253.8 54.1 253.7 54.1 253.7 54.1ZM251.4 48.6C251.3 48.6 251.1 48.5 251.1 48.4C250.7 47.5 250.4 46.6 250 45.6C249.9 45.4 250 45.2 250.2 45.1C250.4 45 250.6 45.1 250.7 45.3C251.1 46.2 251.4 47.2 251.8 48.1C251.9 48.3 251.8 48.5 251.6 48.6C251.5 48.6 251.5 48.6 251.4 48.6ZM249.3 43C249.1 43 249 42.9 248.9 42.8C248.5 41.9 248.2 41 247.8 40C247.7 39.8 247.8 39.6 248 39.5C248.2 39.4 248.4 39.5 248.5 39.7C248.9 40.6 249.2 41.6 249.6 42.5C249.7 42.7 249.6 42.9 249.4 43C249.4 43 249.3 43 249.3 43ZM94 38.2C93.9 38.2 93.8 38.2 93.7 38.1C93.6 38 93.6 37.7 93.7 37.6C94.3 37 95 36.3 95.8 35.5C96 35.4 96.2 35.4 96.3 35.5C96.4 35.7 96.4 35.9 96.3 36C95.5 36.8 94.8 37.4 94.2 38.1C94.2 38.2 94.1 38.2 94 38.2ZM247.1 37.5C247 37.5 246.8 37.4 246.8 37.3C246.4 36.4 246.1 35.5 245.7 34.5C245.6 34.3 245.7 34.1 245.9 34C246.1 33.9 246.3 34 246.4 34.2C246.8 35.1 247.2 36 247.5 37C247.6 37.2 247.5 37.4 247.3 37.5C247.2 37.5 247.2 37.5 247.1 37.5ZM172.1 34.5C171.4 34.5 170.8 34.3 170.2 33.9C170 33.8 170 33.6 170.1 33.4C170.2 33.2 170.4 33.2 170.6 33.3C171.4 33.8 172.3 33.9 173.1 33.5C173.3 33.4 173.5 33.5 173.6 33.7C173.7 33.9 173.6 34.1 173.4 34.2C173 34.4 172.6 34.5 172.1 34.5ZM98.4 34.1C98.3 34.1 98.2 34.1 98.1 34C98 33.8 98 33.6 98.1 33.5C98.8 32.9 99.6 32.2 100.3 31.5C100.5 31.4 100.7 31.4 100.8 31.5C100.9 31.6 100.9 31.9 100.8 32C100 32.7 99.3 33.3 98.6 34C98.5 34.1 98.4 34.1 98.4 34.1ZM175.3 32.2H175.2C175 32.1 174.9 31.9 175 31.7C175.2 31.1 175.4 30.5 175.4 29.8C175.4 29.5 175.4 29.2 175.3 29C175.3 28.8 175.4 28.6 175.6 28.6C175.8 28.6 176 28.7 176 28.9C176 29.2 176.1 29.5 176.1 29.8C176.1 30.6 176 31.3 175.7 32C175.6 32.1 175.5 32.2 175.3 32.2ZM244.9 32C244.8 32 244.6 31.9 244.6 31.8C244.2 30.9 243.8 30 243.4 29.1C243.3 28.9 243.4 28.7 243.6 28.6C243.8 28.5 244 28.6 244.1 28.8C244.5 29.7 244.9 30.6 245.3 31.5C245.4 31.7 245.3 31.9 245.1 32C245 32 244.9 32 244.9 32ZM169 31.6C168.8 31.6 168.6 31.4 168.6 31.2V31.1C168.6 30.3 168.8 29.3 169.2 28.2C169.3 28 169.5 27.9 169.7 28C169.9 28.1 170 28.3 169.9 28.5C169.5 29.5 169.3 30.4 169.3 31.2V31.3C169.4 31.4 169.2 31.6 169 31.6ZM102.9 30.2C102.8 30.2 102.7 30.2 102.6 30.1C102.5 29.9 102.5 29.7 102.7 29.6C103.5 29 104.2 28.4 105 27.7C105.2 27.6 105.4 27.6 105.5 27.8C105.6 28 105.6 28.2 105.4 28.3C104.6 28.9 103.8 29.5 103.1 30.1C103 30.2 103 30.2 102.9 30.2ZM107.6 26.6C107.5 26.6 107.4 26.5 107.3 26.4C107.2 26.2 107.2 26 107.4 25.9C108.2 25.3 109 24.7 109.8 24.2C110 24.1 110.2 24.1 110.3 24.3C110.4 24.5 110.4 24.7 110.2 24.8C109.4 25.4 108.6 25.9 107.8 26.5C107.7 26.6 107.7 26.6 107.6 26.6ZM242.4 26.6C242.3 26.6 242.1 26.5 242.1 26.4C241.7 25.5 241.2 24.6 240.8 23.8C240.7 23.6 240.8 23.4 241 23.3C241.2 23.2 241.4 23.3 241.5 23.5C242 24.4 242.4 25.3 242.8 26.2C242.9 26.4 242.8 26.6 242.6 26.7C242.5 26.6 242.5 26.6 242.4 26.6ZM174.7 26.5C174.6 26.5 174.4 26.4 174.4 26.3C174 25.5 173.4 24.7 172.7 24C172.6 23.8 172.6 23.6 172.7 23.5C172.9 23.4 173.1 23.4 173.2 23.5C173.9 24.3 174.5 25.1 175 26C175.1 26.2 175 26.4 174.9 26.5C174.8 26.4 174.8 26.5 174.7 26.5ZM170.9 26C170.8 26 170.8 26 170.7 26C170.5 25.9 170.5 25.7 170.6 25.5C171 24.7 171.6 23.8 172.2 22.9C172.3 22.7 172.5 22.7 172.7 22.8C172.9 22.9 172.9 23.1 172.8 23.3C172.2 24.2 171.7 25 171.3 25.8C171.1 25.9 171 26 170.9 26ZM112.5 23.2C112.4 23.2 112.3 23.1 112.2 23C112.1 22.8 112.1 22.6 112.3 22.5C113.1 22 114 21.4 114.8 20.9C115 20.8 115.2 20.9 115.3 21C115.4 21.2 115.3 21.4 115.2 21.5C114.4 22 113.5 22.5 112.7 23.1C112.6 23.2 112.6 23.2 112.5 23.2ZM170.8 22C170.7 22 170.6 22 170.6 21.9C169.9 21.3 169.1 20.7 168.2 20.2C168 20.1 168 19.9 168.1 19.7C168.2 19.5 168.4 19.5 168.6 19.6C169.5 20.2 170.3 20.8 171 21.4C171.2 21.5 171.2 21.8 171.1 21.9C171 22 170.9 22 170.8 22ZM239.6 21.3C239.5 21.3 239.3 21.2 239.3 21.1C238.8 20.2 238.3 19.4 237.8 18.6C237.7 18.4 237.7 18.2 237.9 18.1C238.1 18 238.3 18 238.4 18.2C238.9 19 239.4 19.9 239.9 20.8C240 21 239.9 21.2 239.8 21.3C239.8 21.3 239.7 21.3 239.6 21.3ZM174.2 21C174.1 21 174 21 174 20.9C173.8 20.8 173.8 20.5 173.9 20.4C174.5 19.6 175.1 18.8 175.8 18.1C175.9 17.9 176.2 17.9 176.3 18.1C176.5 18.2 176.5 18.5 176.3 18.6C175.6 19.4 175 20.1 174.4 20.9C174.4 21 174.3 21 174.2 21ZM117.6 20.2C117.5 20.2 117.3 20.1 117.3 20C117.2 19.8 117.3 19.6 117.4 19.5C118.3 19 119.2 18.6 120.1 18.1C120.3 18 120.5 18.1 120.6 18.3C120.7 18.5 120.6 18.7 120.4 18.8C119.5 19.2 118.6 19.7 117.8 20.2C117.8 20.2 117.7 20.2 117.6 20.2ZM165.8 18.8C165.7 18.8 165.7 18.8 165.6 18.8C164.8 18.4 163.9 17.9 163 17.5C162.8 17.4 162.7 17.2 162.8 17C162.9 16.8 163.1 16.7 163.3 16.8C164.2 17.2 165.1 17.7 166 18.1C166.2 18.2 166.3 18.4 166.2 18.6C166.1 18.7 166 18.8 165.8 18.8ZM123 17.5C122.9 17.5 122.7 17.4 122.7 17.3C122.6 17.1 122.7 16.9 122.9 16.8C123.8 16.4 124.7 16 125.7 15.6C125.9 15.5 126.1 15.6 126.2 15.8C126.3 16 126.2 16.2 126 16.3C125.1 16.7 124.2 17 123.3 17.4C123.1 17.5 123 17.5 123 17.5ZM178.1 16.5C178 16.5 177.9 16.5 177.8 16.4C177.7 16.3 177.6 16 177.8 15.9C178.5 15.2 179.2 14.5 179.9 13.8C180.1 13.7 180.3 13.7 180.4 13.8C180.5 14 180.5 14.2 180.4 14.3C179.7 15 179 15.7 178.3 16.4C178.2 16.5 178.2 16.5 178.1 16.5ZM160.4 16.3H160.3C159.4 16 158.5 15.6 157.5 15.3C157.3 15.2 157.2 15 157.3 14.8C157.4 14.6 157.6 14.5 157.8 14.6C158.8 14.9 159.7 15.3 160.6 15.6C160.8 15.7 160.9 15.9 160.8 16.1C160.7 16.2 160.6 16.3 160.4 16.3ZM236.4 16.3C236.3 16.3 236.2 16.2 236.1 16.1C235.5 15.3 234.9 14.5 234.3 13.7C234.2 13.5 234.2 13.3 234.4 13.2C234.6 13.1 234.8 13.1 234.9 13.3C235.5 14.1 236.1 14.9 236.7 15.7C236.8 15.9 236.8 16.1 236.6 16.2C236.6 16.3 236.5 16.3 236.4 16.3ZM128.5 15.4C128.3 15.4 128.2 15.3 128.1 15.1C128 14.9 128.1 14.7 128.3 14.6C129.3 14.3 130.2 14 131.2 13.7C131.4 13.6 131.6 13.8 131.7 14C131.8 14.2 131.6 14.4 131.4 14.5C130.5 14.8 129.5 15.1 128.6 15.4C128.6 15.4 128.5 15.4 128.5 15.4ZM154.8 14.4H154.7L154.3 14.3C153.5 14.1 152.7 13.8 151.8 13.7C151.6 13.7 151.5 13.5 151.5 13.3C151.5 13.1 151.7 13 151.9 13C152.7 13.2 153.6 13.4 154.4 13.7L154.8 13.8C155 13.9 155.1 14.1 155.1 14.3C155.1 14.3 155 14.4 154.8 14.4ZM134.2 13.8C134 13.8 133.9 13.7 133.8 13.5C133.8 13.3 133.9 13.1 134.1 13.1C135.1 12.9 136.1 12.7 137 12.5C137.2 12.5 137.4 12.6 137.4 12.8C137.4 13 137.3 13.2 137.1 13.2C136.2 13.4 135.3 13.5 134.2 13.8C134.2 13.8 134.3 13.8 134.2 13.8ZM149 13.1C148 13 147 12.9 146 12.8C145.8 12.8 145.6 12.6 145.6 12.4C145.6 12.2 145.8 12 146 12C147 12.1 148 12.2 149 12.3C149.2 12.3 149.3 12.5 149.3 12.7C149.3 12.9 149.2 13.1 149 13.1ZM140.1 12.9C139.9 12.9 139.7 12.8 139.7 12.6C139.7 12.4 139.8 12.2 140 12.2C141 12.1 142 12.1 143 12C143.2 12 143.4 12.2 143.4 12.4C143.4 12.6 143.2 12.8 143 12.8C142.1 12.7 141.1 12.8 140.1 12.9ZM182.4 12.4C182.3 12.4 182.2 12.4 182.1 12.3C182 12.1 182 11.9 182.1 11.8C182.9 11.1 183.6 10.5 184.4 9.9C184.6 9.8 184.8 9.8 184.9 10C185 10.2 185 10.4 184.8 10.5C184 11.1 183.3 11.7 182.5 12.4C182.6 12.4 182.5 12.4 182.4 12.4ZM232.7 11.6C232.6 11.6 232.5 11.6 232.4 11.5C231.7 10.8 231 10.1 230.3 9.4C230.1 9.3 230.1 9 230.3 8.9C230.4 8.7 230.7 8.7 230.8 8.9C231.5 9.6 232.2 10.3 232.9 11C233 11.2 233 11.4 232.9 11.5C232.9 11.6 232.8 11.6 232.7 11.6ZM187.1 8.8C187 8.8 186.9 8.7 186.8 8.6C186.7 8.4 186.7 8.2 186.9 8.1C187.7 7.5 188.6 7 189.4 6.5C189.6 6.4 189.8 6.4 189.9 6.6C190 6.8 190 7 189.8 7.1C189 7.6 188.1 8.2 187.3 8.7C187.2 8.8 187.2 8.8 187.1 8.8ZM228.4 7.6C228.3 7.6 228.2 7.6 228.2 7.5C227.7 7.1 227.2 6.7 226.7 6.4C226.4 6.2 226.1 6 225.8 5.8C225.6 5.7 225.6 5.5 225.7 5.3C225.8 5.1 226 5.1 226.2 5.2C226.5 5.4 226.8 5.6 227.1 5.8C227.6 6.2 228.1 6.6 228.6 7C228.8 7.1 228.8 7.4 228.7 7.5C228.6 7.5 228.5 7.6 228.4 7.6ZM192.2 5.7C192.1 5.7 191.9 5.6 191.9 5.5C191.8 5.3 191.9 5.1 192.1 5C193 4.5 193.9 4.1 194.8 3.7C195 3.6 195.2 3.7 195.3 3.9C195.4 4.1 195.3 4.3 195.1 4.4C194.2 4.8 193.3 5.2 192.5 5.7C192.3 5.7 192.2 5.7 192.2 5.7ZM223.5 4.3C223.4 4.3 223.4 4.3 223.3 4.3C222.4 3.8 221.5 3.4 220.7 3C220.5 2.9 220.4 2.7 220.5 2.5C220.6 2.3 220.8 2.2 221 2.3C221.9 2.7 222.8 3.1 223.7 3.6C223.9 3.7 224 3.9 223.9 4.1C223.7 4.2 223.6 4.3 223.5 4.3ZM197.6 3.2C197.4 3.2 197.3 3.1 197.2 3C197.1 2.8 197.2 2.6 197.4 2.5C198.3 2.1 199.3 1.8 200.2 1.5C200.4 1.4 200.6 1.6 200.7 1.8C200.8 2 200.6 2.2 200.4 2.3C199.5 2.6 198.5 2.9 197.6 3.2C197.7 3.2 197.6 3.2 197.6 3.2ZM218 2H217.9C217 1.7 216 1.5 215 1.3C214.8 1.3 214.7 1.1 214.7 0.899998C214.7 0.699998 214.9 0.599998 215.1 0.599998C216.1 0.799998 217.1 0.999999 218 1.3C218.2 1.4 218.3 1.6 218.3 1.8C218.3 1.9 218.1 2 218 2ZM203.3 1.5C203.1 1.5 203 1.4 202.9 1.2C202.9 1 203 0.799999 203.2 0.799999C204.2 0.599999 205.2 0.399999 206.2 0.299999C206.4 0.299999 206.6 0.399998 206.6 0.599998C206.6 0.799998 206.5 1 206.3 1C205.3 1.1 204.3 1.3 203.3 1.5ZM212.1 0.899998C211.3 0.799998 210.5 0.799999 209.7 0.799999C209.5 0.799999 209.3 0.799999 209.1 0.799999C208.9 0.799999 208.7 0.599998 208.7 0.399998C208.7 0.199998 208.9 0 209.1 0C209.3 0 209.5 0 209.7 0C210.5 0 211.3 -1.52737e-06 212.1 0.0999985C212.3 0.0999985 212.5 0.3 212.4 0.5C212.5 0.7 212.3 0.899998 212.1 0.899998Z" fill="#2E2427"/>
<path d="M287.1 73.8C287 73.8 286.8 73.7 286.8 73.6C286.7 73.4 286.8 73.2 287 73.1C287.5 72.9 287.9 72.7 288.4 72.5C288.6 72.4 288.8 72.5 288.9 72.7C289 72.9 288.9 73.1 288.7 73.2C288.2 73.4 287.8 73.6 287.3 73.8C287.2 73.8 287.1 73.8 287.1 73.8Z" fill="#2E2427"/>
<path d="M288.7 52.3L295.9 59.3L290.7 71.3L298 69.2L298.5 77.1L326.6 56.5L288.7 52.3Z" fill="black"/>
<path d="M295.9 59.7C295.7 59.7 295.5 59.6 295.5 59.4C295.5 59.2 295.6 59 295.8 59L325.6 56.4C325.8 56.4 326 56.5 326 56.7C326 56.9 325.9 57.1 325.7 57.1L295.9 59.7C296 59.7 296 59.7 295.9 59.7Z" fill="#2E2427"/>
<path d="M290.7 71.6C290.6 71.6 290.5 71.6 290.4 71.5C290.3 71.3 290.3 71.1 290.4 71L298.3 64.3C298.5 64.2 298.7 64.2 298.8 64.3C298.9 64.5 298.9 64.7 298.8 64.8L290.9 71.5C290.9 71.6 290.8 71.6 290.7 71.6Z" fill="#2E2427"/>
<path d="M298.6 65C298.4 65 298.3 64.9 298.2 64.7C298.1 64.5 298.3 64.3 298.5 64.2L325.7 56.3C325.9 56.2 326.1 56.4 326.2 56.6C326.3 56.8 326.1 57 325.9 57.1L298.7 65H298.6Z" fill="#2E2427"/>
<path d="M298 69.6C297.7 69.6 297.6 69.4 297.6 69.2L298.2 64.6C298.2 64.4 298.4 64.3 298.6 64.3C298.8 64.3 299 64.5 298.9 64.7L298.3 69.3C298.4 69.5 298.2 69.6 298 69.6Z" fill="#2E2427"/>
<path d="M151.8 346.6L152.1 356.7L164.5 360.9L158 364.9L163.6 370.6L129.4 377.4L151.8 346.6Z" fill="#FF9700"/>
<path d="M130.1 377.4C130 377.4 129.9 377.4 129.8 377.3C129.7 377.1 129.7 376.9 129.8 376.8L151.8 356.5C152 356.4 152.2 356.4 152.3 356.5C152.4 356.7 152.4 356.9 152.3 357L130.3 377.3C130.3 377.4 130.2 377.4 130.1 377.4Z" fill="#2E2427"/>
<path d="M154.2 362.6C154 362.6 153.9 362.5 153.8 362.3C153.8 362.1 153.9 361.9 154.1 361.9L164.3 360.5C164.5 360.5 164.7 360.6 164.7 360.8C164.7 361 164.6 361.2 164.4 361.2L154.2 362.6C154.3 362.6 154.3 362.6 154.2 362.6Z" fill="#2E2427"/>
<path d="M130.1 377.4C130 377.4 129.9 377.3 129.8 377.2C129.7 377 129.7 376.8 129.9 376.7L154 361.9C154.2 361.8 154.4 361.8 154.5 362C154.6 362.2 154.6 362.4 154.4 362.5L130.4 377.3C130.3 377.4 130.2 377.4 130.1 377.4Z" fill="#2E2427"/>
<path d="M158 365.3C157.9 365.3 157.9 365.3 157.8 365.2L154 362.5C153.8 362.4 153.8 362.1 153.9 362C154 361.8 154.3 361.8 154.4 361.9L158.2 364.6C158.4 364.7 158.4 365 158.3 365.1C158.3 365.3 158.2 365.3 158 365.3Z" fill="#2E2427"/>
<path d="M303 371.1C302.7 371.1 302.5 371.1 302.2 371.1C302 371.1 301.8 370.9 301.9 370.7C301.9 370.5 302.1 370.3 302.3 370.4C303.3 370.5 304.3 370.5 305.3 370.4C305.5 370.4 305.7 370.5 305.7 370.8C305.7 371 305.6 371.2 305.3 371.2C304.6 371.1 303.8 371.1 303 371.1ZM299.3 370.6C298.3 370.4 297.3 370.2 296.3 369.9C296.1 369.8 296 369.6 296 369.4C296.1 369.2 296.3 369.1 296.5 369.1C297.5 369.4 298.4 369.6 299.4 369.8C299.6 369.8 299.7 370 299.7 370.2C299.6 370.5 299.5 370.6 299.3 370.6ZM308.2 370.7C308 370.7 307.9 370.6 307.8 370.4C307.8 370.2 307.9 370 308.1 370C309.1 369.8 310 369.6 311 369.3C311.2 369.2 311.4 369.3 311.5 369.5C311.6 369.7 311.5 369.9 311.3 370C310.3 370.2 309.3 370.5 308.2 370.7C308.3 370.7 308.3 370.7 308.2 370.7ZM293.5 369H293.4C292.5 368.7 291.5 368.3 290.6 367.9C290.4 367.8 290.3 367.6 290.4 367.4C290.5 367.2 290.7 367.1 290.9 367.2C291.8 367.6 292.8 368 293.7 368.3C293.9 368.4 294 368.6 293.9 368.8C293.8 368.9 293.7 369 293.5 369ZM313.9 368.8C313.8 368.8 313.6 368.7 313.6 368.6C313.5 368.4 313.6 368.2 313.8 368.1C314.7 367.7 315.5 367.2 316.4 366.6C316.6 366.5 316.8 366.5 316.9 366.7C317 366.9 317 367.1 316.8 367.2C315.9 367.8 315 368.3 314.2 368.7C314 368.8 314 368.8 313.9 368.8ZM288 366.6C287.9 366.6 287.9 366.6 287.8 366.6C286.9 366.2 286 365.7 285.1 365.2C284.9 365.1 284.9 364.9 285 364.7C285.1 364.5 285.3 364.5 285.5 364.6C286.4 365.1 287.3 365.6 288.1 366C288.3 366.1 288.4 366.3 288.3 366.5C288.3 366.5 288.2 366.6 288 366.6ZM318.9 365.5C318.8 365.5 318.7 365.4 318.6 365.4C318.5 365.2 318.5 365 318.7 364.9C319.4 364.3 320.2 363.6 320.9 362.9C321 362.8 321.3 362.8 321.4 362.9C321.5 363 321.5 363.3 321.4 363.4C320.7 364.1 319.9 364.8 319.1 365.4C319.1 365.5 319 365.5 318.9 365.5ZM242 362.5C241.8 362.5 241.7 362.4 241.6 362.2C241.6 362 241.7 361.8 241.9 361.8C242.8 361.7 243.7 361.3 244.5 360.8C244.7 360.7 244.9 360.7 245 360.9C245.1 361.1 245.1 361.3 244.9 361.4C244.1 362 243 362.4 242 362.5ZM282.8 363.6C282.7 363.6 282.7 363.6 282.6 363.5C281.7 363 280.9 362.4 280.1 361.9C279.9 361.8 279.9 361.6 280 361.4C280.1 361.2 280.3 361.2 280.5 361.3C281.3 361.9 282.2 362.4 283 362.9C283.2 363 283.2 363.2 283.1 363.4C283.1 363.6 282.9 363.6 282.8 363.6ZM239.1 361.9C239 361.9 239 361.9 238.9 361.8C237.9 361.2 237.4 360.2 237.5 359V358.9C237.5 358.7 237.7 358.5 237.9 358.6C238.1 358.6 238.3 358.8 238.2 359V359.1C238.2 360 238.5 360.7 239.3 361.2C239.5 361.3 239.5 361.5 239.4 361.7C239.4 361.8 239.2 361.9 239.1 361.9ZM172.1 357C172 357 171.9 357 171.8 356.9C171.7 356.7 171.7 356.5 171.8 356.4C171.8 356.4 172.6 355.6 174.1 354.4C174.3 354.3 174.5 354.3 174.6 354.4C174.7 354.6 174.7 354.8 174.6 354.9C173.2 356.1 172.3 356.9 172.3 356.9C172.3 356.9 172.2 357 172.1 357ZM246.9 359.3C246.8 359.3 246.8 359.3 246.7 359.2C246.5 359.1 246.5 358.8 246.6 358.7C247.2 357.9 247.6 357.1 247.9 356.1C248 355.9 248.2 355.8 248.4 355.9C248.6 356 248.7 356.2 248.6 356.4C248.3 357.4 247.8 358.3 247.2 359.2C247.2 359.3 247 359.3 246.9 359.3ZM277.8 360.3C277.7 360.3 277.7 360.3 277.6 360.2C276.8 359.6 276 359 275.1 358.5C274.9 358.4 274.9 358.1 275 358C275.1 357.8 275.4 357.8 275.5 357.9C276.3 358.5 277.1 359.1 277.9 359.6C278.1 359.7 278.1 360 278 360.1C278 360.3 277.9 360.3 277.8 360.3ZM323.2 361.4C323.1 361.4 323 361.4 323 361.3C322.8 361.2 322.8 360.9 323 360.8C323.6 360.1 324.3 359.3 324.9 358.5C325 358.3 325.3 358.3 325.4 358.4C325.6 358.5 325.6 358.8 325.5 358.9C324.9 359.7 324.2 360.5 323.6 361.2C323.5 361.3 323.4 361.4 323.2 361.4ZM238.9 356.6C238.8 356.6 238.8 356.6 238.7 356.5C238.5 356.4 238.5 356.2 238.6 356C239.1 355.2 239.8 354.4 240.5 353.6C240.6 353.5 240.9 353.5 241 353.6C241.1 353.7 241.1 354 241 354.1C240.3 354.8 239.6 355.6 239.2 356.4C239.2 356.5 239 356.6 238.9 356.6ZM272.9 356.8C272.8 356.8 272.8 356.8 272.7 356.7L270.3 354.9C270.1 354.8 270.1 354.5 270.2 354.4C270.3 354.2 270.6 354.2 270.7 354.3L273.1 356.1C273.3 356.2 273.3 356.5 273.2 356.6C273.2 356.8 273 356.8 272.9 356.8ZM176.7 353.1C176.6 353.1 176.5 353 176.4 353C176.3 352.8 176.3 352.6 176.5 352.5C177.2 351.9 178 351.3 178.9 350.6C179.1 350.5 179.3 350.5 179.4 350.7C179.5 350.9 179.5 351.1 179.3 351.2C178.4 351.9 177.7 352.5 176.9 353C176.8 353 176.8 353.1 176.7 353.1ZM248.8 353.7C248.6 353.7 248.4 353.5 248.4 353.3C248.4 352.4 248.3 351.4 248.1 350.4C248 350.2 248.2 350 248.4 349.9C248.6 349.8 248.8 350 248.9 350.2C249.2 351.2 249.3 352.3 249.3 353.3C249.1 353.6 249 353.7 248.8 353.7ZM326.9 356.6C326.8 356.6 326.8 356.6 326.7 356.5C326.5 356.4 326.5 356.2 326.6 356L326.8 355.7C327.3 355 327.8 354.2 328.2 353.5C328.3 353.3 328.5 353.3 328.7 353.4C328.9 353.5 328.9 353.7 328.8 353.9C328.3 354.7 327.9 355.4 327.4 356.2L327.2 356.5C327.1 356.5 327 356.6 326.9 356.6ZM243.1 352.3C243 352.3 242.9 352.2 242.8 352.1C242.7 351.9 242.7 351.7 242.9 351.6C243.7 351 244.6 350.5 245.5 350C245.7 349.9 245.9 350 246 350.2C246.1 350.4 246 350.6 245.8 350.7C244.9 351.2 244.1 351.7 243.3 352.2C243.3 352.3 243.2 352.3 243.1 352.3ZM268.1 353.2C268 353.2 268 353.2 267.9 353.1C267.3 352.7 266.7 352.2 266.1 351.8C265.9 351.6 265.7 351.5 265.4 351.3C265.2 351.2 265.2 351 265.3 350.8C265.4 350.6 265.6 350.6 265.8 350.7C266 350.9 266.3 351 266.5 351.2C267.1 351.6 267.7 352 268.3 352.5C268.5 352.6 268.5 352.9 268.4 353C268.3 353.2 268.2 353.2 268.1 353.2ZM181.4 349.4C181.3 349.4 181.2 349.3 181.1 349.2C181 349 181 348.8 181.2 348.7C182 348.1 182.8 347.5 183.7 347C183.9 346.9 184.1 346.9 184.2 347.1C184.3 347.3 184.3 347.5 184.1 347.6C183.2 348.2 182.4 348.8 181.7 349.3C181.6 349.4 181.5 349.4 181.4 349.4ZM248.4 349.5C248.3 349.5 248.1 349.4 248.1 349.3C248 349.1 248.1 348.9 248.3 348.8C249.3 348.5 250.3 348.2 251.2 348C251.4 348 251.6 348.1 251.6 348.3C251.6 348.5 251.5 348.7 251.3 348.7C250.3 348.9 249.4 349.2 248.5 349.5C248.5 349.5 248.4 349.5 248.4 349.5ZM263 350H262.9C262 349.6 261.1 349.2 260.1 349C259.9 348.9 259.8 348.7 259.8 348.5C259.9 348.3 260.1 348.2 260.3 348.2C261.3 348.5 262.2 348.8 263.2 349.3C263.4 349.4 263.5 349.6 263.4 349.8C263.3 350 263.2 350.1 263 350ZM186.4 346C186.3 346 186.2 345.9 186.1 345.8C186 345.6 186 345.4 186.2 345.3C187 344.8 187.9 344.2 188.7 343.7C188.9 343.6 189.1 343.6 189.2 343.8C189.3 344 189.3 344.2 189.1 344.3C188.2 344.8 187.4 345.4 186.6 345.9C186.5 346 186.5 346 186.4 346ZM329.9 351.4C329.8 351.4 329.8 351.4 329.7 351.4C329.5 351.3 329.4 351.1 329.5 350.9C329.9 350 330.4 349.1 330.8 348.2C330.9 348 331.1 347.9 331.3 348C331.5 348.1 331.6 348.3 331.5 348.5C331.1 349.4 330.7 350.3 330.2 351.2C330.2 351.4 330.1 351.4 329.9 351.4ZM254.3 348.3C254.1 348.3 253.9 348.1 253.9 347.9C253.9 347.7 254 347.5 254.3 347.5C255.3 347.4 256.4 347.5 257.4 347.6C257.6 347.6 257.8 347.8 257.7 348C257.7 348.2 257.5 348.4 257.3 348.3C256.3 348.3 255.3 348.3 254.3 348.3ZM247.4 347.9C247.3 347.9 247.1 347.8 247.1 347.7C246.7 346.9 246.2 346 245.6 345.2C245.5 345 245.5 344.8 245.7 344.7C245.9 344.6 246.1 344.6 246.2 344.8C246.8 345.7 247.4 346.5 247.8 347.4C247.9 347.6 247.8 347.8 247.6 347.9C247.5 347.9 247.4 348 247.4 347.9ZM191.5 342.8C191.4 342.8 191.3 342.7 191.2 342.6C191.1 342.4 191.2 342.2 191.3 342.1C192.2 341.6 193 341.1 193.9 340.6C194.1 340.5 194.3 340.6 194.4 340.7C194.5 340.9 194.4 341.1 194.3 341.2C193.4 341.7 192.5 342.2 191.7 342.7C191.6 342.8 191.6 342.8 191.5 342.8ZM243.8 343.1C243.7 343.1 243.6 343.1 243.5 343C242.8 342.3 242.1 341.6 241.3 341C241.1 340.9 241.1 340.6 241.3 340.5C241.4 340.3 241.7 340.3 241.8 340.5C242.6 341.2 243.4 341.9 244 342.6C244.1 342.7 244.1 343 244 343.1C244 343.1 243.9 343.1 243.8 343.1ZM332.3 345.9H332.2C332 345.8 331.9 345.6 332 345.4C332.3 344.5 332.7 343.5 333 342.6C333.1 342.4 333.3 342.3 333.5 342.4C333.7 342.5 333.8 342.7 333.7 342.9C333.4 343.9 333.1 344.8 332.7 345.8C332.6 345.9 332.5 345.9 332.3 345.9ZM196.8 339.9C196.7 339.9 196.5 339.8 196.5 339.7C196.4 339.5 196.5 339.3 196.7 339.2C197.6 338.7 198.5 338.3 199.4 337.9C199.6 337.8 199.8 337.9 199.9 338.1C200 338.3 199.9 338.5 199.7 338.6C198.8 339 197.9 339.5 197 339.9C196.9 339.9 196.8 339.9 196.8 339.9ZM239.2 339.3C239.1 339.3 239.1 339.3 239 339.2C238.2 338.7 237.4 338.1 236.5 337.6C236.3 337.5 236.3 337.3 236.4 337.1C236.5 336.9 236.7 336.9 236.9 337C237.8 337.5 238.6 338.1 239.4 338.7C239.6 338.8 239.6 339.1 239.5 339.2C239.5 339.2 239.4 339.3 239.2 339.3ZM202.2 337.4C202.1 337.4 201.9 337.3 201.9 337.2C201.8 337 201.9 336.8 202.1 336.7C203 336.3 204 335.9 204.9 335.6C205.1 335.5 205.3 335.6 205.4 335.8C205.5 336 205.4 336.2 205.2 336.3C204.3 336.6 203.4 337 202.4 337.4C202.3 337.4 202.3 337.4 202.2 337.4ZM334.1 340.2C333.8 340.1 333.7 339.9 333.8 339.7C334 338.8 334.3 337.8 334.5 336.8C334.5 336.6 334.7 336.5 334.9 336.5C335.1 336.5 335.2 336.7 335.2 336.9C335 337.9 334.8 338.9 334.5 339.8C334.4 340.1 334.3 340.2 334.1 340.2ZM207.8 335.3C207.6 335.3 207.5 335.2 207.5 335C207.4 334.8 207.5 334.6 207.7 334.5C208.7 334.2 209.6 333.9 210.6 333.7C210.8 333.7 211 333.8 211.1 334C211.2 334.2 211 334.4 210.8 334.5C209.9 334.7 208.9 335 207.9 335.3C207.9 335.3 207.9 335.3 207.8 335.3ZM234 336.1C233.1 335.6 232.2 335.2 231.3 334.9C231.1 334.8 231 334.6 231.1 334.4C231.2 334.2 231.4 334.1 231.6 334.2C232.5 334.6 233.4 335 234.3 335.4L234.2 335.8L234 336.1ZM213.7 333.8C213.5 333.8 213.4 333.7 213.3 333.5C213.3 333.3 213.4 333.1 213.6 333.1C214.6 332.9 215.6 332.7 216.6 332.6C216.8 332.6 217 332.7 217 332.9C217 333.1 216.9 333.3 216.7 333.3C215.7 333.4 214.7 333.6 213.7 333.8ZM228.5 334C227.5 333.7 226.5 333.5 225.5 333.4C225.3 333.4 225.2 333.2 225.2 333C225.2 332.8 225.4 332.7 225.6 332.7C226.6 332.8 227.6 333.1 228.6 333.3C228.8 333.4 228.9 333.6 228.9 333.8C228.9 333.9 228.7 334 228.5 334ZM219.6 333.1C219.4 333.1 219.2 332.9 219.2 332.7C219.2 332.5 219.4 332.3 219.6 332.3C220.5 332.3 221.5 332.3 222.4 332.3H222.7C222.9 332.3 223.1 332.5 223.1 332.7C223.1 332.9 222.9 333.1 222.7 333.1H222.4C221.5 333 220.6 333 219.6 333.1ZM335.4 334.3C335.1 334.3 335 334.1 335 333.9C335.2 332.9 335.3 331.9 335.5 330.9C335.5 330.7 335.7 330.6 335.9 330.6C336.1 330.6 336.2 330.8 336.2 331C336.1 332 335.9 333 335.7 334C335.7 334.2 335.6 334.3 335.4 334.3ZM336.3 328.4C336.1 328.4 335.9 328.2 335.9 328C336 327 336.1 326 336.2 325C336.2 324.8 336.4 324.6 336.6 324.7C336.8 324.7 337 324.9 336.9 325.1C336.8 326.1 336.7 327.1 336.6 328.1C336.6 328.2 336.5 328.4 336.3 328.4ZM336.9 322.4C336.7 322.4 336.5 322.2 336.5 322C336.6 321 336.7 320 336.7 319C336.7 318.8 336.9 318.6 337.1 318.7C337.3 318.7 337.5 318.9 337.4 319.1C337.3 320.1 337.2 321.1 337.2 322.1C337.3 322.3 337.1 322.4 336.9 322.4ZM337.3 316.4C337.1 316.4 336.9 316.2 336.9 316L337.1 313C337.1 312.8 337.3 312.6 337.5 312.7C337.7 312.7 337.9 312.9 337.8 313.1L337.6 316.1C337.7 316.3 337.5 316.4 337.3 316.4ZM337.8 310.4C337.6 310.4 337.4 310.2 337.4 310C337.5 309 337.6 308 337.7 307C337.7 306.8 337.9 306.6 338.1 306.7C338.3 306.7 338.5 306.9 338.4 307.1C338.3 308.1 338.2 309.1 338.1 310.1C338.2 310.3 338 310.4 337.8 310.4ZM338.4 304.4C338.3 304.4 338.3 304.4 338.4 304.4C338.2 304.4 338 304.2 338 304C338.1 303 338.3 302 338.4 301C338.4 300.8 338.6 300.7 338.8 300.7C339 300.7 339.1 300.9 339.1 301.1C339 302.1 338.8 303.1 338.7 304.1C338.7 304.3 338.6 304.4 338.4 304.4ZM339.3 298.5C339.3 298.5 339.2 298.5 339.3 298.5C339 298.5 338.9 298.3 338.9 298.1C339.1 297.1 339.3 296.1 339.6 295.2C339.7 295 339.9 294.9 340.1 294.9C340.3 295 340.4 295.2 340.4 295.4C340.2 296.3 339.9 297.3 339.7 298.3C339.6 298.4 339.5 298.5 339.3 298.5ZM340.8 292.7H340.7C340.5 292.6 340.4 292.4 340.5 292.2C340.8 291.2 341.2 290.3 341.6 289.4C341.7 289.2 341.9 289.1 342.1 289.2C342.3 289.3 342.4 289.5 342.3 289.7C341.9 290.6 341.5 291.5 341.2 292.4C341.1 292.6 341 292.7 340.8 292.7ZM343.4 287.3C343.3 287.3 343.3 287.3 343.2 287.2C343 287.1 343 286.9 343.1 286.7C343.6 285.8 344.2 285 344.9 284.2C345 284 345.3 284 345.4 284.2C345.6 284.3 345.6 284.6 345.4 284.7C344.8 285.4 344.2 286.2 343.7 287.1C343.6 287.3 343.5 287.3 343.4 287.3ZM347.2 282.8C347.1 282.8 347 282.8 346.9 282.7C346.8 282.5 346.8 282.3 346.9 282.2C347.7 281.5 348.5 280.9 349.3 280.4C349.5 280.3 349.7 280.3 349.8 280.5C349.9 280.7 349.9 280.9 349.7 281C348.9 281.5 348.1 282.1 347.4 282.8C347.4 282.7 347.3 282.8 347.2 282.8ZM352.2 279.5C352.1 279.5 351.9 279.4 351.9 279.3C351.8 279.1 351.9 278.9 352.1 278.8C353 278.4 353.9 278 354.9 277.7C355.1 277.6 355.3 277.7 355.4 277.9C355.5 278.1 355.4 278.3 355.2 278.4C354.2 278.7 353.3 279.1 352.5 279.5C352.3 279.5 352.2 279.5 352.2 279.5ZM357.8 277.5C357.6 277.5 357.5 277.4 357.4 277.2C357.4 277 357.5 276.8 357.7 276.7C358.6 276.5 359.6 276.3 360.7 276.1C360.9 276.1 361.1 276.2 361.1 276.4C361.1 276.6 361 276.8 360.8 276.8C359.8 277 358.8 277.1 357.9 277.4C357.9 277.5 357.8 277.5 357.8 277.5Z" fill="#2E2427"/>
<path d="M99.7 158.9C99.6 158.9 99.5 158.9 99.4 158.8C89.9 149 90.5 131.8 90.5 131.7C90.5 131.5 90.7 131.3 90.9 131.3C91.1 131.3 91.3 131.5 91.3 131.7C91.3 131.9 90.7 148.7 100 158.3C100.1 158.4 100.1 158.7 100 158.8C99.9 158.9 99.8 158.9 99.7 158.9Z" fill="#2E2427"/>
<path d="M92.6 156.1C92.5 156.1 92.4 156.1 92.4 156C87 152.2 87.7 142.5 87.7 142.1C87.7 141.9 87.9 141.7 88.1 141.8C88.3 141.8 88.5 142 88.4 142.2C88.4 142.3 87.7 151.9 92.7 155.5C92.9 155.6 92.9 155.9 92.8 156C92.8 156 92.7 156.1 92.6 156.1Z" fill="#2E2427"/>
<path d="M429.9 6.5C430 6.4 430 6.4 430.2 6.4C443.8 4.7 457.1 15.4 457.2 15.5C457.4 15.6 457.4 15.9 457.3 16C457.2 16.2 456.9 16.2 456.8 16.1C456.7 16 443.6 5.4 430.3 7.1C430.1 7.1 429.9 7 429.9 6.8C429.8 6.7 429.8 6.6 429.9 6.5Z" fill="#2E2427"/>
<path d="M436.4 2.49999C436.4 2.39999 436.5 2.39999 436.6 2.39999C442.9 0.299989 450.2 6.69999 450.6 6.99999C450.8 7.09999 450.8 7.39999 450.6 7.49999C450.5 7.69999 450.2 7.69999 450.1 7.49999C450 7.39999 442.8 1.09999 436.9 3.09999C436.7 3.19999 436.5 3.09999 436.4 2.89999C436.3 2.79999 436.3 2.59999 436.4 2.49999Z" fill="#2E2427"/>
<path d="M446.1 320.8C446.1 320.9 446.1 321 446.1 321.1C440.2 333.4 423.9 338.8 423.7 338.8C423.5 338.9 423.3 338.8 423.2 338.6C423.1 338.4 423.2 338.2 423.4 338.1C423.6 338 439.5 332.8 445.3 320.8C445.4 320.6 445.6 320.5 445.8 320.6C446.1 320.6 446.1 320.7 446.1 320.8Z" fill="#2E2427"/>
<path d="M446 328.4C446 328.5 446 328.5 446 328.6C444.3 335 434.9 337.7 434.5 337.8C434.3 337.9 434.1 337.7 434 337.5C433.9 337.3 434.1 337.1 434.3 337C434.4 337 443.6 334.3 445.2 328.3C445.3 328.1 445.5 328 445.7 328C445.8 328.2 445.9 328.3 446 328.4Z" fill="#2E2427"/>
<path d="M101.7 348.1C91.9 348.1 84.2 341.7 84.1 341.6C83.9 341.5 83.9 341.2 84.1 341.1C84.2 340.9 84.5 340.9 84.6 341.1C84.7 341.2 95 349.7 106.7 346.8C106.9 346.8 107.1 346.9 107.2 347.1C107.2 347.3 107.1 347.5 106.9 347.6C105.1 348 103.4 348.1 101.7 348.1Z" fill="#2E2427"/>
<path d="M97.5 352.6C93 352.6 89.2 349.1 89 349C88.8 348.9 88.8 348.6 89 348.5C89.1 348.3 89.4 348.3 89.5 348.5C89.6 348.6 95.1 353.7 100.5 351.3C100.7 351.2 100.9 351.3 101 351.5C101.1 351.7 101 351.9 100.8 352C99.7 352.4 98.6 352.6 97.5 352.6Z" fill="#2E2427"/>
<path d="M396.8 255.5C390.5 248 390.4 238 390.4 237.9C390.4 237.7 390.6 237.5 390.8 237.5C391 237.5 391.2 237.7 391.2 237.9C391.2 238 391.3 251.4 401.2 258.4C401.4 258.5 401.4 258.8 401.3 258.9C401.2 259.1 400.9 259.1 400.8 259C399.1 257.9 397.9 256.7 396.8 255.5Z" fill="#2E2427"/>
<path d="M390.6 255.1C387.7 251.7 387.9 246.6 387.9 246.3C387.9 246.1 388.1 245.9 388.3 245.9C388.5 245.9 388.7 246.1 388.7 246.3C388.7 246.4 388.4 254 393.7 256.5C393.9 256.6 394 256.8 393.9 257C393.8 257.2 393.6 257.3 393.4 257.2C392.2 256.7 391.3 255.9 390.6 255.1Z" fill="#2E2427"/>
<path d="M397 146.6C391.5 138.5 392.5 128.5 392.5 128.4C392.5 128.2 392.7 128 392.9 128.1C393.1 128.1 393.3 128.3 393.2 128.5C393.2 128.6 391.9 141.9 400.9 150C401.1 150.1 401.1 150.4 400.9 150.5C400.8 150.7 400.5 150.7 400.4 150.5C399.1 149.3 397.9 148 397 146.6Z" fill="#2E2427"/>
<path d="M390.9 145.6C388.4 141.9 389.1 136.8 389.2 136.6C389.2 136.4 389.4 136.3 389.6 136.3C389.8 136.3 389.9 136.5 389.9 136.7C389.9 136.8 388.8 144.3 393.8 147.4C394 147.5 394 147.7 393.9 147.9C393.8 148.1 393.6 148.1 393.4 148C392.3 147.3 391.5 146.5 390.9 145.6Z" fill="#2E2427"/>
</svg>
