<svg width="1578" height="929" viewBox="0 0 1578 929" fill="none" xmlns="http://www.w3.org/2000/svg">
<path d="M0 929L1578 929L1578 0L0 0L0 929Z" fill="black"/>
<path opacity="0.8" d="M1535.07 122.241C1531.83 120.613 1526.56 120.583 1523.29 122.172C1520.84 123.366 1520.22 125.132 1521.44 126.622L1338.47 215.521L1337.63 329.066L1293.05 350.724L1292.13 474.225L1139.44 548.413L1115.82 536.582L1233.57 479.375L1234.07 411.67L1233.61 411.433L1100.71 344.853L1100.88 321.893L1176.59 285.11C1179.84 286.294 1184.4 286.186 1187.34 284.755C1190.6 283.167 1190.62 280.572 1187.38 278.944C1184.14 277.316 1178.87 277.286 1175.6 278.875C1172.66 280.305 1172.38 282.555 1174.72 284.173L1099.01 320.956L1098.83 345.751L1099.29 345.988L1232.19 412.568L1231.7 478.428L1142.74 521.654L1142.95 493.445L1183.73 473.633C1186.98 474.817 1191.54 474.708 1194.48 473.278C1197.74 471.689 1197.76 469.094 1194.52 467.466C1191.28 465.838 1186.01 465.809 1182.74 467.397C1179.8 468.828 1179.52 471.078 1181.86 472.696L1141.08 492.508L1140.86 522.552L1113.95 535.625L1082.36 519.799L1082.73 470.673L1142.75 441.517L1143 407.556L1142.54 407.319L1017.12 344.488C1019.49 342.899 1019.24 340.64 1016.32 339.18C1013.08 337.552 1007.81 337.522 1004.54 339.111C1001.28 340.699 1001.26 343.294 1004.5 344.922C1007.42 346.382 1011.98 346.54 1015.25 345.396L1141.13 408.464L1140.89 440.58L1082.75 468.828L1083 434.975L1082.54 434.739L1005.81 396.298C1008.18 394.709 1007.93 392.45 1005.01 390.99C1001.77 389.372 996.499 389.332 993.229 390.921C989.969 392.509 989.949 395.104 993.189 396.732C996.109 398.192 1000.67 398.35 1003.94 397.206L1081.14 435.883L1080.52 518.862L1058.33 507.752L1021.51 525.64L988.399 509.054L988.699 469.213L988.239 468.976L900.707 425.128L900.987 387.566C902.797 387.477 904.557 387.112 905.947 386.431C909.207 384.843 909.227 382.248 905.987 380.62C902.747 378.992 897.477 378.962 894.207 380.551C890.947 382.139 890.927 384.734 894.167 386.362C895.547 387.053 897.307 387.438 899.117 387.546L898.827 426.026L899.287 426.263L986.819 470.111L986.539 508.117L844.086 436.751L844.646 361.972L922.468 324.163L993.629 324.567L993.849 324.459L1116.4 264.913C1119.65 266.097 1124.21 265.989 1127.15 264.558C1130.41 262.969 1130.43 260.375 1127.19 258.747C1123.95 257.128 1118.68 257.089 1115.41 258.677C1112.47 260.108 1112.19 262.358 1114.53 263.976L993.129 322.959L925.698 322.574L1150.83 213.192C1154.08 214.376 1158.64 214.268 1161.58 212.837C1164.84 211.248 1164.86 208.653 1161.62 207.025C1158.38 205.407 1153.11 205.368 1149.84 206.956C1146.9 208.387 1146.62 210.637 1148.96 212.255L842.756 361.025L842.186 437.639L842.646 437.876L1019.6 526.528L983.719 543.963L681.633 392.667L682.293 303.393L681.833 303.156L579.091 251.682C581.461 250.093 581.211 247.834 578.291 246.374C575.051 244.746 569.781 244.716 566.511 246.305C563.251 247.893 563.231 250.488 566.471 252.116C569.391 253.576 573.951 253.734 577.221 252.59L680.433 304.291L679.773 393.565L680.233 393.802L981.889 544.93L947.728 561.525L648.952 411.848L470.119 410.822L358.757 355.035L359.387 270.291C360.567 270.103 361.687 269.797 362.627 269.333C365.887 267.745 365.907 265.15 362.667 263.522C359.427 261.904 354.157 261.864 350.887 263.453C347.627 265.041 347.607 267.636 350.847 269.264C352.667 270.172 355.127 270.567 357.517 270.468L356.877 355.943L357.337 356.18L469.589 412.42L648.422 413.446L900.637 539.799L849.726 539.503L763.645 496.376L697.093 495.991L696.873 496.099L604.242 541.101C600.991 539.917 596.431 540.026 593.491 541.457C590.231 543.045 590.211 545.64 593.451 547.268C596.691 548.896 601.961 548.926 605.232 547.337C608.172 545.906 608.452 543.657 606.112 542.039L697.593 497.589L763.145 497.964L849.226 541.091L903.867 541.407L945.858 562.443L854.686 606.734L828.956 593.839L829.206 560.391L763.835 527.643C766.205 526.055 765.955 523.795 763.035 522.335C759.794 520.717 754.524 520.677 751.254 522.266C747.994 523.854 747.974 526.449 751.214 528.077C754.134 529.538 758.694 529.695 761.965 528.551L827.336 561.298L827.106 592.911L757.384 557.983L724.244 557.796L724.024 557.904L684.373 577.164C681.123 575.98 676.563 576.089 673.623 577.519C670.363 579.108 670.343 581.703 673.583 583.331C676.823 584.949 682.093 584.988 685.363 583.4C688.303 581.969 688.583 579.72 686.243 578.101L724.744 559.394L756.874 559.582L852.826 607.652L835.266 616.187L890.897 644.06L864.656 656.808L825.116 656.581L796.925 642.462C799.195 640.873 798.905 638.663 796.025 637.213C792.785 635.594 787.515 635.555 784.245 637.144C780.985 638.732 780.965 641.327 784.205 642.955C787.165 644.435 791.805 644.573 795.085 643.379L824.606 658.169L861.416 658.377L794.495 690.887L638.202 612.576L525.33 611.924L525.11 612.033L461.329 643.024C458.079 641.84 453.519 641.949 450.579 643.379C447.319 644.968 447.299 647.563 450.539 649.191C453.779 650.809 459.049 650.848 462.319 649.26C465.259 647.829 465.539 645.58 463.199 643.961L525.83 613.533L637.702 614.174L758.244 674.568L706.453 674.272L656.013 648.993C658.383 647.405 658.133 645.146 655.213 643.685C651.972 642.057 646.702 642.028 643.432 643.616C640.172 645.205 640.152 647.8 643.392 649.428C646.312 650.888 650.872 651.046 654.142 649.901L705.933 675.851L761.455 676.166L792.625 691.785L712.694 730.621L458.169 729.16L261.145 630.454C263.515 628.865 263.265 626.606 260.345 625.146C257.105 623.518 251.835 623.488 248.565 625.077C245.305 626.665 245.285 629.26 248.525 630.888C251.445 632.348 256.005 632.506 259.275 631.362L457.649 730.749L709.444 732.199L677.733 747.601L489.319 746.516L489.099 746.624L395.848 791.932C392.597 790.748 388.037 790.857 385.097 792.287C381.837 793.876 381.817 796.471 385.057 798.099C388.297 799.727 393.568 799.756 396.838 798.168C399.778 796.737 400.058 794.488 397.718 792.869L489.819 748.124L678.233 749.209L678.453 749.101L892.747 644.978L916.367 656.808L691.063 766.279L526.89 765.332L526.67 765.44L327.646 862.143L52.921 860.565L0.0100002 834.043L0 835.888L52.411 862.143L328.136 863.732L328.356 863.623L453.259 802.943L452.989 839.282L370.667 879.282C367.417 878.098 362.857 878.206 359.917 879.637C356.657 881.226 356.637 883.82 359.877 885.448C363.117 887.067 368.387 887.106 371.657 885.518C374.597 884.087 374.877 881.837 372.537 880.219L454.869 840.22L455.149 802.253H454.719L527.4 766.94L691.573 767.887L691.793 767.778L918.218 657.735L945.048 671.174L505.64 884.659L505.35 923.692L507.21 923.702L507.49 885.587L946.898 672.101L980.049 688.707L753.394 798.849L753.244 818.769L713.054 838.296L712.714 884.117L634.782 921.975C631.532 920.791 626.972 920.899 624.032 922.33C622.842 922.912 622.092 923.623 621.762 924.382L638.002 924.471C637.772 923.919 637.332 923.386 636.642 922.902L714.574 885.044L714.914 839.223L753.224 820.605L752.674 893.973L775.125 905.221L734.374 925.024L738.104 925.043L776.985 906.149L815.576 925.487L819.306 925.507L754.544 893.066L755.234 799.776L981.899 689.644L1012.08 704.76L851.676 782.697C848.426 781.513 843.866 781.621 840.926 783.052C837.666 784.641 837.646 787.236 840.886 788.864C844.126 790.482 849.396 790.521 852.666 788.933C855.606 787.502 855.886 785.252 853.546 783.634L1013.95 705.697L1043.08 720.29L851.206 813.511L799.245 813.214C798.945 812.445 798.195 811.695 796.985 811.093C793.745 809.465 788.475 809.436 785.205 811.024C781.945 812.613 781.925 815.208 785.165 816.836C788.405 818.464 793.675 818.493 796.945 816.905C798.165 816.313 798.925 815.582 799.245 814.813L851.706 815.119L851.926 815.01L1044.95 721.227L1056.71 727.118L1065.83 722.688L1111.47 745.549L1111.24 777.004L1073.26 795.454V795.366L1013.88 795.02L1013.66 795.129L948.258 826.9C945.008 825.716 940.448 825.824 937.508 827.255C934.248 828.843 934.228 831.438 937.468 833.066C940.708 834.694 945.978 834.724 949.248 833.135C952.188 831.705 952.468 829.455 950.128 827.837L1014.37 796.619L1070.19 796.944L958.528 851.191C955.268 849.919 950.558 849.988 947.548 851.448C944.288 853.036 944.268 855.631 947.508 857.259C950.748 858.887 956.018 858.917 959.288 857.328C962.158 855.937 962.518 853.757 960.348 852.148L1099.62 784.483L1099.51 799.618L1016.65 839.874L1016.44 868.636L948.978 901.413C945.728 900.229 941.168 900.337 938.228 901.768C934.968 903.357 934.948 905.951 938.188 907.579C941.428 909.207 946.698 909.237 949.968 907.648C952.908 906.218 953.188 903.968 950.848 902.35L1018.31 869.573L1018.52 840.812L1101.38 800.556L1101.51 783.585L1113.12 777.941L1113.37 744.651L1067.73 721.79L1097.94 707.108L1191.85 754.153L1191.46 807.018L1127.23 838.227C1123.97 836.954 1119.26 837.023 1116.25 838.483C1112.99 840.072 1112.97 842.667 1116.21 844.295C1119.45 845.913 1124.72 845.952 1127.99 844.364C1130.86 842.972 1131.22 840.792 1129.06 839.184L1191.46 808.863L1191.14 851.566L1141.84 875.523L1141.45 927.382L1143.31 927.392L1143.69 876.46L1191.12 853.411L1190.57 927.668L1192.43 927.678L1193.73 753.255L1099.82 706.21L1133.74 689.723L1256.47 751.212L1255.39 895.966L1314.4 925.527L1314.38 928.378L1316.24 928.388L1316.27 924.619L1257.26 895.059L1258.34 750.305L1135.61 688.815L1160.75 676.6L1326.4 759.589L1325.48 883.1L1417.05 928.98L1420.78 929L1327.35 882.193L1328.27 758.681L1162.62 675.693L1203.37 655.89L1478.97 793.955L1478.51 855.414L1572.96 902.735L1572.97 900.9L1480.38 854.516L1480.84 793.057L1325.83 715.396L1448.87 716.107L1573.88 778.74L1573.89 776.905L1449.38 714.528L1322.61 713.798L1205.24 655.002L1252.6 631.993L1353.49 682.54L1516.06 683.478L1574.36 712.683L1574.37 710.848L1561.59 704.444L1574.42 704.513L1574.43 702.925L1558.37 702.836L1516.56 681.889L1353.99 680.952L1325.76 666.813L1394.88 667.207L1395.1 667.099L1429.9 650.187L1574.34 651.016L1574.82 651.253L1574.83 649.428L1433.14 648.619L1472.31 629.586C1475.56 630.77 1480.12 630.661 1483.06 629.231C1486.32 627.642 1486.34 625.047 1483.1 623.419C1479.86 621.791 1474.59 621.761 1471.32 623.35C1468.38 624.781 1468.1 627.03 1470.44 628.648L1394.38 665.599L1322.53 665.185L1254.44 631.076L1279.78 618.762L1263.59 610.652L1310.83 610.928L1372.34 641.741C1369.97 643.33 1370.22 645.589 1373.14 647.05C1376.38 648.668 1381.65 648.707 1384.92 647.119C1388.18 645.53 1388.2 642.935 1384.96 641.307C1382.04 639.847 1377.48 639.689 1374.21 640.834L1311.34 609.339L1260.37 609.043L1225.94 591.796L1247.27 581.436L1284.96 581.653L1318.23 565.492L1342.96 565.63L1398.6 593.503C1396.08 595.102 1396.27 597.41 1399.25 598.9C1402.49 600.518 1407.76 600.558 1411.03 598.969C1414.29 597.381 1414.31 594.786 1411.07 593.158C1408.2 591.717 1403.75 591.54 1400.51 592.615L1343.48 564.041L1317.75 563.893L1284.48 580.055L1250.52 579.858L1318.71 546.735L1355.39 546.942L1431.57 585.107L1575.29 585.936L1575.3 584.347L1432.08 583.528L1355.9 545.364L1318.22 545.147L1318 545.255L1224.09 590.879L1199.63 578.624L1305.73 527.071L1380.3 527.495L1441.59 558.2L1575.47 558.97L1575.48 557.381L1442.1 556.612L1384.03 527.515L1575.69 528.62L1575.7 527.031L1305.24 525.472L1305.02 525.581L1197.77 577.697L1169.98 563.775L1317.95 491.886L1575.95 493.366L1575.96 491.778L1387.95 490.692L1576.65 399.011L1576.66 397.176L1384.22 490.673L1319.31 490.298L1459.59 422.139L1459.7 406.934L1526.82 374.325C1530.07 375.509 1534.63 375.4 1537.57 373.97C1540.83 372.381 1540.85 369.786 1537.61 368.158C1534.37 366.54 1529.1 366.501 1525.83 368.089C1522.89 369.52 1522.61 371.769 1524.95 373.387L1488.4 391.147L1488.71 349.49L1577.31 306.442L1577.32 304.607L1486.85 348.563L1486.53 392.055L1457.83 405.997L1457.72 421.201L1316.29 489.923L1316.75 490.614L1168.1 562.828L1141.27 549.389L1293.96 475.202L1294.88 351.701L1577.99 214.149L1578 212.304L1339.47 328.198L1340.3 216.488L1522.86 127.786C1522.99 127.865 1523.09 127.944 1523.23 128.013C1526.47 129.631 1531.74 129.671 1535.01 128.082C1538.29 126.464 1538.31 123.869 1535.07 122.241ZM1276.03 618.713L1056.71 725.273L838.986 616.197L1058.31 509.636L1276.03 618.713Z" fill="#F4961B"/>
<path opacity="0.1" d="M1577.92 160.316L1536.43 184.305V261.605L1167.88 474.704L1139.87 458.511L1329.98 348.577V328.926L1363.69 309.433V264.233L1429.05 226.442C1431.8 227.589 1435.63 227.46 1438.1 226.037C1440.83 224.457 1440.83 221.888 1438.1 220.307C1435.36 218.726 1430.92 218.726 1428.18 220.307C1425.72 221.74 1425.49 223.953 1427.48 225.543L1362.11 263.344V308.544L1329.98 327.128V254.748L1329.59 254.521L1311.02 243.782L1422.46 179.345V106.876L1501.63 61.1028C1504.36 62.2489 1508.21 62.1205 1510.67 60.6978C1513.41 59.117 1513.41 56.5482 1510.67 54.9674C1507.94 53.3867 1503.5 53.3867 1500.76 54.9674C1498.29 56.3901 1498.07 58.6131 1500.04 60.2038L1420.88 105.987V178.456L1309.43 242.892L1128.25 138.126V57.062C1129.77 56.9632 1131.25 56.5976 1132.42 55.9159C1135.15 54.3351 1135.15 51.7664 1132.42 50.1856C1129.68 48.6048 1125.24 48.6048 1122.5 50.1856C1119.76 51.7664 1119.76 54.3351 1122.5 55.9159C1123.67 56.5877 1125.14 56.9632 1126.67 57.062V139.035L1127.06 139.262L1236.04 202.276H1156.62L1092.4 165.138C1094.38 163.557 1094.16 161.334 1091.69 159.902C1088.96 158.321 1084.52 158.321 1081.78 159.902C1079.04 161.482 1079.04 164.051 1081.78 165.632C1084.24 167.064 1088.09 167.183 1090.82 166.037L1156.19 203.837H1238.71V203.818L1328.38 255.667V347.698L1138.27 457.622L1112.77 442.881L1247.31 365.087C1250.05 366.233 1253.89 366.104 1256.35 364.682C1259.09 363.101 1259.09 360.532 1256.35 358.951C1253.62 357.37 1249.18 357.37 1246.43 358.951C1243.97 360.374 1243.75 362.597 1245.73 364.188L1111.2 441.982L1086.59 427.755L1247.52 334.696H1291.25C1291.51 335.457 1292.15 336.188 1293.17 336.781C1295.91 338.362 1300.35 338.362 1303.09 336.781C1305.83 335.2 1305.83 332.631 1303.09 331.051C1300.36 329.47 1295.92 329.47 1293.17 331.051C1292.15 331.643 1291.51 332.365 1291.25 333.135H1247.09L1246.91 333.244L1085.01 426.856L1075.08 421.115L1074.68 421.343L1067.43 425.542L1028.88 403.243V372.22L1060.73 353.794V353.824H1110.72L1165.75 322.001C1168.5 323.147 1172.33 323.018 1174.8 321.595C1177.53 320.015 1177.53 317.446 1174.8 315.865C1172.06 314.284 1167.63 314.284 1164.88 315.865C1162.42 317.288 1162.2 319.511 1164.17 321.102L1110.29 352.263H1063.3L1156.94 298.111C1159.69 299.356 1163.65 299.257 1166.18 297.795C1168.92 296.214 1168.92 293.645 1166.18 292.065C1163.45 290.484 1159.01 290.484 1156.27 292.065C1153.86 293.458 1153.57 295.611 1155.41 297.182L1038.59 364.721V349.793L1108.09 309.611V281.236L1164.68 248.514C1167.43 249.66 1171.26 249.532 1173.73 248.109C1176.46 246.528 1176.46 243.959 1173.73 242.379C1170.99 240.798 1166.55 240.798 1163.81 242.379C1161.35 243.801 1161.13 246.024 1163.11 247.615L1106.52 280.337V308.712L1037.08 348.884V365.63L1027.34 371.262V404.102L1065.9 426.401L1040.57 441.053L961.228 395.171V343.015L1015.1 311.864C1017.86 313.109 1021.81 313.01 1024.35 311.548C1027.08 309.967 1027.08 307.398 1024.35 305.817C1021.61 304.237 1017.18 304.237 1014.43 305.817C1012.03 307.21 1011.74 309.364 1013.57 310.935L961.228 341.197V299.069L1002.58 275.16V195.904C1004.1 195.805 1005.58 195.439 1006.75 194.758C1009.48 193.177 1009.48 190.608 1006.75 189.027C1004.01 187.447 999.574 187.447 996.83 189.027C994.095 190.608 994.095 193.177 996.83 194.758C998.002 195.43 999.474 195.805 1001 195.904V274.251L961.218 297.251V157.501H959.645L959.635 396.07L1038.97 441.952L1010.52 458.402L906.823 398.441V255.637L856.977 226.818V173.101L812.96 147.651C814.943 146.07 814.723 143.847 812.259 142.414C809.524 140.833 805.086 140.833 802.342 142.414C799.607 143.995 799.607 146.564 802.342 148.145C804.806 149.577 808.653 149.696 811.387 148.55L855.434 174.01V227.727L905.28 256.546V399.35L1008.98 459.311L987.894 471.503L847.931 390.577V268.738L847.54 268.511L723.665 196.882C725.648 195.301 725.428 193.078 722.964 191.646C720.229 190.065 715.791 190.065 713.046 191.646C710.312 193.226 710.312 195.795 713.046 197.376C715.511 198.799 719.357 198.927 722.092 197.781L846.358 269.637V391.486L846.749 391.713L986.301 472.412L952.132 492.171L719.287 357.538V296.906L718.896 296.678L523.958 183.959C525.941 182.378 525.721 180.155 523.256 178.723C520.522 177.142 516.084 177.142 513.339 178.723C510.604 180.303 510.604 182.872 513.339 184.453C515.803 185.886 519.65 186.004 522.385 184.858L717.714 297.805V358.438L718.105 358.665L848.682 434.167H745.112L625.204 364.84C627.187 363.259 626.967 361.036 624.502 359.603C621.768 358.023 617.33 358.023 614.585 359.603C611.85 361.184 611.85 363.753 614.585 365.334C617.049 366.756 620.896 366.885 623.631 365.739L744.681 435.738H851.397L950.559 493.08L910.84 516.051L825.602 466.77H688.754L533.093 376.765H446.743L411.542 356.402C413.526 354.821 413.305 352.599 410.841 351.166C408.106 349.585 403.668 349.585 400.924 351.166C398.189 352.747 398.189 355.315 400.924 356.896C403.388 358.319 407.235 358.447 409.969 357.301L446.323 378.326H532.673L650.297 446.339H548.701L499.776 418.053C501.759 416.472 501.539 414.249 499.074 412.816C496.34 411.236 491.902 411.236 489.157 412.816C486.422 414.397 486.422 416.966 489.157 418.547C491.621 419.969 495.468 420.098 498.203 418.952L548.28 447.91H653.012L688.333 468.331H825.191L849.043 482.124H790.862L790.681 482.232L761.501 499.107H639.899L605.599 479.278H536.82C536.56 478.517 535.918 477.786 534.897 477.194C532.162 475.613 527.724 475.613 524.979 477.194C522.245 478.774 522.245 481.343 524.979 482.924C527.714 484.505 532.152 484.505 534.897 482.924C535.918 482.331 536.56 481.61 536.82 480.839H605.179L639.478 500.678H758.776L725.919 519.677C723.174 518.531 719.337 518.659 716.873 520.082C714.138 521.663 714.138 524.232 716.873 525.812C719.608 527.393 724.045 527.393 726.79 525.812C729.254 524.39 729.475 522.167 727.501 520.586L791.292 483.695H851.767L909.277 516.95L888.031 529.241L889.213 529.922L901.714 537.145H861.965L809.995 507.09C811.978 505.509 811.758 503.286 809.284 501.854C806.549 500.273 802.111 500.273 799.366 501.854C796.632 503.434 796.632 506.003 799.366 507.584C801.831 509.007 805.677 509.135 808.412 507.989L861.534 538.706H904.429L933.52 555.521L915.628 565.865H883.903L883.723 565.974L856.005 581.999H835.189L788.177 554.82C790.281 553.229 790.11 550.957 787.596 549.504C784.861 547.924 780.423 547.924 777.679 549.504C774.944 551.085 774.944 553.654 777.679 555.235C780.103 556.638 783.849 556.796 786.574 555.719L834.768 583.58H856.426L856.606 583.471L884.324 567.446H912.914L855.734 600.514H824.861L760.499 563.297H566.381L445.992 493.683C448.076 492.092 447.895 489.83 445.391 488.378C442.656 486.797 438.219 486.797 435.474 488.378C432.739 489.958 432.739 492.527 435.474 494.108C437.908 495.511 441.665 495.659 444.399 494.572L565.961 564.858H760.048L824.41 602.075H856.125L856.305 601.966L935.062 556.43L955.718 568.375L866.723 619.839H803.954L752.164 589.893H619.263C619.003 589.133 618.362 588.401 617.34 587.809C614.605 586.228 610.167 586.228 607.423 587.809C604.688 589.389 604.688 591.958 607.423 593.539C610.157 595.12 614.595 595.12 617.34 593.539C618.362 592.946 619.003 592.225 619.253 591.464H751.734L800.799 619.839H613.553L613.373 619.948L434.903 723.173C432.158 722.027 428.321 722.155 425.857 723.578C423.122 725.159 423.122 727.727 425.857 729.308C428.592 730.889 433.03 730.889 435.774 729.308C438.239 727.885 438.459 725.662 436.486 724.082L613.984 621.44H867.174L867.355 621.331L957.311 569.313L980.782 582.888L856.686 654.646H638.166L637.986 654.755L446.643 765.389H223.696L93.6795 690.204C95.663 688.623 95.4426 686.4 92.9683 684.977C90.2336 683.396 85.7958 683.396 83.0511 684.977C80.3163 686.558 80.3163 689.127 83.0511 690.707C85.5154 692.13 89.362 692.259 92.0968 691.113L223.265 766.96H447.054L447.234 766.852L638.577 656.207H797.744L564.047 791.364V826.941L470.815 880.846C468.07 879.699 464.234 879.828 461.769 881.251C459.035 882.831 459.035 885.4 461.769 886.981C464.504 888.562 468.942 888.562 471.687 886.981C474.151 885.548 474.371 883.335 472.388 881.745L565.62 827.84V792.263L800.909 656.207H855.544L737.89 724.24V739.237L681.592 771.792C678.847 770.645 675.01 770.774 672.546 772.197C669.811 773.777 669.811 776.346 672.546 777.927C675.281 779.508 679.718 779.508 682.463 777.927C684.927 776.504 685.148 774.281 683.174 772.691L713.828 754.966V796.057L536.71 898.481C533.965 897.335 530.128 897.464 527.664 898.886C524.929 900.467 524.929 903.036 527.664 904.617C530.399 906.197 534.836 906.197 537.581 904.617C540.046 903.184 540.266 900.971 538.293 899.38L715.39 796.975V754.067L739.462 740.146V725.149L858.088 656.553L857.698 655.871L982.365 583.778L1005.02 596.878L876.951 670.938V792.786L641.392 929H644.537L839.566 816.231V926.431L835.119 929H838.264L841.139 927.34V815.322L878.524 793.705V671.857L1006.6 597.797L1026.55 609.337L927.79 666.443V733.24L928.18 733.468L1040.47 798.388V821.043L976.965 857.756C974.22 856.61 970.384 856.739 967.919 858.161C965.185 859.742 965.185 862.311 967.919 863.892C970.654 865.472 975.092 865.472 977.837 863.892C980.301 862.459 980.521 860.246 978.548 858.655L1042.05 821.942V797.469L1041.66 797.242L929.372 732.321V667.342L1003.99 624.196V652.018L969.783 671.797C967.038 670.651 963.201 670.78 960.737 672.202C958.002 673.783 958.002 676.352 960.737 677.933C963.472 679.514 967.909 679.514 970.654 677.933C973.118 676.51 973.339 674.287 971.365 672.706L1005.57 652.927V623.287L1028.14 610.236L1054.83 625.668V674.129L1004.49 703.235V736.738L1004.88 736.965L1110.85 798.24C1108.86 799.821 1109.08 802.044 1111.56 803.476C1114.29 805.057 1118.73 805.057 1121.48 803.476C1124.21 801.896 1124.21 799.327 1121.48 797.746C1119.01 796.323 1115.17 796.195 1112.43 797.341L1006.07 735.839V704.164L1054.83 675.967V709.371L1120.05 747.082C1118.07 748.663 1118.29 750.886 1120.77 752.308C1123.5 753.889 1127.94 753.889 1130.68 752.308C1133.42 750.728 1133.42 748.159 1130.68 746.578C1128.22 745.146 1124.37 745.027 1121.64 746.173L1056.41 708.462V626.597L1075.16 637.435L1075.55 637.208L1106.04 619.572L1134.01 635.746V675.048L1208.36 718.035V755.085C1206.83 755.183 1205.35 755.549 1204.19 756.231C1201.46 757.812 1201.46 760.38 1204.19 761.961C1206.92 763.542 1211.36 763.542 1214.11 761.961C1216.85 760.38 1216.84 757.812 1214.11 756.231C1212.94 755.559 1211.46 755.183 1209.94 755.085V717.126L1135.59 674.139V636.655L1255.95 706.249V780.021L1190.68 817.763H1130.77L1130.59 817.871L1027.8 877.309C1025.06 876.162 1021.22 876.291 1018.76 877.714C1016.02 879.294 1016.02 881.863 1018.76 883.444C1021.49 885.025 1025.93 885.025 1028.68 883.444C1031.14 882.021 1031.36 879.798 1029.39 878.218L1131.2 819.343H1187.96L999.134 928.526C996.389 927.38 992.552 927.508 990.088 928.931C990.048 928.951 990.028 928.98 989.988 929H1001.46L1257.53 780.93V705.34L1257.14 705.112L1107.63 618.663L1137.72 601.265L1392.98 748.86V836.93L1480.18 887.356C1478.2 888.937 1478.42 891.16 1480.89 892.583C1483.63 894.164 1488.06 894.164 1490.81 892.583C1493.54 891.002 1493.54 888.433 1490.81 886.853C1488.34 885.43 1484.5 885.301 1481.76 886.447L1394.56 836.021V747.951L1394.17 747.724L1139.31 600.356L1167.96 583.788L1420.4 729.753H1570.94L1578 733.843V732.025L1571.36 728.182H1420.82L1207.64 604.97H1250.49L1323.22 647.019H1379.23L1379.41 646.91L1457.11 601.986C1459.85 603.132 1463.69 603.004 1466.16 601.581C1468.89 600 1468.89 597.432 1466.16 595.851C1463.42 594.27 1458.98 594.27 1456.24 595.851C1453.77 597.273 1453.54 599.497 1455.53 601.087L1378.8 645.458H1323.63L1250.9 603.399H1204.9L1169.43 582.888L1245.89 538.676L1267.64 551.253V584.252L1322.88 616.193C1320.89 617.774 1321.11 619.997 1323.59 621.42C1326.32 623.001 1330.76 623.001 1333.5 621.42C1336.24 619.839 1336.24 617.27 1333.5 615.69C1331.04 614.267 1327.19 614.138 1324.46 615.285L1269.22 583.343V552.162L1328.13 586.218H1356.02L1356.2 586.109L1389.46 566.883C1392.21 568.029 1396.04 567.901 1398.51 566.478C1401.24 564.897 1401.24 562.328 1398.51 560.748C1395.77 559.167 1391.34 559.167 1388.59 560.748C1386.13 562.17 1385.91 564.393 1387.89 565.984L1355.6 584.657H1328.56L1247.49 537.777L1262.21 529.26L1261.03 528.579L1215.21 502.081L1237.22 489.356H1270.5L1294.31 503.128C1292.41 504.709 1292.66 506.892 1295.1 508.295C1297.83 509.876 1302.27 509.876 1305.02 508.295C1307.75 506.715 1307.75 504.146 1305.02 502.565C1302.51 501.123 1298.6 501.014 1295.86 502.209L1270.92 487.785H1239.93L1296.05 455.339L1428.1 531.691H1523.11L1523.29 531.582L1576.8 500.648C1577.14 500.787 1577.54 500.856 1577.9 500.955V493.723C1577.19 493.92 1576.52 494.167 1575.93 494.503C1573.46 495.926 1573.24 498.149 1575.22 499.73L1522.68 530.11H1428.51L1326.67 471.226H1370.26L1412.87 495.866C1410.89 497.447 1411.11 499.67 1413.57 501.103C1416.31 502.684 1420.75 502.684 1423.49 501.103C1426.23 499.522 1426.23 496.953 1423.49 495.372C1421.03 493.95 1417.18 493.821 1414.45 494.967L1370.69 469.665H1323.96L1297.61 454.43L1364.65 415.662H1577.9V414.091H1367.37L1393.97 398.718H1552.58L1552.76 398.609L1577.9 384.066V382.248L1552.16 397.137H1393.55L1393.37 397.246L1213.63 501.172L1193.67 489.632L1382.64 380.361H1520.84L1521.02 380.252L1577.9 347.362V345.544L1520.42 378.78H1382.22L1382.04 378.889L1192.1 488.713L1169.44 475.613L1537.98 262.504V185.204L1577.9 162.125V160.316H1577.92ZM1259.08 529.251L1075.12 635.617L891.166 529.251L1075.13 422.884L1259.08 529.251Z" fill="white"/>
<path opacity="0.67" d="M1268.76 754.434L959.51 559.294L1268.75 364.164L1578 559.304L1268.76 754.434Z" fill="#020203"/>
<path opacity="0.67" d="M1283.5 724.173L1009.76 559.293L1283.5 394.423L1557.24 559.303L1283.5 724.173Z" fill="#020203"/>
<path opacity="0.9" d="M1283.5 689.014L1068.14 559.294L1283.5 429.594L1498.86 559.304L1283.5 689.014Z" fill="#020203"/>
<path d="M1348.62 693.203C1346.49 693.203 1344.25 692.683 1342.47 691.663L1070.84 536.813C1068.97 535.743 1067.9 534.263 1067.9 532.743C1067.9 531.423 1068.69 530.243 1070.12 529.423L1232.21 437.013C1235.09 435.373 1239.93 435.553 1243.22 437.423L1514.85 592.273C1516.72 593.344 1517.79 594.824 1517.79 596.344C1517.79 597.664 1517 598.843 1515.57 599.663L1353.48 692.073C1352.16 692.833 1350.43 693.203 1348.62 693.203ZM1071.81 535.163L1343.44 690.013C1346.09 691.533 1350.25 691.713 1352.51 690.423L1514.6 598.013C1515.17 597.693 1515.85 597.133 1515.85 596.353C1515.85 595.553 1515.11 594.643 1513.88 593.943L1242.25 439.093C1239.59 437.583 1235.43 437.393 1233.17 438.683L1071.08 531.094C1070.51 531.424 1069.83 531.973 1069.83 532.753C1069.83 533.553 1070.57 534.453 1071.81 535.163Z" fill="#3E92CF"/>
<path d="M1069.88 495.303L1084.86 503.023L1235.03 417.413C1237.54 415.983 1241.93 416.163 1244.83 417.813L1503.83 565.463C1506.31 564.093 1517.61 558.733 1517.61 558.733L1512.13 567.533C1512.13 567.533 1512.11 567.523 1512.11 567.513C1511.88 568.143 1511.4 568.723 1510.58 569.193L1352.42 659.353C1349.91 660.783 1345.52 660.603 1342.62 658.953L1077.58 507.853C1076.39 507.173 1075.66 506.353 1075.36 505.523L1075.34 505.533L1069.88 495.303Z" fill="url(#paint0_linear)"/>
<path d="M1072.2 497.734L1343.83 652.584C1346.8 654.274 1351.3 654.464 1353.88 652.994L1515.97 560.584C1518.54 559.114 1518.22 556.553 1515.25 554.854L1243.62 400.004C1240.65 398.304 1236.15 398.124 1233.57 399.594L1071.48 492.004C1068.9 493.474 1069.22 496.034 1072.2 497.734Z" fill="url(#paint1_linear)"/>
<path d="M1072.2 496.534L1343.83 651.384C1346.8 653.074 1351.3 653.264 1353.88 651.794L1515.97 559.384C1516.88 558.864 1517.4 558.214 1517.6 557.504C1517.89 558.644 1517.38 559.774 1515.97 560.584L1353.88 652.994C1351.31 654.464 1346.81 654.274 1343.83 652.584L1072.2 497.734C1070.27 496.634 1069.48 495.174 1069.85 493.884C1070.08 494.824 1070.85 495.764 1072.2 496.534Z" fill="white"/>
<g opacity="0.8">
<path opacity="0.8" d="M1197.14 480.583L1188.52 475.663C1187.83 475.273 1187.91 474.583 1188.71 474.123L1198.89 468.323C1199.69 467.863 1200.9 467.813 1201.59 468.213L1210.21 473.133C1210.9 473.523 1210.82 474.213 1210.02 474.673L1199.84 480.473C1199.04 480.933 1197.83 480.983 1197.14 480.583Z" fill="#020203"/>
<path opacity="0.8" d="M1210.46 488.173L1201.84 483.253C1201.15 482.863 1201.23 482.173 1202.03 481.713L1212.21 475.913C1213.01 475.453 1214.22 475.403 1214.91 475.803L1223.53 480.723C1224.22 481.113 1224.14 481.803 1223.34 482.263L1213.16 488.063C1212.36 488.523 1211.15 488.573 1210.46 488.173Z" fill="#020203"/>
<path opacity="0.8" d="M1223.78 495.763L1215.16 490.843C1214.47 490.453 1214.55 489.763 1215.35 489.303L1225.53 483.503C1226.33 483.043 1227.54 482.993 1228.23 483.393L1236.85 488.313C1237.54 488.703 1237.46 489.393 1236.66 489.853L1226.48 495.653C1225.68 496.113 1224.47 496.163 1223.78 495.763Z" fill="#020203"/>
<path opacity="0.8" d="M1242.19 489.493L1233.57 484.573C1232.88 484.183 1232.96 483.493 1233.76 483.033L1242.3 478.163C1243.1 477.703 1244.31 477.653 1245 478.053L1253.62 482.973C1254.31 483.363 1254.23 484.053 1253.43 484.513L1244.89 489.383C1244.09 489.843 1242.88 489.893 1242.19 489.493Z" fill="#020203"/>
<path opacity="0.8" d="M1255.51 497.093L1246.89 492.173C1246.2 491.783 1246.28 491.093 1247.08 490.633L1255.62 485.763C1256.42 485.303 1257.63 485.253 1258.32 485.653L1266.94 490.573C1267.63 490.963 1267.55 491.653 1266.75 492.113L1258.21 496.983C1257.41 497.433 1256.2 497.483 1255.51 497.093Z" fill="#020203"/>
<path opacity="0.8" d="M1268.83 504.683L1260.21 499.763C1259.52 499.373 1259.6 498.683 1260.4 498.223L1268.94 493.353C1269.74 492.893 1270.95 492.843 1271.64 493.243L1280.26 498.163C1280.95 498.553 1280.87 499.243 1280.07 499.703L1271.53 504.573C1270.73 505.023 1269.52 505.073 1268.83 504.683Z" fill="#020203"/>
<path opacity="0.8" d="M1282.14 512.273L1273.52 507.353C1272.83 506.963 1272.91 506.273 1273.71 505.813L1282.25 500.943C1283.05 500.483 1284.26 500.433 1284.95 500.833L1293.57 505.753C1294.26 506.143 1294.18 506.833 1293.38 507.293L1284.84 512.163C1284.04 512.613 1282.83 512.663 1282.14 512.273Z" fill="#020203"/>
<path opacity="0.8" d="M1295.46 519.863L1286.84 514.943C1286.15 514.553 1286.23 513.863 1287.03 513.403L1295.57 508.533C1296.37 508.073 1297.58 508.023 1298.27 508.423L1306.89 513.343C1307.58 513.733 1307.5 514.423 1306.7 514.883L1298.16 519.753C1297.36 520.213 1296.15 520.263 1295.46 519.863Z" fill="#020203"/>
<path opacity="0.8" d="M1308.77 527.453L1300.15 522.533C1299.46 522.143 1299.54 521.453 1300.34 520.993L1308.88 516.123C1309.68 515.663 1310.89 515.613 1311.58 516.013L1320.2 520.933C1320.89 521.323 1320.81 522.013 1320.01 522.473L1311.47 527.343C1310.68 527.803 1309.47 527.853 1308.77 527.453Z" fill="#020203"/>
<path opacity="0.8" d="M1322.09 535.043L1313.47 530.123C1312.78 529.733 1312.86 529.043 1313.66 528.583L1322.2 523.713C1323 523.253 1324.21 523.203 1324.9 523.603L1333.52 528.523C1334.21 528.913 1334.13 529.603 1333.33 530.063L1324.79 534.933C1323.99 535.393 1322.78 535.443 1322.09 535.043Z" fill="#020203"/>
<path opacity="0.8" d="M1335.41 542.643L1326.79 537.723C1326.1 537.333 1326.18 536.643 1326.98 536.183L1335.52 531.313C1336.32 530.853 1337.53 530.803 1338.22 531.203L1346.84 536.123C1347.53 536.513 1347.45 537.203 1346.65 537.663L1338.11 542.533C1337.31 542.983 1336.1 543.033 1335.41 542.643Z" fill="#020203"/>
<path opacity="0.8" d="M1348.72 550.233L1340.1 545.313C1339.41 544.923 1339.49 544.233 1340.29 543.773L1348.83 538.903C1349.63 538.443 1350.84 538.393 1351.53 538.793L1360.15 543.713C1360.84 544.103 1360.76 544.793 1359.96 545.253L1351.42 550.123C1350.63 550.573 1349.42 550.623 1348.72 550.233Z" fill="#020203"/>
<path opacity="0.8" d="M1362.04 557.823L1353.42 552.903C1352.73 552.513 1352.81 551.823 1353.61 551.363L1362.15 546.493C1362.95 546.033 1364.16 545.983 1364.85 546.383L1373.47 551.303C1374.16 551.693 1374.08 552.383 1373.28 552.843L1364.74 557.713C1363.94 558.163 1362.73 558.213 1362.04 557.823Z" fill="#020203"/>
<path opacity="0.8" d="M1261.81 485.903L1253.19 480.983C1252.5 480.593 1252.58 479.903 1253.38 479.443L1261.92 474.573C1262.72 474.113 1263.93 474.063 1264.62 474.463L1273.24 479.383C1273.93 479.773 1273.85 480.463 1273.05 480.923L1264.51 485.793C1263.71 486.253 1262.51 486.303 1261.81 485.903Z" fill="#020203"/>
<path opacity="0.8" d="M1248.3 478.203L1239.68 473.283C1238.99 472.893 1239.07 472.203 1239.87 471.743L1248.41 466.873C1249.21 466.413 1250.42 466.363 1251.11 466.763L1259.73 471.683C1260.42 472.073 1260.34 472.763 1259.54 473.223L1251 478.093C1250.2 478.543 1248.99 478.593 1248.3 478.203Z" fill="#020203"/>
<path opacity="0.8" d="M1234.76 470.483L1216.19 459.893C1215.5 459.503 1215.58 458.813 1216.38 458.353L1224.92 453.483C1225.72 453.023 1226.93 452.973 1227.62 453.373L1246.19 463.963C1246.88 464.353 1246.8 465.043 1246 465.503L1237.46 470.373C1236.66 470.823 1235.45 470.873 1234.76 470.483Z" fill="#020203"/>
<path opacity="0.8" d="M1244.22 461.093L1229.15 452.503C1228.46 452.113 1228.54 451.423 1229.34 450.963L1237.88 446.093C1238.68 445.633 1239.89 445.583 1240.58 445.983L1255.65 454.573C1256.34 454.963 1256.26 455.653 1255.46 456.113L1246.92 460.983C1246.13 461.443 1244.92 461.493 1244.22 461.093Z" fill="#020203"/>
<path opacity="0.8" d="M1275.13 493.493L1266.51 488.573C1265.82 488.183 1265.9 487.493 1266.7 487.033L1275.24 482.163C1276.04 481.703 1277.25 481.653 1277.94 482.053L1286.56 486.973C1287.25 487.363 1287.17 488.053 1286.37 488.513L1277.83 493.383C1277.03 493.843 1275.82 493.893 1275.13 493.493Z" fill="#020203"/>
<path opacity="0.8" d="M1288.45 501.083L1279.83 496.163C1279.14 495.773 1279.22 495.083 1280.02 494.623L1288.56 489.753C1289.36 489.293 1290.57 489.243 1291.26 489.643L1299.88 494.563C1300.57 494.953 1300.49 495.643 1299.69 496.103L1291.15 500.973C1290.35 501.433 1289.14 501.483 1288.45 501.083Z" fill="#020203"/>
<path opacity="0.8" d="M1301.76 508.683L1293.14 503.763C1292.45 503.373 1292.53 502.683 1293.33 502.223L1301.87 497.353C1302.67 496.893 1303.88 496.843 1304.57 497.243L1313.19 502.163C1313.88 502.553 1313.8 503.243 1313 503.703L1304.46 508.573C1303.66 509.023 1302.45 509.073 1301.76 508.683Z" fill="#020203"/>
<path opacity="0.8" d="M1315.08 516.273L1306.46 511.353C1305.77 510.963 1305.85 510.273 1306.65 509.813L1315.19 504.943C1315.99 504.483 1317.2 504.433 1317.89 504.833L1326.51 509.753C1327.2 510.143 1327.12 510.833 1326.32 511.293L1317.78 516.163C1316.98 516.613 1315.77 516.663 1315.08 516.273Z" fill="#020203"/>
<path opacity="0.8" d="M1328.4 523.863L1319.78 518.943C1319.09 518.553 1319.17 517.863 1319.97 517.403L1328.51 512.533C1329.31 512.073 1330.52 512.023 1331.21 512.423L1339.83 517.343C1340.52 517.733 1340.44 518.423 1339.64 518.883L1331.1 523.753C1330.3 524.203 1329.09 524.253 1328.4 523.863Z" fill="#020203"/>
<path opacity="0.8" d="M1341.71 531.453L1333.09 526.533C1332.4 526.143 1332.48 525.453 1333.28 524.993L1341.82 520.123C1342.62 519.663 1343.83 519.613 1344.52 520.013L1353.14 524.933C1353.83 525.323 1353.75 526.013 1352.95 526.473L1344.41 531.343C1343.61 531.803 1342.4 531.853 1341.71 531.453Z" fill="#020203"/>
<path opacity="0.8" d="M1355.03 539.043L1346.41 534.123C1345.72 533.733 1345.8 533.043 1346.6 532.583L1355.14 527.713C1355.94 527.253 1357.15 527.203 1357.84 527.603L1366.46 532.523C1367.15 532.913 1367.07 533.603 1366.27 534.063L1357.73 538.933C1356.93 539.393 1355.72 539.443 1355.03 539.043Z" fill="#020203"/>
<path opacity="0.8" d="M1368.34 546.633L1359.72 541.713C1359.03 541.323 1359.11 540.633 1359.91 540.173L1368.45 535.303C1369.25 534.843 1370.46 534.793 1371.15 535.193L1379.77 540.113C1380.46 540.503 1380.38 541.193 1379.58 541.653L1371.04 546.523C1370.25 546.983 1369.04 547.033 1368.34 546.633Z" fill="#020203"/>
<path opacity="0.8" d="M1381.66 554.233L1373.04 549.313C1372.35 548.923 1372.43 548.233 1373.23 547.773L1381.77 542.903C1382.57 542.443 1383.78 542.393 1384.47 542.793L1393.09 547.713C1393.78 548.103 1393.7 548.793 1392.9 549.253L1384.36 554.123C1383.56 554.573 1382.35 554.623 1381.66 554.233Z" fill="#020203"/>
<path opacity="0.8" d="M1405.33 567.723L1386.52 556.993C1385.83 556.603 1385.91 555.913 1386.71 555.453L1395.25 550.583C1396.05 550.123 1397.26 550.073 1397.95 550.473L1416.76 561.203C1417.45 561.593 1417.37 562.283 1416.57 562.743L1408.03 567.613C1407.24 568.073 1406.03 568.123 1405.33 567.723Z" fill="#020203"/>
<path opacity="0.8" d="M1431.26 552.943L1415.38 543.893C1414.69 543.503 1414.77 542.813 1415.57 542.353L1424.11 537.483C1424.91 537.023 1426.12 536.973 1426.81 537.373L1442.69 546.423C1443.38 546.813 1443.3 547.503 1442.5 547.963L1433.96 552.833C1433.16 553.293 1431.95 553.343 1431.26 552.943Z" fill="#020203"/>
<path opacity="0.8" d="M1298.45 492.013L1289.83 487.093C1289.14 486.703 1289.22 486.013 1290.02 485.553L1298.56 480.683C1299.36 480.223 1300.57 480.173 1301.26 480.573L1309.88 485.493C1310.57 485.883 1310.49 486.573 1309.69 487.033L1301.15 491.903C1300.35 492.353 1299.14 492.403 1298.45 492.013Z" fill="#020203"/>
<path opacity="0.8" d="M1284.8 484.233L1276.18 479.313C1275.49 478.923 1275.57 478.233 1276.37 477.773L1284.91 472.903C1285.71 472.443 1286.92 472.393 1287.61 472.793L1296.23 477.713C1296.92 478.103 1296.84 478.793 1296.04 479.253L1287.5 484.123C1286.7 484.573 1285.49 484.623 1284.8 484.233Z" fill="#020203"/>
<path opacity="0.8" d="M1271.15 476.453L1262.53 471.533C1261.84 471.143 1261.92 470.453 1262.72 469.993L1271.26 465.123C1272.06 464.663 1273.27 464.613 1273.96 465.013L1282.58 469.933C1283.27 470.323 1283.19 471.013 1282.39 471.473L1273.85 476.343C1273.06 476.793 1271.85 476.843 1271.15 476.453Z" fill="#020203"/>
<path opacity="0.8" d="M1257.51 468.673L1248.89 463.753C1248.2 463.363 1248.28 462.673 1249.08 462.213L1257.62 457.343C1258.42 456.883 1259.63 456.833 1260.32 457.233L1268.94 462.153C1269.63 462.543 1269.55 463.233 1268.75 463.693L1260.21 468.563C1259.41 469.013 1258.2 469.063 1257.51 468.673Z" fill="#020203"/>
<path opacity="0.8" d="M1311.77 499.603L1303.15 494.683C1302.46 494.293 1302.54 493.603 1303.34 493.143L1311.88 488.273C1312.68 487.813 1313.89 487.763 1314.58 488.163L1323.2 493.083C1323.89 493.473 1323.81 494.163 1323.01 494.623L1314.47 499.493C1313.67 499.943 1312.46 499.993 1311.77 499.603Z" fill="#020203"/>
<path opacity="0.8" d="M1325.08 507.193L1316.46 502.273C1315.77 501.883 1315.85 501.193 1316.65 500.733L1325.19 495.863C1325.99 495.403 1327.2 495.353 1327.89 495.753L1336.51 500.673C1337.2 501.063 1337.12 501.753 1336.32 502.213L1327.78 507.083C1326.98 507.543 1325.77 507.583 1325.08 507.193Z" fill="#020203"/>
<path opacity="0.8" d="M1338.4 514.783L1329.78 509.863C1329.09 509.473 1329.17 508.783 1329.97 508.323L1338.51 503.453C1339.31 502.993 1340.52 502.943 1341.21 503.343L1349.83 508.263C1350.52 508.653 1350.44 509.343 1349.64 509.803L1341.1 514.673C1340.3 515.133 1339.09 515.183 1338.4 514.783Z" fill="#020203"/>
<path opacity="0.8" d="M1351.72 522.373L1343.1 517.453C1342.41 517.063 1342.49 516.373 1343.29 515.913L1351.83 511.043C1352.63 510.583 1353.84 510.533 1354.53 510.933L1363.15 515.853C1363.84 516.243 1363.76 516.933 1362.96 517.393L1354.42 522.263C1353.62 522.723 1352.41 522.773 1351.72 522.373Z" fill="#020203"/>
<path opacity="0.8" d="M1365.03 529.963L1356.41 525.043C1355.72 524.653 1355.8 523.963 1356.6 523.503L1365.14 518.633C1365.94 518.173 1367.15 518.123 1367.84 518.523L1376.46 523.443C1377.15 523.833 1377.07 524.523 1376.27 524.983L1367.73 529.853C1366.93 530.313 1365.72 530.363 1365.03 529.963Z" fill="#020203"/>
<path opacity="0.8" d="M1378.35 537.563L1369.73 532.643C1369.04 532.253 1369.12 531.563 1369.92 531.103L1378.46 526.233C1379.26 525.773 1380.47 525.723 1381.16 526.123L1389.78 531.043C1390.47 531.433 1390.39 532.123 1389.59 532.583L1381.05 537.453C1380.25 537.903 1379.04 537.953 1378.35 537.563Z" fill="#020203"/>
<path opacity="0.8" d="M1391.66 545.153L1383.04 540.233C1382.35 539.843 1382.43 539.153 1383.23 538.693L1391.77 533.823C1392.57 533.363 1393.78 533.313 1394.47 533.713L1403.09 538.633C1403.78 539.023 1403.7 539.713 1402.9 540.173L1394.36 545.043C1393.57 545.493 1392.36 545.543 1391.66 545.153Z" fill="#020203"/>
<path opacity="0.8" d="M1404.98 552.743L1396.36 547.823C1395.67 547.433 1395.75 546.743 1396.55 546.283L1405.09 541.413C1405.89 540.953 1407.1 540.903 1407.79 541.303L1416.41 546.223C1417.1 546.613 1417.02 547.303 1416.22 547.763L1407.68 552.633C1406.88 553.083 1405.67 553.133 1404.98 552.743Z" fill="#020203"/>
<path opacity="0.8" d="M1418.3 560.333L1409.68 555.413C1408.99 555.023 1409.07 554.333 1409.87 553.873L1418.41 549.003C1419.21 548.543 1420.42 548.493 1421.11 548.893L1429.73 553.813C1430.42 554.203 1430.34 554.893 1429.54 555.353L1421 560.223C1420.2 560.683 1418.99 560.733 1418.3 560.333Z" fill="#020203"/>
<path opacity="0.8" d="M1291.44 473.233L1282.82 468.313C1282.13 467.923 1282.21 467.233 1283.01 466.773L1291.55 461.903C1292.35 461.443 1293.56 461.393 1294.25 461.793L1302.87 466.713C1303.56 467.103 1303.48 467.793 1302.68 468.253L1294.14 473.123C1293.34 473.573 1292.13 473.623 1291.44 473.233Z" fill="#020203"/>
<path opacity="0.8" d="M1278.19 465.683L1269.57 460.763C1268.88 460.373 1268.96 459.683 1269.76 459.223L1278.3 454.353C1279.1 453.893 1280.31 453.843 1281 454.243L1289.62 459.163C1290.31 459.553 1290.23 460.243 1289.43 460.703L1280.89 465.573C1280.09 466.023 1278.88 466.073 1278.19 465.683Z" fill="#020203"/>
<path opacity="0.8" d="M1264.94 458.123L1256.32 453.203C1255.63 452.813 1255.71 452.123 1256.51 451.663L1265.05 446.793C1265.85 446.333 1267.06 446.283 1267.75 446.683L1276.37 451.603C1277.06 451.993 1276.98 452.683 1276.18 453.143L1267.64 458.013C1266.84 458.473 1265.63 458.523 1264.94 458.123Z" fill="#020203"/>
<path opacity="0.8" d="M1251.69 450.573L1243.07 445.653C1242.38 445.263 1242.46 444.573 1243.26 444.113L1251.8 439.243C1252.6 438.783 1253.81 438.733 1254.5 439.133L1263.12 444.053C1263.81 444.443 1263.73 445.133 1262.93 445.593L1254.39 450.463C1253.59 450.913 1252.38 450.963 1251.69 450.573Z" fill="#020203"/>
<path opacity="0.8" d="M1265.31 442.803L1256.69 437.883C1256 437.493 1256.08 436.803 1256.88 436.343L1259.7 434.733C1260.5 434.273 1261.71 434.223 1262.4 434.623L1271.02 439.543C1271.71 439.933 1271.63 440.623 1270.83 441.083L1268.01 442.693C1267.21 443.153 1266 443.203 1265.31 442.803Z" fill="#020203"/>
<path opacity="0.8" d="M1282.6 452.663L1273.98 447.743C1273.29 447.353 1273.37 446.663 1274.17 446.203L1276.99 444.593C1277.79 444.133 1279 444.083 1279.69 444.483L1288.31 449.403C1289 449.793 1288.92 450.483 1288.12 450.943L1285.3 452.553C1284.51 453.003 1283.3 453.053 1282.6 452.663Z" fill="#020203"/>
<path opacity="0.8" d="M1295.8 460.183L1287.18 455.263C1286.49 454.873 1286.57 454.183 1287.37 453.723L1290.19 452.113C1290.99 451.653 1292.2 451.603 1292.89 452.003L1301.51 456.923C1302.2 457.313 1302.12 458.003 1301.32 458.463L1298.5 460.073C1297.7 460.533 1296.49 460.583 1295.8 460.183Z" fill="#020203"/>
<path opacity="0.8" d="M1308.99 467.703L1300.37 462.783C1299.68 462.393 1299.76 461.703 1300.56 461.243L1303.38 459.633C1304.18 459.173 1305.39 459.123 1306.08 459.523L1314.7 464.443C1315.39 464.833 1315.31 465.523 1314.51 465.983L1311.69 467.593C1310.9 468.053 1309.69 468.103 1308.99 467.703Z" fill="#020203"/>
<path opacity="0.8" d="M1322.19 475.233L1313.57 470.313C1312.88 469.923 1312.96 469.233 1313.76 468.773L1316.58 467.163C1317.38 466.703 1318.59 466.653 1319.28 467.053L1327.9 471.973C1328.59 472.363 1328.51 473.053 1327.71 473.513L1324.89 475.123C1324.09 475.573 1322.88 475.623 1322.19 475.233Z" fill="#020203"/>
<path opacity="0.8" d="M1395.85 517.223L1387.23 512.303C1386.54 511.913 1386.62 511.223 1387.42 510.763L1390.24 509.153C1391.04 508.693 1392.25 508.643 1392.94 509.043L1401.56 513.963C1402.25 514.353 1402.17 515.043 1401.37 515.503L1398.55 517.113C1397.76 517.573 1396.55 517.623 1395.85 517.223Z" fill="#020203"/>
<path opacity="0.8" d="M1409.05 524.743L1400.43 519.823C1399.74 519.433 1399.82 518.743 1400.62 518.283L1403.44 516.673C1404.24 516.213 1405.45 516.163 1406.14 516.563L1414.76 521.483C1415.45 521.873 1415.37 522.563 1414.57 523.023L1411.75 524.633C1410.95 525.093 1409.74 525.143 1409.05 524.743Z" fill="#020203"/>
<path opacity="0.8" d="M1422.24 532.273L1413.62 527.353C1412.93 526.963 1413.01 526.273 1413.81 525.813L1416.63 524.203C1417.43 523.743 1418.64 523.693 1419.33 524.093L1427.95 529.013C1428.64 529.403 1428.56 530.093 1427.76 530.553L1424.94 532.163C1424.15 532.613 1422.94 532.663 1422.24 532.273Z" fill="#020203"/>
<path opacity="0.8" d="M1435.44 539.793L1426.82 534.873C1426.13 534.483 1426.21 533.793 1427.01 533.333L1429.83 531.723C1430.63 531.263 1431.84 531.213 1432.53 531.613L1441.15 536.533C1441.84 536.923 1441.76 537.613 1440.96 538.073L1438.14 539.683C1437.34 540.133 1436.13 540.183 1435.44 539.793Z" fill="#020203"/>
<path opacity="0.8" d="M1304.75 480.823L1296.13 475.903C1295.44 475.513 1295.52 474.823 1296.32 474.363L1304.86 469.493C1305.66 469.033 1306.87 468.983 1307.56 469.383L1316.18 474.303C1316.87 474.693 1316.79 475.383 1315.99 475.843L1307.45 480.713C1306.66 481.173 1305.45 481.223 1304.75 480.823Z" fill="#020203"/>
<path opacity="0.8" d="M1318.07 488.413L1309.45 483.493C1308.76 483.103 1308.84 482.413 1309.64 481.953L1318.18 477.083C1318.98 476.623 1320.19 476.573 1320.88 476.973L1329.5 481.893C1330.19 482.283 1330.11 482.973 1329.31 483.433L1320.77 488.303C1319.97 488.763 1318.76 488.813 1318.07 488.413Z" fill="#020203"/>
<path opacity="0.8" d="M1331.39 496.003L1322.77 491.083C1322.08 490.693 1322.16 490.003 1322.96 489.543L1331.5 484.673C1332.3 484.213 1333.51 484.163 1334.2 484.563L1342.82 489.483C1343.51 489.873 1343.43 490.563 1342.63 491.023L1334.09 495.893C1333.29 496.353 1332.08 496.403 1331.39 496.003Z" fill="#020203"/>
<path opacity="0.8" d="M1344.7 503.603L1336.08 498.683C1335.39 498.293 1335.47 497.603 1336.27 497.143L1344.81 492.273C1345.61 491.813 1346.82 491.763 1347.51 492.163L1356.13 497.083C1356.82 497.473 1356.74 498.163 1355.94 498.623L1347.4 503.493C1346.61 503.943 1345.4 503.993 1344.7 503.603Z" fill="#020203"/>
<path opacity="0.8" d="M1358.02 511.193L1349.4 506.273C1348.71 505.883 1348.79 505.193 1349.59 504.733L1358.13 499.863C1358.93 499.403 1360.14 499.353 1360.83 499.753L1369.45 504.673C1370.14 505.063 1370.06 505.753 1369.26 506.213L1360.72 511.083C1359.92 511.533 1358.71 511.583 1358.02 511.193Z" fill="#020203"/>
<path opacity="0.8" d="M1371.34 518.783L1362.72 513.863C1362.03 513.473 1362.11 512.783 1362.91 512.323L1371.45 507.453C1372.25 506.993 1373.46 506.943 1374.15 507.343L1382.77 512.263C1383.46 512.653 1383.38 513.343 1382.58 513.803L1374.04 518.673C1373.24 519.123 1372.03 519.173 1371.34 518.783Z" fill="#020203"/>
<path opacity="0.8" d="M1384.65 526.373L1376.03 521.453C1375.34 521.063 1375.42 520.373 1376.22 519.913L1384.76 515.043C1385.56 514.583 1386.77 514.533 1387.46 514.933L1396.08 519.853C1396.77 520.243 1396.69 520.933 1395.89 521.393L1387.35 526.263C1386.55 526.723 1385.35 526.773 1384.65 526.373Z" fill="#020203"/>
<path opacity="0.8" d="M1397.97 533.963L1389.35 529.043C1388.66 528.653 1388.74 527.963 1389.54 527.503L1398.08 522.633C1398.88 522.173 1400.09 522.123 1400.78 522.523L1409.4 527.443C1410.09 527.833 1410.01 528.523 1409.21 528.983L1400.67 533.853C1399.87 534.313 1398.66 534.363 1397.97 533.963Z" fill="#020203"/>
<path opacity="0.8" d="M1411.29 541.553L1402.67 536.633C1401.98 536.243 1402.06 535.553 1402.86 535.093L1411.4 530.223C1412.2 529.763 1413.41 529.713 1414.1 530.113L1422.72 535.033C1423.41 535.423 1423.33 536.113 1422.53 536.573L1413.99 541.443C1413.19 541.903 1411.98 541.953 1411.29 541.553Z" fill="#020203"/>
<path opacity="0.8" d="M1228.62 481.763L1203.22 467.283C1202.53 466.893 1202.61 466.203 1203.41 465.743L1211.95 460.873C1212.75 460.413 1213.96 460.363 1214.65 460.763L1240.05 475.243C1240.74 475.633 1240.66 476.323 1239.86 476.783L1231.32 481.653C1230.52 482.103 1229.31 482.153 1228.62 481.763Z" fill="#020203"/>
<path opacity="0.8" d="M1392.22 575.023L1366.82 560.543C1366.13 560.153 1366.21 559.463 1367.01 559.003L1375.55 554.133C1376.35 553.673 1377.56 553.623 1378.25 554.023L1403.65 568.503C1404.34 568.893 1404.26 569.583 1403.46 570.043L1394.92 574.913C1394.12 575.373 1392.91 575.423 1392.22 575.023Z" fill="#020203"/>
<path opacity="0.8" d="M1338.96 561.433L1330.34 556.513C1329.65 556.123 1329.73 555.433 1330.53 554.973L1340.71 549.173C1341.51 548.713 1342.72 548.663 1343.41 549.063L1352.03 553.983C1352.72 554.373 1352.64 555.063 1351.84 555.523L1341.66 561.323C1340.86 561.783 1339.66 561.833 1338.96 561.433Z" fill="#020203"/>
<path opacity="0.8" d="M1242.26 506.303L1228.47 498.443C1227.78 498.053 1227.86 497.363 1228.66 496.903L1238.84 491.103C1239.64 490.643 1240.85 490.593 1241.54 490.993L1255.33 498.853C1256.02 499.243 1255.94 499.933 1255.14 500.393L1244.96 506.193C1244.16 506.653 1242.95 506.703 1242.26 506.303Z" fill="#020203"/>
<path opacity="0.8" d="M1326.13 554.123L1312.34 546.263C1311.65 545.873 1311.73 545.183 1312.53 544.723L1322.71 538.923C1323.51 538.463 1324.72 538.413 1325.41 538.813L1339.2 546.673C1339.89 547.063 1339.81 547.753 1339.01 548.213L1328.83 554.013C1328.03 554.463 1326.83 554.513 1326.13 554.123Z" fill="#020203"/>
<path opacity="0.8" d="M1261.47 517.253L1247.68 509.393C1246.99 509.003 1247.07 508.313 1247.87 507.853L1258.05 502.053C1258.85 501.593 1260.06 501.543 1260.75 501.943L1274.54 509.803C1275.23 510.193 1275.15 510.883 1274.35 511.343L1264.17 517.143C1263.37 517.603 1262.16 517.653 1261.47 517.253Z" fill="#020203"/>
<path opacity="0.8" d="M1260.85 501.993L1320.81 536.173C1321.55 536.593 1321.55 537.283 1320.81 537.713L1310.43 543.633C1309.69 544.053 1308.48 544.053 1307.74 543.633L1247.78 509.453L1260.85 501.993Z" fill="#020203"/>
<path opacity="0.8" d="M1376.18 575.203L1385.79 580.683C1386.36 581.003 1386.29 581.573 1385.63 581.943L1381.47 584.313C1380.81 584.683 1379.82 584.723 1379.26 584.403L1369.65 578.923C1369.08 578.603 1369.15 578.033 1369.81 577.663L1373.97 575.293C1374.62 574.913 1375.61 574.873 1376.18 575.203Z" fill="#020203"/>
<path opacity="0.8" d="M1362.75 567.543L1372.35 573.023C1372.92 573.343 1372.85 573.913 1372.19 574.283L1368.03 576.653C1367.37 577.023 1366.38 577.063 1365.82 576.743L1356.22 571.263C1355.65 570.943 1355.72 570.373 1356.38 570.003L1360.54 567.633C1361.19 567.263 1362.19 567.223 1362.75 567.543Z" fill="#020203"/>
<path opacity="0.8" d="M1349.44 559.953L1359.04 565.433C1359.61 565.753 1359.54 566.323 1358.88 566.693L1354.72 569.063C1354.06 569.433 1353.07 569.473 1352.51 569.153L1342.9 563.673C1342.33 563.353 1342.4 562.783 1343.06 562.413L1347.22 560.043C1347.88 559.673 1348.87 559.633 1349.44 559.953Z" fill="#020203"/>
<path opacity="0.8" d="M1370.11 563.353L1379.72 568.833C1380.29 569.153 1380.22 569.723 1379.56 570.093L1375.4 572.463C1374.74 572.833 1373.75 572.873 1373.19 572.553L1363.58 567.073C1363.01 566.753 1363.08 566.183 1363.74 565.813L1367.9 563.443C1368.55 563.073 1369.54 563.033 1370.11 563.353Z" fill="#020203"/>
</g>
<path d="M1243.12 389.993L1277.46 188.844L1274.7 187.694L1278.85 185.344L1278.84 185.364C1279.64 184.834 1280.78 184.864 1282.04 185.584L1556.46 342.023C1558.71 343.303 1560.42 346.604 1560.02 348.904L1525.41 551.654C1525.23 552.714 1524.7 553.414 1523.96 553.714L1519.9 556.033L1519.2 552.293L1519.43 552.363L1246.67 396.863C1244.43 395.593 1242.73 392.294 1243.12 389.993Z" fill="url(#paint2_linear)"/>
<path d="M1554.93 347.523L1559.44 345.553C1559.95 346.693 1560.19 347.893 1560.02 348.903L1525.41 551.654C1525.23 552.714 1524.7 553.413 1523.96 553.714L1519.9 556.033L1519.2 552.293L1519.43 552.363L1505.63 544.493L1554.93 347.523Z" fill="url(#paint3_linear)"/>
<path d="M1242.38 399.313L1516.8 555.753C1518.92 556.963 1520.73 556.264 1521.11 554.094L1555.72 351.343C1556.12 349.043 1554.41 345.743 1552.16 344.463L1277.74 188.023C1275.62 186.813 1273.81 187.513 1273.43 189.683L1238.82 392.433C1238.42 394.733 1240.13 398.023 1242.38 399.313Z" fill="#231F20"/>
<g opacity="0.51">
<path opacity="0.51" d="M1276.81 191.794L1552.52 348.904L1517.7 552.164L1242.17 395.164L1276.81 191.794Z" fill="#3E92CF"/>
</g>
<g opacity="0.5">
<path opacity="0.5" d="M1348.59 349.243L1339.88 344.283C1339.18 343.883 1338 343.913 1337.24 344.353L1327.56 349.933C1326.8 350.373 1326.75 351.053 1327.45 351.453L1336.16 356.413C1336.86 356.813 1338.04 356.783 1338.8 356.343L1348.48 350.763C1349.24 350.313 1349.29 349.633 1348.59 349.243Z" fill="#2C2661"/>
<path opacity="0.5" d="M1362.03 356.903L1353.32 351.943C1352.62 351.543 1351.44 351.573 1350.68 352.013L1341 357.593C1340.24 358.033 1340.19 358.713 1340.89 359.113L1349.6 364.073C1350.3 364.473 1351.48 364.443 1352.24 364.003L1361.92 358.423C1362.68 357.983 1362.73 357.303 1362.03 356.903Z" fill="#2C2661"/>
<path opacity="0.5" d="M1375.48 364.573L1366.77 359.613C1366.07 359.213 1364.89 359.243 1364.13 359.683L1354.45 365.263C1353.69 365.703 1353.64 366.383 1354.34 366.783L1363.05 371.743C1363.75 372.143 1364.93 372.113 1365.69 371.673L1375.37 366.093C1376.13 365.643 1376.18 364.973 1375.48 364.573Z" fill="#2C2661"/>
<path opacity="0.5" d="M1365.24 374.773L1356.53 369.813C1355.83 369.413 1354.65 369.443 1353.89 369.883L1345.77 374.573C1345.01 375.013 1344.96 375.693 1345.66 376.093L1354.37 381.053C1355.07 381.453 1356.25 381.423 1357.01 380.983L1365.13 376.293C1365.89 375.853 1365.94 375.173 1365.24 374.773Z" fill="#2C2661"/>
<path opacity="0.5" d="M1378.69 382.433L1369.98 377.473C1369.28 377.073 1368.1 377.103 1367.34 377.543L1359.22 382.233C1358.46 382.673 1358.41 383.353 1359.11 383.753L1367.82 388.713C1368.52 389.113 1369.7 389.083 1370.46 388.643L1378.58 383.953C1379.34 383.513 1379.39 382.833 1378.69 382.433Z" fill="#2C2661"/>
<path opacity="0.5" d="M1392.14 390.103L1383.43 385.143C1382.73 384.743 1381.55 384.773 1380.79 385.213L1372.67 389.903C1371.91 390.343 1371.86 391.023 1372.56 391.423L1381.27 396.383C1381.97 396.783 1383.15 396.753 1383.91 396.313L1392.03 391.623C1392.79 391.183 1392.84 390.503 1392.14 390.103Z" fill="#2C2661"/>
<path opacity="0.5" d="M1405.58 397.773L1396.87 392.813C1396.17 392.413 1394.99 392.443 1394.23 392.883L1386.11 397.573C1385.35 398.013 1385.3 398.693 1386 399.093L1394.71 404.053C1395.41 404.453 1396.59 404.423 1397.35 403.983L1405.47 399.293C1406.23 398.843 1406.28 398.163 1405.58 397.773Z" fill="#2C2661"/>
<path opacity="0.5" d="M1419.03 405.433L1410.32 400.473C1409.62 400.073 1408.44 400.103 1407.68 400.543L1399.56 405.233C1398.8 405.673 1398.75 406.353 1399.45 406.753L1408.16 411.713C1408.86 412.113 1410.04 412.083 1410.8 411.643L1418.92 406.953C1419.68 406.513 1419.73 405.833 1419.03 405.433Z" fill="#2C2661"/>
<path opacity="0.5" d="M1432.47 413.103L1423.76 408.143C1423.06 407.743 1421.88 407.773 1421.12 408.213L1413 412.903C1412.24 413.343 1412.19 414.023 1412.89 414.423L1421.6 419.383C1422.3 419.783 1423.48 419.753 1424.24 419.313L1432.36 414.623C1433.12 414.173 1433.17 413.503 1432.47 413.103Z" fill="#2C2661"/>
<path opacity="0.5" d="M1445.92 420.763L1437.21 415.803C1436.51 415.403 1435.33 415.433 1434.57 415.873L1426.45 420.563C1425.69 421.003 1425.64 421.683 1426.34 422.083L1435.05 427.043C1435.75 427.443 1436.93 427.413 1437.69 426.973L1445.81 422.283C1446.57 421.843 1446.62 421.163 1445.92 420.763Z" fill="#2C2661"/>
<path opacity="0.5" d="M1459.37 428.433L1450.66 423.473C1449.96 423.073 1448.78 423.103 1448.02 423.543L1439.9 428.233C1439.14 428.673 1439.09 429.353 1439.79 429.753L1448.5 434.713C1449.2 435.113 1450.38 435.083 1451.14 434.643L1459.26 429.953C1460.02 429.503 1460.07 428.833 1459.37 428.433Z" fill="#2C2661"/>
<path opacity="0.5" d="M1472.81 436.093L1464.1 431.133C1463.4 430.733 1462.22 430.763 1461.46 431.203L1453.34 435.893C1452.58 436.333 1452.53 437.013 1453.23 437.413L1461.94 442.373C1462.64 442.773 1463.82 442.743 1464.58 442.303L1472.7 437.613C1473.46 437.173 1473.51 436.493 1472.81 436.093Z" fill="#2C2661"/>
<path opacity="0.5" d="M1486.26 443.763L1477.55 438.803C1476.85 438.403 1475.67 438.433 1474.91 438.873L1466.79 443.563C1466.03 444.003 1465.98 444.683 1466.68 445.083L1475.39 450.043C1476.09 450.443 1477.27 450.413 1478.03 449.973L1486.15 445.283C1486.91 444.843 1486.96 444.163 1486.26 443.763Z" fill="#2C2661"/>
<path opacity="0.5" d="M1359.64 385.713L1350.93 380.753C1350.23 380.353 1349.05 380.383 1348.29 380.823L1340.17 385.513C1339.41 385.953 1339.36 386.633 1340.06 387.033L1348.77 391.993C1349.47 392.393 1350.65 392.363 1351.41 391.923L1359.53 387.233C1360.29 386.793 1360.34 386.113 1359.64 385.713Z" fill="#2C2661"/>
<path opacity="0.5" d="M1346 377.933L1337.29 372.973C1336.59 372.573 1335.41 372.603 1334.65 373.043L1326.53 377.733C1325.77 378.173 1325.72 378.853 1326.42 379.253L1335.13 384.213C1335.83 384.613 1337.01 384.583 1337.77 384.143L1345.89 379.453C1346.65 379.013 1346.7 378.333 1346 377.933Z" fill="#2C2661"/>
<path opacity="0.5" d="M1332.33 370.143L1313.58 359.453C1312.88 359.053 1311.7 359.083 1310.94 359.523L1302.82 364.213C1302.06 364.653 1302.01 365.333 1302.71 365.733L1321.46 376.423C1322.16 376.823 1323.34 376.793 1324.1 376.353L1332.22 371.663C1332.98 371.223 1333.03 370.543 1332.33 370.143Z" fill="#2C2661"/>
<path opacity="0.5" d="M1316.47 375.233L1301.25 366.553C1300.55 366.153 1299.37 366.183 1298.61 366.623L1290.49 371.313C1289.73 371.753 1289.68 372.433 1290.38 372.833L1305.6 381.513C1306.3 381.913 1307.48 381.883 1308.24 381.443L1316.36 376.753C1317.12 376.313 1317.17 375.633 1316.47 375.233Z" fill="#2C2661"/>
<path opacity="0.5" d="M1373.09 393.383L1364.38 388.423C1363.68 388.023 1362.5 388.053 1361.74 388.493L1353.62 393.183C1352.86 393.623 1352.81 394.303 1353.51 394.703L1362.22 399.663C1362.92 400.063 1364.1 400.033 1364.86 399.593L1372.98 394.903C1373.74 394.453 1373.79 393.783 1373.09 393.383Z" fill="#2C2661"/>
<path opacity="0.5" d="M1386.53 401.043L1377.82 396.083C1377.12 395.683 1375.94 395.713 1375.18 396.153L1367.06 400.843C1366.3 401.283 1366.25 401.963 1366.95 402.363L1375.66 407.323C1376.36 407.723 1377.54 407.693 1378.3 407.253L1386.42 402.563C1387.18 402.123 1387.23 401.443 1386.53 401.043Z" fill="#2C2661"/>
<path opacity="0.5" d="M1399.98 408.713L1391.27 403.753C1390.57 403.353 1389.39 403.383 1388.63 403.823L1380.51 408.513C1379.75 408.953 1379.7 409.633 1380.4 410.033L1389.11 414.993C1389.81 415.393 1390.99 415.363 1391.75 414.923L1399.87 410.233C1400.63 409.793 1400.68 409.113 1399.98 408.713Z" fill="#2C2661"/>
<path opacity="0.5" d="M1413.43 416.373L1404.72 411.413C1404.02 411.013 1402.84 411.043 1402.08 411.483L1393.96 416.173C1393.2 416.613 1393.15 417.293 1393.85 417.693L1402.56 422.653C1403.26 423.053 1404.44 423.023 1405.2 422.583L1413.32 417.893C1414.08 417.453 1414.13 416.773 1413.43 416.373Z" fill="#2C2661"/>
<path opacity="0.5" d="M1426.87 424.043L1418.16 419.083C1417.46 418.683 1416.28 418.713 1415.52 419.153L1407.4 423.843C1406.64 424.283 1406.59 424.963 1407.29 425.363L1416 430.323C1416.7 430.723 1417.88 430.693 1418.64 430.253L1426.76 425.563C1427.52 425.123 1427.57 424.443 1426.87 424.043Z" fill="#2C2661"/>
<path opacity="0.5" d="M1440.32 431.703L1431.61 426.743C1430.91 426.343 1429.73 426.373 1428.97 426.813L1420.85 431.503C1420.09 431.943 1420.04 432.623 1420.74 433.023L1429.45 437.983C1430.15 438.383 1431.33 438.353 1432.09 437.913L1440.21 433.223C1440.97 432.783 1441.02 432.103 1440.32 431.703Z" fill="#2C2661"/>
<path opacity="0.5" d="M1453.77 439.373L1445.06 434.413C1444.36 434.013 1443.18 434.043 1442.42 434.483L1434.3 439.173C1433.54 439.613 1433.49 440.293 1434.19 440.693L1442.9 445.653C1443.6 446.053 1444.78 446.023 1445.54 445.583L1453.66 440.893C1454.41 440.453 1454.46 439.773 1453.77 439.373Z" fill="#2C2661"/>
<path opacity="0.5" d="M1467.21 447.043L1458.5 442.083C1457.8 441.683 1456.62 441.713 1455.86 442.153L1447.74 446.843C1446.98 447.283 1446.93 447.963 1447.63 448.363L1456.34 453.323C1457.04 453.723 1458.22 453.693 1458.98 453.253L1467.1 448.563C1467.86 448.113 1467.91 447.433 1467.21 447.043Z" fill="#2C2661"/>
<path opacity="0.5" d="M1480.66 454.703L1471.95 449.743C1471.25 449.343 1470.07 449.373 1469.31 449.813L1461.19 454.503C1460.43 454.943 1460.38 455.623 1461.08 456.023L1469.79 460.983C1470.49 461.383 1471.67 461.353 1472.43 460.913L1480.55 456.223C1481.31 455.783 1481.36 455.103 1480.66 454.703Z" fill="#2C2661"/>
<path opacity="0.5" d="M1504.56 468.333L1485.56 457.503C1484.86 457.103 1483.68 457.133 1482.92 457.573L1474.8 462.263C1474.04 462.703 1473.99 463.383 1474.69 463.783L1493.69 474.613C1494.39 475.013 1495.57 474.983 1496.33 474.543L1504.45 469.853C1505.21 469.413 1505.26 468.733 1504.56 468.333Z" fill="#2C2661"/>
<path opacity="0.5" d="M1479.91 482.553L1463.88 473.413C1463.18 473.013 1462 473.043 1461.24 473.483L1453.12 478.173C1452.36 478.613 1452.31 479.293 1453.01 479.693L1469.04 488.833C1469.74 489.233 1470.92 489.203 1471.68 488.763L1479.8 484.073C1480.56 483.633 1480.61 482.953 1479.91 482.553Z" fill="#2C2661"/>
<path opacity="0.5" d="M1371.22 406.453L1362.51 401.493C1361.81 401.093 1360.63 401.123 1359.87 401.563L1351.75 406.253C1350.99 406.693 1350.94 407.373 1351.64 407.773L1360.35 412.733C1361.05 413.133 1362.23 413.103 1362.99 412.663L1371.11 407.973C1371.87 407.533 1371.92 406.853 1371.22 406.453Z" fill="#2C2661"/>
<path opacity="0.5" d="M1357.44 398.593L1348.73 393.633C1348.03 393.233 1346.85 393.263 1346.09 393.703L1337.97 398.393C1337.21 398.833 1337.16 399.513 1337.86 399.913L1346.57 404.873C1347.27 405.273 1348.45 405.243 1349.21 404.803L1357.33 400.113C1358.09 399.673 1358.14 398.993 1357.44 398.593Z" fill="#2C2661"/>
<path opacity="0.5" d="M1343.66 390.743L1334.95 385.783C1334.25 385.383 1333.07 385.413 1332.31 385.853L1324.19 390.543C1323.43 390.983 1323.38 391.663 1324.08 392.063L1332.79 397.023C1333.49 397.423 1334.67 397.393 1335.43 396.953L1343.55 392.263C1344.31 391.813 1344.36 391.143 1343.66 390.743Z" fill="#2C2661"/>
<path opacity="0.5" d="M1329.88 382.883L1321.17 377.923C1320.47 377.523 1319.29 377.553 1318.53 377.993L1310.41 382.683C1309.65 383.123 1309.6 383.803 1310.3 384.203L1319.01 389.163C1319.71 389.563 1320.89 389.533 1321.65 389.093L1329.77 384.403C1330.53 383.963 1330.58 383.283 1329.88 382.883Z" fill="#2C2661"/>
<path opacity="0.5" d="M1384.67 414.113L1375.96 409.153C1375.26 408.753 1374.08 408.783 1373.32 409.223L1365.2 413.913C1364.44 414.353 1364.39 415.033 1365.09 415.433L1373.8 420.393C1374.5 420.793 1375.68 420.763 1376.44 420.323L1384.56 415.633C1385.32 415.193 1385.37 414.513 1384.67 414.113Z" fill="#2C2661"/>
<path opacity="0.5" d="M1398.11 421.783L1389.4 416.823C1388.7 416.423 1387.52 416.453 1386.76 416.893L1378.64 421.583C1377.88 422.023 1377.83 422.703 1378.53 423.103L1387.24 428.063C1387.94 428.463 1389.12 428.433 1389.88 427.993L1398 423.303C1398.76 422.863 1398.81 422.183 1398.11 421.783Z" fill="#2C2661"/>
<path opacity="0.5" d="M1411.56 429.453L1402.85 424.493C1402.15 424.093 1400.97 424.123 1400.21 424.563L1392.09 429.253C1391.33 429.693 1391.28 430.373 1391.98 430.773L1400.69 435.733C1401.39 436.133 1402.57 436.103 1403.33 435.663L1411.45 430.973C1412.21 430.523 1412.26 429.843 1411.56 429.453Z" fill="#2C2661"/>
<path opacity="0.5" d="M1425.01 437.113L1416.3 432.153C1415.6 431.753 1414.42 431.783 1413.66 432.223L1405.54 436.913C1404.78 437.353 1404.73 438.033 1405.43 438.433L1414.14 443.393C1414.84 443.793 1416.02 443.763 1416.78 443.323L1424.9 438.633C1425.66 438.193 1425.71 437.513 1425.01 437.113Z" fill="#2C2661"/>
<path opacity="0.5" d="M1438.45 444.783L1429.74 439.823C1429.04 439.423 1427.86 439.453 1427.1 439.893L1418.98 444.583C1418.22 445.023 1418.17 445.703 1418.87 446.103L1427.58 451.063C1428.28 451.463 1429.46 451.433 1430.22 450.993L1438.34 446.303C1439.1 445.853 1439.15 445.183 1438.45 444.783Z" fill="#2C2661"/>
<path opacity="0.5" d="M1451.9 452.443L1443.19 447.483C1442.49 447.083 1441.31 447.113 1440.55 447.553L1432.43 452.243C1431.67 452.683 1431.62 453.363 1432.32 453.763L1441.03 458.723C1441.73 459.123 1442.91 459.093 1443.67 458.653L1451.79 453.963C1452.55 453.523 1452.6 452.843 1451.9 452.443Z" fill="#2C2661"/>
<path opacity="0.5" d="M1465.34 460.113L1456.63 455.153C1455.93 454.753 1454.75 454.783 1453.99 455.223L1445.87 459.913C1445.11 460.353 1445.06 461.033 1445.76 461.433L1454.47 466.393C1455.17 466.793 1456.35 466.763 1457.11 466.323L1465.23 461.633C1465.99 461.183 1466.04 460.513 1465.34 460.113Z" fill="#2C2661"/>
<path opacity="0.5" d="M1478.79 467.773L1470.08 462.813C1469.38 462.413 1468.2 462.443 1467.44 462.883L1459.32 467.573C1458.56 468.013 1458.51 468.693 1459.21 469.093L1467.92 474.053C1468.62 474.453 1469.8 474.423 1470.56 473.983L1478.68 469.293C1479.44 468.853 1479.49 468.173 1478.79 467.773Z" fill="#2C2661"/>
<path opacity="0.5" d="M1492.24 475.443L1483.53 470.483C1482.83 470.083 1481.65 470.113 1480.89 470.553L1472.77 475.243C1472.01 475.683 1471.96 476.363 1472.66 476.763L1481.37 481.723C1482.07 482.123 1483.25 482.093 1484.01 481.653L1492.13 476.963C1492.89 476.523 1492.94 475.843 1492.24 475.443Z" fill="#2C2661"/>
<path opacity="0.5" d="M1338.73 402.063L1330.02 397.103C1329.32 396.703 1328.14 396.733 1327.38 397.173L1319.26 401.863C1318.5 402.303 1318.45 402.983 1319.15 403.383L1327.86 408.343C1328.56 408.743 1329.74 408.713 1330.5 408.273L1338.62 403.583C1339.38 403.143 1339.43 402.463 1338.73 402.063Z" fill="#2C2661"/>
<path opacity="0.5" d="M1325.35 394.433L1316.64 389.473C1315.94 389.073 1314.76 389.103 1314 389.543L1305.88 394.233C1305.12 394.673 1305.07 395.353 1305.77 395.753L1314.48 400.713C1315.18 401.113 1316.36 401.083 1317.12 400.643L1325.24 395.953C1326 395.513 1326.05 394.833 1325.35 394.433Z" fill="#2C2661"/>
<path opacity="0.5" d="M1311.97 386.813L1303.26 381.853C1302.56 381.453 1301.38 381.483 1300.62 381.923L1292.5 386.613C1291.74 387.053 1291.69 387.733 1292.39 388.133L1301.1 393.093C1301.8 393.493 1302.98 393.463 1303.74 393.023L1311.86 388.333C1312.62 387.883 1312.67 387.203 1311.97 386.813Z" fill="#2C2661"/>
<path opacity="0.5" d="M1298.59 379.183L1289.88 374.223C1289.18 373.823 1288 373.853 1287.24 374.293L1279.12 378.983C1278.36 379.423 1278.31 380.103 1279.01 380.503L1287.72 385.463C1288.42 385.863 1289.6 385.833 1290.36 385.393L1298.48 380.703C1299.24 380.263 1299.29 379.583 1298.59 379.183Z" fill="#2C2661"/>
<path opacity="0.5" d="M1285.64 386.653L1276.93 381.693C1276.23 381.293 1275.05 381.323 1274.29 381.763L1271.6 383.313C1270.84 383.753 1270.79 384.433 1271.49 384.833L1280.2 389.793C1280.9 390.193 1282.08 390.163 1282.84 389.723L1285.53 388.173C1286.29 387.733 1286.34 387.053 1285.64 386.653Z" fill="#2C2661"/>
<path opacity="0.5" d="M1303.1 396.613L1294.39 391.653C1293.69 391.253 1292.51 391.283 1291.75 391.723L1289.06 393.273C1288.3 393.713 1288.25 394.393 1288.95 394.793L1297.66 399.753C1298.36 400.153 1299.54 400.123 1300.3 399.683L1302.99 398.133C1303.75 397.683 1303.8 397.003 1303.1 396.613Z" fill="#2C2661"/>
<path opacity="0.5" d="M1316.42 404.203L1307.71 399.243C1307.01 398.843 1305.83 398.873 1305.07 399.313L1302.38 400.863C1301.62 401.303 1301.57 401.983 1302.27 402.383L1310.98 407.343C1311.68 407.743 1312.86 407.713 1313.62 407.273L1316.31 405.723C1317.07 405.283 1317.12 404.603 1316.42 404.203Z" fill="#2C2661"/>
<path opacity="0.5" d="M1329.74 411.803L1321.03 406.843C1320.33 406.443 1319.15 406.473 1318.39 406.913L1315.7 408.463C1314.94 408.903 1314.89 409.583 1315.59 409.983L1324.3 414.943C1325 415.343 1326.18 415.313 1326.94 414.873L1329.63 413.323C1330.39 412.873 1330.44 412.203 1329.74 411.803Z" fill="#2C2661"/>
<path opacity="0.5" d="M1343.07 419.393L1334.36 414.433C1333.66 414.033 1332.48 414.063 1331.72 414.503L1329.03 416.053C1328.27 416.493 1328.22 417.173 1328.92 417.573L1337.63 422.533C1338.33 422.933 1339.51 422.903 1340.27 422.463L1342.96 420.913C1343.72 420.473 1343.77 419.793 1343.07 419.393Z" fill="#2C2661"/>
<path opacity="0.5" d="M1417.45 461.803L1408.74 456.843C1408.04 456.443 1406.86 456.473 1406.1 456.913L1403.41 458.463C1402.65 458.903 1402.6 459.583 1403.3 459.983L1412.01 464.943C1412.71 465.343 1413.89 465.313 1414.65 464.873L1417.34 463.323C1418.1 462.873 1418.15 462.203 1417.45 461.803Z" fill="#2C2661"/>
<path opacity="0.5" d="M1430.77 469.393L1422.06 464.433C1421.36 464.033 1420.18 464.063 1419.42 464.503L1416.73 466.053C1415.97 466.493 1415.92 467.173 1416.62 467.573L1425.33 472.533C1426.03 472.933 1427.21 472.903 1427.97 472.463L1430.66 470.913C1431.42 470.473 1431.47 469.793 1430.77 469.393Z" fill="#2C2661"/>
<path opacity="0.5" d="M1444.1 476.993L1435.39 472.033C1434.69 471.633 1433.51 471.663 1432.75 472.103L1430.06 473.653C1429.3 474.093 1429.25 474.773 1429.95 475.173L1438.66 480.133C1439.36 480.533 1440.54 480.503 1441.3 480.063L1443.99 478.513C1444.75 478.073 1444.8 477.393 1444.1 476.993Z" fill="#2C2661"/>
<path opacity="0.5" d="M1457.42 484.583L1448.71 479.623C1448.01 479.223 1446.83 479.253 1446.07 479.693L1443.38 481.243C1442.62 481.683 1442.57 482.363 1443.27 482.763L1451.98 487.723C1452.68 488.123 1453.86 488.093 1454.62 487.653L1457.31 486.103C1458.07 485.663 1458.12 484.983 1457.42 484.583Z" fill="#2C2661"/>
<path opacity="0.5" d="M1352.17 409.733L1343.46 404.773C1342.76 404.373 1341.58 404.403 1340.82 404.843L1332.7 409.533C1331.94 409.973 1331.89 410.653 1332.59 411.053L1341.3 416.013C1342 416.413 1343.18 416.383 1343.94 415.943L1352.06 411.253C1352.82 410.803 1352.87 410.123 1352.17 409.733Z" fill="#2C2661"/>
<path opacity="0.5" d="M1365.62 417.393L1356.91 412.433C1356.21 412.033 1355.03 412.063 1354.27 412.503L1346.15 417.193C1345.39 417.633 1345.34 418.313 1346.04 418.713L1354.75 423.673C1355.45 424.073 1356.63 424.043 1357.39 423.603L1365.51 418.913C1366.27 418.473 1366.32 417.793 1365.62 417.393Z" fill="#2C2661"/>
<path opacity="0.5" d="M1379.07 425.063L1370.36 420.103C1369.66 419.703 1368.48 419.733 1367.72 420.173L1359.6 424.863C1358.84 425.303 1358.79 425.983 1359.49 426.383L1368.2 431.343C1368.9 431.743 1370.08 431.713 1370.84 431.273L1378.96 426.583C1379.72 426.133 1379.77 425.463 1379.07 425.063Z" fill="#2C2661"/>
<path opacity="0.5" d="M1392.51 432.723L1383.8 427.763C1383.1 427.363 1381.92 427.393 1381.16 427.833L1373.04 432.523C1372.28 432.963 1372.23 433.643 1372.93 434.043L1381.64 439.003C1382.34 439.403 1383.52 439.373 1384.28 438.933L1392.4 434.243C1393.16 433.803 1393.21 433.123 1392.51 432.723Z" fill="#2C2661"/>
<path opacity="0.5" d="M1405.96 440.393L1397.25 435.433C1396.55 435.033 1395.37 435.063 1394.61 435.503L1386.49 440.193C1385.73 440.633 1385.68 441.313 1386.38 441.713L1395.09 446.673C1395.79 447.073 1396.97 447.043 1397.73 446.603L1405.85 441.913C1406.61 441.473 1406.66 440.793 1405.96 440.393Z" fill="#2C2661"/>
<path opacity="0.5" d="M1419.41 448.053L1410.7 443.093C1410 442.693 1408.82 442.723 1408.06 443.163L1399.94 447.853C1399.18 448.293 1399.13 448.973 1399.83 449.373L1408.54 454.333C1409.24 454.733 1410.42 454.703 1411.18 454.263L1419.3 449.573C1420.05 449.133 1420.1 448.453 1419.41 448.053Z" fill="#2C2661"/>
<path opacity="0.5" d="M1432.85 455.723L1424.14 450.763C1423.44 450.363 1422.26 450.393 1421.5 450.833L1413.38 455.523C1412.62 455.963 1412.57 456.643 1413.27 457.043L1421.98 462.003C1422.68 462.403 1423.86 462.373 1424.62 461.933L1432.74 457.243C1433.5 456.803 1433.55 456.123 1432.85 455.723Z" fill="#2C2661"/>
<path opacity="0.5" d="M1446.3 463.383L1437.59 458.423C1436.89 458.023 1435.71 458.053 1434.95 458.493L1426.83 463.183C1426.07 463.623 1426.02 464.303 1426.72 464.703L1435.43 469.663C1436.13 470.063 1437.31 470.033 1438.07 469.593L1446.19 464.903C1446.95 464.463 1447 463.783 1446.3 463.383Z" fill="#2C2661"/>
<path opacity="0.5" d="M1459.74 471.053L1451.03 466.093C1450.33 465.693 1449.15 465.723 1448.39 466.163L1440.27 470.853C1439.51 471.293 1439.46 471.973 1440.16 472.373L1448.87 477.333C1449.57 477.733 1450.75 477.703 1451.51 477.263L1459.63 472.573C1460.39 472.133 1460.44 471.453 1459.74 471.053Z" fill="#2C2661"/>
<path opacity="0.5" d="M1351.54 366.963L1325.9 352.343C1325.2 351.943 1324.02 351.973 1323.26 352.413L1315.14 357.103C1314.38 357.543 1314.33 358.223 1315.03 358.623L1340.67 373.243C1341.37 373.643 1342.55 373.613 1343.31 373.173L1351.43 368.483C1352.19 368.033 1352.24 367.363 1351.54 366.963Z" fill="#2C2661"/>
<path opacity="0.5" d="M1516.73 461.133L1491.09 446.513C1490.39 446.113 1489.21 446.143 1488.45 446.583L1480.33 451.273C1479.57 451.713 1479.52 452.393 1480.22 452.793L1505.86 467.413C1506.56 467.813 1507.74 467.783 1508.5 467.343L1516.62 462.653C1517.38 462.213 1517.43 461.533 1516.73 461.133Z" fill="#2C2661"/>
<path opacity="0.5" d="M1491.79 430.873L1483.08 425.913C1482.38 425.513 1481.2 425.543 1480.44 425.983L1470.76 431.563C1470 432.003 1469.95 432.683 1470.65 433.083L1479.36 438.043C1480.06 438.443 1481.24 438.413 1482 437.973L1491.68 432.393C1492.44 431.953 1492.49 431.273 1491.79 430.873Z" fill="#2C2661"/>
<path opacity="0.5" d="M1394.14 375.213L1380.22 367.273C1379.52 366.873 1378.34 366.903 1377.58 367.343L1367.9 372.923C1367.14 373.363 1367.09 374.043 1367.79 374.443L1381.71 382.383C1382.41 382.783 1383.59 382.753 1384.35 382.313L1394.03 376.733C1394.79 376.283 1394.84 375.613 1394.14 375.213Z" fill="#2C2661"/>
<path opacity="0.5" d="M1478.84 423.493L1464.92 415.553C1464.22 415.153 1463.04 415.183 1462.28 415.623L1452.6 421.203C1451.84 421.643 1451.79 422.323 1452.49 422.723L1466.41 430.663C1467.11 431.063 1468.29 431.033 1469.05 430.593L1478.73 425.013C1479.48 424.573 1479.53 423.893 1478.84 423.493Z" fill="#2C2661"/>
<path opacity="0.5" d="M1413.54 386.273L1399.62 378.333C1398.92 377.933 1397.74 377.963 1396.98 378.403L1387.3 383.983C1386.54 384.423 1386.49 385.103 1387.19 385.503L1401.11 393.443C1401.81 393.843 1402.99 393.813 1403.75 393.373L1413.43 387.793C1414.19 387.343 1414.24 386.673 1413.54 386.273Z" fill="#2C2661"/>
<path opacity="0.5" d="M1387.28 385.553L1447.82 420.063C1448.57 420.493 1449.75 420.503 1450.46 420.103L1460.33 414.413C1461.04 414.003 1461 413.323 1460.25 412.903L1399.71 378.393L1387.28 385.553Z" fill="#2C2661"/>
<path opacity="0.5" d="M1516.56 452.123L1526.26 457.653C1526.83 457.983 1527.8 457.953 1528.43 457.593L1532.39 455.313C1533.01 454.953 1533.05 454.393 1532.48 454.073L1522.78 448.543C1522.21 448.213 1521.24 448.243 1520.61 448.603L1516.65 450.883C1516.02 451.243 1515.98 451.793 1516.56 452.123Z" fill="#2C2661"/>
<path opacity="0.5" d="M1503 444.393L1512.7 449.923C1513.27 450.253 1514.24 450.223 1514.87 449.863L1518.83 447.583C1519.45 447.223 1519.49 446.663 1518.92 446.343L1509.22 440.813C1508.65 440.483 1507.68 440.513 1507.05 440.873L1503.09 443.153C1502.47 443.513 1502.42 444.063 1503 444.393Z" fill="#2C2661"/>
<path opacity="0.5" d="M1489.55 436.733L1499.25 442.263C1499.82 442.593 1500.79 442.563 1501.42 442.203L1505.38 439.923C1506 439.563 1506.04 439.003 1505.47 438.683L1495.77 433.153C1495.2 432.823 1494.23 432.853 1493.6 433.213L1489.64 435.493C1489.02 435.843 1488.98 436.403 1489.55 436.733Z" fill="#2C2661"/>
<path opacity="0.5" d="M1496.01 448.423L1505.71 453.953C1506.28 454.283 1507.25 454.253 1507.88 453.893L1511.84 451.613C1512.46 451.253 1512.5 450.693 1511.93 450.373L1502.23 444.843C1501.66 444.513 1500.69 444.543 1500.06 444.903L1496.1 447.183C1495.47 447.543 1495.43 448.103 1496.01 448.423Z" fill="#2C2661"/>
</g>
<path d="M1321.27 297.012L1311.44 291.412L1311.82 289.162L1321.65 294.772L1321.27 297.012Z" fill="#231F20"/>
<path d="M1328.5 300.802L1323.59 298.002L1323.97 295.762L1328.88 298.562L1328.5 300.802Z" fill="#231F20"/>
<path d="M1315 299.322L1310.81 296.942L1311.19 294.692L1315.38 297.082L1315 299.322Z" fill="#231F20"/>
<path d="M1322.01 303.322L1317.1 300.522L1317.48 298.282L1322.39 301.082L1322.01 303.322Z" fill="#231F20"/>
<path d="M1329.23 313.212L1309.92 302.202L1310.3 299.952L1329.61 310.962L1329.23 313.212Z" fill="#231F20"/>
<path d="M1321.1 362.902L1301.79 351.892L1302.17 349.642L1321.49 360.652L1321.1 362.902Z" fill="#231F20"/>
<path d="M1313.21 309.842L1309.02 307.462L1309.4 305.212L1313.59 307.602L1313.21 309.842Z" fill="#231F20"/>
<path d="M1320.23 313.842L1315.31 311.042L1315.69 308.802L1320.61 311.602L1320.23 313.842Z" fill="#231F20"/>
<path d="M1318.75 318.772L1308.13 312.722L1308.51 310.472L1319.13 316.532L1318.75 318.772Z" fill="#231F20"/>
<path d="M1325.85 322.822L1320.94 320.022L1321.32 317.782L1326.23 320.582L1325.85 322.822Z" fill="#231F20"/>
<path d="M1333 326.892L1328.08 324.092L1328.46 321.852L1333.38 324.652L1333 326.892Z" fill="#231F20"/>
<path d="M1344.53 333.472L1335.23 328.162L1335.61 325.922L1344.91 331.222L1344.53 333.472Z" fill="#231F20"/>
<path d="M1337.17 340.812L1332.25 338.012L1332.63 335.762L1337.55 338.572L1337.17 340.812Z" fill="#231F20"/>
<path d="M1348.69 347.382L1339.4 342.082L1339.78 339.842L1349.08 345.142L1348.69 347.382Z" fill="#231F20"/>
<path d="M1311.26 326.042L1306.34 323.242L1306.73 320.992L1311.64 323.802L1311.26 326.042Z" fill="#231F20"/>
<path d="M1318.4 330.112L1313.49 327.312L1313.87 325.072L1318.78 327.872L1318.4 330.112Z" fill="#231F20"/>
<path d="M1329.93 336.682L1320.63 331.382L1321.01 329.142L1330.31 334.442L1329.93 336.682Z" fill="#231F20"/>
<path d="M1345.04 339.532L1340.12 336.732L1340.5 334.482L1345.42 337.282L1345.04 339.532Z" fill="#231F20"/>
<path d="M1352.18 343.602L1347.27 340.802L1347.65 338.552L1352.56 341.362L1352.18 343.602Z" fill="#231F20"/>
<path d="M1363.71 350.172L1354.41 344.872L1354.79 342.632L1364.09 347.932L1363.71 350.172Z" fill="#231F20"/>
<path d="M1327.47 366.102L1322.55 363.302L1322.93 361.062L1327.85 363.862L1327.47 366.102Z" fill="#231F20"/>
<path d="M1339.13 372.432L1329.83 367.132L1330.21 364.892L1339.51 370.192L1339.13 372.432Z" fill="#231F20"/>
<path d="M1309.47 336.562L1304.56 333.762L1304.94 331.512L1309.85 334.322L1309.47 336.562Z" fill="#231F20"/>
<path d="M1321 343.132L1311.7 337.832L1312.08 335.592L1321.38 340.892L1321 343.132Z" fill="#231F20"/>
<path d="M1332.96 374.682L1328.04 371.882L1328.42 369.632L1333.34 372.442L1332.96 374.682Z" fill="#231F20"/>
<path d="M1344.48 381.252L1335.19 375.952L1335.57 373.712L1344.87 379.012L1344.48 381.252Z" fill="#231F20"/>
<path d="M1343.92 321.582L1339.01 318.782L1339.39 316.542L1344.3 319.342L1343.92 321.582Z" fill="#231F20"/>
<path d="M1336.49 317.352L1331.58 314.542L1331.96 312.302L1336.87 315.102L1336.49 317.352Z" fill="#231F20"/>
<path d="M1355.45 328.152L1346.15 322.852L1346.53 320.612L1355.83 325.912L1355.45 328.152Z" fill="#231F20"/>
<path d="M1311.67 320.512L1307.24 317.982L1307.62 315.732L1312.05 318.262L1311.67 320.512Z" fill="#231F20"/>
<path d="M1324.82 328.002L1314.04 321.862L1314.42 319.612L1325.2 325.762L1324.82 328.002Z" fill="#231F20"/>
<path d="M1337.97 335.502L1327.19 329.352L1327.57 327.112L1338.35 333.252L1337.97 335.502Z" fill="#231F20"/>
<path d="M1362.28 332.052L1357.84 329.522L1358.22 327.282L1362.66 329.802L1362.28 332.052Z" fill="#231F20"/>
<path d="M1375.43 339.542L1364.65 333.402L1365.03 331.162L1375.81 337.302L1375.43 339.542Z" fill="#231F20"/>
<path d="M1388.57 347.042L1377.8 340.892L1378.18 338.652L1388.95 344.802L1388.57 347.042Z" fill="#231F20"/>
<path d="M1316.32 334.702L1305.55 328.552L1305.93 326.312L1316.7 332.452L1316.32 334.702Z" fill="#231F20"/>
<path d="M1322 337.932L1318.69 336.052L1319.08 333.802L1322.39 335.692L1322 337.932Z" fill="#231F20"/>
<path d="M1327.7 341.182L1324.39 339.292L1324.77 337.052L1328.08 338.942L1327.7 341.182Z" fill="#231F20"/>
<path d="M1338.22 347.182L1330.08 342.542L1330.46 340.302L1338.6 344.942L1338.22 347.182Z" fill="#231F20"/>
<path d="M1350.02 336.602L1346.71 334.712L1347.09 332.472L1350.4 334.362L1350.02 336.602Z" fill="#231F20"/>
<path d="M1360.55 342.602L1352.41 337.962L1352.79 335.712L1360.93 340.362L1360.55 342.602Z" fill="#231F20"/>
<path d="M1362.76 343.862L1354.62 339.222L1355 336.982L1363.14 341.622L1362.76 343.862Z" fill="#231F20"/>
<path d="M1309.97 367.222L1299.35 361.162L1299.73 358.922L1310.35 364.972L1309.97 367.222Z" fill="#231F20"/>
<path d="M1317.07 371.272L1312.16 368.472L1312.54 366.222L1317.46 369.022L1317.07 371.272Z" fill="#231F20"/>
<path d="M1324.22 375.342L1319.3 372.542L1319.68 370.302L1324.6 373.102L1324.22 375.342Z" fill="#231F20"/>
<path d="M1335.75 381.912L1326.45 376.612L1326.83 374.372L1336.13 379.672L1335.75 381.912Z" fill="#231F20"/>
<path d="M1343.12 386.122L1338.21 383.312L1338.59 381.072L1343.5 383.872L1343.12 386.122Z" fill="#231F20"/>
<path d="M1354.65 392.692L1345.35 387.392L1345.73 385.142L1355.03 390.452L1354.65 392.692Z" fill="#231F20"/>
<path d="M1326.61 388.372L1321.69 385.572L1322.07 383.322L1326.99 386.122L1326.61 388.372Z" fill="#231F20"/>
<path d="M1338.14 394.942L1328.84 389.642L1329.22 387.402L1338.52 392.702L1338.14 394.942Z" fill="#231F20"/>
<path d="M1300.94 373.732L1296.03 370.932L1296.41 368.692L1301.32 371.492L1300.94 373.732Z" fill="#231F20"/>
<path d="M1308.08 377.812L1303.17 375.012L1303.55 372.762L1308.47 375.562L1308.08 377.812Z" fill="#231F20"/>
<path d="M1319.61 384.382L1310.31 379.082L1310.69 376.832L1319.99 382.142L1319.61 384.382Z" fill="#231F20"/>
<path d="M1302.36 369.102L1297.92 366.572L1298.3 364.332L1302.74 366.862L1302.36 369.102Z" fill="#231F20"/>
<path d="M1315.51 376.602L1304.73 370.452L1305.11 368.212L1315.89 374.352L1315.51 376.602Z" fill="#231F20"/>
<path d="M1328.65 384.092L1317.88 377.952L1318.26 375.712L1329.03 381.852L1328.65 384.092Z" fill="#231F20"/>
<path d="M1305.19 381.412L1294.42 375.272L1294.8 373.032L1305.57 379.172L1305.19 381.412Z" fill="#231F20"/>
<path d="M1310.87 384.652L1307.56 382.772L1307.95 380.522L1311.26 382.412L1310.87 384.652Z" fill="#231F20"/>
<path d="M1316.57 387.902L1313.26 386.012L1313.64 383.772L1316.95 385.652L1316.57 387.902Z" fill="#231F20"/>
<path d="M1326.27 393.372L1318.13 388.732L1318.51 386.482L1326.65 391.132L1326.27 393.372Z" fill="#231F20"/>
<path d="M1304.29 358.332L1300.98 356.452L1301.36 354.202L1304.67 356.092L1304.29 358.332Z" fill="#231F20"/>
<path d="M1314.81 364.332L1306.67 359.692L1307.05 357.452L1315.19 362.092L1314.81 364.332Z" fill="#231F20"/>
<path d="M1325.56 370.472L1317.42 365.822L1317.8 363.582L1325.95 368.222L1325.56 370.472Z" fill="#231F20"/>
<path d="M1357.03 400.272L1352.12 397.472L1352.5 395.232L1357.41 398.032L1357.03 400.272Z" fill="#231F20"/>
<path d="M1368.56 406.842L1359.26 401.542L1359.64 399.302L1368.94 404.602L1368.56 406.842Z" fill="#231F20"/>
<path d="M1338.88 389.932L1330.74 385.282L1331.12 383.042L1339.27 387.682L1338.88 389.932Z" fill="#231F20"/>
<path d="M1349.64 396.062L1341.5 391.412L1341.88 389.172L1350.02 393.812L1349.64 396.062Z" fill="#231F20"/>
<path d="M1334.23 304.082L1330.92 302.202L1331.3 299.952L1334.61 301.842L1334.23 304.082Z" fill="#231F20"/>
<path d="M1311.38 342.562L1303.23 337.922L1303.61 335.672L1311.76 340.312L1311.38 342.562Z" fill="#231F20"/>
<defs>
<linearGradient id="paint0_linear" x1="1517.6" y1="538.387" x2="1069.88" y2="538.387" gradientUnits="userSpaceOnUse">
<stop stop-color="#020203"/>
<stop offset="0.213" stop-color="#030405"/>
<stop offset="0.4641" stop-color="#0A090F"/>
<stop offset="0.7332" stop-color="#15121D"/>
<stop offset="1" stop-color="#221A2C"/>
</linearGradient>
<linearGradient id="paint1_linear" x1="1716.51" y1="526.298" x2="1056.77" y2="526.298" gradientUnits="userSpaceOnUse">
<stop stop-color="#9FA2B3"/>
<stop offset="0.2009" stop-color="#A4A6B7"/>
<stop offset="0.4376" stop-color="#B1B2C2"/>
<stop offset="0.6925" stop-color="#C6C6D5"/>
<stop offset="0.9586" stop-color="#E4E3F1"/>
<stop offset="1" stop-color="#E9E8F6"/>
</linearGradient>
<linearGradient id="paint2_linear" x1="1560.08" y1="370.522" x2="1243.07" y2="370.522" gradientUnits="userSpaceOnUse">
<stop stop-color="#9FA2B3"/>
<stop offset="0.2335" stop-color="#A4A6B6"/>
<stop offset="0.5087" stop-color="#B1B2BF"/>
<stop offset="0.8039" stop-color="#C8C8CE"/>
<stop offset="1" stop-color="#DADADA"/>
</linearGradient>
<linearGradient id="paint3_linear" x1="1560.07" y1="450.799" x2="1505.64" y2="450.799" gradientUnits="userSpaceOnUse">
<stop stop-color="#9FA2B3"/>
<stop offset="0.2335" stop-color="#A4A6B6"/>
<stop offset="0.5087" stop-color="#B1B2BF"/>
<stop offset="0.8039" stop-color="#C8C8CE"/>
<stop offset="1" stop-color="#DADADA"/>
</linearGradient>
</defs>
</svg>
