<svg width="653" height="431" viewBox="0 0 653 431" fill="none" xmlns="http://www.w3.org/2000/svg">
<path d="M611.9 136.5H559.2V171.1H611.9V136.5Z" fill="#E0E0E0"/>
<path d="M610 138.1H561V169.8H610V138.1Z" fill="#FAFAFA"/>
<path d="M593.5 149.5H577.5V158.2H593.5V149.5Z" fill="#E0E0E0"/>
<path d="M530.5 277.7H472V280.5H530.5V277.7Z" fill="#EBEBEB"/>
<path d="M463 280.6L452 239.4H497.7L507.6 280.6H463Z" fill="#EBEBEB"/>
<path d="M504.9 277.5H464.1L454.6 241.3H495.6L504.9 277.5Z" fill="#E0E0E0"/>
<path d="M443.4 289H440.4V430.2H443.4V289Z" fill="#F5F5F5"/>
<path d="M446.3 289.4H443.3V430.2H446.3V289.4Z" fill="#EBEBEB"/>
<path d="M625.5 289H622.5V430.2H625.5V289Z" fill="#EBEBEB"/>
<path d="M628.5 289.4H625.5V430.2H628.5V289.4Z" fill="#E0E0E0"/>
<path d="M652.2 280.8H427.6V292.4H652.2V280.8Z" fill="#E0E0E0"/>
<path d="M624 292.4H525.1V311.6H624V292.4Z" fill="#EBEBEB"/>
<path d="M576.8 302.8C578.015 302.8 579 301.815 579 300.6C579 299.385 578.015 298.4 576.8 298.4C575.585 298.4 574.6 299.385 574.6 300.6C574.6 301.815 575.585 302.8 576.8 302.8Z" fill="#E0E0E0"/>
<path d="M564.5 349.3H525.7C523 349.3 520.8 347.1 520.8 344.4V332.4C520.8 327.8 524.5 324.1 529.1 324.1H564.8L564.5 349.3Z" fill="#EBEBEB"/>
<path d="M526.3 356.8H602.7C604.8 356.8 606.5 355.1 606.5 353C606.5 350.9 604.8 349.2 602.7 349.2H526.3C524.2 349.2 522.5 350.9 522.5 353C522.5 355.1 524.2 356.8 526.3 356.8Z" fill="#EBEBEB"/>
<path d="M618.2 249L576.2 248.3L549.5 349.1L606.4 349.7L627.8 261.3C629.4 255.1 624.6 249 618.2 249Z" fill="#E0E0E0"/>
<path d="M597.3 356.8L609.8 429.9H606.4L589.9 356.8H597.3Z" fill="#EBEBEB"/>
<path d="M567.6 356.8L581 429.9H577.6L560.2 356.8H567.6Z" fill="#E0E0E0"/>
<path d="M534.9 356.8L520 429.9H523.4L542.3 356.8H534.9Z" fill="#EBEBEB"/>
<path d="M581 248.3L560.2 349.2H544.3L561 260.1C562.3 253.3 568.2 248.4 575.1 248.4H581V248.3Z" fill="#EBEBEB"/>
<path fill-rule="evenodd" clip-rule="evenodd" d="M505.2 8.19981C505.9 7.29981 506.7 6.4998 507.5 5.7998L506.9 2.7998L511.6 0.799805L513.4 3.2998C514.5 3.0998 515.6 3.0998 516.7 3.2998L518.5 0.799805L523.3 2.69981L522.8 5.7998C523.7 6.4998 524.5 7.2998 525.2 8.0998L528.2 7.49981L530.2 12.1998L527.7 13.9998C527.9 15.0998 527.9 16.1998 527.7 17.2998L530.2 19.0998L528.3 23.8998L525.2 23.3998C524.5 24.2998 523.7 25.0998 522.9 25.7998L523.5 28.7998L518.8 30.7998L517 28.2998C515.9 28.4998 514.8 28.4998 513.7 28.2998L511.9 30.7998L507.1 28.8998L507.6 25.7998C506.7 25.0998 505.9 24.2998 505.2 23.4998L502.2 24.0998L500.2 19.3998L502.7 17.5998C502.5 16.4998 502.5 15.3998 502.7 14.2998L500.2 12.4998L502.1 7.69981L505.2 8.19981ZM510.3 13.4998C509.2 16.2998 510.5 19.4998 513.4 20.6998C516.2 21.7998 519.4 20.4998 520.6 17.5998C521.7 14.7998 520.4 11.5998 517.5 10.3998C514.7 9.29981 511.5 10.6998 510.3 13.4998Z" fill="#F5F5F5"/>
<path fill-rule="evenodd" clip-rule="evenodd" d="M538.3 40.3998C540.7 37.1998 543.4 34.3998 546.5 31.9998L544.5 21.2998L561 14.1998L567.4 22.9998C571.2 22.3998 575.2 22.3998 579.1 22.8998L585.3 13.9998L602 20.6998L600.3 31.3998C603.5 33.7998 606.3 36.4998 608.7 39.5998L619.4 37.5998L626.5 54.0998L617.7 60.4998C618.3 64.2998 618.3 68.2998 617.8 72.1998L626.7 78.3998L620 95.0998L609.3 93.3997C606.9 96.5997 604.2 99.3998 601.1 101.8L603.1 112.5L586.6 119.6L580.2 110.8C576.4 111.4 572.4 111.4 568.5 110.9L562.3 119.8L545.6 113.1L547.3 102.4C544.1 99.9997 541.3 97.2998 538.9 94.1998L528.2 96.1998L521.1 79.6998L529.9 73.2998C529.3 69.4998 529.3 65.4998 529.8 61.5998L520.9 55.3998L527.6 38.6998L538.3 40.3998ZM556.2 58.9998C552.2 68.8998 557 80.0998 566.9 84.0998C576.8 88.0998 588 83.2998 592 73.3998C596 63.4998 591.2 52.2998 581.3 48.2998C571.4 44.2998 560.2 49.0998 556.2 58.9998Z" fill="#EBEBEB"/>
<path d="M469.7 72.6C470.9 71 472.2 69.7 473.7 68.5L472.7 63.2L480.8 59.7L483.9 64C485.8 63.7 487.7 63.7 489.7 63.9L492.7 59.5L500.9 62.8L500.1 68.1C501.7 69.3 503 70.6 504.2 72.1L509.5 71.1L513 79.2L508.7 82.3C509 84.2 509 86.1 508.8 88.1L513.2 91.1L509.9 99.3L504.6 98.5C503.4 100.1 502.1 101.4 500.6 102.6L501.6 107.9L493.5 111.4L490.4 107.1C488.5 107.4 486.6 107.4 484.6 107.2L481.6 111.6L473.4 108.3L474.2 103C472.6 101.8 471.3 100.5 470.1 99L464.8 100L461.3 91.9L465.6 88.8C465.3 86.9 465.3 85 465.5 83L461.1 80L464.4 71.8L469.7 72.6ZM478.5 81.8C476.5 86.7 478.9 92.2 483.8 94.2C488.7 96.2 494.2 93.8 496.2 88.9C498.2 84 495.8 78.5 490.9 76.5C486 74.6 480.4 76.9 478.5 81.8Z" fill="#E0E0E0"/>
<path d="M478.5 81.7999C478.5 81.7999 478.7 80.9999 479.6 79.6999C480.4 78.4999 482.1 76.7999 484.8 75.9999C486.1 75.5999 487.7 75.4999 489.3 75.7999C490.9 76.0999 492.5 76.7999 493.9 78.0999C494.6 78.6999 495.2 79.3999 495.7 80.1999C496.2 80.9999 496.6 81.8999 496.8 82.8999C497.3 84.7999 497.2 86.9999 496.4 88.9999C495.6 90.9999 494.2 92.5999 492.5 93.5999C491.7 94.0999 490.7 94.4999 489.8 94.6999C488.9 94.8999 487.9 94.9999 487 94.9999C485.2 94.9999 483.5 94.2999 482.1 93.4999C480.7 92.5999 479.7 91.3999 479 90.2999C477.6 87.8999 477.6 85.4999 477.8 83.9999C478 82.4999 478.5 81.7999 478.5 81.7999C478.6 81.7999 478.2 82.5999 478 84.0999C477.8 85.5999 477.9 87.7999 479.3 90.0999C480 91.1999 481 92.2999 482.3 93.0999C483.6 93.8999 485.2 94.4999 487 94.4999C487.9 94.4999 488.8 94.3999 489.6 94.1999C490.5 93.9999 491.3 93.5999 492.1 93.0999C493.7 92.0999 495 90.5999 495.8 88.6999C496.5 86.7999 496.7 84.7999 496.2 82.9999C496 82.0999 495.6 81.1999 495.1 80.3999C494.6 79.5999 494.1 78.8999 493.4 78.3999C492.1 77.1999 490.6 76.4999 489 76.1999C487.5 75.8999 486 75.9999 484.7 76.2999C482.1 76.9999 480.5 78.5999 479.6 79.6999C478.8 80.9999 478.5 81.7999 478.5 81.7999Z" fill="#E0E0E0"/>
<path d="M469.7 72.5999C469.7 72.5999 469.6 72.5999 469.4 72.5999C469.2 72.5999 468.8 72.4999 468.4 72.4999C467.5 72.3999 466.2 72.1999 464.4 71.8999L464.5 71.7999C463.7 73.8999 462.6 76.6999 461.2 79.9999V79.7999C462.5 80.6999 464 81.6999 465.6 82.7999L465.7 82.8999V82.9999C465.5 84.7999 465.5 86.6999 465.8 88.6999V88.7999L465.7 88.8999C464.4 89.8999 462.9 90.8999 461.4 91.9999L461.5 91.7999C462.6 94.3999 463.8 97.0999 465 99.8999L464.8 99.7999C466.4 99.4999 468.2 99.1999 470.1 98.7999H470.2L470.3 98.8999C471.4 100.3 472.8 101.7 474.4 102.9L474.5 103V103.1C474.2 104.7 474 106.5 473.7 108.4L473.6 108.1C476.2 109.1 479 110.2 481.8 111.4L481.5 111.5C482.4 110.1 483.5 108.6 484.5 107.1L484.6 107H484.8C486.6 107.2 488.5 107.2 490.5 106.9H490.7L490.8 107C491.8 108.4 492.9 109.8 493.9 111.3L493.6 111.2C496.2 110.1 498.9 108.9 501.7 107.7L501.5 108C501.2 106.3 500.9 104.5 500.5 102.7V102.5L500.6 102.4C502 101.3 503.4 99.8999 504.6 98.2999L504.7 98.1999H504.9C506.7 98.4999 508.4 98.7999 510.2 98.9999L509.9 99.1999C511 96.3999 512.1 93.6999 513.2 90.9999L513.3 91.2999C511.8 90.2999 510.4 89.2999 508.9 88.2999L508.8 88.1999V87.9999C509 86.0999 509 84.1999 508.7 82.2999V82.0999L508.8 81.9999C510.3 80.8999 511.7 79.8999 513.1 78.8999L513 79.1999C511.8 76.3999 510.7 73.6999 509.5 71.0999L509.8 71.1999C508 71.4999 506.3 71.7999 504.5 72.1999H504.4L504.3 72.0999C503.1 70.5999 501.7 69.1999 500.2 68.0999L500.1 67.9999V67.8999C500.4 66.0999 500.7 64.2999 501 62.5999L501.1 62.7999C498.2 61.5999 495.5 60.4999 492.9 59.4999L493.1 59.3999C492 60.8999 491 62.3999 490 63.7999L489.9 63.8999H489.8C487.8 63.5999 485.9 63.6999 484.1 63.8999H484L483.9 63.7999C482.8 62.1999 481.7 60.7999 480.8 59.4999L481 59.5999C477.8 60.8999 475.1 62.0999 472.8 62.9999L472.9 62.8999C473.3 64.9999 473.6 66.6999 473.8 68.1999V68.2999C472.3 69.4999 471.3 70.5999 470.6 71.2999C470.3 71.6999 470.1 71.8999 469.9 72.0999C469.7 72.5999 469.7 72.5999 469.7 72.5999C469.7 72.5999 469.8 72.4999 469.9 72.2999C470 72.0999 470.3 71.7999 470.6 71.4999C471.2 70.7999 472.2 69.6999 473.7 68.4999V68.5999C473.4 67.1999 473.1 65.3999 472.7 63.2999V63.1999H472.8C475.1 62.1999 477.8 60.9999 480.9 59.6999L481 59.5999L481.1 59.6999C482.1 60.9999 483.1 62.4999 484.3 63.9999L484.1 63.8999C485.9 63.5999 487.9 63.5999 489.9 63.7999L489.7 63.8999C490.7 62.4999 491.7 60.9999 492.7 59.4999L492.8 59.3999L493 59.4999C495.6 60.4999 498.3 61.5999 501.2 62.7999L501.4 62.8999V63.0999C501.1 64.7999 500.8 66.5999 500.6 68.3999L500.5 68.1999C502 69.2999 503.4 70.6999 504.7 72.2999L504.5 72.1999C506.2 71.8999 508 71.5999 509.8 71.1999H510L510.1 71.3999C511.2 73.9999 512.4 76.7999 513.6 79.4999L513.7 79.6999L513.5 79.7999C512.1 80.7999 510.6 81.8999 509.2 82.8999L509.3 82.5999C509.6 84.4999 509.6 86.4999 509.4 88.3999L509.3 88.0999C510.8 89.0999 512.2 90.0999 513.7 91.0999L513.9 91.1999L513.8 91.3999C512.7 94.0999 511.6 96.7999 510.5 99.5999L510.4 99.7999H510.2C508.5 99.4999 506.7 99.1999 504.9 98.9999L505.2 98.8999C504 100.5 502.6 101.9 501.1 103.1L501.2 102.8C501.5 104.6 501.9 106.4 502.2 108.1V108.3L502 108.4C499.2 109.6 496.4 110.8 493.9 111.9L493.7 112L493.6 111.8C492.5 110.3 491.4 108.8 490.5 107.5L490.8 107.6C488.8 107.9 486.8 107.9 485 107.7L485.2 107.6C484.1 109.1 483.1 110.6 482.2 112L482.1 112.2L481.9 112.1C479 111 476.3 109.8 473.7 108.8L473.5 108.7V108.5C473.8 106.7 474.1 104.9 474.4 103.2L474.5 103.4C472.9 102.2 471.4 100.7 470.3 99.2999L470.5 99.3999C468.7 99.6999 466.9 100.1 465.2 100.4H465L464.9 100.2C463.7 97.2999 462.5 94.5999 461.4 91.9999L461.3 91.8999L461.4 91.7999C462.9 90.6999 464.4 89.5999 465.7 88.6999L465.6 88.8999C465.3 86.8999 465.3 84.8999 465.6 83.0999L465.7 83.2999C464.1 82.1999 462.6 81.1999 461.3 80.1999L461.2 80.0999V79.9999C462.6 76.6999 463.7 73.8999 464.5 71.7999V71.6999H464.6C466.3 71.9999 467.6 72.1999 468.5 72.3999C468.9 72.4999 469.3 72.4999 469.5 72.5999C469.5 72.5999 469.6 72.5999 469.7 72.5999Z" fill="#E0E0E0"/>
<path d="M33.4001 69.0999H0.100098V135.1H33.4001V69.0999Z" fill="#F5F5F5"/>
<path d="M70.7001 69.0999H34.7001V135.1H70.7001V69.0999Z" fill="#F5F5F5"/>
<path d="M70.7001 139.7H34.7001V203.5H70.7001V139.7Z" fill="#F5F5F5"/>
<path d="M75.2001 67.9999H113.1V9.39986H114.4V67.9999H145.2V8.09985H75.2001V67.9999Z" fill="#F5F5F5"/>
<path d="M145.2 69.0999H114.4V135.1H145.2V69.0999Z" fill="#F5F5F5"/>
<path d="M145.2 139.7H114.4V203.5H145.2V139.7Z" fill="#F5F5F5"/>
<path d="M33.4001 139.7H0.100098V203.5H33.4001V139.7Z" fill="#F5F5F5"/>
<path d="M113.1 139.7H75.2001V203.5H113.1V139.7Z" fill="#F5F5F5"/>
<path d="M33.4001 204.6H0.100098V262.1H33.4001V204.6Z" fill="#F5F5F5"/>
<path d="M145.2 204.6H114.4V262.1H145.2V204.6Z" fill="#F5F5F5"/>
<path d="M33.4001 67.9999V9.39986H34.7001V67.9999H70.6001V8.09985H0.100098V67.9999H33.4001Z" fill="#F5F5F5"/>
<path d="M113.1 204.6H75.2001V262.1H113.1V204.6Z" fill="#F5F5F5"/>
<path d="M70.7001 204.6H34.7001V262.1H70.7001V204.6Z" fill="#F5F5F5"/>
<path d="M113.1 69.0999H75.2001V135.1H113.1V69.0999Z" fill="#F5F5F5"/>
<path d="M160.2 313.6C160.2 313.6 156 313.3 156.4 322.7C156.8 332.1 157.7 337.2 157.7 337.2C157.7 337.2 157.6 339.3 156 338.9C154.4 338.5 151.3 336.5 149.8 338C148.2 339.6 148.8 342 150.9 344.8C153 347.7 157.3 354.1 157.7 354.6C158.1 355.2 158.2 356.2 157.1 356.1C156 356 148.2 353.4 147.2 357.1C146.2 360.9 153.2 367.8 154 368.6C154.8 369.4 154.8 369.9 154.5 370.3C154.2 370.8 151.7 369.6 149.4 369C147.2 368.3 144.5 368 144 370.2C143.5 372.4 146.7 378.9 158.4 385.7L164 388.5L169.3 385.1C180.2 377.2 182.7 370.4 182 368.2C181.4 366 178.7 366.7 176.6 367.6C174.4 368.5 172 369.9 171.7 369.4C171.3 369 171.3 368.5 172 367.6C172.7 366.7 179 359.1 177.6 355.5C176.2 351.9 168.8 355.3 167.6 355.5C166.5 355.7 166.5 354.6 166.8 354C167.1 353.4 170.8 346.6 172.5 343.5C174.3 340.5 174.6 338 172.9 336.6C171.3 335.2 168.4 337.6 166.9 338.1C165.3 338.7 165 336.6 165 336.6C165 336.6 165.5 331.5 164.9 322.1C164.4 312.8 160.1 313.6 160.2 313.6Z" fill="#EBEBEB"/>
<path d="M160.6 322.1C160.6 322.1 160.6 322.2 160.6 322.3C160.6 322.4 160.6 322.6 160.6 322.9C160.6 323.4 160.7 324.2 160.8 325.1C160.9 327 161.1 329.8 161.3 333.3C161.7 340.2 162.1 349.8 162.6 360.4C163.1 371 163.5 380.5 163.8 387.5C164 391 164.1 393.8 164.2 395.7C164.2 396.7 164.3 397.4 164.3 397.9C164.3 398.1 164.3 398.3 164.3 398.5C164.3 398.6 164.3 398.7 164.3 398.7C164.3 398.7 164.3 398.6 164.3 398.5C164.3 398.4 164.3 398.2 164.3 397.9C164.3 397.4 164.2 396.6 164.1 395.7C164 393.8 163.8 391 163.6 387.5C163.2 380.6 162.8 371 162.3 360.4C161.8 349.8 161.4 340.3 161.1 333.3C160.9 329.8 160.8 327 160.7 325.1C160.7 324.1 160.6 323.4 160.6 322.9C160.6 322.7 160.6 322.5 160.6 322.3C160.6 322.1 160.6 322.1 160.6 322.1Z" fill="#E0E0E0"/>
<path d="M154 341C154 341 154.1 341.1 154.3 341.3C154.5 341.5 154.8 341.8 155.2 342.2C155.9 342.9 156.9 344 158 345.1C159.1 346.3 160 347.3 160.7 348.1C161 348.5 161.3 348.8 161.5 349C161.7 349.2 161.8 349.3 161.8 349.3C161.8 349.3 161.7 349.2 161.4 349C161.2 348.8 160.9 348.5 160.5 348.1C159.8 347.4 158.8 346.3 157.7 345.1C156.6 344 155.7 342.9 154.9 342.1C154.6 341.7 154.3 341.4 154.1 341.2C154.1 341.1 154 341 154 341Z" fill="#E0E0E0"/>
<path d="M167.103 344.299C164.543 346.894 162.5 349.029 162.54 349.068C162.579 349.107 164.686 347.035 167.245 344.44C169.805 341.845 171.848 339.71 171.809 339.671C171.769 339.632 169.663 341.704 167.103 344.299Z" fill="#E0E0E0"/>
<path d="M162.4 365.4C162.4 365.4 162.5 365.3 162.8 365.2C163.1 365 163.5 364.8 163.9 364.6C164.8 364.1 166.1 363.4 167.5 362.5C168.9 361.7 170.1 360.8 171 360.3C171.4 360 171.8 359.8 172 359.6C172.2 359.4 172.4 359.4 172.4 359.4C172.4 359.4 172.3 359.5 172 359.7C171.8 359.9 171.4 360.1 171 360.5C170.1 361.1 168.9 362 167.5 362.8C166.1 363.7 164.8 364.4 163.9 364.8C163.4 365 163 365.2 162.8 365.4C162.6 365.3 162.5 365.4 162.4 365.4Z" fill="#E0E0E0"/>
<path d="M153.2 359.7C153.2 359.7 153.3 359.8 153.6 359.9C153.8 360 154.2 360.2 154.6 360.5C155.5 361 156.6 361.7 157.9 362.4C159.2 363.2 160.3 363.9 161.2 364.4C161.6 364.7 162 364.9 162.2 365C162.4 365.2 162.6 365.2 162.5 365.3C162.5 365.3 162.4 365.2 162.1 365.1C161.9 365 161.5 364.8 161.1 364.5C160.2 364 159.1 363.3 157.8 362.6C156.5 361.8 155.4 361.1 154.5 360.6C154.1 360.3 153.7 360.1 153.5 360C153.3 359.8 153.1 359.7 153.2 359.7Z" fill="#E0E0E0"/>
<path d="M151.3 374C151.3 374 151.5 374.1 151.8 374.2C152.1 374.4 152.6 374.6 153.1 374.9C154.2 375.5 155.7 376.4 157.4 377.3C159.1 378.3 160.6 379.2 161.6 379.8C162.1 380.1 162.5 380.4 162.9 380.6C163.2 380.8 163.4 380.9 163.4 380.9C163.4 380.9 163.2 380.8 162.9 380.7C162.6 380.5 162.1 380.3 161.6 380C160.5 379.4 159 378.5 157.3 377.6C155.6 376.6 154.1 375.7 153.1 375.1C152.6 374.8 152.2 374.5 151.8 374.3C151.5 374.2 151.3 374.1 151.3 374Z" fill="#E0E0E0"/>
<path d="M163.1 380.8C163.1 380.8 163.3 380.7 163.6 380.5C164 380.3 164.4 380 165 379.7C166.2 379 167.7 378 169.5 376.9C171.2 375.8 172.8 374.7 173.9 374C174.4 373.6 174.9 373.3 175.2 373.1C175.5 372.9 175.7 372.8 175.7 372.8C175.7 372.8 175.5 372.9 175.3 373.2C175 373.4 174.6 373.8 174 374.2C172.9 375 171.4 376.1 169.7 377.2C168 378.3 166.4 379.3 165.2 379.9C164.6 380.2 164.1 380.5 163.8 380.7C163.3 380.7 163.1 380.8 163.1 380.8Z" fill="#E0E0E0"/>
<path d="M171.5 390.5H156L161.1 428.8H166.5L171.5 390.5Z" fill="#E0E0E0"/>
<path d="M156.8 395.2C156.8 395.2 156.8 395.3 156.9 395.3C157 395.4 157.1 395.5 157.3 395.6C157.7 395.8 158.3 395.8 158.9 395.4C159.5 395.1 160.1 394.4 160.9 394.1C161.7 393.8 162.8 393.8 163.8 394.2C164.8 394.5 165.7 395 166.5 395.5C167.3 396 168 396.4 168.7 396.7C169.3 397 169.9 397.1 170.3 397.2C170.5 397.2 170.6 397.2 170.8 397.2C170.9 397.2 171 397.2 171 397.2C171 397.1 170.1 397.2 168.9 396.6C168.3 396.3 167.6 395.9 166.8 395.4C166 394.9 165.1 394.4 164.1 394.1C163.1 393.8 162 393.7 161.1 394.1C160.7 394.3 160.3 394.5 160 394.8C159.7 395.1 159.4 395.3 159.1 395.5C158.5 395.9 157.9 395.9 157.6 395.8C156.9 395.4 156.8 395.2 156.8 395.2Z" fill="#F5F5F5"/>
<path d="M157.4 402.2C157.4 402.2 157.5 402 157.8 401.8C158 401.6 158.5 401.2 159 401C159.6 400.8 160.3 400.6 161.2 400.7C162 400.7 162.9 400.9 163.9 401.1C164.9 401.3 165.8 401.3 166.7 401.2C167.6 401.1 168.3 400.8 168.9 400.6C169.5 400.3 169.9 400 170.2 399.8C170.5 399.6 170.6 399.4 170.6 399.4C170.6 399.4 170 399.9 168.8 400.4C168.2 400.6 167.5 400.9 166.7 401C165.9 401.1 165 401 164 400.9C163 400.7 162.1 400.6 161.3 400.5C160.4 400.5 159.7 400.6 159.1 400.9C158.5 401.1 158.1 401.5 157.9 401.8C157.8 401.9 157.7 402.1 157.7 402.1C157.4 402.2 157.4 402.2 157.4 402.2Z" fill="#F5F5F5"/>
<path d="M169.8 406C169.8 406 169.7 405.9 169.4 405.8C169.1 405.7 168.7 405.6 168.1 405.5C167.5 405.5 166.9 405.5 166.2 405.6C165.5 405.7 164.7 405.9 163.9 406.1C163.1 406.3 162.3 406.4 161.6 406.4C160.9 406.4 160.3 406.2 159.8 406C158.8 405.6 158.4 404.9 158.4 405C158.4 405 158.5 405.2 158.7 405.4C158.9 405.6 159.2 405.9 159.8 406.2C160.3 406.4 161 406.6 161.7 406.7C162.4 406.7 163.3 406.6 164.1 406.5C164.9 406.3 165.7 406.1 166.4 406C167.1 405.9 167.8 405.8 168.3 405.8C169.1 405.7 169.8 406.1 169.8 406Z" fill="#F5F5F5"/>
<path d="M158.7 411.3C158.7 411.3 159.3 411 160.2 411.1C160.7 411.2 161.2 411.4 161.8 411.7C162.4 412 163.1 412.2 163.8 412.3C165.3 412.4 166.7 412 167.5 411.4C167.9 411.1 168.2 410.9 168.4 410.7C168.6 410.5 168.7 410.4 168.7 410.4C168.7 410.4 168.3 410.8 167.4 411.3C166.6 411.8 165.3 412.2 163.8 412.1C162.3 412 161.2 411.1 160.2 411C159.7 410.9 159.3 411 159 411.1C158.9 411.2 158.7 411.3 158.7 411.3Z" fill="#F5F5F5"/>
<path d="M159.6 418.7C159.6 418.7 160.1 418.7 160.9 418.4C161.7 418.1 162.6 417.5 163.8 417.1C164.4 416.9 164.9 416.8 165.4 416.8C165.9 416.8 166.4 416.9 166.7 417.1C167.4 417.5 167.6 418 167.7 417.9C167.7 417.9 167.7 417.8 167.6 417.6C167.5 417.4 167.2 417.2 166.9 416.9C166.5 416.7 166 416.5 165.5 416.5C164.9 416.5 164.3 416.6 163.8 416.8C162.6 417.3 161.7 417.9 161 418.2C160.1 418.6 159.6 418.7 159.6 418.7Z" fill="#F5F5F5"/>
<path d="M160.4 422.1C160.4 422.1 160.8 422.3 161.4 422.4C162 422.6 162.9 422.7 163.9 422.8C164.9 422.9 165.8 422.9 166.4 422.9C167 422.9 167.4 422.8 167.4 422.8C167.4 422.7 165.8 422.8 163.9 422.6C161.9 422.4 160.4 422.1 160.4 422.1Z" fill="#F5F5F5"/>
<path d="M621.9 430.2C621.9 430.3 483.6 430.5 313 430.5C142.4 430.5 4.1001 430.4 4.1001 430.2C4.1001 430.1 142.4 429.9 313 429.9C483.6 429.9 621.9 430 621.9 430.2Z" fill="#263238"/>
<path d="M316.8 284.1H308.8V430.2H316.8V284.1Z" fill="#263238"/>
<path d="M255.1 430.2L310.7 376.7L314.7 380.2L262.9 430.2H255.1Z" fill="#263238"/>
<path d="M370.3 430.1L314.8 376.7L310.8 380.2L362.6 430.2L370.3 430.1Z" fill="#263238"/>
<path d="M493.5 47.1997H134.4V308.9H493.5V47.1997Z" fill="white"/>
<path d="M493.4 308.9C493.4 307.1 493.3 205.9 493.2 47.1997L493.4 47.3997C392.7 47.3997 268.5 47.3997 134.4 47.3997L134.7 47.0997C134.7 141 134.7 230 134.7 308.8L134.5 308.6C346.8 308.8 491.3 308.9 493.4 308.9C491.3 308.9 346.8 309 134.3 309.1H134.1V308.9C134.1 230.1 134.1 141.1 134.1 47.1997V46.8997H134.4C268.5 46.8997 392.7 46.8997 493.4 46.8997H493.6V47.0997C493.5 205.9 493.4 307.2 493.4 308.9Z" fill="#263238"/>
<path d="M180.2 74.4997H177.2V73.6997H184.2V74.4997H181.2V82.3997H180.3V74.4997H180.2Z" fill="#263238"/>
<path d="M184.8 77.9996C184.8 75.4996 186.7 73.5996 189.3 73.5996C191.9 73.5996 193.8 75.4996 193.8 77.9996C193.8 80.4996 191.9 82.3996 189.3 82.3996C186.7 82.3996 184.8 80.5996 184.8 77.9996ZM192.9 77.9996C192.9 75.8996 191.4 74.3996 189.3 74.3996C187.2 74.3996 185.7 75.8996 185.7 77.9996C185.7 80.0996 187.3 81.5996 189.3 81.5996C191.4 81.5996 192.9 80.0996 192.9 77.9996Z" fill="#263238"/>
<path d="M199.1 73.6997H202.6C205.4 73.6997 207.2 75.4997 207.2 77.9997C207.2 80.4997 205.3 82.2997 202.6 82.2997H199.1V73.6997ZM202.6 81.5997C204.9 81.5997 206.4 80.0997 206.4 78.0997C206.4 75.9997 204.9 74.5997 202.6 74.5997H200V81.6997H202.6V81.5997Z" fill="#263238"/>
<path d="M208.6 77.9996C208.6 75.4996 210.5 73.5996 213.1 73.5996C215.7 73.5996 217.6 75.4996 217.6 77.9996C217.6 80.4996 215.7 82.3996 213.1 82.3996C210.5 82.3996 208.6 80.5996 208.6 77.9996ZM216.7 77.9996C216.7 75.8996 215.2 74.3996 213.1 74.3996C211 74.3996 209.5 75.8996 209.5 77.9996C209.5 80.0996 211.1 81.5996 213.1 81.5996C215.2 81.5996 216.7 80.0996 216.7 77.9996Z" fill="#263238"/>
<path d="M307 73.6997L304.1 82.2997H303.1L300.6 74.8997L298.1 82.2997H297.1L294.2 73.6997H295.1L297.6 81.0997L300.2 73.6997H301.1L303.6 81.1997L306.1 73.6997H307Z" fill="#263238"/>
<path d="M307.8 77.9996C307.8 75.4996 309.7 73.5996 312.3 73.5996C314.9 73.5996 316.8 75.4996 316.8 77.9996C316.8 80.4996 314.9 82.3996 312.3 82.3996C309.7 82.3996 307.8 80.5996 307.8 77.9996ZM316 77.9996C316 75.8996 314.5 74.3996 312.4 74.3996C310.3 74.3996 308.8 75.8996 308.8 77.9996C308.8 80.0996 310.4 81.5996 312.4 81.5996C314.4 81.5996 316 80.0996 316 77.9996Z" fill="#263238"/>
<path d="M324.8 82.3997L322.8 79.5997C322.6 79.5997 322.4 79.5997 322.1 79.5997H319.8V82.2997H318.9V73.6997H322.1C324.3 73.6997 325.6 74.7997 325.6 76.6997C325.6 78.0997 324.9 78.9997 323.6 79.3997L325.7 82.3997H324.8V82.3997ZM324.8 76.6997C324.8 75.2997 323.9 74.4997 322.2 74.4997H319.9V78.7997H322.2C323.9 78.7997 324.8 77.9997 324.8 76.6997Z" fill="#263238"/>
<path d="M330.5 78.2996L328.7 80.0996V82.3996H327.8V73.7996H328.7V78.9996L333.8 73.7996H334.8L331.1 77.6996L335.1 82.3996H334L330.5 78.2996Z" fill="#263238"/>
<path d="M403.1 73.6997H406.6C409.4 73.6997 411.2 75.4997 411.2 77.9997C411.2 80.4997 409.3 82.2997 406.6 82.2997H403.1V73.6997ZM406.6 81.5997C408.9 81.5997 410.4 80.0997 410.4 78.0997C410.4 75.9997 408.9 74.5997 406.6 74.5997H404V81.6997H406.6V81.5997Z" fill="#263238"/>
<path d="M412.6 77.9996C412.6 75.4996 414.5 73.5996 417.1 73.5996C419.7 73.5996 421.6 75.4996 421.6 77.9996C421.6 80.4996 419.7 82.3996 417.1 82.3996C414.5 82.3996 412.6 80.5996 412.6 77.9996ZM420.7 77.9996C420.7 75.8996 419.2 74.3996 417.1 74.3996C415 74.3996 413.5 75.8996 413.5 77.9996C413.5 80.0996 415.1 81.5996 417.1 81.5996C419.2 81.5996 420.7 80.0996 420.7 77.9996Z" fill="#263238"/>
<path d="M430.9 73.6997V82.2997H430.1L424.5 75.2997V82.2997H423.6V73.6997H424.4L430 80.6997V73.6997H430.9Z" fill="#263238"/>
<path d="M439.8 81.5996V82.3996H433.7V73.7996H439.6V74.5996H434.6V77.6996H439.1V78.4996H434.6V81.6996H439.8V81.5996Z" fill="#263238"/>
<path d="M479.9 106.5C479.9 106.6 407.2 106.8 317.6 106.8C227.9 106.8 155.3 106.7 155.3 106.5C155.3 106.3 228 106.2 317.6 106.2C407.3 106.3 479.9 106.4 479.9 106.5Z" fill="#263238"/>
<path d="M256 308.9C255.9 308.9 255.7 252.7 255.7 183.4C255.7 114.1 255.8 57.8997 256 57.8997C256.1 57.8997 256.3 114.1 256.3 183.4C256.3 252.7 256.1 308.9 256 308.9Z" fill="#263238"/>
<path d="M375.1 308.9C375 308.9 374.8 252.7 374.8 183.4C374.8 114.1 374.9 57.8997 375.1 57.8997C375.3 57.8997 375.4 114.1 375.4 183.4C375.4 252.7 375.2 308.9 375.1 308.9Z" fill="#263238"/>
<path d="M196.9 116.4C196.9 116.4 194.4 139.3 197.6 151.8L228.2 150.5C228.2 150.5 221.6 127.9 225.7 117.9L196.9 116.4Z" fill="#E0E0E0"/>
<path d="M156.5 129C156.5 129 154 151.9 157.2 164.4L187.8 163.1C187.8 163.1 181.2 140.5 185.3 130.5L156.5 129Z" fill="#E0E0E0"/>
<path d="M196.9 116.4C196.9 116.4 197.1 141.1 198.4 148.6L229.4 147.1C229.4 147.1 226.7 122.8 227.7 116.3H196.9V116.4Z" fill="black"/>
<path d="M212.2 119.9C212.2 119.9 212.2 119.9 212.3 119.9C212.4 119.9 212.5 119.9 212.6 119.9C212.9 119.9 213.3 119.9 213.9 120C214.5 120.1 215.1 120.2 215.9 120.6C216.6 120.9 217.4 121.5 218 122.3C218.6 123.1 219.2 124.1 219.5 125.3C219.8 126.5 219.6 127.8 219.2 129.1C219 129.7 218.7 130.4 218.3 131C218 131.6 217.6 132.3 217.3 132.9C216.7 134.3 216.3 135.7 216 137.3V137.4H215.9C214.9 137.4 213.9 137.4 212.8 137.4C211.7 137.4 210.6 137.4 209.6 137.5H209.5V137.4C209.4 135.8 208.7 134.4 208 133.2C207.6 132.6 207.2 132 206.8 131.4C206.4 130.8 206 130.2 205.7 129.6C205.1 128.4 205 127 205.2 125.8C205.4 124.6 205.8 123.6 206.4 122.7C207 121.9 207.7 121.3 208.4 120.9C209.1 120.5 209.8 120.3 210.3 120.2C210.8 120.1 211.3 120 211.6 120C211.7 120 211.9 120 211.9 120C212.2 119.9 212.2 119.9 212.2 119.9C212.2 119.9 212.2 119.9 212.1 119.9C212 119.9 211.9 119.9 211.8 119.9C211.5 119.9 211.1 120 210.6 120.1C210.1 120.2 209.4 120.5 208.7 120.9C208 121.3 207.3 121.9 206.8 122.7C206.2 123.5 205.9 124.6 205.7 125.7C205.5 126.9 205.6 128.2 206.2 129.4C206.5 130 206.9 130.5 207.3 131.2C207.7 131.8 208.1 132.4 208.5 133C209.2 134.3 210 135.7 210 137.3L209.9 137.2C210.9 137.2 212 137.2 213.1 137.1C214.1 137.1 215.2 137.1 216.2 137.1L216.1 137.2C216.3 135.6 216.8 134.1 217.4 132.7C217.7 132 218.1 131.4 218.4 130.8C218.7 130.2 219 129.6 219.3 128.9C219.7 127.6 219.9 126.3 219.6 125.2C219.3 124 218.8 123.1 218.2 122.3C217.6 121.5 216.8 121 216.1 120.6C215.4 120.2 214.7 120.1 214.2 120C213.6 119.9 213.2 119.9 212.9 119.9C212.8 119.9 212.7 119.9 212.6 119.9C212.2 119.9 212.2 119.9 212.2 119.9Z" fill="white"/>
<path d="M213.8 137.1C213.8 136.9 213.8 136.8 213.7 136.7C213.7 136.4 213.6 136.1 213.5 135.6C213.4 134.6 213.2 133.2 213 131.5C213 131.1 212.9 130.6 212.9 130.1C212.9 129.6 212.9 129.1 212.9 128.6C212.9 128.1 213 127.6 213.2 127C213.4 126.5 213.8 126 214.4 125.8C214.9 125.6 215.6 125.7 216.1 126.1C216.3 126.3 216.5 126.6 216.5 126.9C216.5 127.2 216.4 127.5 216.2 127.8C216 128.1 215.7 128.3 215.5 128.4C215.2 128.5 214.9 128.6 214.6 128.7C214 128.8 213.3 128.9 212.6 128.9C211.9 128.9 211.3 128.9 210.6 128.8C210.3 128.7 210 128.7 209.7 128.5C209.4 128.4 209.1 128.2 208.9 127.9C208.7 127.7 208.5 127.4 208.5 127.1C208.4 126.8 208.5 126.5 208.6 126.2C208.7 125.9 209 125.7 209.2 125.6C209.5 125.5 209.8 125.5 210.1 125.6C210.4 125.7 210.6 125.9 210.8 126.2C211 126.4 211.1 126.7 211.1 127C211.2 127.5 211.2 128.1 211.3 128.6C211.4 129.6 211.4 130.6 211.4 131.4C211.5 133.1 211.6 134.5 211.6 135.5C211.6 136 211.6 136.4 211.7 136.6C211.7 136.7 211.7 136.8 211.7 136.9C211.7 137 211.7 137 211.7 137C211.7 137 211.7 137 211.7 136.9C211.7 136.8 211.7 136.7 211.7 136.6C211.7 136.3 211.7 136 211.6 135.5C211.5 134.5 211.5 133.1 211.4 131.4C211.4 130.5 211.3 129.6 211.2 128.6C211.2 128.1 211.2 127.6 211 127C210.9 126.7 210.8 126.5 210.7 126.3C210.5 126.1 210.3 125.9 210.1 125.8C209.8 125.7 209.5 125.7 209.3 125.8C209 125.9 208.8 126.1 208.7 126.4C208.6 126.7 208.5 127 208.6 127.3C208.7 127.6 208.8 127.9 209 128.1C209.4 128.6 210 128.8 210.7 128.9C211.3 129 212 129 212.6 129C213.3 129 213.9 128.9 214.5 128.8C214.8 128.7 215.1 128.6 215.4 128.5C215.7 128.4 215.9 128.2 216.1 127.9C216.3 127.7 216.4 127.4 216.4 127.1C216.4 126.8 216.3 126.5 216.1 126.3C215.7 125.9 215 125.8 214.5 126C214 126.2 213.6 126.7 213.4 127.1C213.2 127.6 213.1 128.1 213.1 128.6C213.1 129.1 213.1 129.6 213.1 130.1C213.1 130.6 213.1 131 213.2 131.5C213.3 133.2 213.5 134.6 213.7 135.6C213.8 136.1 213.8 136.5 213.9 136.7C213.8 136.9 213.8 137 213.8 137.1Z" fill="white"/>
<path d="M209.7 137.3C209.7 137.3 209.7 137.7 209.8 138.3C209.8 139 209.9 139.9 209.9 141V140.9C210.5 141.6 211.2 142.4 212 143.3H211.9C212.7 143.3 213.5 143.2 214.3 143.2L214.2 143.3C214.6 142.8 215 142.3 215.4 141.8C215.6 141.6 215.8 141.3 216 141.1V141.2C216 139.8 215.9 138.4 215.9 137.2L216 137.3C214.2 137.3 212.7 137.3 211.5 137.3C211 137.3 210.6 137.3 210.2 137.3C209.9 137.3 209.7 137.3 209.7 137.3C209.7 137.3 209.8 137.3 210.1 137.3C210.5 137.3 210.9 137.3 211.4 137.2C212.6 137.2 214.2 137.1 216 137H216.1V137.1C216.1 138.3 216.2 139.7 216.2 141.1V141.2C216 141.4 215.8 141.7 215.6 141.9C215.2 142.4 214.8 142.9 214.4 143.4H214.3C213.5 143.4 212.6 143.5 211.9 143.5H211.8C211.1 142.6 210.4 141.8 209.8 141.1C209.8 140 209.8 139.1 209.8 138.3C209.7 137.6 209.7 137.3 209.7 137.3Z" fill="white"/>
<path d="M215.9 140.8C215.9 140.8 215.8 140.8 215.7 140.7C215.6 140.6 215.3 140.5 215.1 140.5C214.6 140.3 213.8 140.1 212.9 140.2C212 140.2 211.3 140.4 210.7 140.7C210.4 140.8 210.2 140.9 210.1 141C210 141.1 209.9 141.1 209.9 141.1C209.9 141.1 210 141 210.1 141C210.2 140.9 210.4 140.8 210.7 140.7C211.2 140.5 212 140.2 212.9 140.2C213.8 140.2 214.6 140.4 215.1 140.6C215.4 140.7 215.6 140.8 215.7 140.9C215.9 140.7 215.9 140.8 215.9 140.8Z" fill="white"/>
<path d="M215.9 139.8C215.9 139.8 215.8 139.8 215.7 139.7C215.6 139.6 215.3 139.5 215.1 139.5C214.6 139.3 213.8 139.1 212.9 139.2C212 139.2 211.3 139.4 210.7 139.7C210.4 139.8 210.2 139.9 210.1 140C210 140.1 209.9 140.1 209.9 140.1C209.9 140.1 210 140 210.1 140C210.2 139.9 210.4 139.8 210.7 139.7C211.2 139.5 212 139.2 212.9 139.2C213.8 139.2 214.6 139.4 215.1 139.6C215.4 139.7 215.6 139.8 215.7 139.9C215.9 139.8 215.9 139.8 215.9 139.8Z" fill="white"/>
<path d="M215.9 138.9C215.9 138.9 215.8 138.9 215.7 138.8C215.6 138.7 215.3 138.6 215.1 138.6C214.6 138.4 213.8 138.2 212.9 138.3C212 138.3 211.3 138.5 210.7 138.8C210.4 138.9 210.2 139 210.1 139.1C210 139.2 209.9 139.2 209.9 139.2C209.9 139.2 210 139.1 210.1 139.1C210.2 139 210.4 138.9 210.7 138.8C211.2 138.6 212 138.3 212.9 138.3C213.8 138.3 214.6 138.5 215.1 138.7C215.4 138.8 215.6 138.9 215.7 139C215.8 138.8 215.9 138.9 215.9 138.9Z" fill="white"/>
<path d="M156.3 129C156.3 129 156.5 153.7 157.8 161.2L188.8 159.7C188.8 159.7 186.1 135.4 187.1 128.9H156.3V129Z" fill="#FF9700"/>
<path d="M172.016 140.301C177.75 139.956 182.39 139.543 182.38 139.377C182.37 139.212 177.714 139.357 171.98 139.702C166.247 140.047 161.607 140.461 161.617 140.626C161.627 140.792 166.283 140.646 172.016 140.301Z" fill="white"/>
<path d="M172.021 145.601C177.754 145.257 182.394 144.843 182.384 144.678C182.374 144.512 177.718 144.658 171.984 145.003C166.251 145.347 161.611 145.761 161.621 145.926C161.631 146.092 166.287 145.946 172.021 145.601Z" fill="white"/>
<path d="M171.216 150.402C174.469 150.206 177.098 149.914 177.088 149.748C177.078 149.583 174.433 149.608 171.18 149.803C167.928 149.999 165.299 150.292 165.309 150.457C165.319 150.622 167.964 150.598 171.216 150.402Z" fill="white"/>
<path d="M213.9 155.8C213.9 155.8 211.4 178.7 214.6 191.2L245.2 189.9C245.2 189.9 238.6 167.3 242.7 157.3L213.9 155.8Z" fill="#EBEBEB"/>
<path d="M214.1 155C214.1 155 214.3 179.7 215.6 187.2L246.6 185.7C246.6 185.7 243.9 161.4 244.9 154.9H214.1V155Z" fill="#FF9700"/>
<path d="M229.818 166.298C235.552 165.954 240.191 165.54 240.181 165.375C240.171 165.209 235.516 165.355 229.782 165.7C224.049 166.044 219.409 166.458 219.419 166.623C219.429 166.789 224.085 166.643 229.818 166.298Z" fill="white"/>
<path d="M229.822 171.599C235.556 171.254 240.195 170.84 240.185 170.675C240.175 170.51 235.52 170.655 229.786 171C224.053 171.345 219.413 171.759 219.423 171.924C219.433 172.089 224.089 171.944 229.822 171.599Z" fill="white"/>
<path d="M229.018 176.399C232.271 176.204 234.899 175.911 234.889 175.746C234.879 175.58 232.235 175.605 228.982 175.801C225.729 175.996 223.101 176.289 223.111 176.454C223.121 176.62 225.765 176.595 229.018 176.399Z" fill="white"/>
<path d="M207.6 251.7C207.6 251.7 205.1 274.6 208.3 287.1L238.9 285.8C238.9 285.8 232.3 263.2 236.4 253.2L207.6 251.7Z" fill="#EBEBEB"/>
<path d="M207.7 250.9C207.7 250.9 207.9 275.6 209.2 283.1L240.2 281.6C240.2 281.6 237.5 257.3 238.5 250.8H207.7V250.9Z" fill="#FF9700"/>
<path d="M223.417 262.203C229.151 261.858 233.791 261.444 233.781 261.279C233.771 261.113 229.115 261.259 223.381 261.604C217.648 261.948 213.008 262.362 213.018 262.527C213.028 262.693 217.684 262.547 223.417 262.203Z" fill="white"/>
<path d="M223.421 267.503C229.155 267.158 233.795 266.744 233.785 266.579C233.775 266.414 229.119 266.559 223.385 266.904C217.652 267.249 213.012 267.662 213.022 267.828C213.032 267.993 217.688 267.848 223.421 267.503Z" fill="white"/>
<path d="M222.617 272.303C225.87 272.108 228.499 271.815 228.489 271.65C228.479 271.484 225.834 271.509 222.581 271.705C219.329 271.9 216.7 272.193 216.71 272.358C216.72 272.524 219.365 272.499 222.617 272.303Z" fill="white"/>
<path d="M164.6 233.2C164.6 233.2 162.1 256.1 165.3 268.6L195.9 267.3C195.9 267.3 189.3 244.7 193.4 234.7L164.6 233.2Z" fill="#EBEBEB"/>
<path d="M164.7 232.4C164.7 232.4 164.9 257.1 166.2 264.6L197.2 263.1C197.2 263.1 194.5 238.8 195.5 232.3H164.7V232.4Z" fill="#FF9700"/>
<path d="M180.418 243.703C186.151 243.358 190.791 242.945 190.781 242.779C190.771 242.614 186.115 242.759 180.382 243.104C174.648 243.449 170.009 243.863 170.019 244.028C170.028 244.194 174.684 244.048 180.418 243.703Z" fill="white"/>
<path d="M180.522 248.998C186.255 248.653 190.895 248.239 190.885 248.074C190.875 247.909 186.219 248.054 180.486 248.399C174.752 248.744 170.112 249.157 170.122 249.323C170.132 249.488 174.788 249.343 180.522 248.998Z" fill="white"/>
<path d="M179.717 253.798C182.97 253.603 185.599 253.31 185.589 253.145C185.579 252.979 182.934 253.004 179.681 253.199C176.429 253.395 173.8 253.688 173.81 253.853C173.82 254.019 176.465 253.994 179.717 253.798Z" fill="white"/>
<path d="M324.1 236.6C324.1 236.6 321.6 259.5 324.8 272L355.4 270.7C355.4 270.7 348.8 248.1 352.9 238.1L324.1 236.6Z" fill="#EBEBEB"/>
<path d="M324.2 235.8C324.2 235.8 324.4 260.5 325.7 268L356.7 266.5C356.7 266.5 354 242.2 355 235.7H324.2V235.8Z" fill="#FF9700"/>
<path d="M339.918 247.1C345.651 246.755 350.291 246.342 350.281 246.176C350.271 246.011 345.615 246.156 339.882 246.501C334.148 246.846 329.509 247.26 329.519 247.425C329.529 247.59 334.184 247.445 339.918 247.1Z" fill="white"/>
<path d="M339.922 252.401C345.655 252.056 350.295 251.642 350.285 251.477C350.275 251.311 345.619 251.457 339.886 251.802C334.153 252.146 329.513 252.56 329.523 252.726C329.533 252.891 334.189 252.745 339.922 252.401Z" fill="white"/>
<path d="M339.118 257.201C342.37 257.005 344.999 256.713 344.989 256.547C344.979 256.382 342.334 256.406 339.082 256.602C335.829 256.798 333.2 257.09 333.21 257.256C333.22 257.421 335.865 257.397 339.118 257.201Z" fill="white"/>
<path d="M208.2 179.9C208.2 179.9 205.1 202.7 198.9 214.1L169.6 205.4C169.6 205.4 181.4 185.1 179.9 174.4L208.2 179.9Z" fill="#EBEBEB"/>
<path d="M208.3 179.2C208.3 179.2 202.1 203.1 199.1 210.1L169.4 201.2C169.4 201.2 177.9 178.3 178.5 171.7L208.3 179.2Z" fill="black"/>
<path d="M190.446 185.796C184.967 184.073 180.486 182.805 180.436 182.963C180.386 183.121 184.787 184.646 190.266 186.369C195.745 188.092 200.227 189.361 200.277 189.203C200.327 189.045 195.925 187.52 190.446 185.796Z" fill="white"/>
<path d="M189.203 190.856C183.724 189.133 179.242 187.864 179.193 188.022C179.143 188.18 183.544 189.705 189.023 191.428C194.502 193.151 198.984 194.42 199.034 194.262C199.083 194.104 194.682 192.579 189.203 190.856Z" fill="white"/>
<path d="M188.781 195.786C185.673 194.808 183.113 194.144 183.063 194.302C183.014 194.46 185.493 195.381 188.601 196.358C191.71 197.336 194.27 198 194.319 197.842C194.369 197.684 191.89 196.763 188.781 195.786Z" fill="white"/>
<path d="M240.3 204C240.3 204 242.8 226.9 239.6 239.4L209 238C209 238 215.6 215.4 211.5 205.4L240.3 204Z" fill="#EBEBEB"/>
<path d="M209 198.6C209 198.6 206.9 226 205.2 231.3L233 234.2L237.2 230.2C237.2 230.2 239.9 210.1 239.5 203.6L209 198.6Z" fill="black"/>
<path d="M233.7 230L233.1 234.2L237.3 230.2L233.7 230Z" fill="#263238"/>
<path d="M234 213.2C234 213.3 232.8 213.1 230.9 212.8C228.8 212.5 226.3 212.1 223.4 211.7C220.5 211.3 218 211 215.9 210.8C214 210.6 212.8 210.4 212.8 210.3C212.8 210.2 214 210.3 215.9 210.4C217.8 210.5 220.5 210.8 223.4 211.2C226.3 211.6 229 212 230.9 212.4C232.9 212.8 234.1 213.1 234 213.2Z" fill="white"/>
<path d="M232.8 218.9C232.8 219 231.6 218.9 229.8 218.8C227.9 218.7 225.4 218.4 222.6 218.1C219.8 217.7 217.2 217.3 215.4 217C213.6 216.7 212.4 216.4 212.5 216.3C212.5 216.2 213.7 216.4 215.5 216.6C217.5 216.9 220 217.2 222.7 217.5C225.4 217.8 227.9 218.1 229.9 218.4C231.7 218.7 232.8 218.8 232.8 218.9Z" fill="white"/>
<path d="M221.746 223.213C226.891 223.904 231.08 224.331 231.102 224.167C231.124 224.003 226.971 223.31 221.826 222.619C216.68 221.928 212.491 221.501 212.469 221.665C212.447 221.829 216.601 222.522 221.746 223.213Z" fill="white"/>
<path d="M466.1 233C466.1 233 468.6 255.9 465.4 268.4L434.8 267.1C434.8 267.1 441.4 244.5 437.3 234.5L466.1 233Z" fill="#EBEBEB"/>
<path d="M434.8 227.6C434.8 227.6 432.7 255 431 260.3L458.8 263.2L463 259.2C463 259.2 465.7 239.1 465.3 232.6L434.8 227.6Z" fill="black"/>
<path d="M459.5 259L458.9 263.2L463.1 259.299L459.5 259Z" fill="#263238"/>
<path d="M459.8 242.2C459.8 242.3 458.6 242.1 456.7 241.8C454.6 241.5 452.1 241.1 449.2 240.7C446.3 240.3 443.8 240 441.7 239.8C439.8 239.6 438.6 239.4 438.6 239.3C438.6 239.2 439.8 239.3 441.7 239.4C443.6 239.5 446.3 239.8 449.2 240.2C452.1 240.6 454.8 241 456.7 241.4C458.7 241.9 459.8 242.2 459.8 242.2Z" fill="white"/>
<path d="M458.6 247.9C458.6 248 457.4 247.9 455.6 247.8C453.7 247.7 451.2 247.4 448.4 247.1C445.6 246.7 443 246.3 441.2 246C439.4 245.7 438.2 245.4 438.3 245.3C438.3 245.2 439.5 245.4 441.3 245.6C443.3 245.9 445.8 246.2 448.5 246.5C451.2 246.8 453.7 247.1 455.7 247.4C457.5 247.7 458.6 247.9 458.6 247.9Z" fill="white"/>
<path d="M447.436 252.313C452.581 253.004 456.77 253.431 456.792 253.267C456.814 253.103 452.661 252.409 447.516 251.718C442.371 251.027 438.182 250.6 438.16 250.765C438.138 250.929 442.291 251.622 447.436 252.313Z" fill="white"/>
<path d="M429.5 116.4C429.5 116.4 432 139.3 428.8 151.8L398.2 150.5C398.2 150.5 404.8 127.9 400.7 117.9L429.5 116.4Z" fill="#EBEBEB"/>
<path d="M398.2 111C398.2 111 396.1 138.4 394.4 143.7L422.2 146.6L426.4 142.6C426.4 142.6 429.1 122.5 428.7 116L398.2 111Z" fill="black"/>
<path d="M422.9 142.4L422.3 146.6L426.5 142.6L422.9 142.4Z" fill="#263238"/>
<path d="M423.2 125.6C423.2 125.7 422 125.5 420.1 125.2C418 124.9 415.5 124.5 412.6 124.1C409.7 123.7 407.2 123.4 405.1 123.2C403.2 123 402 122.8 402 122.7C402 122.6 403.2 122.7 405.1 122.8C407 122.9 409.7 123.2 412.6 123.6C415.5 124 418.2 124.4 420.1 124.8C422.1 125.2 423.3 125.5 423.2 125.6Z" fill="white"/>
<path d="M422 131.3C422 131.4 420.8 131.3 419 131.2C417.1 131.1 414.6 130.8 411.8 130.5C409 130.1 406.4 129.7 404.6 129.4C402.8 129.1 401.6 128.8 401.7 128.7C401.7 128.6 402.9 128.8 404.7 129C406.7 129.3 409.2 129.6 411.9 129.9C414.6 130.2 417.1 130.5 419.1 130.8C420.9 131.1 422 131.2 422 131.3Z" fill="white"/>
<path d="M410.952 135.621C416.097 136.312 420.286 136.739 420.308 136.575C420.33 136.411 416.177 135.717 411.031 135.026C405.886 134.335 401.697 133.908 401.675 134.072C401.653 134.237 405.806 134.93 410.952 135.621Z" fill="white"/>
<path d="M311.8 126.3C311.8 126.3 314.3 149.2 311.1 161.7L280.5 160.4C280.5 160.4 287.1 137.8 283 127.8L311.8 126.3Z" fill="#EBEBEB"/>
<path d="M280.5 121C280.5 121 278.4 148.4 276.7 153.7L304.5 156.6L308.7 152.6C308.7 152.6 311.4 132.5 311 126L280.5 121Z" fill="black"/>
<path d="M305.2 152.4L304.6 156.6L308.8 152.6L305.2 152.4Z" fill="#263238"/>
<path d="M305.6 135.6C305.6 135.7 304.4 135.5 302.5 135.2C300.4 134.9 297.9 134.5 295 134.1C292.1 133.7 289.6 133.4 287.5 133.2C285.6 133 284.4 132.8 284.4 132.7C284.4 132.6 285.6 132.7 287.5 132.8C289.4 132.9 292.1 133.2 295 133.6C297.9 134 300.6 134.4 302.5 134.8C304.4 135.2 305.6 135.5 305.6 135.6Z" fill="white"/>
<path d="M304.3 141.3C304.3 141.4 303.1 141.3 301.3 141.2C299.4 141.1 296.9 140.8 294.1 140.5C291.3 140.1 288.7 139.7 286.9 139.4C285.1 139.1 283.9 138.8 284 138.7C284 138.6 285.2 138.8 287 139C289 139.3 291.5 139.6 294.2 139.9C296.9 140.2 299.4 140.5 301.4 140.8C303.2 141.1 304.4 141.2 304.3 141.3Z" fill="white"/>
<path d="M293.248 145.616C298.393 146.307 302.582 146.734 302.604 146.57C302.626 146.406 298.473 145.712 293.328 145.021C288.182 144.33 283.993 143.903 283.971 144.068C283.949 144.232 288.102 144.925 293.248 145.616Z" fill="white"/>
<path d="M270.8 171.5L273.2 227.5L343.1 228.3L339.9 172.3L270.8 171.5Z" fill="#EBEBEB"/>
<path d="M339.4 171.1H270V223.5H339.4V171.1Z" fill="white"/>
<path d="M339.4 223.5C339.4 223.5 339.4 223.2 339.4 222.5C339.4 221.8 339.4 220.9 339.4 219.7C339.4 217.2 339.4 213.7 339.3 209.1C339.3 200 339.2 186.9 339.2 171.1L339.4 171.3C319.8 171.3 295.8 171.3 270 171.3L270.3 171C270.3 189.8 270.3 207.7 270.3 223.4L270.1 223.2C290.6 223.2 307.9 223.3 320.1 223.3C326.2 223.3 331 223.3 334.3 223.4C335.9 223.4 337.2 223.4 338.1 223.4C338.5 223.4 338.8 223.4 339.1 223.4C339.3 223.5 339.4 223.5 339.4 223.5C339.4 223.5 339.3 223.5 339.1 223.5C338.9 223.5 338.6 223.5 338.1 223.5C337.2 223.5 336 223.5 334.4 223.5C331.1 223.5 326.3 223.5 320.2 223.6C308 223.6 290.6 223.7 270 223.7H269.8V223.5C269.8 207.8 269.8 189.9 269.8 171.1V170.8H270.1C295.9 170.8 319.9 170.8 339.5 170.8H339.7V171C339.7 186.9 339.6 200 339.6 209.2C339.6 213.7 339.6 217.3 339.5 219.8C339.5 221 339.5 221.9 339.5 222.6C339.4 223.2 339.4 223.5 339.4 223.5Z" fill="#263238"/>
<path d="M306.5 182.2H278.4V217.6H306.5V182.2Z" fill="white"/>
<path d="M306.5 217.6C306.5 217.6 306.5 217.5 306.5 217.4C306.5 217.3 306.5 217.1 306.5 216.9C306.5 216.4 306.5 215.8 306.5 215C306.5 213.3 306.5 210.8 306.4 207.7C306.4 201.5 306.3 192.7 306.3 182.2L306.5 182.4C298.1 182.4 288.5 182.4 278.4 182.4C278.3 182.5 278.9 181.9 278.7 182.1V182.2V182.4V182.7V183.3V184.5C278.7 185.3 278.7 186.1 278.7 186.9C278.7 188.5 278.7 190.1 278.7 191.7C278.7 194.8 278.7 197.9 278.7 200.9C278.7 206.8 278.7 212.4 278.7 217.5L278.5 217.3C286.9 217.3 293.9 217.4 298.9 217.4C301.3 217.4 303.3 217.4 304.6 217.5C305.2 217.5 305.7 217.5 306.1 217.5C306.3 217.6 306.5 217.6 306.5 217.6C306.5 217.6 306.3 217.6 306 217.6C305.6 217.6 305.1 217.6 304.5 217.6C303.2 217.6 301.3 217.6 298.8 217.7C293.8 217.7 286.8 217.8 278.3 217.8H278.1V217.6C278.1 212.5 278.1 207 278.1 201C278.1 198 278.1 195 278.1 191.8C278.1 190.2 278.1 188.6 278.1 187C278.1 186.2 278.1 185.4 278.1 184.6V183.4V182.8V182.5V182.3V182.2C277.9 182.4 278.4 181.9 278.4 181.9C288.5 181.9 298.1 181.9 306.5 181.9H306.7V182.1C306.7 192.6 306.6 201.5 306.6 207.8C306.6 210.9 306.6 213.3 306.5 215C306.5 215.8 306.5 216.4 306.5 216.9C306.5 217.4 306.5 217.6 306.5 217.6Z" fill="#263238"/>
<path d="M333.3 174.1H279.4V179.2H333.3V174.1Z" fill="white"/>
<path d="M333.3 179.2C333.3 179.2 333.3 179.1 333.3 178.8C333.3 178.5 333.3 178.2 333.3 177.8C333.3 176.9 333.3 175.7 333.2 174L333.3 174.1C324.2 174.2 303.5 174.3 279.4 174.3C279.9 173.8 279.5 174.2 279.7 174V174.1V174.3V174.6V175.3C279.7 175.7 279.7 176.2 279.7 176.6C279.7 177.5 279.7 178.3 279.7 179.1L279.4 178.8C294.5 178.8 307.9 178.9 317.6 178.9C322.4 178.9 326.3 179 329.1 179C330.4 179 331.5 179 332.2 179C332.5 179 332.8 179 333 179C333.2 179.2 333.3 179.2 333.3 179.2C333.3 179.2 333.2 179.2 333 179.2C332.8 179.2 332.5 179.2 332.2 179.2C331.5 179.2 330.4 179.2 329.1 179.2C326.4 179.2 322.5 179.2 317.7 179.3C307.9 179.3 294.5 179.4 279.3 179.4H279V179.1C279 178.3 279 177.4 279 176.6C279 176.2 279 175.7 279 175.3V174.6V174.3V174.1V174C279.1 173.9 278.7 174.3 279.3 173.7C303.4 173.7 324.1 173.8 333.2 173.9H333.3V174C333.3 175.6 333.3 176.9 333.2 177.8C333.2 178.2 333.2 178.5 333.2 178.8C333.3 179.1 333.3 179.2 333.3 179.2Z" fill="#263238"/>
<path d="M333.3 182.2H309.9V203.5H333.3V182.2Z" fill="white"/>
<path d="M333.3 203.6C333.3 203.6 333.3 203.5 333.3 203.2C333.3 202.9 333.3 202.5 333.3 202C333.3 200.9 333.3 199.5 333.2 197.6C333.2 193.8 333.1 188.5 333.1 182.2L333.3 182.4C326.5 182.4 318.5 182.4 309.9 182.4C309.8 182.5 310.4 181.9 310.2 182.1V182.2V182.4V182.8V183.5C310.2 184 310.2 184.5 310.2 184.9C310.2 185.9 310.2 186.8 310.2 187.7C310.2 189.6 310.2 191.4 310.2 193.2C310.2 196.8 310.2 200.2 310.2 203.3L310 203.1C316.9 203.1 322.7 203.2 326.9 203.2C328.9 203.2 330.5 203.2 331.7 203.3C332.2 203.3 332.7 203.3 333 203.3C333.2 203.6 333.3 203.6 333.3 203.6C333.3 203.6 333.2 203.6 332.9 203.6C332.6 203.6 332.2 203.6 331.7 203.6C330.6 203.6 329 203.6 327 203.7C322.8 203.7 317 203.8 310 203.8H309.8V203.6C309.8 200.5 309.8 197.1 309.8 193.5C309.8 191.7 309.8 189.9 309.8 188C309.8 187.1 309.8 186.1 309.8 185.2C309.8 184.7 309.8 184.2 309.8 183.8V183.1V182.7V182.5V182.4C309.6 182.6 310.1 182.1 310.1 182.1C318.7 182.1 326.7 182.1 333.5 182.1H333.7V182.3C333.7 188.7 333.6 194.1 333.6 197.9C333.6 199.7 333.6 201.2 333.5 202.2C333.5 202.7 333.5 203 333.5 203.3C333.4 203.5 333.3 203.6 333.3 203.6Z" fill="#263238"/>
<path d="M333.3 206.9H309.9V217.6H333.3V206.9Z" fill="white"/>
<path d="M333.3 217.6C333.3 217.6 333.3 217.3 333.3 216.8C333.3 216.3 333.3 215.5 333.3 214.6C333.3 212.7 333.2 210.1 333.2 206.8L333.4 207C327.3 207 319.1 207 310 207.1C309.8 207.3 310.3 206.8 310.3 206.8V206.9V207.1V207.5V208.2C310.3 208.7 310.3 209.1 310.3 209.6C310.3 210.5 310.3 211.4 310.3 212.3C310.3 214.1 310.3 215.8 310.3 217.5L310.1 217.3C316.8 217.3 322.6 217.4 326.8 217.4C328.8 217.4 330.5 217.5 331.7 217.5C332.2 217.5 332.7 217.5 333 217.5C333.2 217.6 333.3 217.6 333.3 217.6C333.3 217.6 333.2 217.6 332.9 217.6C332.6 217.6 332.1 217.6 331.6 217.6C330.4 217.6 328.8 217.6 326.8 217.7C322.6 217.7 316.7 217.8 309.9 217.8H309.7V217.6C309.7 215.9 309.7 214.2 309.7 212.4C309.7 211.5 309.7 210.6 309.7 209.7C309.7 209.2 309.7 208.8 309.7 208.3V207.6V207.2V207V207C309.6 207.1 310.2 206.5 310 206.7C319.1 206.7 327.3 206.8 333.4 206.8H333.6V207C333.6 210.3 333.5 213 333.5 214.9C333.5 215.8 333.5 216.5 333.5 217C333.4 217.4 333.3 217.7 333.3 217.6Z" fill="#263238"/>
<path d="M305.8 182.3C297.1 194.3 287.1 205.6 278.4 217.6Z" fill="white"/>
<path d="M278.4 217.6C278.4 217.6 278.7 217.1 279.4 216.1C280 215.2 281 213.8 282.2 212.2C284.6 208.9 288.1 204.5 291.9 199.7C295.8 194.9 299.3 190.5 301.8 187.3C303 185.8 304 184.5 304.7 183.5C305.4 182.6 305.8 182.1 305.8 182.1C305.8 182.1 305.5 182.6 304.8 183.6C304.2 184.5 303.2 185.9 302 187.5C299.6 190.8 296.1 195.2 292.3 200C288.4 204.8 284.9 209.2 282.4 212.4C281.2 213.9 280.2 215.2 279.5 216.2C278.8 217.2 278.4 217.7 278.4 217.6Z" fill="#263238"/>
<path d="M292.208 200.076C299.973 209.848 306.373 217.686 306.503 217.583C306.633 217.48 300.443 209.474 292.678 199.703C284.913 189.931 278.514 182.093 278.384 182.196C278.254 182.299 284.444 190.304 292.208 200.076Z" fill="#263238"/>
<path d="M268.8 186.7C271.23 186.7 273.2 184.73 273.2 182.3C273.2 179.87 271.23 177.9 268.8 177.9C266.37 177.9 264.4 179.87 264.4 182.3C264.4 184.73 266.37 186.7 268.8 186.7Z" fill="#FF9700"/>
<path d="M268.8 186.7C266.4 186.7 264.4 184.7 264.4 182.3C264.4 179.9 266.4 177.9 268.8 177.9C271.2 177.9 273.2 179.9 273.2 182.3C273.2 184.8 271.2 186.7 268.8 186.7ZM268.8 177.9C266.4 177.9 264.4 179.9 264.4 182.3C264.4 184.7 266.4 186.7 268.8 186.7C271.2 186.7 273.2 184.7 273.2 182.3C273.2 179.9 271.2 177.9 268.8 177.9Z" fill="#263238"/>
<path d="M340.8 176C343.23 176 345.2 174.03 345.2 171.6C345.2 169.17 343.23 167.2 340.8 167.2C338.37 167.2 336.4 169.17 336.4 171.6C336.4 174.03 338.37 176 340.8 176Z" fill="#FF9700"/>
<path d="M340.8 176.1C338.4 176.1 336.4 174.1 336.4 171.7C336.4 169.3 338.4 167.3 340.8 167.3C343.2 167.3 345.2 169.3 345.2 171.7C345.2 174.1 343.2 176.1 340.8 176.1ZM340.8 167.3C338.4 167.3 336.4 169.3 336.4 171.7C336.4 174.1 338.4 176.1 340.8 176.1C343.2 176.1 345.2 174.1 345.2 171.7C345.1 169.2 343.2 167.3 340.8 167.3Z" fill="#263238"/>
<path d="M365.3 151.1L344.5 161.8L334.5 160.3L339.9 150.8L361.7 143.1L365.3 151.1Z" fill="#EBEBEB"/>
<path d="M333.7 158.4L338.7 150.2L361.2 142.1L365.7 150.9L343.9 159.6L333.7 158.4Z" fill="black"/>
<path d="M358.7 147.3C358.7 147.4 357.9 147.7 356.5 148.3C355.1 148.9 353.2 149.6 351.1 150.4C349.1 151.2 347.3 151.8 345.7 152.4C344.3 152.9 343.4 153.2 343.5 153.2C343.3 153 346.7 151.5 350.9 149.9C355.1 148.3 358.6 147.2 358.7 147.3Z" fill="white"/>
<path d="M355.2 151.4C355.3 151.5 353.1 152.7 350.4 153.7C347.6 154.7 345.3 155.3 345.2 155.1C345.2 155 347.4 154.2 350.2 153.2C352.9 152.1 355.1 151.2 355.2 151.4Z" fill="white"/>
<path d="M395.7 159.2L403.3 199.3L479 185L465.8 146L395.7 159.2Z" fill="#EBEBEB"/>
<path d="M465.771 145.922L394.049 159.5L400.763 194.969L472.486 181.391L465.771 145.922Z" fill="white"/>
<path d="M472.5 181.4C472.5 181.4 472.4 181.2 472.4 180.8C472.3 180.4 472.2 179.7 472 178.9C471.7 177.3 471.2 174.9 470.6 171.8C469.4 165.7 467.7 156.8 465.6 145.9L465.8 146.1C447 149.7 421.8 154.5 394.1 159.7L394.3 159.4C396.7 171.9 398.9 183.9 401 194.9L400.7 194.7C421.6 190.8 439.5 187.4 452.2 185.1C458.5 183.9 463.6 183 467.1 182.4C468.8 182.1 470.2 181.8 471.1 181.7C471.5 181.6 471.9 181.6 472.1 181.5C472.4 181.5 472.5 181.4 472.5 181.4C472.5 181.4 472.4 181.4 472.2 181.5C472 181.5 471.6 181.6 471.2 181.7C470.3 181.9 469 182.1 467.3 182.5C463.8 183.2 458.8 184.1 452.5 185.4C439.8 187.8 421.8 191.3 400.9 195.3H400.7V195.1C398.6 184.1 396.3 172.1 394 159.6V159.3H394.3C422 154.1 447.2 149.3 466 145.8H466.2V146C468.2 157 469.9 165.8 471 172C471.6 175 472 177.4 472.3 179.1C472.4 179.9 472.5 180.5 472.6 180.9C472.5 181.2 472.5 181.4 472.5 181.4Z" fill="#263238"/>
<path d="M422.53 162.293L402.683 166.05L406.44 185.896L426.287 182.139L422.53 162.293Z" fill="white"/>
<path d="M426.3 182.1C426.3 182.1 426.3 182 426.2 181.7C426.1 181.4 426.1 181.1 426 180.6C425.8 179.6 425.5 178.3 425.2 176.6C424.5 173.1 423.5 168.2 422.4 162.3L422.7 162.5C416.9 163.6 410.1 164.9 402.9 166.3C402.9 166.4 403.3 165.7 403.1 166V166.1V166.3L403.2 166.6L403.3 167.3C403.4 167.7 403.5 168.2 403.6 168.6C403.8 169.5 403.9 170.4 404.1 171.3C404.4 173 404.8 174.8 405.1 176.4C405.7 179.7 406.3 182.9 406.8 185.8L406.5 185.6C412.4 184.5 417.3 183.6 420.8 183C422.5 182.7 423.9 182.5 424.9 182.3C425.3 182.2 425.7 182.2 426 182.1C426.2 182.1 426.3 182.1 426.3 182.1C426.3 182.1 426.2 182.1 426 182.2C425.7 182.3 425.4 182.3 425 182.4C424 182.6 422.7 182.9 421 183.2C417.5 183.9 412.5 184.9 406.6 186H406.4V185.8C405.8 182.9 405.2 179.8 404.6 176.5C404.3 174.8 404 173.1 403.6 171.4C403.4 170.5 403.3 169.6 403.1 168.8C403 168.4 402.9 167.9 402.8 167.5L402.7 166.8L402.6 166.5V166.3V166.2C402.4 166.5 402.9 165.8 402.8 165.9C410.1 164.5 416.9 163.3 422.6 162.2H422.8V162.4C423.9 168.3 424.8 173.3 425.4 176.9C425.7 178.6 425.9 179.9 426.1 180.9C426.2 181.3 426.2 181.7 426.3 181.9C426.3 182 426.3 182.1 426.3 182.1Z" fill="#263238"/>
<path d="M426.3 182.1C426.3 182.1 426.2 181.6 425.9 180.7C425.6 179.8 425.1 178.4 423.8 177.4C423.2 176.8 422.3 176.3 421.3 175.9C420.3 175.5 419.2 175.4 418 175.5H417.5L417.7 175.1C418.5 173.8 418.6 171.9 417.9 170.4C417.5 169.6 416.9 168.9 416.1 168.4C415.3 167.9 414.4 167.7 413.4 167.8C412.3 167.9 411.3 168.2 410.5 168.9C409.7 169.5 409.2 170.4 409 171.4C408.6 173.3 409.3 175.3 410.6 176.3L410.8 176.5L410.5 176.7C409.1 177.5 408.2 178.6 407.5 179.7C406.8 180.8 406.5 181.9 406.4 182.8C406.1 184.6 406.4 185.7 406.3 185.7C406.3 185.7 406.2 185.4 406.1 184.9C406 184.4 406 183.6 406.1 182.7C406.2 181.8 406.5 180.6 407.2 179.4C407.8 178.2 408.9 177 410.3 176.2V176.6C408.8 175.5 408 173.3 408.5 171.2C408.7 170.2 409.3 169.1 410.2 168.4C411.1 167.7 412.2 167.3 413.4 167.2C414.4 167.1 415.5 167.4 416.4 167.9C417.3 168.4 417.9 169.2 418.3 170.1C419.1 171.8 419 173.9 418 175.3V175C419.3 174.9 420.5 175.1 421.5 175.5C422.5 175.9 423.4 176.5 424 177.1C425.4 178.3 425.8 179.7 426.1 180.7C426.2 181.2 426.3 181.5 426.3 181.8C426.3 182 426.3 182.1 426.3 182.1Z" fill="#263238"/>
<path d="M430.1 161.6C435.8 160.5 441.6 159.4 447.3 158.3Z" fill="white"/>
<path d="M438.723 160.188C443.444 159.294 447.246 158.438 447.215 158.275C447.184 158.112 443.332 158.705 438.612 159.598C433.891 160.492 430.089 161.349 430.12 161.511C430.151 161.674 434.002 161.082 438.723 160.188Z" fill="#263238"/>
<path d="M430.9 165.6C432.1 165.4 433.2 165.2 434.4 164.9Z" fill="white"/>
<path d="M432.625 165.489C433.602 165.304 434.368 165.022 434.338 164.859C434.307 164.696 433.49 164.714 432.513 164.899C431.537 165.084 430.77 165.366 430.801 165.529C430.831 165.691 431.648 165.673 432.625 165.489Z" fill="#263238"/>
<path d="M447.532 169.895C455.997 168.292 462.834 166.861 462.803 166.698C462.772 166.536 455.885 167.703 447.42 169.305C438.955 170.908 432.118 172.339 432.149 172.502C432.18 172.664 439.067 171.497 447.532 169.895Z" fill="#263238"/>
<path d="M448.338 173.385C456.858 171.773 463.739 170.333 463.708 170.17C463.677 170.008 456.746 171.183 448.227 172.796C439.708 174.409 432.827 175.848 432.857 176.011C432.888 176.174 439.819 174.998 448.338 173.385Z" fill="#263238"/>
<path d="M464 174.2C464 174.2 463.6 174.3 462.8 174.5C461.9 174.7 460.8 174.9 459.6 175.2C456.9 175.8 453.1 176.5 448.9 177.3C444.7 178.1 440.9 178.8 438.1 179.3C436.8 179.5 435.7 179.7 434.8 179.8C434 179.9 433.6 180 433.6 179.9C433.6 179.9 434 179.8 434.8 179.6C435.7 179.4 436.8 179.2 438 178.9C440.7 178.3 444.5 177.6 448.7 176.8C452.9 176 456.7 175.3 459.5 174.8C460.8 174.6 461.9 174.4 462.8 174.3C463.5 174.2 464 174.2 464 174.2Z" fill="#263238"/>
<path d="M432.7 157.7C432.7 157.7 433 157.5 433.5 157.3C434 157 434.8 156.7 435.8 156.4C437.9 155.7 441 155.1 444.9 155.5C446.8 155.7 448.9 156.2 451 157.3C452 157.8 453 158.5 453.8 159.5C454.6 160.5 455 161.9 454.7 163.2C454.4 164.5 453.4 165.6 452.3 166.4C451.2 167.3 450 167.9 448.7 168.5C446.2 169.7 443.5 170.8 440.5 171.3C437.6 171.9 434.6 171.9 431.9 171.2C430.5 170.9 429.2 170.4 428.1 169.6C427 168.9 425.9 167.8 425.5 166.6C425 165.3 425.3 163.9 425.9 162.8C426.5 161.7 427.4 160.9 428.3 160.2C430.2 158.8 432.1 157.9 433.9 157.2C437.6 155.8 440.8 155.6 442.9 155.6C444 155.6 444.8 155.7 445.4 155.8C446 155.9 446.3 155.9 446.3 156C446.3 156 446 156 445.4 155.9C444.8 155.9 444 155.8 442.9 155.8C440.8 155.8 437.6 156.1 434 157.5C432.2 158.2 430.3 159.2 428.5 160.5C427.6 161.2 426.8 162 426.2 163C425.6 164 425.4 165.3 425.8 166.4C426.2 167.5 427.2 168.5 428.2 169.2C429.3 169.9 430.6 170.4 431.9 170.7C434.6 171.4 437.5 171.4 440.3 170.8C443.2 170.3 445.9 169.2 448.4 168.1C449.6 167.5 450.8 166.9 451.9 166.1C452.9 165.3 453.8 164.3 454.1 163.1C454.4 161.9 454.1 160.7 453.3 159.8C452.6 158.9 451.6 158.2 450.6 157.7C448.6 156.7 446.5 156.2 444.6 155.9C440.8 155.4 437.7 156 435.6 156.6C434.6 156.9 433.8 157.2 433.3 157.4C433 157.6 432.7 157.7 432.7 157.7Z" fill="#E8505B"/>
<path d="M458.347 152.61C455.433 154.979 453.156 157.004 453.26 157.133C453.365 157.261 455.812 155.445 458.726 153.076C461.64 150.706 463.917 148.681 463.813 148.553C463.708 148.424 461.261 150.241 458.347 152.61Z" fill="#E8505B"/>
<path d="M459.7 156.3C459.7 156.4 457.1 157.1 453.8 157.8C453.6 157.8 453.3 157.9 453.1 157.9L452.7 158L452.8 157.6C453.5 154.6 454.9 152.6 455 152.6C455.1 152.7 454 154.7 453.3 157.7L453 157.4C453.2 157.4 453.5 157.3 453.7 157.3C457 156.6 459.7 156.1 459.7 156.3Z" fill="#E8505B"/>
<path d="M439.63 162.406C444.871 161.602 449.099 160.817 449.073 160.654C449.048 160.49 444.78 161.009 439.539 161.813C434.299 162.618 430.071 163.403 430.096 163.566C430.121 163.73 434.39 163.211 439.63 162.406Z" fill="#E8505B"/>
<path d="M423.2 158.2C425.63 158.2 427.6 156.23 427.6 153.8C427.6 151.37 425.63 149.4 423.2 149.4C420.77 149.4 418.8 151.37 418.8 153.8C418.8 156.23 420.77 158.2 423.2 158.2Z" fill="#FF9700"/>
<path d="M423.2 158.2C421.1 158.2 419.3 156.7 418.9 154.6C418.4 152.2 420 149.9 422.4 149.4C423.6 149.2 424.7 149.4 425.7 150.1C426.7 150.8 427.3 151.8 427.6 152.9C428.1 155.3 426.5 157.6 424.1 158.1C423.8 158.2 423.5 158.2 423.2 158.2ZM423.2 149.4C422.9 149.4 422.7 149.4 422.4 149.5C420 149.9 418.5 152.2 418.9 154.6C419.4 157 421.6 158.5 424 158.1C426.4 157.7 427.9 155.4 427.5 153C427.3 151.9 426.6 150.9 425.7 150.2C424.9 149.7 424.1 149.4 423.2 149.4Z" fill="#263238"/>
<path d="M134.8 48.0997L492.7 57.8997L493 47.1997L134.8 48.0997Z" fill="#E0E0E0"/>
<path d="M500.6 40.1997H131.1V48.1997H500.6V40.1997Z" fill="#455A64"/>
<path d="M512.6 144C515.9 141.7 520.5 141.6 524 143.7C527.4 145.8 529.5 150 529 153.9C528.7 156 527.9 158.1 528.4 160.1C529.4 163.9 534.7 165.4 535.5 169.2C535.8 170.7 535.2 172.3 534.8 173.7C534.4 175.2 534.1 176.9 534.9 178.2C535.5 179.2 536.5 179.8 537.3 180.6C539.9 183.2 539.9 187.8 537.7 190.7C535.5 193.7 531.7 195.1 528 195C524.3 194.9 520.8 193.4 517.7 191.5" fill="#263238"/>
<path d="M515.2 146.4C514.1 142.9 510.9 140.2 507.3 139.3C503.7 138.4 499.2 137.3 496 138.9C493.9 140 492 141.5 491.2 143.6C490.2 146.2 491.7 151 492.5 153.6C493.2 156.2 493.8 159.2 492.3 161.6C490.9 163.9 488 164.7 486.2 166.7C483.7 169.4 484.1 174.2 486.9 176.6C483.7 176.4 481 179.7 481.1 182.8C481.2 185.9 483.5 188.8 486.4 190.2C489.2 191.6 492.5 191.9 495.7 191.9C499.6 191.9 503.6 191.5 507.5 190.7C510.7 190 514 189 516.1 186.4C518 184.1 518.5 180.9 518.5 178C518.5 167.4 513 156.9 515.4 146.6" fill="#263238"/>
<path d="M499.2 259.3C499.2 259.3 478.5 326.4 479.8 348.1C481.1 369.8 496.9 423.7 496.9 423.7L499.2 259.3Z" fill="#EB996E"/>
<path d="M528.4 247.9C528.9 247.8 537.9 261.1 538.2 272.6C538.2 273.7 538.2 274.8 538.1 276C537.7 280 536.7 283.9 535.2 287.7C527.5 307.1 519.6 330 519.5 335.3C519.1 351.4 512.1 423.8 512.1 423.8L496.8 424.2L492.2 335.7L499.8 247.2L528.4 247.9Z" fill="#FFBE9D"/>
<path d="M410.6 201.1C412.2 199.5 419.3 205.6 419.9 206.1C420.5 206.6 421.3 205.7 420.7 205.3C419.8 204.7 410.9 198.4 412.4 196.8C413.2 195.9 414.7 197.6 414.7 197.6C414.7 197.6 422.6 204.1 423.3 203.3C424 202.5 419.5 198.5 417.8 197.3C416.2 196.1 416.1 194.8 417.3 194.6C418.1 194.4 423.1 198.1 424.7 199.3C426.3 200.6 430.5 204.1 429.8 200.6C429.1 197.2 429.9 194.3 430.6 193.6C431.4 193 432.5 193.8 432.3 194.8C432.1 195.7 432.2 197.2 432.3 198.3C432.4 199.2 432.7 200.2 433.1 201C433.6 202 434 202.8 434.4 203.5C439.2 206.4 452.9 214 466.8 215.6C469.3 215.9 479.1 200.6 479.1 200.6L494.3 213C494.3 213 494.4 214 483.5 227.5C468.6 245.9 425.2 214.5 425.2 214.5C421.4 212.8 417.2 210.8 415.1 209.5C410.7 206.8 410.9 206.4 411.3 205.9C412.4 204.7 419.3 210.4 418.5 208.3C417.9 206.3 409.4 202.3 410.6 201.1Z" fill="#FFBE9D"/>
<path d="M398.5 190.1C398.5 190.1 396 213 399.2 225.5L429.8 224.2C429.8 224.2 423.2 201.6 427.3 191.6L398.5 190.1Z" fill="#EBEBEB"/>
<path d="M398.6 189.3C398.6 189.3 398.8 214 400.1 221.5L431.1 220C431.1 220 428.4 195.7 429.4 189.2H398.6V189.3Z" fill="#FF9700"/>
<path d="M414.318 200.602C420.051 200.258 424.691 199.844 424.681 199.679C424.671 199.513 420.015 199.659 414.282 200.004C408.548 200.348 403.909 200.762 403.919 200.927C403.928 201.093 408.584 200.947 414.318 200.602Z" fill="white"/>
<path d="M414.322 205.903C420.055 205.558 424.695 205.144 424.685 204.979C424.675 204.814 420.019 204.959 414.286 205.304C408.552 205.649 403.913 206.063 403.923 206.228C403.933 206.393 408.588 206.248 414.322 205.903Z" fill="white"/>
<path d="M413.618 210.698C416.87 210.502 419.499 210.209 419.489 210.044C419.479 209.878 416.834 209.903 413.582 210.099C410.329 210.294 407.7 210.587 407.71 210.752C407.72 210.918 410.365 210.893 413.618 210.698Z" fill="white"/>
<path d="M543.9 323.3C543.9 323.3 546.9 259.1 537.7 253.5C528.5 247.9 485.8 256.9 485.8 256.9C485.8 256.9 472.4 317.5 473 318C477.4 321.8 543.9 323.3 543.9 323.3Z" fill="black"/>
<path d="M536.49 317.605C540.737 317.822 544.187 317.865 544.195 317.699C544.203 317.534 540.767 317.223 536.52 317.006C532.273 316.788 528.823 316.745 528.815 316.911C528.807 317.076 532.243 317.387 536.49 317.605Z" fill="#263238"/>
<path d="M539.3 320.644C539.223 322.078 539.295 323.247 539.46 323.256C539.626 323.265 539.822 322.11 539.899 320.676C539.975 319.242 539.903 318.072 539.738 318.063C539.573 318.054 539.376 319.21 539.3 320.644Z" fill="#263238"/>
<path d="M531.012 320.357C531.141 322.009 531.38 323.337 531.545 323.324C531.71 323.312 531.739 321.962 531.611 320.31C531.482 318.658 531.244 317.33 531.078 317.342C530.913 317.355 530.884 318.705 531.012 320.357Z" fill="#263238"/>
<path d="M496.6 425.6V423.6L512.4 423.3V429.5L511.4 429.6C507.1 429.8 489.3 430.5 486.4 429.7C483.2 428.6 496.6 425.6 496.6 425.6Z" fill="#E8505B"/>
<g opacity="0.6">
<g opacity="0.6">
<g opacity="0.6">
<path opacity="0.6" d="M506.7 429.5C506.9 428.2 507.7 427 508.7 426.1C509.8 425.3 511 424.8 512.4 425V429.4L506.7 429.5Z" fill="white"/>
</g>
</g>
</g>
<g opacity="0.6">
<g opacity="0.6">
<g opacity="0.6">
<path opacity="0.6" d="M490 427.3C490 427.3 485.3 428.7 485.9 429.4C486.5 430.2 504.4 430.1 512.4 429.4V429L491.4 429.2C491.4 429.3 491 427.3 490 427.3Z" fill="white"/>
</g>
</g>
</g>
<path d="M512.5 429C512.5 429 512.4 429 512.2 429C512 429 511.7 429 511.4 429C510.6 429 509.7 429.1 508.5 429.1C506.1 429.2 502.7 429.3 499.1 429.3C495.4 429.3 492.1 429.2 489.7 429.2C488.6 429.2 487.6 429.1 486.8 429.1C486.5 429.1 486.3 429.1 486 429.1C485.8 429.1 485.7 429.1 485.7 429.1C485.7 429.1 485.8 429.1 486 429.1C486.2 429.1 486.5 429.1 486.8 429.1C487.6 429.1 488.5 429.1 489.7 429.2C492.1 429.2 495.5 429.3 499.1 429.3C502.8 429.3 506.1 429.2 508.5 429.2C509.6 429.2 510.6 429.2 511.4 429.1C511.7 429.1 511.9 429.1 512.2 429.1C512.4 429 512.5 429 512.5 429Z" fill="#263238"/>
<path d="M491.4 429.6C491.3 429.6 491.3 428.9 490.9 428.2C490.5 427.5 489.9 427.2 489.9 427.1C489.9 427.1 490.6 427.3 491 428.1C491.5 428.9 491.5 429.6 491.4 429.6Z" fill="#263238"/>
<path d="M495.931 426.304C496.168 426.677 496.399 426.955 496.445 426.925C496.492 426.896 496.337 426.569 496.1 426.197C495.863 425.824 495.633 425.546 495.586 425.575C495.539 425.605 495.694 425.931 495.931 426.304Z" fill="#263238"/>
<path d="M497.086 425.895C497.374 426.153 497.637 426.329 497.674 426.288C497.711 426.246 497.507 426.004 497.219 425.746C496.932 425.488 496.668 425.312 496.631 425.353C496.595 425.394 496.798 425.637 497.086 425.895Z" fill="#263238"/>
<path d="M497.589 424.79C498.031 424.785 498.388 424.736 498.388 424.68C498.387 424.625 498.028 424.585 497.587 424.59C497.145 424.596 496.787 424.645 496.788 424.7C496.789 424.756 497.147 424.796 497.589 424.79Z" fill="#263238"/>
<path d="M498.7 423.7C498.7 423.7 498.3 423.9 497.8 424C497.3 424 496.8 423.9 496.9 423.9C496.9 423.8 497.3 423.9 497.8 423.8C498.3 423.7 498.7 423.6 498.7 423.7Z" fill="#263238"/>
<path d="M495.8 425.5C495.8 425.5 495.4 425.6 494.8 425.5C494.5 425.5 494.1 425.4 493.7 425.3C493.5 425.2 493.3 425.2 493.1 425C493 424.9 492.9 424.8 492.8 424.7C492.8 424.5 492.8 424.4 493 424.3C494 423.8 494.9 424.3 495.3 424.8C495.5 425.1 495.6 425.3 495.6 425.5C495.6 425.7 495.6 425.8 495.6 425.8C495.6 425.8 495.5 425.4 495.1 424.9C494.9 424.7 494.6 424.5 494.2 424.3C493.8 424.2 493.3 424.2 493 424.4C492.8 424.5 492.9 424.7 493.1 424.8C493.3 424.9 493.5 425 493.7 425C494.1 425.1 494.4 425.2 494.7 425.3C495.5 425.5 495.8 425.5 495.8 425.5Z" fill="#263238"/>
<path d="M495.6 425.6C495.6 425.6 495.4 425.4 495.5 424.9C495.5 424.7 495.6 424.4 495.8 424.2C496 424 496.2 423.7 496.6 423.7C496.8 423.7 496.9 424 496.9 424.2C496.9 424.4 496.8 424.5 496.7 424.7C496.6 425 496.4 425.2 496.2 425.3C495.9 425.4 495.7 425.6 495.6 425.6C495.7 425.6 495.9 425.4 496.2 425.1C496.3 424.9 496.5 424.7 496.6 424.5C496.7 424.3 496.8 423.9 496.6 423.9C496.3 423.9 496.1 424.1 495.9 424.3C495.7 424.5 495.7 424.8 495.6 425C495.5 425.3 495.6 425.5 495.6 425.6Z" fill="#263238"/>
<path d="M512.6 425C512.6 425 512.1 425 511.4 425C510.7 425.1 509.7 425.4 508.9 426C508 426.7 507.6 427.6 507.3 428.2C507.1 428.9 507 429.3 507 429.3C507 429.3 507 429.2 507 429C507 428.8 507.1 428.5 507.2 428.2C507.4 427.5 507.9 426.6 508.8 425.9C509.7 425.2 510.7 424.9 511.4 424.9C511.8 424.9 512.1 424.9 512.3 424.9C512.5 424.9 512.6 425 512.6 425Z" fill="#263238"/>
<path d="M505 427.5C505 427.5 504 427.7 502.7 427.7C501.4 427.7 500.4 427.6 500.4 427.5C500.4 427.4 501.4 427.5 502.7 427.5C504 427.5 505 427.4 505 427.5Z" fill="#263238"/>
<path d="M508.1 427.5C508.1 427.5 508 427.7 507.9 428C507.8 428.2 507.7 428.4 507.7 428.4C507.6 428.4 507.6 428.2 507.7 427.9C507.9 427.6 508.1 427.4 508.1 427.5Z" fill="#263238"/>
<path d="M509.011 426.354C509.166 426.197 509.26 426.038 509.221 425.999C509.181 425.96 509.024 426.057 508.869 426.214C508.714 426.372 508.62 426.531 508.66 426.569C508.699 426.608 508.856 426.512 509.011 426.354Z" fill="#263238"/>
<path d="M510.9 425.4C510.9 425.5 510.7 425.5 510.4 425.5C510.2 425.6 510 425.7 510 425.7C510 425.7 510.1 425.4 510.4 425.4C510.7 425.2 511 425.3 510.9 425.4Z" fill="#263238"/>
<path d="M511.916 425.189C512.07 425.129 512.179 425.038 512.159 424.987C512.139 424.935 511.997 424.942 511.843 425.003C511.689 425.063 511.58 425.153 511.6 425.205C511.62 425.256 511.761 425.249 511.916 425.189Z" fill="#263238"/>
<path d="M469.6 213.8L487.2 223.7L488.4 222.5L489.7 224.9L488.5 257.7L536.3 248.7L532.4 243.1C528.6 237.9 529.5 230.6 531 224.4L531.5 222.3L541.6 222.5C541.6 222.5 542.6 216.8 541.6 204.2C541.6 204 541.6 203.8 541.6 203.6C540.5 191.9 530.2 183.2 518.5 184L501.1 185.2C501.1 185.2 487.2 182.4 477.8 198.6L469.6 213.8Z" fill="#FF9700"/>
<path d="M490.9 208.5C491 208.5 490.7 209.5 490.3 211C489.8 212.7 489.2 214.6 488.5 216.8C488.2 217.9 488 219 488.1 220C488.2 221 488.5 221.9 488.8 222.6C489.4 224 489.9 224.9 489.8 224.9C489.8 224.9 489.2 224.2 488.4 222.7C488.1 222 487.7 221.1 487.5 220C487.4 218.9 487.5 217.7 487.9 216.6C488.6 214.3 489.4 212.3 489.9 210.8C490.4 209.4 490.8 208.5 490.9 208.5Z" fill="#263238"/>
<path d="M541.7 222.1C541.7 222.1 541.2 222.1 540.3 222.1C539.3 222 538.1 222 536.6 221.9C533.5 221.7 529.2 221.3 524.4 220.9C523.6 220.8 522.9 220.8 522.1 220.7H521.8V220.4C522.1 216.2 522.1 212.4 522.2 209.7C522.3 208.4 522.4 207.3 522.5 206.5C522.6 205.8 522.7 205.4 522.7 205.4C522.7 205.4 522.7 205.8 522.7 206.6C522.7 207.4 522.6 208.5 522.6 209.8C522.5 212.5 522.6 216.3 522.3 220.5L522.1 220.2C522.8 220.3 523.6 220.3 524.4 220.4C529.2 220.8 533.5 221.2 536.6 221.5C538.1 221.7 539.3 221.8 540.3 221.9C541.2 222 541.7 222 541.7 222.1Z" fill="#263238"/>
<path d="M541.4 203.3C541.4 203.3 541.2 203.3 540.7 203.2C540.2 203.1 539.6 202.9 538.8 202.8C537.1 202.4 534.7 201.9 531.7 201.6C530.2 201.4 528.5 201.4 526.7 201.5C524.9 201.6 523.1 202.1 521.2 202.7C517.4 203.9 513.4 206 508.8 207.1C507.7 207.4 506.5 207.5 505.3 207.6C504.1 207.6 503 207.6 501.9 207.4C499.7 207 497.7 206.2 495.9 205.2C492.3 203.3 489.3 201.3 486.4 200.3C483.5 199.3 481 199.2 479.4 199.5C477.7 199.8 476.9 200.4 476.9 200.3C476.9 200.3 477.7 199.7 479.4 199.3C481.1 198.9 483.7 198.9 486.6 199.9C489.6 200.8 492.7 202.8 496.2 204.7C498 205.6 499.9 206.4 502.1 206.8C504.2 207.2 506.5 207 508.8 206.5C513.3 205.4 517.3 203.3 521.2 202.2C523.1 201.6 525 201.2 526.9 201C528.7 200.9 530.4 200.9 531.9 201.1C535 201.5 537.4 202.1 539 202.5C539.8 202.7 540.4 202.9 540.9 203C541.2 203.2 541.4 203.3 541.4 203.3Z" fill="#FAFAFA"/>
<path d="M521.1 230.4C521.1 230.4 520.6 230.4 519.8 230.5C519 230.5 517.7 230.7 516.3 231C514.8 231.3 513.1 231.9 511.2 232.5C509.3 233.2 507.2 233.9 505 234.5C502.7 235.1 500.5 235.3 498.5 235.1C496.5 234.9 494.7 234.1 493.4 233.3C492.1 232.4 491.3 231.5 490.9 230.7C490.7 230.3 490.5 230 490.5 229.8C490.4 229.6 490.4 229.5 490.4 229.5C490.4 229.5 490.6 229.9 491.1 230.6C491.6 231.3 492.4 232.2 493.7 233C495 233.8 496.7 234.4 498.6 234.6C500.6 234.8 502.7 234.6 505 234C507.2 233.4 509.3 232.7 511.2 232.1C513.1 231.5 514.9 231 516.4 230.7C517.9 230.4 519.1 230.3 520 230.3C520.6 230.2 521.1 230.3 521.1 230.4Z" fill="#FAFAFA"/>
<g opacity="0.3">
<g opacity="0.3">
<path opacity="0.3" d="M522.5 206C520.3 211.3 520.1 217.2 519.4 222.9C518.7 228.6 517.3 234.5 513.4 238.7C509.4 243 503.4 244.9 497.7 246.5L522.6 244.3L522.5 206Z" fill="black"/>
</g>
</g>
<path d="M521.2 347.3C521.2 347.3 530.1 309.3 538.1 286.2C546.1 262.8 534.6 248 534.6 248L489.4 253.3L480.7 286.7C480.7 286.7 473.8 322.4 476.6 348.7L521.2 347.3Z" fill="#FF9700"/>
<path d="M534.2 294.9C534.1 294.9 533.9 294.2 533 293C532.2 291.9 530.6 290.4 528.3 289.4C526 288.3 522.9 287.8 519.6 288.1C516.2 288.3 512.6 289.3 508.8 290.1C505 290.9 501.2 291.4 497.8 290.9C494.4 290.4 491.6 288.8 489.4 287.5C487.2 286.2 485.4 285.2 484.1 284.6C482.8 284 482 283.8 482 283.8C482 283.8 482.2 283.8 482.6 283.9C483 284 483.5 284.2 484.2 284.4C485.6 284.9 487.4 285.9 489.6 287.1C491.8 288.3 494.5 289.9 497.9 290.3C501.2 290.8 505 290.3 508.8 289.5C512.6 288.7 516.3 287.8 519.7 287.5C523.1 287.3 526.3 287.8 528.6 289C531 290.1 532.5 291.6 533.3 292.8C533.5 293.1 533.7 293.4 533.8 293.6C533.9 293.8 534 294.1 534.1 294.2C534.2 294.7 534.2 294.9 534.2 294.9Z" fill="#FAFAFA"/>
<path d="M523.6 333C523.6 333 523.2 332.4 522.2 331.5C521.2 330.7 519.5 329.7 517.2 329.3C514.9 328.9 512.1 329.2 509.2 330.2C506.3 331.2 503.2 332.8 499.8 334C496.4 335.3 492.8 335.6 489.7 335.2C486.6 334.8 483.9 333.7 481.8 332.6C479.7 331.4 478.3 330.1 477.4 329.2C476.9 328.7 476.6 328.3 476.4 328.1C476.2 327.8 476.1 327.7 476.1 327.7C476.1 327.7 476.6 328.2 477.6 329.1C478.5 330 480 331.2 482.1 332.4C484.1 333.5 486.8 334.5 489.8 334.9C492.9 335.3 496.3 334.9 499.6 333.7C503 332.5 506 330.9 509 329.9C512 328.9 514.9 328.6 517.2 329C519.6 329.4 521.3 330.5 522.2 331.4C522.7 331.9 523 332.3 523.2 332.6C523.5 332.9 523.6 333 523.6 333Z" fill="#FAFAFA"/>
<g opacity="0.2">
<g opacity="0.2">
<path opacity="0.2" d="M484 306.7C483.6 308.5 483.2 310.4 483.7 312.2C484.1 314 485.7 315.7 487.5 315.6C488.5 315.6 489.5 315.1 490.4 315.6C491.1 316 491.3 316.9 491.5 317.7C492.5 321.4 495.8 324.4 499.6 325.2C503.4 326 507.6 324.5 510 321.4C512.5 318.3 513 314.1 512.5 310.2C512 306.3 510.5 302.6 509.2 298.9C506.5 291.3 504.7 283.3 503.4 275.3C503.1 273.7 502.9 272 503.6 270.5C504.7 268.1 507.8 267.3 510.5 266.9C520.6 265.1 530.6 262.8 540.4 259.8C534.8 258.6 529 259.4 523.4 260.5C517.2 261.6 511 263 504.8 264.6C503.3 265 501.6 265.4 500.5 266.6C499.3 267.8 498.9 269.4 498.5 271C495.1 283.9 490.1 296.3 483.4 307.8" fill="black"/>
</g>
</g>
<path d="M497.7 266.1L541 259.1C541 259.1 540.2 255.9 539 253C538.1 250.8 535.7 249.1 534.6 248C532 245.4 495.9 261.3 495.9 261.3L497.7 266.1Z" fill="black"/>
<path d="M497.7 266.1L485.7 262.2L487.5 252.3L499.2 261.4L497.7 266.1Z" fill="black"/>
<path d="M497.8 266.1C497.8 266.1 494.5 278 494.6 285.9C494.7 293.8 495 310.2 496.1 316C497.2 321.8 512.9 315.2 509.9 309.8C506.9 304.4 501.5 285.1 501.3 280.5C501.2 275.9 501.6 264.6 501.6 264.6L497.8 266.1Z" fill="black"/>
<path d="M509 308.1C509 308.1 508.7 308.9 507.8 310C506.9 311.1 505.5 312.4 503.7 313.4C501.8 314.4 499.9 314.9 498.6 315C497.2 315.1 496.4 315 496.4 314.9C496.4 314.8 497.2 314.8 498.6 314.6C499.9 314.4 501.7 313.9 503.5 312.9C505.3 311.9 506.7 310.7 507.6 309.7C508.4 308.8 508.9 308.1 509 308.1Z" fill="#263238"/>
<path d="M499.598 316.687C499.95 317.617 500.362 318.323 500.517 318.264C500.672 318.206 500.512 317.404 500.159 316.475C499.807 315.545 499.395 314.839 499.24 314.898C499.086 314.957 499.246 315.758 499.598 316.687Z" fill="#263238"/>
<path d="M504.363 314.891C504.834 315.829 505.336 316.528 505.484 316.454C505.632 316.379 505.37 315.559 504.899 314.621C504.427 313.684 503.925 312.984 503.777 313.059C503.629 313.133 503.891 313.954 504.363 314.891Z" fill="#263238"/>
<path d="M508.369 311.783C508.889 312.695 509.426 313.367 509.57 313.285C509.714 313.203 509.41 312.398 508.891 311.486C508.371 310.574 507.834 309.901 507.69 309.983C507.546 310.065 507.85 310.871 508.369 311.783Z" fill="#263238"/>
<path d="M495 263.9C490.8 271.5 492.6 281.5 487.8 288.6C485.9 291.5 482.9 293.7 481.8 297C480.9 299.6 481.4 302.7 483.2 304.7C485 306.8 488.2 307.6 490.7 306.6C492.6 305.8 494 304.1 494.8 302.2C495.6 300.3 496 298.3 496.3 296.3C497.8 287.3 499.4 278.4 500.9 269.4C501.2 267.6 501.5 265.7 500.6 264.1C499.7 262.5 497.2 261.8 496.1 263.3" fill="black"/>
<path d="M495 306.2C495 306.2 494.9 305.6 494.8 304.6C494.7 303.6 494.6 302.1 494.5 300.2C494.3 296.5 494.1 291.4 494.3 285.7C494.4 280 494.8 274.9 495.2 271.2C495.4 269.4 495.6 267.9 495.7 266.8C495.8 265.8 495.9 265.2 496 265.2C496 265.2 496 265.8 495.9 266.8C495.8 267.9 495.7 269.4 495.5 271.2C495.2 274.9 494.9 280 494.8 285.7C494.7 291.4 494.8 296.5 494.9 300.2C495 302 495 303.5 495.1 304.6C495 305.6 495 306.2 495 306.2Z" fill="#263238"/>
<path d="M492.2 305.4C492.2 305.5 491.4 305.5 490.2 305.2C489 304.9 487.4 304.3 485.9 303.2C484.4 302.1 483.2 300.8 482.6 299.7C481.9 298.7 481.7 297.9 481.8 297.9C481.9 297.8 483.2 300.6 486.2 302.7C489.2 304.9 492.3 305.2 492.2 305.4Z" fill="#263238"/>
<path d="M485.922 304.936C486.709 304.329 487.265 303.73 487.164 303.599C487.063 303.468 486.343 303.853 485.556 304.461C484.768 305.068 484.212 305.666 484.313 305.797C484.415 305.929 485.135 305.543 485.922 304.936Z" fill="#263238"/>
<path d="M483.2 300.5C483.3 300.6 482.9 301 482.5 301.4C482.1 301.8 481.8 302.2 481.7 302.2C481.6 302.1 481.7 301.6 482.1 301.1C482.6 300.6 483.1 300.4 483.2 300.5Z" fill="#263238"/>
<path d="M502 260.3C502 260.3 502.2 260.5 502.3 260.9C502.4 261.3 502.6 262 502.4 262.8C502.3 263.6 501.9 264.6 501.1 265.4C500.3 266.2 499.1 266.7 497.9 266.7C496.6 266.7 495.4 266.2 494.7 265.4C493.9 264.6 493.6 263.6 493.5 262.8C493.4 262 493.5 261.3 493.7 260.9C493.9 260.5 494 260.3 494 260.3C494.1 260.3 493.6 261.2 493.9 262.8C494 263.5 494.4 264.4 495.1 265.1C495.8 265.8 496.9 266.2 498 266.3C499.1 266.3 500.2 265.9 500.9 265.2C501.6 264.5 502 263.6 502.1 262.9C502.4 261.3 501.9 260.4 502 260.3Z" fill="#263238"/>
<path d="M499.7 266C499.5 266 499.5 264.6 498.7 263C497.9 261.5 496.8 260.6 496.9 260.5C497 260.4 498.3 261.1 499.2 262.8C500 264.5 499.8 266 499.7 266Z" fill="#263238"/>
<path d="M464.2 256.6C464.7 254.4 474 255.8 474.8 255.9C475.6 256 475.7 254.8 475 254.8C474 254.8 463 254.2 463.5 252C463.7 250.8 465.9 251.4 465.9 251.4C465.9 251.4 476.1 252.7 476.2 251.6C476.4 250.5 470.4 249.6 468.4 249.4C466.4 249.2 465.7 248.2 466.5 247.4C467.1 246.8 473.3 247.2 475.3 247.5C477.3 247.7 482.8 248.4 480.4 245.9C478 243.4 477.1 240.5 477.4 239.5C477.7 238.6 479.1 238.6 479.5 239.7C479.8 240.5 480.7 241.8 481.4 242.7C482 243.4 482.7 244.1 483.5 244.6C484.4 245.2 485.3 245.7 486 246C491.6 245.9 507.2 245.1 519.9 239C522.2 237.9 522.4 220.5 522.4 220.5L541.9 222.2C541.9 222.2 541.9 227.2 540.4 240.2C537.7 263.7 484.1 260.1 484.1 260.1V260C480 260.6 475.4 261.2 472.9 261.2C467.7 261.2 467.7 260.8 467.8 260.2C468.1 258.6 477 259.8 475.2 258.4C473.2 257.1 463.9 258.3 464.2 256.6Z" fill="#FFBE9D"/>
<g opacity="0.3">
<g opacity="0.3">
<path opacity="0.3" d="M482 221.1C485.6 217.5 488.6 213.3 490.8 208.7C489.4 212.5 487.9 216.4 488 220.4C488 221.6 488.1 223 487.3 223.8C485.7 222.6 483.9 221.7 482 221.1Z" fill="black"/>
</g>
</g>
<path d="M520.3 148.199V150.699L519.8 188.399C519.7 192.799 515.9 196.199 511.3 196.099C506.6 195.999 502.7 192.299 502.7 187.899C502.7 183.299 502.6 178.399 502.6 178.399C502.6 178.399 496.6 177.399 495.4 169.599C494.8 165.699 495 159.399 495.3 154.199C495.6 149.499 499.7 145.999 504.4 146.499L520.3 148.199Z" fill="#FFBE9D"/>
<path d="M497 159C497 159.5 497.4 160 498 160C498.5 160 499 159.6 499 159.1C499 158.6 498.6 158.1 498 158.1C497.5 158 497 158.4 497 159Z" fill="#263238"/>
<path d="M496.6 157.5C496.7 157.6 497.5 157.1 498.6 157.1C499.7 157.1 500.5 157.6 500.6 157.5C500.7 157.4 500.5 157.2 500.2 157C499.9 156.8 499.3 156.5 498.6 156.5C497.9 156.5 497.4 156.8 497 157C496.7 157.2 496.5 157.4 496.6 157.5Z" fill="#263238"/>
<path d="M507.2 159C507.2 159.5 507.6 160 508.2 160C508.8 160 509.2 159.6 509.2 159.1C509.2 158.6 508.8 158.1 508.2 158.1C507.6 158 507.2 158.4 507.2 159Z" fill="#263238"/>
<path d="M507.2 157.699C507.3 157.799 508.1 157.299 509.2 157.299C510.3 157.299 511.1 157.799 511.2 157.699C511.3 157.599 511.1 157.399 510.8 157.199C510.5 156.999 509.9 156.699 509.2 156.699C508.5 156.699 508 156.999 507.6 157.199C507.2 157.399 507.1 157.599 507.2 157.699Z" fill="#263238"/>
<path d="M503.3 165.699C503.3 165.599 502.6 165.499 501.6 165.399C501.3 165.399 501.1 165.299 501 165.099C500.9 164.899 501.1 164.599 501.2 164.299C501.5 163.599 501.7 162.899 502 162.199C503.1 159.199 503.9 156.799 503.8 156.699C503.7 156.699 502.7 158.999 501.5 161.999C501.2 162.699 501 163.399 500.7 164.099C500.6 164.399 500.4 164.799 500.6 165.199C500.7 165.399 500.9 165.599 501.1 165.599C501.3 165.699 501.4 165.699 501.6 165.699C502.6 165.699 503.3 165.699 503.3 165.699Z" fill="#263238"/>
<path d="M502.5 178.4C502.5 178.4 507.7 178.7 512.9 175.6C512.9 175.6 510.4 181 502.6 180.2L502.5 178.4Z" fill="#EB996E"/>
<path d="M503.7 168.299C504.1 167.799 504.8 167.499 505.4 167.599C505.9 167.699 506.3 167.899 506.6 168.299C506.9 168.699 506.9 169.199 506.7 169.599C506.4 169.999 505.8 170.099 505.3 169.999C504.8 169.899 504.3 169.499 503.9 169.199C503.8 169.099 503.7 168.999 503.6 168.899C503.6 168.599 503.6 168.399 503.7 168.299Z" fill="#E8505B"/>
<path d="M506.4 166.399C506.2 166.399 506.2 167.599 505.2 168.399C504.2 169.199 503 169.099 502.9 169.299C502.9 169.399 503.2 169.499 503.7 169.499C504.2 169.499 505 169.399 505.6 168.799C506.2 168.299 506.5 167.599 506.5 167.099C506.7 166.699 506.5 166.399 506.4 166.399Z" fill="#263238"/>
<path d="M521.6 183.9C519.3 183.1 516.6 182.3 515.7 180C514.8 177.7 514.9 175.2 515.5 172.8C515.8 171.7 516.2 170.5 515.8 169.5C515.5 168.8 514.7 168.3 514.1 167.8C512.7 166.6 512 164.7 511.9 162.9C511.8 161.1 512.2 159.2 512.9 157.5C513.3 156.6 513.7 155.5 513.4 154.6C513.2 153.9 512.6 153.4 512 153C510.9 152 510 150.7 509.3 149.4C508.8 148.4 508.5 147.3 508.9 146.3C509.5 145.1 510.9 144.8 512.2 144.7C515.3 144.5 518.7 145.1 520.7 147.5C522.5 149.6 522.7 152.6 522.8 155.4C523.2 164.1 523.6 173 522.1 181.6" fill="#263238"/>
<path d="M492.3 147.3C492.7 147.6 493.2 147.7 493.6 148C494 148.3 494.3 148.6 494.7 149C494.9 149.2 495.1 149.4 495.3 149.6C495.4 149.7 495.4 149.7 495.4 149.8L495.6 150C495.8 150.2 496 150.3 496.1 150.5C496.5 150.9 497 151.3 497.8 151.8C498.5 152.3 499.5 152.8 500.7 153.1C503 153.6 505.1 153.1 506.6 152.4C508.2 151.6 509.2 150.7 509.8 149.8C511.1 148 511.3 146.6 510.7 145.8C510.1 145 508.6 145.1 506.8 145.6C505.9 145.8 505 146 504.2 146.1C503.4 146.2 502.6 146.2 502.2 146C502 146 501.7 145.9 501.3 145.7C500.9 145.5 500.3 145.2 499.7 144.9C499.4 144.8 499.1 144.6 498.7 144.5C498.5 144.4 498.3 144.4 498.2 144.3C498 144.2 497.8 144.2 497.6 144.1C496.8 143.9 496 143.8 495.3 143.9C493.8 144 492.6 144.8 492.1 145.6C491.7 146.4 491.9 147 492.3 147.3Z" fill="#263238"/>
<path d="M506.9 153.5C507 153.8 508.1 153.7 509.3 153.8C510.6 153.9 511.6 154.3 511.8 154C511.9 153.9 511.7 153.6 511.3 153.3C510.9 153 510.2 152.7 509.5 152.7C508.7 152.6 508 152.7 507.6 152.9C507.1 153.1 506.9 153.3 506.9 153.5Z" fill="#263238"/>
<path d="M497 154.4C497.2 154.6 497.9 154.4 498.8 154.4C499.7 154.4 500.4 154.6 500.6 154.3C500.7 154.2 500.6 153.9 500.2 153.7C499.9 153.5 499.3 153.3 498.7 153.3C498.1 153.3 497.6 153.5 497.2 153.8C497 154 496.9 154.3 497 154.4Z" fill="#263238"/>
<path d="M49.4001 419.3L47.1001 428.4L62.7001 430.2L63.3001 421.1L49.4001 419.3Z" fill="#455A64"/>
<path d="M56.4001 419.7C56.5001 419.7 56.3001 421.6 55.9001 423.9C55.5001 426.2 55.1001 428.1 54.9001 428C54.8001 428 55.0001 426.1 55.4001 423.8C55.9001 421.5 56.3001 419.7 56.4001 419.7Z" fill="#263238"/>
<path d="M62.8001 429.2C62.8001 429.3 61.9001 429.1 60.5001 428.9C59.0001 428.7 57.1001 428.4 55.1001 428.1C53.0001 427.8 51.1001 427.5 49.7001 427.2C48.3001 426.9 47.5001 426.7 47.5001 426.6C47.5001 426.5 48.4001 426.7 49.8001 426.9C51.3001 427.1 53.2001 427.4 55.2001 427.7C57.3001 428 59.2001 428.3 60.6001 428.6C62.0001 428.9 62.8001 429.1 62.8001 429.2Z" fill="#263238"/>
<path d="M120.6 425.4L120.4 419.7H103.5L103.6 429.9H104.6C109.3 430.1 128.3 430.4 131.4 429.3C135 428.3 120.6 425.4 120.6 425.4Z" fill="#455A64"/>
<path d="M103.4 429.6C103.4 429.6 103.5 429.6 103.7 429.6C104 429.6 104.2 429.6 104.5 429.6C105.3 429.6 106.4 429.6 107.6 429.7C110.2 429.7 113.8 429.7 117.7 429.7C121.7 429.6 125.2 429.5 127.8 429.3C129 429.2 130 429.2 130.9 429.1C131.2 429.1 131.5 429.1 131.7 429C131.9 429 132 429 132 429C132 429 131.9 429 131.7 429C131.4 429 131.2 429 130.9 429C130.1 429 129 429.1 127.8 429.1C125.2 429.2 121.6 429.3 117.7 429.4C113.7 429.5 110.2 429.5 107.6 429.5C106.4 429.5 105.4 429.5 104.5 429.5C104.2 429.5 103.9 429.5 103.7 429.5C103.5 429.6 103.4 429.6 103.4 429.6Z" fill="#263238"/>
<path d="M126.2 429.5C126.3 429.5 126.3 428.8 126.7 428C127.1 427.2 127.8 426.9 127.7 426.8C127.7 426.7 127 427.1 126.5 427.9C126.1 428.8 126.2 429.6 126.2 429.5Z" fill="#263238"/>
<path d="M121.508 426.365C121.279 426.743 121.132 427.073 121.18 427.102C121.227 427.13 121.45 426.847 121.679 426.469C121.907 426.09 122.054 425.761 122.007 425.732C121.96 425.704 121.736 425.987 121.508 426.365Z" fill="#263238"/>
<path d="M120.257 425.931C119.975 426.195 119.778 426.443 119.815 426.483C119.853 426.523 120.112 426.341 120.394 426.077C120.676 425.812 120.874 425.565 120.836 425.525C120.798 425.484 120.539 425.666 120.257 425.931Z" fill="#263238"/>
<path d="M119.745 424.808C119.248 424.813 118.846 424.862 118.846 424.918C118.847 424.973 119.25 425.013 119.747 425.008C120.244 425.003 120.647 424.954 120.646 424.898C120.645 424.843 120.242 424.803 119.745 424.808Z" fill="#263238"/>
<path d="M118.6 423.7C118.6 423.8 119 423.9 119.6 424C120.2 424 120.6 423.9 120.6 423.8C120.6 423.7 120.1 423.8 119.6 423.8C119 423.8 118.6 423.7 118.6 423.7Z" fill="#263238"/>
<path d="M121.7 425.6C121.7 425.6 122.1 425.7 122.8 425.6C123.1 425.6 123.5 425.5 124 425.3C124.2 425.2 124.4 425.2 124.7 425C124.8 424.9 124.9 424.8 125 424.7C125 424.5 125 424.4 124.8 424.3C123.8 423.8 122.7 424.4 122.4 424.9C122.2 425.2 122.1 425.4 122.1 425.6C122.1 425.8 122.1 425.9 122.1 425.9C122.1 425.9 122.2 425.5 122.6 425C122.8 424.8 123.1 424.5 123.5 424.4C123.9 424.3 124.4 424.2 124.8 424.5C125 424.6 124.9 424.8 124.7 424.9C124.5 425 124.3 425.1 124.1 425.2C123.7 425.4 123.3 425.5 123 425.5C122.1 425.6 121.7 425.6 121.7 425.6Z" fill="#263238"/>
<path d="M122 425.7C122 425.7 122.2 425.4 122.1 424.9C122.1 424.7 122 424.4 121.8 424.1C121.6 423.9 121.3 423.5 120.9 423.6C120.6 423.6 120.5 423.9 120.6 424.1C120.6 424.3 120.7 424.5 120.8 424.6C121 424.9 121.2 425.1 121.3 425.2C121.6 425.6 121.9 425.7 122 425.7C121.9 425.7 121.7 425.5 121.4 425.2C121.2 425 121.1 424.8 120.9 424.6C120.7 424.4 120.6 424 120.9 423.9C121.2 423.9 121.5 424.1 121.6 424.3C121.8 424.5 121.9 424.8 121.9 425C122.1 425.4 122 425.7 122 425.7Z" fill="#263238"/>
<path d="M103.7 424.9C103.7 424.9 104.2 424.8 104.9 424.9C105.7 425 106.7 425.3 107.6 426C108.5 426.7 109.1 427.7 109.4 428.4C109.7 429.1 109.7 429.6 109.7 429.6C109.7 429.6 109.7 429.5 109.7 429.3C109.7 429.1 109.6 428.8 109.5 428.4C109.3 427.7 108.7 426.7 107.7 425.9C106.7 425.2 105.6 424.9 104.8 424.9C104.4 424.9 104.1 424.9 103.9 424.9C103.8 424.9 103.7 424.9 103.7 424.9Z" fill="#263238"/>
<path d="M111.9 428C111.9 428.1 113 428.2 114.4 428.2C115.8 428.2 116.9 428 116.9 427.9C116.9 427.8 115.8 427.9 114.4 427.9C113 428 111.9 427.9 111.9 428Z" fill="#263238"/>
<path d="M108.6 428.1C108.6 428.1 108.7 428.3 108.8 428.6C108.9 428.8 109 429.1 109 429.1C109.1 429.1 109.1 428.8 108.9 428.5C108.8 428.2 108.6 428 108.6 428.1Z" fill="#263238"/>
<path d="M107.758 426.748C107.56 426.555 107.368 426.432 107.33 426.471C107.291 426.511 107.421 426.699 107.619 426.891C107.817 427.084 108.009 427.207 108.047 427.168C108.086 427.128 107.956 426.94 107.758 426.748Z" fill="#263238"/>
<path d="M105.5 425.9C105.5 426 105.7 426 106 426C106.3 426.1 106.4 426.2 106.5 426.2C106.5 426.2 106.4 425.9 106.1 425.8C105.7 425.7 105.5 425.8 105.5 425.9Z" fill="#263238"/>
<path d="M104.505 425.52C104.349 425.463 104.208 425.459 104.189 425.511C104.17 425.563 104.281 425.651 104.437 425.707C104.592 425.764 104.734 425.768 104.753 425.716C104.772 425.664 104.661 425.576 104.505 425.52Z" fill="#263238"/>
<path d="M182.4 205.5L177.6 207.8L173.2 200.9L175.8 195.5C176 195 176.3 194.4 176.6 193.8C176.9 193.1 177.1 192.3 177.2 191.4C177.3 190.4 177.3 189.1 177.1 188.4C176.9 187.5 177.8 186.8 178.4 187.3C179 187.8 179.8 190.3 179.3 193.2C178.8 196.1 182.3 193 183.5 191.9C184.8 190.8 188.9 187.5 189.5 187.6C190.4 187.8 190.4 188.9 189.1 189.9C187.8 191 184.1 194.5 184.8 195.2C186.3 195.4 187.6 196.5 187.9 198C188.2 199.5 188.5 201.5 187.7 202.1C186.2 203.5 182.4 205.5 182.4 205.5Z" fill="#B78876"/>
<path d="M89.3001 140.8L89.2001 182.5L107.1 183.4L107.6 173.3C107.6 173.3 114 174.6 115.6 168.7C116.6 164.9 116.4 135.8 116.4 135.8L89.3001 140.8Z" fill="#B78876"/>
<path d="M120.4 139.8C119.2 142.3 113.5 146.8 113.5 146.8L110.9 153.7C108.6 151.9 105.6 152 105.1 156C104.7 158.9 108.2 159.4 108.2 159.4C106.1 162.9 104.7 165.8 101.7 169.1C98.4001 172.7 96.6001 173.1 93.1001 173.1H89.2001C89.2001 173.1 81.2001 166.4 82.8001 148.9C84.4001 131.3 100.2 136.5 103.9 132.1C110 125.1 124.4 131.5 120.4 139.8Z" fill="#263238"/>
<path d="M83.7001 163.7C83.7001 163.7 83.9001 163.7 84.2001 163.7C84.5001 163.7 85.0001 163.7 85.6001 163.5C86.8001 163.3 88.5001 162.5 90.2001 161.1C91.9001 159.6 93.3001 157.4 94.8001 154.9C96.3001 152.4 98.0001 149.5 100.8 147.5C102.2 146.5 103.8 146 105.4 145.6C107 145.2 108.5 144.9 109.9 144.7C112.8 144.2 115.4 143.4 117.1 142C118.9 140.7 119.7 139 120 137.8C120.3 136.6 120.1 135.9 120.2 135.9C120.2 135.9 120.2 136.1 120.3 136.4C120.3 136.7 120.3 137.2 120.2 137.8C119.9 139 119.1 140.7 117.3 142.1C115.5 143.5 112.9 144.3 110 144.9C107.1 145.5 103.8 145.9 101 147.8C98.2001 149.7 96.5001 152.6 95.0001 155.1C93.5001 157.6 92.0001 159.9 90.3001 161.3C88.6001 162.8 86.9001 163.5 85.6001 163.7C84.4001 163.9 83.7001 163.7 83.7001 163.7Z" fill="#455A64"/>
<path d="M82.7001 149.5C82.7001 149.5 83.0001 149.4 83.5001 149.2C84.0001 149 84.9001 148.7 86.0001 148.6C87.1001 148.5 88.5001 148.5 89.8001 149.4C90.4001 149.8 91.0001 150.6 91.2001 151.5C91.4001 152.4 91.2001 153.4 90.4001 154.1C90.0001 154.4 89.5001 154.6 89.0001 154.7C88.5001 154.7 87.9001 154.6 87.5001 154.3C86.6001 153.8 85.8001 152.8 85.4001 151.7C84.6001 149.5 85.2001 146.6 87.2001 144.9C88.2001 144 89.4001 143.4 90.8001 143.3C92.2001 143.2 93.6001 143.5 94.9001 143.8C96.3001 144.2 97.6001 144.6 99.1001 144.8C100.5 145 102 145 103.5 144.8C105 144.6 106.4 144.3 107.7 143.6C109 143 110.1 142 110.5 140.7C110.9 139.4 110.5 137.9 109.6 137C108.7 136.1 107.1 135.9 106 136.5C105.4 136.8 104.9 137.2 104.7 137.7C104.4 138.2 104.3 138.9 104.4 139.5C104.6 140.7 105.3 141.7 106.2 142.4C107.2 143 108.3 143.3 109.3 143.3C110.4 143.3 111.4 143.1 112.3 142.9C114.2 142.3 115.6 141.3 116.7 140.2C117.8 139.1 118.5 138 119 137C119.5 136 119.7 135.2 119.8 134.6C119.9 134 120 133.7 120 133.7C120 133.7 120 134 119.9 134.6C119.8 135.2 119.6 136 119.1 137C118.6 138 117.9 139.2 116.8 140.3C115.7 141.4 114.2 142.5 112.3 143.1C111.4 143.4 110.3 143.6 109.3 143.6C108.2 143.6 107.1 143.3 106.1 142.7C105.1 142.1 104.4 141 104.2 139.7C104.1 139.1 104.2 138.4 104.5 137.8C104.8 137.2 105.3 136.7 105.9 136.5C107.1 135.9 108.7 136.1 109.7 137.1C110.7 138.1 111.1 139.6 110.7 141C110.3 142.4 109.1 143.5 107.8 144.1C106.5 144.7 105 145.1 103.5 145.3C102 145.5 100.5 145.5 99.1001 145.3C97.6001 145.1 96.3001 144.7 94.9001 144.3C93.6001 143.9 92.2001 143.6 90.9001 143.8C89.6001 143.9 88.3001 144.5 87.4001 145.4C85.4001 147.1 84.9001 149.9 85.7001 152C86.0001 153.1 86.8001 154 87.7001 154.5C88.2001 154.8 88.7001 154.9 89.2001 154.9C89.7001 154.9 90.2001 154.7 90.5001 154.4C91.2001 153.8 91.4001 152.7 91.3001 151.9C91.2001 151 90.6001 150.4 90.0001 149.9C88.7001 149 87.3001 148.9 86.2001 149.1C85.1001 149.2 84.3001 149.5 83.8001 149.6C83.0001 149.4 82.7001 149.5 82.7001 149.5Z" fill="#455A64"/>
<path d="M71.0001 262.9L47.1001 419.3L66.9001 421.8L94.8001 290.6L101.8 422.7L123.3 422.3L119.6 258.9L71.0001 262.9Z" fill="black"/>
<path d="M101.4 423.2V422.7L94.6001 294.5L67.4001 422.4L46.7001 419.8L70.6001 262.6H71.0001L120.2 258.5V259L123.9 422.9L101.4 423.2ZM95.1001 286.8L102.3 422.1L122.7 421.7L119.1 259.3L71.4001 263.3L47.7001 418.7L66.5001 421.1L95.1001 286.8Z" fill="#263238"/>
<path d="M116.9 422C116.8 422 116.6 390.7 116.6 352C116.6 313.4 116.7 282 116.9 282C117 282 117.2 313.3 117.2 352C117.2 390.7 117 422 116.9 422Z" fill="#455A64"/>
<path d="M62.6001 421.5C62.6001 421.5 62.6001 421.4 62.6001 421.2C62.6001 420.9 62.7001 420.6 62.8001 420.2C63.0001 419.3 63.2001 418 63.5001 416.4C64.2001 413.1 65.1001 408.3 66.3001 402.4C68.7001 390.6 72.1001 374.4 76.0001 356.4C79.9001 338.5 83.6001 322.3 86.3001 310.6C87.7001 304.8 88.8001 300.1 89.6001 296.7C90.0001 295.1 90.3001 293.8 90.5001 292.9C90.6001 292.5 90.7001 292.2 90.8001 291.9C90.9001 291.7 90.9001 291.6 90.9001 291.6C90.9001 291.6 90.9001 291.7 90.8001 291.9C90.7001 292.1 90.7001 292.5 90.6001 292.9C90.4001 293.8 90.1001 295.1 89.8001 296.7C89.1001 300 88.0001 304.7 86.7001 310.6C84.1001 322.3 80.4001 338.5 76.5001 356.5C72.6001 374.4 69.1001 390.7 66.7001 402.4C65.5001 408.3 64.5001 413 63.8001 416.3C63.4001 417.9 63.2001 419.2 63.0001 420.1C62.9001 420.5 62.8001 420.8 62.8001 421.1C62.6001 421.4 62.6001 421.5 62.6001 421.5Z" fill="#455A64"/>
<path d="M101.8 290.5C101.8 290.6 100.5 290.7 98.4001 290.8C96.3001 290.9 93.4001 291.1 90.3001 291.4C87.1001 291.7 84.3001 292.1 82.2001 292.4C80.1001 292.7 78.8001 292.8 78.8001 292.7C78.8001 292.6 80.1001 292.4 82.1001 292C84.2001 291.6 87.0001 291.2 90.2001 290.8C93.4001 290.5 96.3001 290.4 98.4001 290.3C100.5 290.4 101.8 290.4 101.8 290.5Z" fill="#455A64"/>
<path d="M120.1 280.3C120.1 280.4 119.2 280.6 117.8 280.6C116.3 280.6 114.3 280.1 112.4 278.7C110.6 277.4 109.4 275.6 108.9 274.2C108.4 272.8 108.4 271.9 108.4 271.9C108.5 271.9 108.6 272.8 109.2 274.1C109.8 275.4 110.9 277.1 112.6 278.3C114.4 279.6 116.3 280.1 117.7 280.2C119.2 280.4 120.1 280.3 120.1 280.3Z" fill="#455A64"/>
<path d="M68.6001 271.8H120.7L118.7 229.7C118.4 221.4 118.4 220.4 118.2 212.8C118.2 212.8 126 222.2 132.1 228.8C135.8 232.8 141.7 233.9 146.6 231.6L178.6 209.3L172.6 194L143.5 211.8C142.2 211 130.8 194.8 123 186.9C118 181.9 111.2 178.9 104.1 178.7C98.7001 178.5 92.2001 178.8 86.4001 179.4C77.6001 180.3 70.7001 187.4 70.0001 196.2C69.4001 203 69.9001 210.8 69.9001 224.1L68.6001 271.8Z" fill="#FF9700"/>
<path d="M77.0001 183.2C72.1001 185.4 51.6001 211.7 50.1001 228.7C49.0001 241.4 73.8001 240 73.8001 240C73.8001 240 75.5001 187.8 74.7001 188.5" fill="#FF9700"/>
<path d="M72.0001 187.7C72.0001 187.7 72.0001 187.9 72.0001 188.2C72.0001 188.6 71.9001 189.1 71.9001 189.8C71.8001 191.2 71.7001 193.1 71.5001 195.5C71.2001 200.4 71.0001 207.1 70.8001 214.5C70.6001 221.9 70.4001 228.6 70.1001 233.5C70.0001 235.9 69.9001 237.9 69.8001 239.3C69.7001 239.9 69.7001 240.4 69.7001 240.9C69.7001 241.3 69.6001 241.4 69.6001 241.4C69.6001 241.4 69.6001 241.2 69.6001 240.9C69.6001 240.5 69.7001 240 69.7001 239.3C69.8001 237.9 69.9001 235.9 70.0001 233.5C70.2001 228.6 70.4001 221.9 70.6001 214.5C70.8001 207.1 71.1001 200.4 71.4001 195.5C71.5001 193.1 71.7001 191.1 71.8001 189.8C71.9001 189.2 71.9001 188.7 72.0001 188.2C71.9001 187.9 72.0001 187.7 72.0001 187.7Z" fill="#263238"/>
<path d="M69.9001 221.2C69.9001 221.2 69.7001 221.6 69.2001 222.2C68.7001 222.8 68.1001 223.6 67.3001 224.4C66.5001 225.2 65.8001 226 65.3001 226.5C64.8001 227 64.4001 227.3 64.4001 227.3C64.4001 227.3 64.7001 226.9 65.2001 226.4C65.7001 225.9 66.4001 225.1 67.2001 224.3C68.0001 223.5 68.6001 222.7 69.1001 222.1C69.6001 221.5 69.9001 221.2 69.9001 221.2Z" fill="#263238"/>
<path d="M142.3 216.9C142.2 216.9 142.5 215.7 142.8 214.3C143.1 212.9 143.4 211.8 143.5 211.8C143.6 211.8 143.3 213 143 214.4C142.6 215.8 142.3 216.9 142.3 216.9Z" fill="#263238"/>
<path d="M144.425 214.45C144.793 216.066 145.135 217.365 145.189 217.353C145.243 217.341 144.988 216.021 144.62 214.406C144.251 212.791 143.909 211.491 143.855 211.503C143.801 211.515 144.056 212.835 144.425 214.45Z" fill="#263238"/>
<path d="M119.5 214.1C119.5 214.1 119.4 214 119.2 213.8C119 213.6 118.7 213.3 118.4 213C117.7 212.3 116.6 211.3 115.4 209.9C113 207.3 109.5 203.4 107.6 198.2C106.6 195.6 106.2 192.9 106.4 190.5C106.5 188.1 107 185.9 107.8 184.3C108.6 182.7 109.7 181.6 110.5 181C110.9 180.7 111.2 180.5 111.5 180.4C111.7 180.3 111.9 180.2 111.9 180.2C111.9 180.2 111.4 180.5 110.6 181.1C109.8 181.7 108.8 182.8 108 184.4C107.2 186 106.8 188.2 106.7 190.5C106.6 192.9 107 195.5 107.9 198.1C109.8 203.3 113.2 207.1 115.6 209.8C116.8 211.1 117.9 212.2 118.6 212.9C118.9 213.2 119.2 213.5 119.4 213.7C119.4 214 119.5 214.1 119.5 214.1Z" fill="#263238"/>
<path d="M81.9619 197.27C82.9225 198.481 83.8065 199.38 83.9364 199.277C84.0662 199.174 83.3927 198.109 82.4321 196.897C81.4715 195.685 80.5875 194.786 80.4576 194.889C80.3278 194.992 81.0013 196.058 81.9619 197.27Z" fill="#FAFAFA"/>
<path d="M93.7973 216.341C95.322 214.82 96.4632 213.491 96.3462 213.374C96.2292 213.257 94.8982 214.395 93.3735 215.916C91.8487 217.438 90.7076 218.766 90.8246 218.883C90.9416 219.001 92.2725 217.862 93.7973 216.341Z" fill="#FAFAFA"/>
<path d="M108.4 233.7C108.3 233.7 107.8 232.5 107 231.1C106.2 229.7 105.4 228.7 105.5 228.6C105.6 228.5 106.6 229.4 107.5 230.8C108.3 232.3 108.5 233.6 108.4 233.7Z" fill="#FAFAFA"/>
<path d="M77.2001 231.4C77.1001 231.5 76.3001 229.7 75.9001 227.4C75.5001 225.1 75.7001 223.2 75.8001 223.2C76.0001 223.2 76.0001 225.1 76.4001 227.3C76.8001 229.5 77.3001 231.3 77.2001 231.4Z" fill="#FAFAFA"/>
<path d="M93.8001 240.3C93.7001 240.4 93.0001 238.9 92.8001 236.9C92.6001 234.9 93.0001 233.4 93.1001 233.4C93.3001 233.4 93.1001 235 93.3001 236.8C93.5001 238.8 93.9001 240.2 93.8001 240.3Z" fill="#FAFAFA"/>
<path d="M83.4207 251.291C85.4346 252.55 87.1383 253.457 87.2261 253.316C87.3139 253.176 85.7526 252.041 83.7387 250.782C81.7249 249.523 80.0212 248.617 79.9333 248.757C79.8455 248.898 81.4069 250.032 83.4207 251.291Z" fill="#FAFAFA"/>
<path d="M113 249.4C113.1 249.5 111.2 250.5 109.1 251.8C106.9 253.2 105.3 254.4 105.2 254.3C105.1 254.2 106.6 252.7 108.8 251.4C111 250 112.9 249.3 113 249.4Z" fill="#FAFAFA"/>
<path d="M76.5552 263.608C78.7759 264.051 80.6024 264.279 80.6348 264.116C80.6672 263.954 78.8933 263.463 76.6727 263.02C74.452 262.577 72.6255 262.349 72.5931 262.512C72.5607 262.674 74.3346 263.165 76.5552 263.608Z" fill="#FAFAFA"/>
<path d="M99.5001 266.8C99.4001 266.9 98.4001 265.9 97.6001 264.3C96.8001 262.8 96.5001 261.3 96.6001 261.3C96.7001 261.3 97.3001 262.5 98.1001 264C98.8001 265.5 99.6001 266.7 99.5001 266.8Z" fill="#FAFAFA"/>
<path d="M116.127 264.505C116.906 263.573 117.435 262.731 117.307 262.625C117.18 262.518 116.446 263.188 115.667 264.121C114.888 265.053 114.359 265.895 114.486 266.001C114.613 266.107 115.348 265.438 116.127 264.505Z" fill="#FAFAFA"/>
<path d="M80.1612 209.053C81.1257 208.409 81.833 207.775 81.741 207.637C81.649 207.499 80.7925 207.91 79.8281 208.554C78.8636 209.198 78.1563 209.832 78.2483 209.969C78.3403 210.107 79.1968 209.697 80.1612 209.053Z" fill="#FAFAFA"/>
<path d="M95.2001 192.6C95.1001 192.6 94.3001 190.8 93.7001 188.5C93.1001 186.2 92.8001 184.2 92.9001 184.2C93.0001 184.2 93.5001 186.1 94.2001 188.4C94.9001 190.6 95.4001 192.5 95.2001 192.6Z" fill="#FAFAFA"/>
<path d="M108.2 206.3C108.1 206.4 107 206 105.5 205.7C104 205.4 102.8 205.4 102.8 205.2C102.8 205.1 104.1 204.9 105.6 205.2C107.1 205.5 108.2 206.2 108.2 206.3Z" fill="#FAFAFA"/>
<path d="M117.1 194.6C117.1 194.7 115.7 195 114 194.8C112.3 194.5 111.1 193.9 111.1 193.7C111.2 193.6 112.4 194 114.1 194.2C115.7 194.5 117.1 194.5 117.1 194.6Z" fill="#FAFAFA"/>
<path d="M126.2 207.6C126.1 207.6 126 205.6 126.4 203.2C126.8 200.8 127.5 198.9 127.6 199C127.7 199 127.3 200.9 126.9 203.3C126.5 205.7 126.4 207.6 126.2 207.6Z" fill="#FAFAFA"/>
<path d="M133.967 220.373C135.466 221.92 136.778 223.08 136.897 222.965C137.016 222.849 135.897 221.502 134.398 219.956C132.899 218.409 131.587 217.249 131.468 217.364C131.349 217.48 132.468 218.827 133.967 220.373Z" fill="#FAFAFA"/>
<path d="M144.474 224.487C145.372 223.095 145.987 221.893 145.848 221.803C145.708 221.714 144.868 222.77 143.97 224.162C143.072 225.555 142.458 226.757 142.597 226.846C142.736 226.936 143.577 225.88 144.474 224.487Z" fill="#FAFAFA"/>
<path d="M154.321 213.698C155.165 215.437 155.97 216.788 156.119 216.716C156.269 216.644 155.705 215.175 154.861 213.436C154.017 211.697 153.212 210.346 153.063 210.418C152.914 210.49 153.478 211.959 154.321 213.698Z" fill="#FAFAFA"/>
<path d="M166.547 210.609C168.559 210.967 170.214 211.125 170.243 210.961C170.272 210.798 168.664 210.376 166.652 210.018C164.64 209.66 162.986 209.503 162.957 209.666C162.928 209.829 164.535 210.251 166.547 210.609Z" fill="#FAFAFA"/>
<path d="M59.8818 222.221C58.9642 224.17 58.3419 225.807 58.4918 225.877C58.6417 225.948 59.5071 224.425 60.4246 222.477C61.3422 220.528 61.9645 218.891 61.8146 218.821C61.6647 218.75 60.7994 220.273 59.8818 222.221Z" fill="#FAFAFA"/>
<path d="M63.3976 210.382C64.6529 211.778 65.7704 212.82 65.8936 212.71C66.0168 212.599 65.0991 211.377 63.8438 209.98C62.5885 208.584 61.471 207.542 61.3478 207.652C61.2246 207.763 62.1423 208.985 63.3976 210.382Z" fill="#FAFAFA"/>
<path d="M64.074 235.236C64.8385 234.6 65.3723 233.982 65.2664 233.855C65.1605 233.727 64.4549 234.139 63.6905 234.774C62.926 235.41 62.3921 236.028 62.498 236.156C62.6039 236.283 63.3095 235.871 64.074 235.236Z" fill="#FAFAFA"/>
<path d="M67.1489 200.07C67.6664 199.423 67.9811 198.815 67.8517 198.711C67.7223 198.608 67.1979 199.048 66.6804 199.695C66.1629 200.342 65.8482 200.951 65.9776 201.054C66.107 201.158 66.6314 200.717 67.1489 200.07Z" fill="#FAFAFA"/>
<g opacity="0.3">
<g opacity="0.3">
<path opacity="0.3" d="M109.6 202.4C113 213 115.6 224.2 119 234.8L118.2 212.8C115 209.9 112.2 206.4 109.6 202.4Z" fill="black"/>
</g>
</g>
<g opacity="0.3">
<g opacity="0.3">
<path opacity="0.3" d="M69.3001 240.1C66.8001 228.3 67.1001 216.1 71.3001 204.8L69.3001 240.1Z" fill="black"/>
</g>
</g>
</svg>
